<?xml version="1.0" encoding="UTF-8" standalone="no"?>
<svg
   xmlns:dc="http://purl.org/dc/elements/1.1/"
   xmlns:cc="http://creativecommons.org/ns#"
   xmlns:rdf="http://www.w3.org/1999/02/22-rdf-syntax-ns#"
   xmlns:svg="http://www.w3.org/2000/svg"
   xmlns="http://www.w3.org/2000/svg"
   viewBox="0 0 828 604"
   height="604"
   width="828"
   xml:space="preserve"
   id="svg10"
   version="1.1"><metadata
     id="metadata16"><rdf:RDF><cc:Work
         rdf:about=""><dc:format>image/svg+xml</dc:format><dc:type
           rdf:resource="http://purl.org/dc/dcmitype/StillImage" /><dc:title></dc:title></cc:Work></rdf:RDF></metadata><defs
     id="defs14"><clipPath
       id="clipPath28"
       clipPathUnits="userSpaceOnUse"><path
         id="path26"
         d="M 0,0 H 621 V 453 H 0 Z" /></clipPath></defs><g
     transform="matrix(1.3333333,0,0,-1.3333333,0,604)"
     id="g18"><g
       id="g20" /><g
       id="g22"><g
         clip-path="url(#clipPath28)"
         id="g24"><path
           id="path30"
           style="fill:#ffffff;fill-opacity:1;fill-rule:nonzero;stroke:none"
           d="M 0,453 H 621 V 0 H 0 Z" /></g></g><g
       id="g32"><g
         transform="matrix(7.874016e-5,0,0,-7.874016e-5,160.5,399.5)"
         id="g34"><path
           id="path36"
           style="fill:none;stroke:#660066;stroke-width:12700;stroke-linecap:butt;stroke-linejoin:round;stroke-miterlimit:10;stroke-dasharray:none;stroke-opacity:1"
           d="M 0,1581150 C 0,707904.9 707904.9,0 1581150,0 c 873245,0 1581150,707904.9 1581150,1581150 0,873245 -707905,1581150 -1581150,1581150 C 707904.9,3162300 0,2454395 0,1581150 Z" /></g><g
         transform="matrix(7.874016e-5,0,0,-7.874016e-5,123.5,397.5)"
         id="g38"><path
           id="path40"
           style="fill:none;stroke:#ffffff;stroke-width:12700;stroke-linecap:butt;stroke-linejoin:round;stroke-miterlimit:10;stroke-dasharray:none;stroke-opacity:1"
           d="M 0,0 H 1562100 V 368300 H 0 Z" /></g><g
         transform="translate(173.2805,-77)"
         id="g42"><text
           id="text46"
           style="font-variant:normal;font-weight:bold;font-size:18px;font-family:Arial;-inkscape-font-specification:Arial-BoldMT;writing-mode:lr-tb;fill:#660066;fill-opacity:1;fill-rule:nonzero;stroke:none"
           transform="matrix(1,0,0,-1,0,453)"><tspan
             id="tspan44"
             y="0"
             x="0 12.9996">H1</tspan></text></g><g
         transform="translate(515.5373,-148)"
         id="g48"><text
           id="text52"
           style="font-variant:normal;font-weight:bold;font-size:40px;font-family:Arial;-inkscape-font-specification:Arial-BoldMT;writing-mode:lr-tb;fill:#000000;fill-opacity:1;fill-rule:nonzero;stroke:none"
           transform="matrix(1,0,0,-1,0,453)"><tspan
             id="tspan50"
             y="0"
             x="0 24 46 59">data</tspan></text></g><g
         transform="translate(15.49087,-35)"
         id="g54"><text
           id="text58"
           style="font-variant:normal;font-weight:normal;font-size:24px;font-family:Arial;-inkscape-font-specification:ArialMT;writing-mode:lr-tb;fill:#000000;fill-opacity:1;fill-rule:nonzero;stroke:none"
           transform="matrix(1,0,0,-1,0,453)"><tspan
             id="tspan56"
             y="0"
             x="0">p</tspan></text></g><g
         transform="translate(28.49087,-35)"
         id="g60"><text
           id="text64"
           style="font-variant:normal;font-weight:normal;font-size:24px;font-family:Arial;-inkscape-font-specification:ArialMT;writing-mode:lr-tb;fill:#000000;fill-opacity:1;fill-rule:nonzero;stroke:none"
           transform="matrix(1,0,0,-1,0,453)"><tspan
             id="tspan62"
             y="0"
             x="0 7.9991999 20.9904 33.981602 40.972801 53.964001">(data|</tspan></text></g><g
         transform="translate(88.49087,-35)"
         id="g66"><text
           id="text70"
           style="font-variant:normal;font-weight:bold;font-size:24px;font-family:Arial;-inkscape-font-specification:Arial-BoldMT;writing-mode:lr-tb;fill:#ff6600;fill-opacity:1;fill-rule:nonzero;stroke:none"
           transform="matrix(1,0,0,-1,0,453)"><tspan
             id="tspan68"
             y="0"
             x="0 16.999201">H3</tspan></text></g><g
         transform="translate(118.4909,-35)"
         id="g72"><text
           id="text76"
           style="font-variant:normal;font-weight:normal;font-size:24px;font-family:Arial;-inkscape-font-specification:ArialMT;writing-mode:lr-tb;fill:#000000;fill-opacity:1;fill-rule:nonzero;stroke:none"
           transform="matrix(1,0,0,-1,0,453)"><tspan
             id="tspan74"
             y="0"
             x="0 7.9991999 17.006399 31.0056">) = </tspan></text></g><g
         transform="matrix(7.874016e-5,0,0,-7.874016e-5,223.5,249.5)"
         id="g78"><path
           id="path80"
           style="fill:none;stroke:#008000;stroke-width:12700;stroke-linecap:butt;stroke-linejoin:round;stroke-miterlimit:10;stroke-dasharray:none;stroke-opacity:1"
           d="M 0,1581150 C 0,707904.9 707904.9,0 1581150,0 c 873245,0 1581150,707904.9 1581150,1581150 0,873245 -707905,1581150 -1581150,1581150 C 707904.9,3162300 0,2454395 0,1581150 Z" /></g><g
         transform="translate(194.9465,-325)"
         id="g82"><text
           id="text86"
           style="font-variant:normal;font-weight:bold;font-size:18px;font-family:Arial;-inkscape-font-specification:Arial-BoldMT;writing-mode:lr-tb;fill:#008000;fill-opacity:1;fill-rule:nonzero;stroke:none"
           transform="matrix(1,0,0,-1,0,453)"><tspan
             id="tspan84"
             y="0"
             x="0 12.9996">H2</tspan></text></g><g
         transform="matrix(-7.874016e-5,0,0,7.874016e-5,403,152)"
         id="g88"><path
           id="path90"
           style="fill:none;stroke:#ffffff;stroke-width:76200;stroke-linecap:butt;stroke-linejoin:round;stroke-miterlimit:10;stroke-dasharray:none;stroke-opacity:1"
           d="M 0,1092200 C 26120.12,1005792 52241.25,919383.1 94034.04,840831 135826.8,762278.9 180232.8,707291.7 250757.8,620884.3 321283.8,534475.8 407480.5,406172.8 517187.2,322383.4 626893.9,238594.1 767945,170515.4 908996.1,118147.3 1050047,65779.22 1222442,23883.55 1363494,8172.931 1504545,-7537.693 1614251,317.6191 1755302,23883.55 1896354,47449.49 2134051,131238.8 2209800,149567.5" /></g><g
         transform="matrix(7.874016e-5,0,0,-7.874016e-5,262.5,399.5)"
         id="g92"><path
           id="path94"
           style="fill:none;stroke:#000000;stroke-width:12700;stroke-linecap:butt;stroke-linejoin:round;stroke-miterlimit:10;stroke-dasharray:none;stroke-opacity:1"
           d="M 0,1581150 C 0,707904.9 707904.9,0 1581150,0 c 873245,0 1581150,707904.9 1581150,1581150 0,873245 -707905,1581150 -1581150,1581150 C 707904.9,3162300 0,2454395 0,1581150 Z" /></g><g
         transform="translate(472.6824,-77)"
         id="g96"><text
           id="text100"
           style="font-variant:normal;font-weight:bold;font-size:18px;font-family:Arial;-inkscape-font-specification:Arial-BoldMT;writing-mode:lr-tb;fill:#e46c0a;fill-opacity:1;fill-rule:nonzero;stroke:none"
           transform="matrix(1,0,0,-1,0,453)"><tspan
             id="tspan98"
             y="0"
             x="0 12.9996">H3</tspan></text></g><path
         id="path102"
         style="fill:#7f7f7f;fill-opacity:1;fill-rule:nonzero;stroke:none"
         d="m 190,453 h 27 v -21 h -27 z" /><g
         transform="matrix(7.874016e-5,0,0,-7.874016e-5,151,426)"
         id="g104"><path
           id="path106"
           style="fill:none;stroke:#000000;stroke-width:25400;stroke-linecap:butt;stroke-linejoin:round;stroke-miterlimit:10;stroke-dasharray:none;stroke-opacity:1"
           d="M 0,0 1306946,1" /></g><path
         id="path108"
         style="fill:#e46c0a;fill-opacity:1;fill-rule:nonzero;stroke:none"
         d="m 188,421 h 28 v -22 h -28 z" /><path
         id="path110"
         style="fill:#7f7f7f;fill-opacity:1;fill-rule:evenodd;stroke:none"
         d="m 337.0953,390.8135 c 1.5844,4.7528 22.3258,7.4893 34.569,8.6414 12.2432,1.1522 26.935,0.4321 38.8901,-1.7283 11.9551,-2.1603 21.8937,-5.3288 32.8405,-11.2337 10.9469,-5.905 24.3424,-15.8425 32.8406,-24.1959 8.4982,-8.3533 12.5313,-15.5545 18.1487,-25.9241 5.6174,-10.3696 12.8194,-24.0517 15.5561,-36.2937 2.7366,-12.2419 2.4486,-24.4839 0.8642,-37.1579 -1.5844,-12.674 -4.1771,-26.0681 -10.3707,-38.8861 -6.1937,-12.8181 -20.3093,-29.9568 -26.791,-38.0221 -6.4817,-8.0653 -10.0826,-8.9294 -12.0992,-10.3696 -2.0165,-1.4403 1.0083,-0.2881 0,1.7282 -1.0082,2.0163 -2.3045,4.8968 -6.0495,10.3697 -3.745,5.4729 -10.3708,15.9865 -16.4203,22.4675 -6.0495,6.481 -13.8276,11.8099 -19.8772,16.4186 -6.0495,4.6088 -14.2597,7.6332 -16.4202,11.2338 -2.1606,3.6006 2.4487,4.3207 3.4569,10.3697 1.0082,6.0489 2.7368,16.4185 2.5927,25.9241 -0.1441,9.5055 -0.8643,20.7393 -3.457,31.1089 -2.5926,10.3696 -8.3541,23.3317 -12.0991,31.1089 -3.745,7.7772 -5.1853,9.7936 -10.3707,15.5545 -5.1854,5.7608 -12.6753,12.53 -20.7414,19.011 -8.0661,6.481 -26.647,15.1223 -25.0625,19.8751 z" /><g
         transform="matrix(7.874016e-5,0,0,-7.874016e-5,337,400)"
         id="g112"><path
           id="path114"
           style="fill:none;stroke:#e46c0a;stroke-width:76200;stroke-linecap:butt;stroke-linejoin:round;stroke-miterlimit:10;stroke-dasharray:none;stroke-opacity:1"
           d="M 1210.091,116668.5 C 21332.49,56308.5 284748.3,21554.72 440236.5,6922.289 595724.7,-7710.143 782311.3,1435.378 934141.1,28871.94 1085971,56308.5 1212190,96548.19 1351216,171540.7 c 139025,74992.4 309147,201199.4 417075,307287 107927,106087.7 159147,197542.9 230489,329236.7 71341,131694 162806,305456.6 197561,460929.6 34756,155473 31099,310946 10976,471906 -20122,160959 -53049,331064 -131708,493854 -78659,162789 -257928,380451 -340245,482880 -82318,102429 -128049,113403 -153660,131694 -25609,18291 12805,3658 0,-21949 -12804,-25607 -29268,-62189 -76829,-131695 -47561,-69505 -131709,-203028 -208538,-285337 -76829,-82309 -175610,-149986 -252440,-208517 -76828.8,-58530 -181098.1,-96941 -208537.2,-142669 -27439.1,-45727 31098.4,-54873 43903.1,-131695 12804.7,-76821 34756.8,-208515 32927.2,-329235 C 910360.4,1477511 901214,1334841 868286.9,1203147 835359.8,1071453 762188.9,906834.9 714627.4,808064.4 667065.9,709294.1 648774.2,683685.8 582920,610522.6 517065.8,537359.4 421943.8,451391.2 319504.1,369082.5 217064.5,286773.8 -18912.31,177028.6 1210.091,116668.5 Z" /></g></g></g></svg>
