<?xml version="1.0" encoding="UTF-8" standalone="no"?>
<svg
   xmlns:dc="http://purl.org/dc/elements/1.1/"
   xmlns:cc="http://creativecommons.org/ns#"
   xmlns:rdf="http://www.w3.org/1999/02/22-rdf-syntax-ns#"
   xmlns:svg="http://www.w3.org/2000/svg"
   xmlns="http://www.w3.org/2000/svg"
   viewBox="0 0 913.33331 586.66669"
   height="586.66669"
   width="913.33331"
   xml:space="preserve"
   id="svg88"
   version="1.1"><metadata
     id="metadata94"><rdf:RDF><cc:Work
         rdf:about=""><dc:format>image/svg+xml</dc:format><dc:type
           rdf:resource="http://purl.org/dc/dcmitype/StillImage" /><dc:title></dc:title></cc:Work></rdf:RDF></metadata><defs
     id="defs92"><clipPath
       id="clipPath106"
       clipPathUnits="userSpaceOnUse"><path
         id="path104"
         d="M 0,0 H 685 V 440 H 0 Z" /></clipPath></defs><g
     transform="matrix(1.3333333,0,0,-1.3333333,0,586.66667)"
     id="g96"><g
       id="g98" /><g
       id="g100"><g
         clip-path="url(#clipPath106)"
         id="g102"><path
           id="path108"
           style="fill:#ffffff;fill-opacity:1;fill-rule:nonzero;stroke:none"
           d="M 0,440 H 685 V 0 H 0 Z" /></g></g><g
       id="g110"><path
         id="path112"
         style="fill:#660066;fill-opacity:1;fill-rule:nonzero;stroke:none"
         d="m 201.5,275 c 0,68.7595 55.7405,124.5 124.5,124.5 68.7594,0 124.5,-55.7405 124.5,-124.5 0,-68.7594 -55.7406,-124.5 -124.5,-124.5 -68.7595,0 -124.5,55.7406 -124.5,124.5 z" /><g
         transform="matrix(7.874016e-5,0,0,-7.874016e-5,201.5,399.5)"
         id="g114"><path
           id="path116"
           style="fill:none;stroke:#660066;stroke-width:12700;stroke-linecap:butt;stroke-linejoin:round;stroke-miterlimit:10;stroke-dasharray:none;stroke-opacity:1"
           d="M 0,1581150 C 0,707904.9 707904.9,0 1581150,0 c 873245,0 1581150,707904.9 1581150,1581150 0,873245 -707905,1581150 -1581150,1581150 C 707904.9,3162300 0,2454395 0,1581150 Z" /></g><g
         transform="translate(297.6766,-139)"
         id="g118"><text
           id="text122"
           style="font-variant:normal;font-weight:bold;font-size:18px;font-family:Arial;-inkscape-font-specification:Arial-BoldMT;writing-mode:lr-tb;fill:#ffffff;fill-opacity:1;fill-rule:nonzero;stroke:none"
           transform="matrix(1,0,0,-1,0,440)"><tspan
             id="tspan120"
             y="0"
             x="0 12.9996">H1</tspan></text></g><path
         id="path124"
         style="fill:#008000;fill-opacity:1;fill-rule:nonzero;stroke:none"
         d="m 264.5,125 c 0,68.7595 55.7405,124.5 124.5,124.5 68.7594,0 124.5,-55.7405 124.5,-124.5 C 513.5,56.24056 457.7594,0.500002 389,0.500002 320.2405,0.500002 264.5,56.24056 264.5,125 Z" /><g
         transform="matrix(7.874016e-5,0,0,-7.874016e-5,264.5,249.5)"
         id="g126"><path
           id="path128"
           style="fill:none;stroke:#008000;stroke-width:12700;stroke-linecap:butt;stroke-linejoin:round;stroke-miterlimit:10;stroke-dasharray:none;stroke-opacity:1"
           d="M 0,1581150 C 0,707904.9 707904.9,0 1581150,0 c 873245,0 1581150,707904.9 1581150,1581150 0,873245 -707905,1581150 -1581150,1581150 C 707904.9,3162300 0,2454395 0,1581150 Z" /></g><g
         transform="translate(375.5628,-308)"
         id="g130"><text
           id="text134"
           style="font-variant:normal;font-weight:bold;font-size:18px;font-family:Arial;-inkscape-font-specification:Arial-BoldMT;writing-mode:lr-tb;fill:#ffffff;fill-opacity:1;fill-rule:nonzero;stroke:none"
           transform="matrix(1,0,0,-1,0,440)"><tspan
             id="tspan132"
             y="0"
             x="0 12.9996">H2</tspan></text></g><path
         id="path136"
         style="fill:#e46c0a;fill-opacity:1;fill-rule:evenodd;stroke:none"
         d="m 378.0953,390.8135 c 1.5844,4.7528 22.3258,7.4893 34.569,8.6414 12.2432,1.1522 26.935,0.4321 38.8901,-1.7283 11.9551,-2.1603 21.8937,-5.3288 32.8405,-11.2337 10.9469,-5.905 24.3424,-15.8425 32.8406,-24.1959 8.4982,-8.3533 12.5313,-15.5545 18.1487,-25.9241 5.6174,-10.3696 12.8194,-24.0517 15.5561,-36.2937 2.7366,-12.2419 2.4486,-24.4839 0.8642,-37.1579 -1.5844,-12.674 -4.1771,-26.0681 -10.3707,-38.8861 -6.1937,-12.8181 -20.3093,-29.9568 -26.791,-38.0221 -6.4817,-8.0653 -10.0826,-8.9294 -12.0992,-10.3696 -2.0165,-1.4403 1.0083,-0.2881 0,1.7282 -1.0082,2.0163 -2.3045,4.8968 -6.0495,10.3697 -3.745,5.4729 -10.3708,15.9865 -16.4203,22.4675 -6.0495,6.481 -13.8276,11.8099 -19.8772,16.4186 -6.0495,4.6088 -14.2597,7.6332 -16.4202,11.2338 -2.1606,3.6006 2.4487,4.3207 3.4569,10.3697 1.0082,6.0489 2.7368,16.4185 2.5927,25.9241 -0.1441,9.5055 -0.8643,20.7393 -3.457,31.1089 -2.5926,10.3696 -8.3541,23.3317 -12.0991,31.1089 -3.745,7.7772 -5.1853,9.7936 -10.3707,15.5545 -5.1854,5.7608 -12.6753,12.53 -20.7414,19.011 -8.0661,6.481 -26.647,15.1223 -25.0625,19.8751 z" /><g
         transform="matrix(7.874016e-5,0,0,-7.874016e-5,378,400)"
         id="g138"><path
           id="path140"
           style="fill:none;stroke:#e46c0a;stroke-width:25400;stroke-linecap:butt;stroke-linejoin:round;stroke-miterlimit:10;stroke-dasharray:none;stroke-opacity:1"
           d="M 1210.091,116668.5 C 21332.49,56308.5 284748.3,21554.72 440236.5,6922.289 595724.7,-7710.143 782311.3,1435.378 934141.1,28871.94 1085971,56308.5 1212190,96548.19 1351216,171540.7 c 139025,74992.4 309147,201199.4 417075,307287 107927,106087.7 159147,197542.9 230489,329236.7 71341,131694 162806,305456.6 197561,460929.6 34756,155473 31099,310946 10976,471906 -20122,160959 -53049,331064 -131708,493854 -78659,162789 -257928,380451 -340245,482880 -82318,102429 -128049,113403 -153660,131694 -25609,18291 12805,3658 0,-21949 -12804,-25607 -29268,-62189 -76829,-131695 -47561,-69505 -131709,-203028 -208538,-285337 -76829,-82309 -175610,-149986 -252440,-208517 -76828.8,-58530 -181098.1,-96941 -208537.2,-142669 -27439.1,-45727 31098.4,-54873 43903.1,-131695 12804.7,-76821 34756.8,-208515 32927.2,-329235 C 910360.4,1477511 901214,1334841 868286.9,1203147 835359.8,1071453 762188.9,906834.9 714627.4,808064.4 667065.9,709294.1 648774.2,683685.8 582920,610522.6 517065.8,537359.4 421943.8,451391.2 319504.1,369082.5 217064.5,286773.8 -18912.31,177028.6 1210.091,116668.5 Z" /></g><g
         transform="translate(476.5694,-136)"
         id="g142"><text
           id="text146"
           style="font-variant:normal;font-weight:bold;font-size:18px;font-family:Arial;-inkscape-font-specification:Arial-BoldMT;writing-mode:lr-tb;fill:#ffffff;fill-opacity:1;fill-rule:nonzero;stroke:none"
           transform="matrix(1,0,0,-1,0,440)"><tspan
             id="tspan144"
             y="0"
             x="0 12.9996">H3</tspan></text></g><path
         id="path148"
         style="fill:#660066;fill-opacity:1;fill-rule:nonzero;stroke:none"
         d="m 132,389 h 27 v -22 h -27 z" /><path
         id="path150"
         style="fill:#e46c0a;fill-opacity:1;fill-rule:nonzero;stroke:none"
         d="m 134,355 h 27 v -21 h -27 z" /><g
         transform="matrix(7.874016e-5,0,0,-7.874016e-5,75,361)"
         id="g152"><path
           id="path154"
           style="fill:none;stroke:#000000;stroke-width:25400;stroke-linecap:butt;stroke-linejoin:round;stroke-miterlimit:10;stroke-dasharray:none;stroke-opacity:1"
           d="M 0,0 1807420,1" /></g><g
         transform="translate(118.1824,-100)"
         id="g156"><text
           id="text160"
           style="font-variant:normal;font-weight:normal;font-size:18px;font-family:Arial;-inkscape-font-specification:ArialMT;writing-mode:lr-tb;fill:#000000;fill-opacity:1;fill-rule:nonzero;stroke:none"
           transform="matrix(1,0,0,-1,0,440)"><tspan
             id="tspan158"
             y="0"
             x="0">+</tspan></text></g><path
         id="path162"
         style="fill:#660066;fill-opacity:1;fill-rule:nonzero;stroke:none"
         d="m 84,356 h 27 V 335 H 84 Z" /><path
         id="path164"
         style="fill:#008000;fill-opacity:1;fill-rule:nonzero;stroke:none"
         d="m 184,354 h 27 v -22 h -27 z" /><g
         transform="translate(168.1804,-100)"
         id="g166"><text
           id="text170"
           style="font-variant:normal;font-weight:normal;font-size:18px;font-family:Arial;-inkscape-font-specification:ArialMT;writing-mode:lr-tb;fill:#000000;fill-opacity:1;fill-rule:nonzero;stroke:none"
           transform="matrix(1,0,0,-1,0,440)"><tspan
             id="tspan168"
             y="0"
             x="0">+</tspan></text></g><g
         transform="translate(11.22409,-85)"
         id="g172"><text
           id="text176"
           style="font-variant:normal;font-weight:normal;font-size:18px;font-family:Arial;-inkscape-font-specification:ArialMT;writing-mode:lr-tb;fill:#000000;fill-opacity:1;fill-rule:nonzero;stroke:none"
           transform="matrix(1,0,0,-1,0,440)"><tspan
             id="tspan174"
             y="0"
             x="0">p</tspan></text></g><g
         transform="translate(21.22409,-85)"
         id="g178"><text
           id="text182"
           style="font-variant:normal;font-weight:normal;font-size:18px;font-family:Arial;-inkscape-font-specification:ArialMT;writing-mode:lr-tb;fill:#000000;fill-opacity:1;fill-rule:nonzero;stroke:none"
           transform="matrix(1,0,0,-1,0,440)"><tspan
             id="tspan180"
             y="0"
             x="0">(</tspan></text></g><g
         transform="translate(27.22409,-85)"
         id="g184"><text
           id="text188"
           style="font-variant:normal;font-weight:bold;font-size:18px;font-family:Arial;-inkscape-font-specification:Arial-BoldMT;writing-mode:lr-tb;fill:#660066;fill-opacity:1;fill-rule:nonzero;stroke:none"
           transform="matrix(1,0,0,-1,0,440)"><tspan
             id="tspan186"
             y="0"
             x="0 12.9996">H1</tspan></text></g><g
         transform="translate(50.22409,-85)"
         id="g190"><text
           id="text194"
           style="font-variant:normal;font-weight:normal;font-size:18px;font-family:Arial;-inkscape-font-specification:ArialMT;writing-mode:lr-tb;fill:#000000;fill-opacity:1;fill-rule:nonzero;stroke:none"
           transform="matrix(1,0,0,-1,0,440)"><tspan
             id="tspan192"
             y="0"
             x="0 5.9994001 10.9908">) =</tspan></text></g><path
         id="path196"
         style="fill:#008000;fill-opacity:1;fill-rule:nonzero;stroke:none"
         d="m 171,121 h 27 v -21 h -27 z" /><path
         id="path198"
         style="fill:#e46c0a;fill-opacity:1;fill-rule:nonzero;stroke:none"
         d="m 171,88 h 27 V 66 h -27 z" /><g
         transform="matrix(7.874016e-5,0,0,-7.874016e-5,111,94)"
         id="g200"><path
           id="path202"
           style="fill:none;stroke:#000000;stroke-width:25400;stroke-linecap:butt;stroke-linejoin:round;stroke-miterlimit:10;stroke-dasharray:none;stroke-opacity:1"
           d="M 0,0 1807420,1" /></g><g
         transform="translate(154.601,-368)"
         id="g204"><text
           id="text208"
           style="font-variant:normal;font-weight:normal;font-size:18px;font-family:Arial;-inkscape-font-specification:ArialMT;writing-mode:lr-tb;fill:#000000;fill-opacity:1;fill-rule:nonzero;stroke:none"
           transform="matrix(1,0,0,-1,0,440)"><tspan
             id="tspan206"
             y="0"
             x="0">+</tspan></text></g><path
         id="path210"
         style="fill:#660066;fill-opacity:1;fill-rule:nonzero;stroke:none"
         d="m 121,89 h 27 V 67 h -27 z" /><path
         id="path212"
         style="fill:#008000;fill-opacity:1;fill-rule:nonzero;stroke:none"
         d="m 221,86 h 27 V 65 h -27 z" /><g
         transform="translate(204.5991,-367)"
         id="g214"><text
           id="text218"
           style="font-variant:normal;font-weight:normal;font-size:18px;font-family:Arial;-inkscape-font-specification:ArialMT;writing-mode:lr-tb;fill:#000000;fill-opacity:1;fill-rule:nonzero;stroke:none"
           transform="matrix(1,0,0,-1,0,440)"><tspan
             id="tspan216"
             y="0"
             x="0">+</tspan></text></g><g
         transform="translate(47.64276,-353)"
         id="g220"><text
           id="text224"
           style="font-variant:normal;font-weight:normal;font-size:18px;font-family:Arial;-inkscape-font-specification:ArialMT;writing-mode:lr-tb;fill:#000000;fill-opacity:1;fill-rule:nonzero;stroke:none"
           transform="matrix(1,0,0,-1,0,440)"><tspan
             id="tspan222"
             y="0"
             x="0">p</tspan></text></g><g
         transform="translate(57.64276,-353)"
         id="g226"><text
           id="text230"
           style="font-variant:normal;font-weight:normal;font-size:18px;font-family:Arial;-inkscape-font-specification:ArialMT;writing-mode:lr-tb;fill:#000000;fill-opacity:1;fill-rule:nonzero;stroke:none"
           transform="matrix(1,0,0,-1,0,440)"><tspan
             id="tspan228"
             y="0"
             x="0">(</tspan></text></g><g
         transform="translate(63.64276,-353)"
         id="g232"><text
           id="text236"
           style="font-variant:normal;font-weight:bold;font-size:18px;font-family:Arial;-inkscape-font-specification:Arial-BoldMT;writing-mode:lr-tb;fill:#008000;fill-opacity:1;fill-rule:nonzero;stroke:none"
           transform="matrix(1,0,0,-1,0,440)"><tspan
             id="tspan234"
             y="0"
             x="0 12.9996">H2</tspan></text></g><g
         transform="translate(86.64275,-353)"
         id="g238"><text
           id="text242"
           style="font-variant:normal;font-weight:normal;font-size:18px;font-family:Arial;-inkscape-font-specification:ArialMT;writing-mode:lr-tb;fill:#000000;fill-opacity:1;fill-rule:nonzero;stroke:none"
           transform="matrix(1,0,0,-1,0,440)"><tspan
             id="tspan240"
             y="0"
             x="0 5.9994001 10.9908">) =</tspan></text></g><path
         id="path244"
         style="fill:#e46c0a;fill-opacity:1;fill-rule:nonzero;stroke:none"
         d="m 600,440 h 27 v -22 h -27 z" /><path
         id="path246"
         style="fill:#e46c0a;fill-opacity:1;fill-rule:nonzero;stroke:none"
         d="m 600,406 h 27 v -21 h -27 z" /><g
         transform="matrix(7.874016e-5,0,0,-7.874016e-5,541,412)"
         id="g248"><path
           id="path250"
           style="fill:none;stroke:#000000;stroke-width:25400;stroke-linecap:butt;stroke-linejoin:round;stroke-miterlimit:10;stroke-dasharray:none;stroke-opacity:1"
           d="M 0,0 1807420,1" /></g><g
         transform="translate(584.0105,-49)"
         id="g252"><text
           id="text256"
           style="font-variant:normal;font-weight:normal;font-size:18px;font-family:Arial;-inkscape-font-specification:ArialMT;writing-mode:lr-tb;fill:#000000;fill-opacity:1;fill-rule:nonzero;stroke:none"
           transform="matrix(1,0,0,-1,0,440)"><tspan
             id="tspan254"
             y="0"
             x="0">+</tspan></text></g><path
         id="path258"
         style="fill:#660066;fill-opacity:1;fill-rule:nonzero;stroke:none"
         d="m 550,407 h 27 v -21 h -27 z" /><path
         id="path260"
         style="fill:#008000;fill-opacity:1;fill-rule:nonzero;stroke:none"
         d="m 650,405 h 27 v -22 h -27 z" /><g
         transform="translate(634.0085,-49)"
         id="g262"><text
           id="text266"
           style="font-variant:normal;font-weight:normal;font-size:18px;font-family:Arial;-inkscape-font-specification:ArialMT;writing-mode:lr-tb;fill:#000000;fill-opacity:1;fill-rule:nonzero;stroke:none"
           transform="matrix(1,0,0,-1,0,440)"><tspan
             id="tspan264"
             y="0"
             x="0">+</tspan></text></g><g
         transform="translate(477.0522,-34)"
         id="g268"><text
           id="text272"
           style="font-variant:normal;font-weight:normal;font-size:18px;font-family:Arial;-inkscape-font-specification:ArialMT;writing-mode:lr-tb;fill:#000000;fill-opacity:1;fill-rule:nonzero;stroke:none"
           transform="matrix(1,0,0,-1,0,440)"><tspan
             id="tspan270"
             y="0"
             x="0">p</tspan></text></g><g
         transform="translate(487.0522,-34)"
         id="g274"><text
           id="text278"
           style="font-variant:normal;font-weight:normal;font-size:18px;font-family:Arial;-inkscape-font-specification:ArialMT;writing-mode:lr-tb;fill:#000000;fill-opacity:1;fill-rule:nonzero;stroke:none"
           transform="matrix(1,0,0,-1,0,440)"><tspan
             id="tspan276"
             y="0"
             x="0">(</tspan></text></g><g
         transform="translate(493.0522,-34)"
         id="g280"><text
           id="text284"
           style="font-variant:normal;font-weight:bold;font-size:18px;font-family:Arial;-inkscape-font-specification:Arial-BoldMT;writing-mode:lr-tb;fill:#e46c0a;fill-opacity:1;fill-rule:nonzero;stroke:none"
           transform="matrix(1,0,0,-1,0,440)"><tspan
             id="tspan282"
             y="0"
             x="0 12.9996">H3</tspan></text></g><g
         transform="translate(516.0522,-34)"
         id="g286"><text
           id="text290"
           style="font-variant:normal;font-weight:normal;font-size:18px;font-family:Arial;-inkscape-font-specification:ArialMT;writing-mode:lr-tb;fill:#000000;fill-opacity:1;fill-rule:nonzero;stroke:none"
           transform="matrix(1,0,0,-1,0,440)"><tspan
             id="tspan288"
             y="0"
             x="0 5.9994001 10.9908">) =</tspan></text></g></g></g></svg>
