<?xml version="1.0" encoding="UTF-8" standalone="no"?>
<svg
   xmlns:dc="http://purl.org/dc/elements/1.1/"
   xmlns:cc="http://creativecommons.org/ns#"
   xmlns:rdf="http://www.w3.org/1999/02/22-rdf-syntax-ns#"
   xmlns:svg="http://www.w3.org/2000/svg"
   xmlns="http://www.w3.org/2000/svg"
   viewBox="0 0 380 389.33334"
   height="389.33334"
   width="380"
   xml:space="preserve"
   id="svg10"
   version="1.1"><metadata
     id="metadata16"><rdf:RDF><cc:Work
         rdf:about=""><dc:format>image/svg+xml</dc:format><dc:type
           rdf:resource="http://purl.org/dc/dcmitype/StillImage" /><dc:title></dc:title></cc:Work></rdf:RDF></metadata><defs
     id="defs14"><clipPath
       id="clipPath28"
       clipPathUnits="userSpaceOnUse"><path
         id="path26"
         d="M 0,0 H 285 V 292 H 0 Z" /></clipPath><clipPath
       id="clipPath38"
       clipPathUnits="userSpaceOnUse"><path
         id="path36"
         d="M 8,232 H 285 V -3.423309e-6 H 8 Z" /></clipPath><clipPath
       id="clipPath44"
       clipPathUnits="userSpaceOnUse"><path
         id="path42"
         d="M 8,6.67572e-6 H 285 V 232.00001 H 8 Z" /></clipPath></defs><g
     transform="matrix(1.3333333,0,0,-1.3333333,0,389.33333)"
     id="g18"><g
       id="g20" /><g
       id="g22"><g
         clip-path="url(#clipPath28)"
         id="g24"><path
           id="path30"
           style="fill:#ffffff;fill-opacity:1;fill-rule:nonzero;stroke:none"
           d="M 0,292 H 285 V 0 H 0 Z" /></g></g><g
       id="g32"><g
         clip-path="url(#clipPath38)"
         id="g34"><g
           clip-path="url(#clipPath44)"
           id="g40"><path
             id="path46"
             style="fill:#ffffff;fill-opacity:0;fill-rule:evenodd;stroke:none"
             d="M 8,232 H 285 V 6.67572e-6 H 8 Z" /><g
             transform="matrix(4.572542e-5,0,0,-4.566929e-5,30.21226,231.4003)"
             id="g48"><path
               id="path50"
               style="fill:none;stroke:#7b1979;stroke-width:12700;stroke-linecap:butt;stroke-linejoin:round;stroke-miterlimit:10;stroke-dasharray:none;stroke-opacity:1"
               d="M 0,1579563 C 0,707194.6 707194.4,0.144165 1579563,0.144165 2451932,0.144165 3159126,707194.6 3159126,1579563 c 0,872369 -707194,1579563 -1579563,1579563 C 707194.4,3159126 0,2451932 0,1579563 Z" /></g><g
             transform="matrix(4.572542e-5,0,0,-4.566929e-5,8.76142,230.291)"
             id="g52"><path
               id="path54"
               style="fill:none;stroke:#ffffff;stroke-width:12700;stroke-linecap:butt;stroke-linejoin:round;stroke-miterlimit:10;stroke-dasharray:none;stroke-opacity:1"
               d="M -4.310608e-4,-0.02832031 H 1564498 V 369332.1 H -4.310608e-4 Z" /></g><g
             transform="matrix(0.5807128,0,0,0.58,12.94255,228.203)"
             id="g56"><text
               id="text60"
               style="font-variant:normal;font-weight:bold;font-size:18px;font-family:Calibri;-inkscape-font-specification:Calibri-Bold;writing-mode:lr-tb;fill:#660066;fill-opacity:1;fill-rule:nonzero;stroke:none"
               transform="matrix(1,0,0,-1,44.38574,-18)"><tspan
                 id="tspan58"
                 y="0"
                 x="0 11.3562 20.4804">H1	</tspan></text></g><g
             transform="matrix(0.5807128,0,0,0.58,236.6773,198.886)"
             id="g62"><text
               id="text66"
               style="font-variant:normal;font-weight:bold;font-size:40px;font-family:Calibri;-inkscape-font-specification:Calibri-Bold;writing-mode:lr-tb;fill:#000000;fill-opacity:1;fill-rule:nonzero;stroke:none"
               transform="matrix(1,0,0,-1,0,-40)"><tspan
                 id="tspan64"
                 y="0"
                 x="0 21.464001 41.208 55.071999 74.816002">data	</tspan></text></g><g
             transform="matrix(4.572542e-5,0,0,-4.566929e-5,66.82911,144.6903)"
             id="g68"><path
               id="path70"
               style="fill:none;stroke:#008f00;stroke-width:12700;stroke-linecap:butt;stroke-linejoin:round;stroke-miterlimit:10;stroke-dasharray:none;stroke-opacity:1"
               d="M 0.01940918,1579563 C 0.01940918,707194.4 707194.4,-0.04962158 1579563,-0.04962158 2451931,-0.04962158 3159126,707194.4 3159126,1579563 c 0,872369 -707195,1579563 -1579563,1579563 C 707194.4,3159126 0.01940918,2451932 0.01940918,1579563 Z" /></g><g
             transform="matrix(-4.572542e-5,0,0,4.566929e-5,171.4614,87.68556)"
             id="g72"><path
               id="path74"
               style="fill:none;stroke:#ffffff;stroke-width:76200;stroke-linecap:butt;stroke-linejoin:round;stroke-miterlimit:10;stroke-dasharray:none;stroke-opacity:1"
               d="M -0.1616211,1090071 C 26128.86,1003831 52258.66,917591.1 94065.8,839192 135872.9,760793.1 180293.9,705912.9 250842.7,619674 321393,533433.9 407618.8,405381.1 517362.8,321755 627106.9,238129.1 768205.9,170183 909304.8,117917.1 1050404,65651.06 1222858,23836.95 1363957,8157.091 1505056,-7522.96 1614800,317.0654 1755899,23836.95 1896998,47357.02 2134776,130983.1 2210551,149276" /></g><path
             id="path76"
             style="fill:#919191;fill-opacity:1;fill-rule:evenodd;stroke:none"
             d="m 89.44497,159.2627 c 0,39.8405 32.33673,72.1376 72.22613,72.1376 39.8895,0 72.2262,-32.2971 72.2262,-72.1376 0,-39.8404 -32.3367,-72.13747 -72.2262,-72.13747 -39.8894,0 -72.22613,32.29707 -72.22613,72.13747 z" /><g
             transform="matrix(4.572542e-5,0,0,-4.566929e-5,89.44497,231.4003)"
             id="g78"><path
               id="path80"
               style="fill:none;stroke:#919191;stroke-width:12700;stroke-linecap:butt;stroke-linejoin:round;stroke-miterlimit:10;stroke-dasharray:none;stroke-opacity:1"
               d="M 0,1579563 C 0,707194.6 707194.4,0.144165 1579563,0.144165 2451931,0.144165 3159126,707194.6 3159126,1579563 c 0,872369 -707195,1579563 -1579563,1579563 C 707194.4,3159126 0,2451932 0,1579563 Z" /></g><path
             id="path82"
             style="fill:#7b1979;fill-opacity:1;fill-rule:evenodd;stroke:none"
             d="m 131.0915,225.5354 c 1.7777,-0.7892 4.6089,-4.0115 7.5059,-5.9187 2.8971,-1.9071 7.3085,-3.6828 9.8764,-5.5242 2.5678,-1.8414 3.2263,-3.1566 5.5307,-5.5242 2.3045,-2.3675 5.9916,-5.7871 8.2961,-8.6808 2.3045,-2.8936 4.0822,-5.3268 5.5307,-8.6808 1.4486,-3.3539 2.107,-7.8916 3.1604,-11.4429 1.0535,-3.5512 2.5679,-6.116 3.1605,-9.8646 0.5926,-3.7485 0.5267,-8.7465 0.395,-12.6266 -0.1317,-3.8801 -0.5268,-7.3655 -1.1852,-10.6537 -0.6584,-3.2882 -1.5143,-7.9574 -2.7653,-9.0754 -1.251,-1.118 -2.8971,1.7099 -4.7406,2.3675 -1.8436,0.6576 -4.214,0.9864 -6.3209,1.5783 -2.1069,0.5919 -4.0822,1.4468 -6.3208,1.9729 -2.2386,0.5262 -4.6748,0.9207 -7.1109,1.1838 -2.4362,0.2631 -4.609,0.4603 -7.5061,0.3945 -2.897,-0.0657 -6.9134,-0.3945 -9.8762,-0.7891 -2.9629,-0.3946 -4.5432,-0.4603 -7.9011,-1.5784 -3.3579,-1.1179 -8.0327,-3.1566 -12.2466,-5.1295 -4.2139,-1.9729 -10.27132,-6.7737 -13.03674,-6.7079 -2.76535,0.0658 -2.6995,4.0116 -3.55547,7.1024 -0.85591,3.091 -1.11927,7.6944 -1.58018,11.443 -0.46085,3.7485 -1.05347,7.5628 -1.18512,11.0483 -0.1317,3.4855 -0.06585,6.7736 0.39501,9.8646 0.46085,3.0908 1.58023,5.9187 2.37029,8.6808 0.79012,2.762 1.25103,4.735 2.37035,7.8916 1.11927,3.1567 2.63371,7.6286 4.34559,11.0483 1.71187,3.4198 3.22617,6.2476 5.92577,9.47 2.6995,3.2224 6.3867,7.0368 10.2714,9.8646 3.8846,2.8278 10.0738,5.853 13.0367,7.1025 2.9628,1.2495 1.3827,1.9729 3.1604,1.1837 z" /><g
             transform="matrix(4.572542e-5,0,0,-4.566929e-5,89.15606,225.8644)"
             id="g84"><path
               id="path86"
               style="fill:none;stroke:#7b1979;stroke-width:12700;stroke-linecap:butt;stroke-linejoin:round;stroke-miterlimit:10;stroke-dasharray:none;stroke-opacity:1"
               d="M 917113.9,7203.825 C 955992,24484.17 1017910,95043.81 1081267,136804 c 63357,41759.9 159834,80640.1 215992,120960.1 56158,40320 70557,69119.8 120955,120960.1 50398,51839.8 131035,126719.8 181433,190079.9 50398,63360 89276,116639.7 120955,190079.8 31679,73440.1 46078,172799.9 69117,250560.1 23039,77760 56158,133920 69118,216000 12960,82080 11519,191520 8639,276480 -2880,84960 -11520,161280 -25919,233280 -14399,72000 -33118,174240 -60477,198720 -27359,24480 -63358,-37440 -103676,-51840 -40318,-14400 -92157,-21600 -138235,-34560 -46078,-12960 -89276,-31680 -138234,-43200 -48958,-11520 -102236,-20160 -155514,-25920 -53278,-5760 -100797,-10080 -164154,-8640 -63357,1440 -151193.9,8640 -215990.9,17280 -64797.1,8640 -99357.2,10080 -172794.2,34560 -73437,24480 -175673,69120 -267829,112320 -92156,43200 -224630.8,148320 -285108.9,146880 C 79065.88,2079364 80505.91,1992964 61786.9,1925284 43067.89,1857604 37307.97,1756804 27228.93,1674724 17149.9,1592644 4190.029,1509124 1309.972,1432804 -1570.084,1356484 -130.056,1284484 9948.979,1216804 20028.02,1149124 44507.92,1087204 61786.9,1026724 79065.88,966244.1 89145.89,923044.1 113625,853923.9 c 24479,-69119.8 57599,-167039.8 95037,-241919.8 37438.1,-74879.9 70556,-136800.2 129594.1,-207360.2 59037.8,-70560 139675,-154079.7 224631.8,-216000 C 647844.9,126724 783199.1,60483.91 847996.1,33123.95 912792.9,5763.99 878235.9,-10076.13 917113.9,7203.825 Z" /></g></g></g></g><g
       id="g88"><g
         transform="translate(15.15213,-31)"
         id="g90"><text
           id="text94"
           style="font-variant:normal;font-weight:normal;font-size:24px;font-family:Arial;-inkscape-font-specification:ArialMT;writing-mode:lr-tb;fill:#000000;fill-opacity:1;fill-rule:nonzero;stroke:none"
           transform="matrix(1,0,0,-1,0,292)"><tspan
             id="tspan92"
             y="0"
             x="0 16.000799 29.0016 41.001598 48.002399 61.003201 69.002403 74.001602 87.002403 95.001602 103.0008 117 123 136.00079">Posterior = p(</tspan></text></g><g
         transform="translate(159.1521,-31)"
         id="g96"><text
           id="text100"
           style="font-variant:normal;font-weight:bold;font-size:24px;font-family:Arial;-inkscape-font-specification:Arial-BoldMT;writing-mode:lr-tb;fill:#660066;fill-opacity:1;fill-rule:nonzero;stroke:none"
           transform="matrix(1,0,0,-1,0,292)"><tspan
             id="tspan98"
             y="0"
             x="0 16.999201">H1</tspan></text></g><g
         transform="translate(189.1521,-31)"
         id="g102"><text
           id="text106"
           style="font-variant:normal;font-weight:normal;font-size:24px;font-family:Arial;-inkscape-font-specification:ArialMT;writing-mode:lr-tb;fill:#000000;fill-opacity:1;fill-rule:nonzero;stroke:none"
           transform="matrix(1,0,0,-1,0,292)"><tspan
             id="tspan104"
             y="0"
             x="0 6 19.007999 32.015999 39.023998 52.032001">|data)</tspan></text></g></g></g></svg>
