<?xml version="1.0" encoding="UTF-8" standalone="no"?>
<svg
   xmlns:dc="http://purl.org/dc/elements/1.1/"
   xmlns:cc="http://creativecommons.org/ns#"
   xmlns:rdf="http://www.w3.org/1999/02/22-rdf-syntax-ns#"
   xmlns:svg="http://www.w3.org/2000/svg"
   xmlns="http://www.w3.org/2000/svg"
   viewBox="0 0 828 604"
   height="604"
   width="828"
   xml:space="preserve"
   id="svg10"
   version="1.1"><metadata
     id="metadata16"><rdf:RDF><cc:Work
         rdf:about=""><dc:format>image/svg+xml</dc:format><dc:type
           rdf:resource="http://purl.org/dc/dcmitype/StillImage" /><dc:title></dc:title></cc:Work></rdf:RDF></metadata><defs
     id="defs14"><clipPath
       id="clipPath28"
       clipPathUnits="userSpaceOnUse"><path
         id="path26"
         d="M 0,0 H 621 V 453 H 0 Z" /></clipPath></defs><g
     transform="matrix(1.3333333,0,0,-1.3333333,0,604)"
     id="g18"><g
       id="g20" /><g
       id="g22"><g
         clip-path="url(#clipPath28)"
         id="g24"><path
           id="path30"
           style="fill:#ffffff;fill-opacity:1;fill-rule:nonzero;stroke:none"
           d="M 0,453 H 621 V 0 H 0 Z" /></g></g><g
       id="g32"><g
         transform="matrix(7.874016e-5,0,0,-7.874016e-5,160.5,399.5)"
         id="g34"><path
           id="path36"
           style="fill:none;stroke:#660066;stroke-width:12700;stroke-linecap:butt;stroke-linejoin:round;stroke-miterlimit:10;stroke-dasharray:none;stroke-opacity:1"
           d="M 0,1581150 C 0,707904.9 707904.9,0 1581150,0 c 873245,0 1581150,707904.9 1581150,1581150 0,873245 -707905,1581150 -1581150,1581150 C 707904.9,3162300 0,2454395 0,1581150 Z" /></g><g
         transform="matrix(7.874016e-5,0,0,-7.874016e-5,123.5,397.5)"
         id="g38"><path
           id="path40"
           style="fill:none;stroke:#ffffff;stroke-width:12700;stroke-linecap:butt;stroke-linejoin:round;stroke-miterlimit:10;stroke-dasharray:none;stroke-opacity:1"
           d="M 0,0 H 1562100 V 368300 H 0 Z" /></g><g
         transform="translate(173.2805,-77)"
         id="g42"><text
           id="text46"
           style="font-variant:normal;font-weight:bold;font-size:18px;font-family:Arial;-inkscape-font-specification:Arial-BoldMT;writing-mode:lr-tb;fill:#660066;fill-opacity:1;fill-rule:nonzero;stroke:none"
           transform="matrix(1,0,0,-1,0,453)"><tspan
             id="tspan44"
             y="0"
             x="0 12.9996">H1</tspan></text></g><g
         transform="translate(515.5373,-148)"
         id="g48"><text
           id="text52"
           style="font-variant:normal;font-weight:bold;font-size:40px;font-family:Arial;-inkscape-font-specification:Arial-BoldMT;writing-mode:lr-tb;fill:#000000;fill-opacity:1;fill-rule:nonzero;stroke:none"
           transform="matrix(1,0,0,-1,0,453)"><tspan
             id="tspan50"
             y="0"
             x="0 24 46 59">data</tspan></text></g><g
         transform="translate(15.49087,-35)"
         id="g54"><text
           id="text58"
           style="font-variant:normal;font-weight:normal;font-size:24px;font-family:Arial;-inkscape-font-specification:ArialMT;writing-mode:lr-tb;fill:#000000;fill-opacity:1;fill-rule:nonzero;stroke:none"
           transform="matrix(1,0,0,-1,0,453)"><tspan
             id="tspan56"
             y="0"
             x="0">p</tspan></text></g><g
         transform="translate(28.49087,-35)"
         id="g60"><text
           id="text64"
           style="font-variant:normal;font-weight:normal;font-size:24px;font-family:Arial;-inkscape-font-specification:ArialMT;writing-mode:lr-tb;fill:#000000;fill-opacity:1;fill-rule:nonzero;stroke:none"
           transform="matrix(1,0,0,-1,0,453)"><tspan
             id="tspan62"
             y="0"
             x="0 7.9991999 20.9904 33.981602 40.972801 53.964001">(data|</tspan></text></g><g
         transform="translate(88.49087,-35)"
         id="g66"><text
           id="text70"
           style="font-variant:normal;font-weight:bold;font-size:24px;font-family:Arial;-inkscape-font-specification:Arial-BoldMT;writing-mode:lr-tb;fill:#660066;fill-opacity:1;fill-rule:nonzero;stroke:none"
           transform="matrix(1,0,0,-1,0,453)"><tspan
             id="tspan68"
             y="0"
             x="0 16.999201">H1</tspan></text></g><g
         transform="translate(118.4909,-35)"
         id="g72"><text
           id="text76"
           style="font-variant:normal;font-weight:normal;font-size:24px;font-family:Arial;-inkscape-font-specification:ArialMT;writing-mode:lr-tb;fill:#000000;fill-opacity:1;fill-rule:nonzero;stroke:none"
           transform="matrix(1,0,0,-1,0,453)"><tspan
             id="tspan74"
             y="0"
             x="0 7.9991999 17.006399 31.0056">) = </tspan></text></g><g
         transform="matrix(7.874016e-5,0,0,-7.874016e-5,223.5,249.5)"
         id="g78"><path
           id="path80"
           style="fill:none;stroke:#008000;stroke-width:12700;stroke-linecap:butt;stroke-linejoin:round;stroke-miterlimit:10;stroke-dasharray:none;stroke-opacity:1"
           d="M 0,1581150 C 0,707904.9 707904.9,0 1581150,0 c 873245,0 1581150,707904.9 1581150,1581150 0,873245 -707905,1581150 -1581150,1581150 C 707904.9,3162300 0,2454395 0,1581150 Z" /></g><g
         transform="translate(194.9465,-325)"
         id="g82"><text
           id="text86"
           style="font-variant:normal;font-weight:bold;font-size:18px;font-family:Arial;-inkscape-font-specification:Arial-BoldMT;writing-mode:lr-tb;fill:#008000;fill-opacity:1;fill-rule:nonzero;stroke:none"
           transform="matrix(1,0,0,-1,0,453)"><tspan
             id="tspan84"
             y="0"
             x="0 12.9996">H2</tspan></text></g><g
         transform="matrix(-7.874016e-5,0,0,7.874016e-5,403,152)"
         id="g88"><path
           id="path90"
           style="fill:none;stroke:#ffffff;stroke-width:76200;stroke-linecap:butt;stroke-linejoin:round;stroke-miterlimit:10;stroke-dasharray:none;stroke-opacity:1"
           d="M 0,1092200 C 26120.12,1005792 52241.25,919383.1 94034.04,840831 135826.8,762278.9 180232.8,707291.7 250757.8,620884.3 321283.8,534475.8 407480.5,406172.8 517187.2,322383.4 626893.9,238594.1 767945,170515.4 908996.1,118147.3 1050047,65779.22 1222442,23883.55 1363494,8172.931 1504545,-7537.693 1614251,317.6191 1755302,23883.55 1896354,47449.49 2134051,131238.8 2209800,149567.5" /></g><g
         transform="matrix(7.874016e-5,0,0,-7.874016e-5,262.5,399.5)"
         id="g92"><path
           id="path94"
           style="fill:none;stroke:#000000;stroke-width:12700;stroke-linecap:butt;stroke-linejoin:round;stroke-miterlimit:10;stroke-dasharray:none;stroke-opacity:1"
           d="M 0,1581150 C 0,707904.9 707904.9,0 1581150,0 c 873245,0 1581150,707904.9 1581150,1581150 0,873245 -707905,1581150 -1581150,1581150 C 707904.9,3162300 0,2454395 0,1581150 Z" /></g><g
         transform="translate(472.6824,-77)"
         id="g96"><text
           id="text100"
           style="font-variant:normal;font-weight:bold;font-size:18px;font-family:Arial;-inkscape-font-specification:Arial-BoldMT;writing-mode:lr-tb;fill:#e46c0a;fill-opacity:1;fill-rule:nonzero;stroke:none"
           transform="matrix(1,0,0,-1,0,453)"><tspan
             id="tspan98"
             y="0"
             x="0 12.9996">H3</tspan></text></g><path
         id="path102"
         style="fill:#7f7f7f;fill-opacity:1;fill-rule:nonzero;stroke:none"
         d="m 190.5,452.5 h 27 v -21 h -27 z" /><g
         transform="matrix(7.874016e-5,0,0,-7.874016e-5,190.5,452.5)"
         id="g104"><path
           id="path106"
           style="fill:none;stroke:#7f7f7f;stroke-width:12700;stroke-linecap:butt;stroke-linejoin:round;stroke-miterlimit:10;stroke-dasharray:none;stroke-opacity:1"
           d="M 0,0 H 342900 V 266700 H 0 Z" /></g><g
         transform="matrix(7.874016e-5,0,0,-7.874016e-5,151,426)"
         id="g108"><path
           id="path110"
           style="fill:none;stroke:#000000;stroke-width:25400;stroke-linecap:butt;stroke-linejoin:round;stroke-miterlimit:10;stroke-dasharray:none;stroke-opacity:1"
           d="M 0,0 1306946,1" /></g><path
         id="path112"
         style="fill:#660066;fill-opacity:1;fill-rule:nonzero;stroke:none"
         d="m 188,421 h 28 v -22 h -28 z" /><g
         transform="matrix(7.874016e-5,0,0,-7.874016e-5,337,400)"
         id="g114"><path
           id="path116"
           style="fill:none;stroke:#e46c0a;stroke-width:25400;stroke-linecap:butt;stroke-linejoin:round;stroke-miterlimit:10;stroke-dasharray:none;stroke-opacity:1"
           d="M 1210.091,116668.5 C 21332.49,56308.5 284748.3,21554.72 440236.5,6922.289 595724.7,-7710.143 782311.3,1435.378 934141.1,28871.94 1085971,56308.5 1212190,96548.19 1351216,171540.7 c 139025,74992.4 309147,201199.4 417075,307287 107927,106087.7 159147,197542.9 230489,329236.7 71341,131694 162806,305456.6 197561,460929.6 34756,155473 31099,310946 10976,471906 -20122,160959 -53049,331064 -131708,493854 -78659,162789 -257928,380451 -340245,482880 -82318,102429 -128049,113403 -153660,131694 -25609,18291 12805,3658 0,-21949 -12804,-25607 -29268,-62189 -76829,-131695 -47561,-69505 -131709,-203028 -208538,-285337 -76829,-82309 -175610,-149986 -252440,-208517 -76828.8,-58530 -181098.1,-96941 -208537.2,-142669 -27439.1,-45727 31098.4,-54873 43903.1,-131695 12804.7,-76821 34756.8,-208515 32927.2,-329235 C 910360.4,1477511 901214,1334841 868286.9,1203147 835359.8,1071453 762188.9,906834.9 714627.4,808064.4 667065.9,709294.1 648774.2,683685.8 582920,610522.6 517065.8,537359.4 421943.8,451391.2 319504.1,369082.5 217064.5,286773.8 -18912.31,177028.6 1210.091,116668.5 Z" /></g><path
         id="path118"
         style="fill:#660066;fill-opacity:1;fill-rule:evenodd;stroke:none"
         d="m 269.8493,224.4463 c -0.9261,-7.4268 -5.325,-5.8022 -9.7239,-11.1403 -4.3988,-5.338 -11.3445,-12.765 -16.6694,-20.8881 -5.325,-8.1232 -8.1032,-26.6904 -15.2804,-27.8508 -7.1771,-1.1604 -18.9847,12.997 -27.7824,20.8881 -8.7978,7.8911 -18.7531,16.2463 -25.0042,26.4582 -6.2511,10.212 -9.9554,22.5128 -12.5021,34.8135 -2.5468,12.3008 -4.3989,25.2979 -2.7782,38.9912 1.6206,13.6933 7.6401,31.5642 12.502,43.1687 4.8619,11.6046 8.5662,17.4068 16.6695,26.4583 8.1032,9.0515 19.4477,20.656 31.9498,27.8508 12.5021,7.1948 28.9401,12.997 43.0628,15.3179 14.1227,2.3209 30.3291,0 41.6736,-1.3926 11.3445,-1.3925 28.2455,-1.3924 26.3933,-6.9626 -1.8521,-5.5702 -26.8563,-13.4612 -37.5063,-26.4583 -10.6499,-12.997 -21.0683,-38.2948 -26.3933,-51.524 -5.3249,-13.2291 -5.0934,-18.7992 -5.5565,-27.8507 -0.463,-9.0515 1.1577,-16.2464 2.7783,-26.4583 1.6207,-10.2119 5.0935,-25.9941 4.1674,-33.421 z" /><g
         transform="matrix(7.874016e-5,0,0,-7.874016e-5,159.5,399.5)"
         id="g120"><path
           id="path122"
           style="fill:none;stroke:#660066;stroke-width:12700;stroke-linecap:butt;stroke-linejoin:round;stroke-miterlimit:10;stroke-dasharray:none;stroke-opacity:1"
           d="m 1401436,2223182 c -11762,94321 -67627,73688 -123493,141482 -55866,67792 -144075,162115 -211702,265279 -67627.4,103164 -102910.7,338967 -194060.6,353705 C 781030.5,2998386 631074.6,2818586 519343.2,2718370 407611.8,2618152 281178.7,2512041 201790.2,2382350 122401.6,2252658 75357.02,2096438 43013.15,1940218 10669.28,1783999 -12852.54,1618935 7729.925,1445030 28312.39,1271126 104759.5,1044165 166505.9,896787.2 228252.3,749409.7 275297,675720.9 378208.3,560767.3 481118.6,445812.7 625193.8,298436.2 783970.9,207062.3 942747.9,115688.5 1151510,42000.73 1330868,12525.23 c 179359,-29475.5 385180,0 529256,17685.1 144075,17685.1 358718,17684.1 335195,88425.47 -23523,70741.4 -341076,170957.3 -476330,336019.9 -135254,165062.6 -267568,486344.7 -335195,654354.3 -67627,168010 -64687,238751 -70568,353705 -5880,114954 14702,206329 35284,336020 20583,129692 64687,330125 52926,424447 z" /></g><path
         id="path124"
         style="fill:#7f7f7f;fill-opacity:1;fill-rule:evenodd;stroke:none"
         d="m 334.6162,388.9322 c 3.0571,-1.3619 7.9259,-6.9231 12.9079,-10.2144 4.982,-3.2913 12.5684,-6.3557 16.9843,-9.5335 4.4159,-3.1778 5.5482,-5.4477 9.5112,-9.5335 3.963,-4.0858 10.3037,-9.9874 14.2667,-14.9812 3.963,-4.9937 7.0201,-9.193 9.5112,-14.9812 2.491,-5.7881 3.6233,-13.6192 5.4349,-19.7479 1.8117,-6.1287 4.4159,-10.5549 5.435,-17.0241 1.0191,-6.4691 0.9058,-15.0946 0.6793,-21.7908 -0.2264,-6.6961 -0.9058,-12.7113 -2.0381,-18.386 -1.1322,-5.6747 -2.6042,-13.7327 -4.7555,-15.6621 -2.1513,-1.9294 -4.9821,2.9508 -8.1524,4.0857 -3.1704,1.135 -7.2467,1.7025 -10.87,2.7239 -3.6233,1.0214 -7.0201,2.4969 -10.8699,3.4048 -3.8497,0.908 -8.0392,1.5889 -12.2286,2.0429 -4.1895,0.454 -7.9261,0.7945 -12.9081,0.681 -4.982,-0.1135 -11.8889,-0.681 -16.9842,-1.362 -5.0952,-0.6809 -7.8128,-0.7944 -13.5874,-2.7238 -5.7746,-1.9294 -13.8138,-5.4477 -21.0604,-8.8525 -7.2466,-3.4048 -17.6636,-11.6899 -22.4192,-11.5764 -4.7556,0.1135 -4.6424,6.9231 -6.1144,12.2573 -1.4719,5.3342 -1.9248,13.2788 -2.7174,19.748 -0.7925,6.4691 -1.8116,13.0517 -2.0381,19.0669 -0.2265,6.0152 -0.1132,11.6899 0.6793,17.0241 0.7926,5.3342 2.7175,10.2144 4.0762,14.9812 1.3588,4.7667 2.1514,8.1715 4.0763,13.6192 1.9248,5.4477 4.5292,13.1653 7.4731,19.067 2.9439,5.9017 5.5481,10.7819 10.1905,16.3431 4.6423,5.5612 10.9831,12.1439 17.6636,17.0241 6.6805,4.8802 17.3239,10.1009 22.4192,12.2573 5.0952,2.1564 2.3778,3.4048 5.435,2.0429 z" /><g
         transform="matrix(7.874016e-5,0,0,-7.874016e-5,262.5,389.5)"
         id="g126"><path
           id="path128"
           style="fill:none;stroke:#7f7f7f;stroke-width:12700;stroke-linecap:butt;stroke-linejoin:round;stroke-miterlimit:10;stroke-dasharray:none;stroke-opacity:1"
           d="M 915875.2,7210.862 C 954700.8,24507.32 1016535,95134.53 1079806,136934.3 c 63272,41799.8 159619,80716.8 215701,121075.2 56082,40358.4 70461,69185.9 120791,121075.3 50330,51889.3 130858,126840.6 181188,190261 50330,63420.3 89156,116751.1 120792,190261.1 31636,73509.9 46016,172964.5 69024,250799.1 23008,77834 56082,134047 69024,216205 12943,82158 11504,191703 8628,276744 -2876,85041 -11505,161433 -25884,233502 -14380,72068 -33074,174406 -60396,198909 -27322,24503 -63272,-37476 -103536,-51889 -40263,-14414 -92032,-21621 -138048,-34593 -46016,-12972 -89155,-31710 -138047,-43241 -48892,-11531 -102098,-20180 -155304,-25945 -53206,-5766 -100661,-10090 -163933,-8648 -63271,1441 -150989.2,8648 -215698.7,17296 -64709.5,8648 -99222.8,10090 -172560.6,34593 -73337.8,24503 -175435.7,69186 -267467.3,112427 -92031.5,43241 -224327.6,148461 -284723.9,147020 C 78959.2,2081345 80397.27,1994862 61703.55,1927118 43009.83,1859373 37257.61,1758477 27192.22,1676319 17126.84,1594161 4184.341,1510562 1308.231,1434169 -1567.879,1357776 -129.8244,1285708 9935.562,1217963 20000.95,1150218 44447.88,1088240 61703.55,1027702 78959.2,967164.4 89025.59,923923.2 113471.5,854737.4 137917.5,785551.6 170992.7,687538.2 208380.2,612586.9 245767.6,537635.6 278840.9,475656.6 337799.1,405029.4 396757.4,334402.2 477285.5,250802.7 562127.7,188823.7 646969.9,126844.7 782141.1,60541.61 846850.6,33155.55 911560.1,5769.49 877049.8,-10085.6 915875.2,7210.862 Z" /></g></g></g></svg>
