<?xml version="1.0" encoding="UTF-8" standalone="no"?>
<svg
   xmlns:dc="http://purl.org/dc/elements/1.1/"
   xmlns:cc="http://creativecommons.org/ns#"
   xmlns:rdf="http://www.w3.org/1999/02/22-rdf-syntax-ns#"
   xmlns:svg="http://www.w3.org/2000/svg"
   xmlns="http://www.w3.org/2000/svg"
   viewBox="0 0 828 604"
   height="604"
   width="828"
   xml:space="preserve"
   id="svg10"
   version="1.1"><metadata
     id="metadata16"><rdf:RDF><cc:Work
         rdf:about=""><dc:format>image/svg+xml</dc:format><dc:type
           rdf:resource="http://purl.org/dc/dcmitype/StillImage" /><dc:title></dc:title></cc:Work></rdf:RDF></metadata><defs
     id="defs14"><clipPath
       id="clipPath28"
       clipPathUnits="userSpaceOnUse"><path
         id="path26"
         d="M 0,0 H 621 V 453 H 0 Z" /></clipPath></defs><g
     transform="matrix(1.3333333,0,0,-1.3333333,0,604)"
     id="g18"><g
       id="g20" /><g
       id="g22"><g
         clip-path="url(#clipPath28)"
         id="g24"><path
           id="path30"
           style="fill:#ffffff;fill-opacity:1;fill-rule:nonzero;stroke:none"
           d="M 0,453 H 621 V 0 H 0 Z" /></g></g><g
       id="g32"><g
         transform="matrix(7.874016e-5,0,0,-7.874016e-5,160.5,399.5)"
         id="g34"><path
           id="path36"
           style="fill:none;stroke:#660066;stroke-width:12700;stroke-linecap:butt;stroke-linejoin:round;stroke-miterlimit:10;stroke-dasharray:none;stroke-opacity:1"
           d="M 0,1581150 C 0,707904.9 707904.9,0 1581150,0 c 873245,0 1581150,707904.9 1581150,1581150 0,873245 -707905,1581150 -1581150,1581150 C 707904.9,3162300 0,2454395 0,1581150 Z" /></g><g
         transform="matrix(7.874016e-5,0,0,-7.874016e-5,123.5,397.5)"
         id="g38"><path
           id="path40"
           style="fill:none;stroke:#ffffff;stroke-width:12700;stroke-linecap:butt;stroke-linejoin:round;stroke-miterlimit:10;stroke-dasharray:none;stroke-opacity:1"
           d="M 0,0 H 1562100 V 368300 H 0 Z" /></g><g
         transform="translate(173.2805,-77)"
         id="g42"><text
           id="text46"
           style="font-variant:normal;font-weight:bold;font-size:18px;font-family:Arial;-inkscape-font-specification:Arial-BoldMT;writing-mode:lr-tb;fill:#660066;fill-opacity:1;fill-rule:nonzero;stroke:none"
           transform="matrix(1,0,0,-1,0,453)"><tspan
             id="tspan44"
             y="0"
             x="0 12.9996">H1</tspan></text></g><g
         transform="translate(515.5373,-148)"
         id="g48"><text
           id="text52"
           style="font-variant:normal;font-weight:bold;font-size:40px;font-family:Arial;-inkscape-font-specification:Arial-BoldMT;writing-mode:lr-tb;fill:#000000;fill-opacity:1;fill-rule:nonzero;stroke:none"
           transform="matrix(1,0,0,-1,0,453)"><tspan
             id="tspan50"
             y="0"
             x="0 24 46 59">data</tspan></text></g><g
         transform="translate(15.49087,-35)"
         id="g54"><text
           id="text58"
           style="font-variant:normal;font-weight:normal;font-size:24px;font-family:Arial;-inkscape-font-specification:ArialMT;writing-mode:lr-tb;fill:#000000;fill-opacity:1;fill-rule:nonzero;stroke:none"
           transform="matrix(1,0,0,-1,0,453)"><tspan
             id="tspan56"
             y="0"
             x="0">p</tspan></text></g><g
         transform="translate(28.49087,-35)"
         id="g60"><text
           id="text64"
           style="font-variant:normal;font-weight:normal;font-size:24px;font-family:Arial;-inkscape-font-specification:ArialMT;writing-mode:lr-tb;fill:#000000;fill-opacity:1;fill-rule:nonzero;stroke:none"
           transform="matrix(1,0,0,-1,0,453)"><tspan
             id="tspan62"
             y="0"
             x="0 7.9991999 20.9904 33.981602 40.972801 53.964001">(data|</tspan></text></g><g
         transform="translate(88.49087,-35)"
         id="g66"><text
           id="text70"
           style="font-variant:normal;font-weight:bold;font-size:24px;font-family:Arial;-inkscape-font-specification:Arial-BoldMT;writing-mode:lr-tb;fill:#008000;fill-opacity:1;fill-rule:nonzero;stroke:none"
           transform="matrix(1,0,0,-1,0,453)"><tspan
             id="tspan68"
             y="0"
             x="0 16.999201">H2</tspan></text></g><g
         transform="translate(118.4909,-35)"
         id="g72"><text
           id="text76"
           style="font-variant:normal;font-weight:normal;font-size:24px;font-family:Arial;-inkscape-font-specification:ArialMT;writing-mode:lr-tb;fill:#000000;fill-opacity:1;fill-rule:nonzero;stroke:none"
           transform="matrix(1,0,0,-1,0,453)"><tspan
             id="tspan74"
             y="0"
             x="0 7.9991999 17.006399 31.0056">) = </tspan></text></g><path
         id="path78"
         style="fill:#008000;fill-opacity:1;fill-rule:nonzero;stroke:none"
         d="m 223.5,125 c 0,68.7595 55.7405,124.5 124.5,124.5 68.7594,0 124.5,-55.7405 124.5,-124.5 C 472.5,56.24056 416.7594,0.500002 348,0.500002 279.2405,0.500002 223.5,56.24056 223.5,125 Z" /><g
         transform="matrix(7.874016e-5,0,0,-7.874016e-5,223.5,249.5)"
         id="g80"><path
           id="path82"
           style="fill:none;stroke:#008000;stroke-width:12700;stroke-linecap:butt;stroke-linejoin:round;stroke-miterlimit:10;stroke-dasharray:none;stroke-opacity:1"
           d="M 0,1581150 C 0,707904.9 707904.9,0 1581150,0 c 873245,0 1581150,707904.9 1581150,1581150 0,873245 -707905,1581150 -1581150,1581150 C 707904.9,3162300 0,2454395 0,1581150 Z" /></g><g
         transform="translate(194.9465,-325)"
         id="g84"><text
           id="text88"
           style="font-variant:normal;font-weight:bold;font-size:18px;font-family:Arial;-inkscape-font-specification:Arial-BoldMT;writing-mode:lr-tb;fill:#008000;fill-opacity:1;fill-rule:nonzero;stroke:none"
           transform="matrix(1,0,0,-1,0,453)"><tspan
             id="tspan86"
             y="0"
             x="0 12.9996">H2</tspan></text></g><g
         transform="matrix(7.874016e-5,0,0,-7.874016e-5,262.5,399.5)"
         id="g90"><path
           id="path92"
           style="fill:none;stroke:#000000;stroke-width:12700;stroke-linecap:butt;stroke-linejoin:round;stroke-miterlimit:10;stroke-dasharray:none;stroke-opacity:1"
           d="M 0,1581150 C 0,707904.9 707904.9,0 1581150,0 c 873245,0 1581150,707904.9 1581150,1581150 0,873245 -707905,1581150 -1581150,1581150 C 707904.9,3162300 0,2454395 0,1581150 Z" /></g><g
         transform="translate(472.6824,-77)"
         id="g94"><text
           id="text98"
           style="font-variant:normal;font-weight:bold;font-size:18px;font-family:Arial;-inkscape-font-specification:Arial-BoldMT;writing-mode:lr-tb;fill:#e46c0a;fill-opacity:1;fill-rule:nonzero;stroke:none"
           transform="matrix(1,0,0,-1,0,453)"><tspan
             id="tspan96"
             y="0"
             x="0 12.9996">H3</tspan></text></g><path
         id="path100"
         style="fill:#7f7f7f;fill-opacity:1;fill-rule:nonzero;stroke:none"
         d="m 190.5,452.5 h 27 v -21 h -27 z" /><g
         transform="matrix(7.874016e-5,0,0,-7.874016e-5,190.5,452.5)"
         id="g102"><path
           id="path104"
           style="fill:none;stroke:#7f7f7f;stroke-width:12700;stroke-linecap:butt;stroke-linejoin:round;stroke-miterlimit:10;stroke-dasharray:none;stroke-opacity:1"
           d="M 0,0 H 342900 V 266700 H 0 Z" /></g><g
         transform="matrix(7.874016e-5,0,0,-7.874016e-5,151,426)"
         id="g106"><path
           id="path108"
           style="fill:none;stroke:#000000;stroke-width:25400;stroke-linecap:butt;stroke-linejoin:round;stroke-miterlimit:10;stroke-dasharray:none;stroke-opacity:1"
           d="M 0,0 1306946,1" /></g><path
         id="path110"
         style="fill:#008000;fill-opacity:1;fill-rule:nonzero;stroke:none"
         d="m 188,421 h 28 v -22 h -28 z" /><path
         id="path112"
         style="fill:#7f7f7f;fill-opacity:1;fill-rule:evenodd;stroke:none"
         d="m 272.7527,225.531 c 1.7398,5.4818 11.6819,9.2194 19.3868,12.7078 7.705,3.4884 19.2626,6.354 26.8434,8.2228 7.5807,1.8688 11.3089,2.741 18.6411,2.9901 7.3322,0.2492 17.1499,-0.4984 25.352,-1.4951 8.2022,-0.9966 15.7828,-1.9934 23.8607,-4.4851 8.0779,-2.4918 18.0199,-6.9769 24.6064,-10.4654 6.5866,-3.4884 10.1905,-6.4785 14.913,-10.4653 4.7224,-3.9868 9.4448,-9.5932 13.4216,-13.4554 3.9768,-3.8622 6.8351,-4.2359 10.4391,-9.7178 3.6039,-5.4818 12.3032,-17.4422 11.1847,-23.1732 -1.1184,-5.731 -11.9304,-8.0983 -17.8956,-11.213 -5.9652,-3.1147 -12.3031,-5.2326 -17.8955,-7.4751 -5.5923,-2.2426 -7.8293,-4.859 -15.6586,-5.9803 -7.8293,-1.1213 -21.7481,-1.2458 -31.3172,-0.7475 -9.5691,0.4983 -17.3984,1.2458 -26.0976,3.7376 -8.6992,2.4917 -18.6412,7.3507 -26.0977,11.2129 -7.4564,3.8622 -12.8003,7.1015 -18.6412,11.9604 -5.8409,4.8588 -12.0546,12.5833 -16.4042,17.193 -4.3496,4.6098 -6.7108,5.3573 -9.6934,10.4654 -2.9825,5.108 -10.6876,14.7013 -8.9478,20.1832 z" /><g
         transform="matrix(7.874016e-5,0,0,-7.874016e-5,272.5,249.5)"
         id="g114"><path
           id="path116"
           style="fill:none;stroke:#7f7f7f;stroke-width:12700;stroke-linecap:butt;stroke-linejoin:round;stroke-miterlimit:10;stroke-dasharray:none;stroke-opacity:1"
           d="M 3209.159,304406.8 C 25304.6,234787.4 151568.8,187320.1 249422.2,143017.1 347275.6,98714.2 494056.6,62321.82 590332.4,38588.14 686608.1,14854.46 733956.2,3777.475 827074.8,613.0508 920193.4,-2551.373 1044879,6942.9 1149046,19600.6 c 104166,12657.69 200441,25316.39 303030,56961.63 102590,31645.27 228853,88606.87 312502,132909.77 83649,44303 129419,82278.1 189394,132909.8 59975,50631.8 119950,121833.9 170455,170883.9 50505,49050.1 86805,53796.2 132576,123415.5 45770,69619.4 156251,221516.7 142046,294300.5 -14204,72783.3 -151516,102847.3 -227274,142404.3 -75758,39557 -156249,66454 -227273,94934 -71023,28481 -99432,61709 -198864,75950 -99432,14240 -276201,15822 -397728,9493 -121528,-6329 -220960,-15822 -331440,-47467 C 905989.9,1174650 779726.7,1112942 685029.6,1063892 590332.4,1014841 522465.5,973702.9 448286.1,911995.1 374106.8,850287.4 295192.7,752186.3 239952.6,693642.9 184712.5,635099.6 154725,625605.3 116846.6,560733.1 78968.09,495860.9 -18886.28,374026.1 3209.159,304406.8 Z" /></g><g
         transform="matrix(7.874016e-5,0,0,-7.874016e-5,337,400)"
         id="g118"><path
           id="path120"
           style="fill:none;stroke:#e46c0a;stroke-width:25400;stroke-linecap:butt;stroke-linejoin:round;stroke-miterlimit:10;stroke-dasharray:none;stroke-opacity:1"
           d="M 1210.091,116668.5 C 21332.49,56308.5 284748.3,21554.72 440236.5,6922.289 595724.7,-7710.143 782311.3,1435.378 934141.1,28871.94 1085971,56308.5 1212190,96548.19 1351216,171540.7 c 139025,74992.4 309147,201199.4 417075,307287 107927,106087.7 159147,197542.9 230489,329236.7 71341,131694 162806,305456.6 197561,460929.6 34756,155473 31099,310946 10976,471906 -20122,160959 -53049,331064 -131708,493854 -78659,162789 -257928,380451 -340245,482880 -82318,102429 -128049,113403 -153660,131694 -25609,18291 12805,3658 0,-21949 -12804,-25607 -29268,-62189 -76829,-131695 -47561,-69505 -131709,-203028 -208538,-285337 -76829,-82309 -175610,-149986 -252440,-208517 -76828.8,-58530 -181098.1,-96941 -208537.2,-142669 -27439.1,-45727 31098.4,-54873 43903.1,-131695 12804.7,-76821 34756.8,-208515 32927.2,-329235 C 910360.4,1477511 901214,1334841 868286.9,1203147 835359.8,1071453 762188.9,906834.9 714627.4,808064.4 667065.9,709294.1 648774.2,683685.8 582920,610522.6 517065.8,537359.4 421943.8,451391.2 319504.1,369082.5 217064.5,286773.8 -18912.31,177028.6 1210.091,116668.5 Z" /></g></g></g></svg>
