<?xml version="1.0" encoding="UTF-8" standalone="no"?>
<svg
   xmlns:dc="http://purl.org/dc/elements/1.1/"
   xmlns:cc="http://creativecommons.org/ns#"
   xmlns:rdf="http://www.w3.org/1999/02/22-rdf-syntax-ns#"
   xmlns:svg="http://www.w3.org/2000/svg"
   xmlns="http://www.w3.org/2000/svg"
   viewBox="0 0 664 536"
   height="536"
   width="664"
   xml:space="preserve"
   id="svg10"
   version="1.1"><metadata
     id="metadata16"><rdf:RDF><cc:Work
         rdf:about=""><dc:format>image/svg+xml</dc:format><dc:type
           rdf:resource="http://purl.org/dc/dcmitype/StillImage" /><dc:title></dc:title></cc:Work></rdf:RDF></metadata><defs
     id="defs14"><clipPath
       id="clipPath28"
       clipPathUnits="userSpaceOnUse"><path
         id="path26"
         d="M 0,0 H 498 V 402 H 0 Z" /></clipPath></defs><g
     transform="matrix(1.3333333,0,0,-1.3333333,0,536)"
     id="g18"><g
       id="g20" /><g
       id="g22"><g
         clip-path="url(#clipPath28)"
         id="g24"><path
           id="path30"
           style="fill:#ffffff;fill-opacity:1;fill-rule:nonzero;stroke:none"
           d="M 0,402 H 498 V 0 H 0 Z" /></g></g><g
       id="g32"><g
         transform="matrix(7.874016e-5,0,0,-7.874016e-5,37.5,399.5)"
         id="g34"><path
           id="path36"
           style="fill:none;stroke:#660066;stroke-width:12700;stroke-linecap:butt;stroke-linejoin:round;stroke-miterlimit:10;stroke-dasharray:none;stroke-opacity:1"
           d="M 0,1581150 C 0,707904.9 707904.9,0 1581150,0 c 873245,0 1581150,707904.9 1581150,1581150 0,873245 -707905,1581150 -1581150,1581150 C 707904.9,3162300 0,2454395 0,1581150 Z" /></g><g
         transform="matrix(7.874016e-5,0,0,-7.874016e-5,0.5,397.5)"
         id="g38"><path
           id="path40"
           style="fill:none;stroke:#ffffff;stroke-width:12700;stroke-linecap:butt;stroke-linejoin:round;stroke-miterlimit:10;stroke-dasharray:none;stroke-opacity:1"
           d="M 0,0 H 1562100 V 368300 H 0 Z" /></g><g
         transform="translate(50.28055,-26)"
         id="g42"><text
           id="text46"
           style="font-variant:normal;font-weight:bold;font-size:18px;font-family:Arial;-inkscape-font-specification:Arial-BoldMT;writing-mode:lr-tb;fill:#660066;fill-opacity:1;fill-rule:nonzero;stroke:none"
           transform="matrix(1,0,0,-1,0,402)"><tspan
             id="tspan44"
             y="0"
             x="0 12.9996">H1</tspan></text></g><g
         transform="translate(392.5373,-97)"
         id="g48"><text
           id="text52"
           style="font-variant:normal;font-weight:bold;font-size:40px;font-family:Arial;-inkscape-font-specification:Arial-BoldMT;writing-mode:lr-tb;fill:#000000;fill-opacity:1;fill-rule:nonzero;stroke:none"
           transform="matrix(1,0,0,-1,0,402)"><tspan
             id="tspan50"
             y="0"
             x="0 24 46 59">data</tspan></text></g><g
         transform="matrix(7.874016e-5,0,0,-7.874016e-5,100.5,249.5)"
         id="g54"><path
           id="path56"
           style="fill:none;stroke:#008000;stroke-width:12700;stroke-linecap:butt;stroke-linejoin:round;stroke-miterlimit:10;stroke-dasharray:none;stroke-opacity:1"
           d="M 0,1581150 C 0,707904.9 707904.9,0 1581150,0 c 873245,0 1581150,707904.9 1581150,1581150 0,873245 -707905,1581150 -1581150,1581150 C 707904.9,3162300 0,2454395 0,1581150 Z" /></g><g
         transform="translate(60.83551,-274)"
         id="g58"><text
           id="text62"
           style="font-variant:normal;font-weight:bold;font-size:18px;font-family:Arial;-inkscape-font-specification:Arial-BoldMT;writing-mode:lr-tb;fill:#008000;fill-opacity:1;fill-rule:nonzero;stroke:none"
           transform="matrix(1,0,0,-1,0,402)"><tspan
             id="tspan60"
             y="0"
             x="0 12.9996">H2</tspan></text></g><g
         transform="matrix(7.874016e-5,0,0,-7.874016e-5,213,236)"
         id="g64"><path
           id="path66"
           style="fill:none;stroke:#ffffff;stroke-width:76200;stroke-linecap:butt;stroke-linejoin:round;stroke-miterlimit:10;stroke-dasharray:none;stroke-opacity:1"
           d="M 838200,0 C 816263.6,63997.86 794327.1,127995.7 755072.9,200641.5 715818.6,273287.2 656935.8,362076.3 602672.6,435875.5 548409.4,509674.8 494145.2,581167 429490.8,643435.1 364836.3,705703.2 286327.8,762205.6 214745.9,809483 143163.9,856760.3 0,927100 0,927100" /></g><g
         transform="matrix(-7.874016e-5,0,0,7.874016e-5,280,152)"
         id="g68"><path
           id="path70"
           style="fill:none;stroke:#ffffff;stroke-width:76200;stroke-linecap:butt;stroke-linejoin:round;stroke-miterlimit:10;stroke-dasharray:none;stroke-opacity:1"
           d="M 0,1092200 C 26120.12,1005792 52241.25,919383.1 94034.04,840831 135826.8,762278.9 180232.8,707291.7 250757.8,620884.2 321283.8,534475.8 407480.5,406172.8 517187.2,322383.4 626893.9,238594.1 767945,170515.4 908996.1,118147.3 1050047,65779.22 1222442,23883.55 1363494,8172.931 1504545,-7537.693 1614251,317.6191 1755302,23883.55 1896354,47449.49 2134051,131238.8 2209800,149567.5" /></g><path
         id="path72"
         style="fill:#7f7f7f;fill-opacity:1;fill-rule:nonzero;stroke:none"
         d="m 139.5,275 c 0,68.7595 55.7405,124.5 124.5,124.5 68.7594,0 124.5,-55.7405 124.5,-124.5 0,-68.7594 -55.7406,-124.5 -124.5,-124.5 -68.7595,0 -124.5,55.7406 -124.5,124.5 z" /><g
         transform="matrix(7.874016e-5,0,0,-7.874016e-5,139.5,399.5)"
         id="g74"><path
           id="path76"
           style="fill:none;stroke:#7f7f7f;stroke-width:63500;stroke-linecap:butt;stroke-linejoin:round;stroke-miterlimit:10;stroke-dasharray:none;stroke-opacity:1"
           d="M 0,1581150 C 0,707904.9 707904.9,0 1581150,0 c 873245,0 1581150,707904.9 1581150,1581150 0,873245 -707905,1581150 -1581150,1581150 C 707904.9,3162300 0,2454395 0,1581150 Z" /></g><g
         transform="matrix(7.874016e-5,0,0,-7.874016e-5,214,400)"
         id="g78"><path
           id="path80"
           style="fill:none;stroke:#e46c0a;stroke-width:25400;stroke-linecap:butt;stroke-linejoin:round;stroke-miterlimit:10;stroke-dasharray:none;stroke-opacity:1"
           d="M 1210.091,116668.5 C 21332.49,56308.5 284748.3,21554.72 440236.5,6922.289 595724.7,-7710.143 782311.3,1435.378 934141.1,28871.94 1085971,56308.5 1212190,96548.19 1351216,171540.7 c 139025,74992.4 309147,201199.4 417075,307287 107928,106087.7 159147,197542.9 230489,329236.7 71341,131694 162805,305456.6 197561,460929.6 34756,155473 31098,310946 10976,471906 -20122,160959 -53049,331064 -131708,493854 -78659,162789 -257928,380451 -340245,482880 -82318,102429 -128049,113403 -153660,131694 -25609,18291 12805,3658 0,-21949 -12804,-25607 -29268,-62189 -76829,-131695 -47561,-69505 -131709,-203028 -208538,-285337 -76829,-82309 -175610,-149986 -252440,-208517 -76828.8,-58530 -181098.1,-96941 -208537.2,-142669 -27439.1,-45727 31098.4,-54873 43903.1,-131695 12804.7,-76821 34756.8,-208515 32927.2,-329235 C 910360.4,1477511 901214,1334841 868286.9,1203147 835359.8,1071453 762188.9,906834.9 714627.4,808064.4 667065.9,709294.1 648774.2,683685.8 582920,610522.6 517065.8,537359.4 421943.8,451391.2 319504.1,369082.5 217064.5,286773.8 -18912.31,177028.6 1210.091,116668.5 Z" /></g><g
         transform="translate(349.6824,-26)"
         id="g82"><text
           id="text86"
           style="font-variant:normal;font-weight:bold;font-size:18px;font-family:Arial;-inkscape-font-specification:Arial-BoldMT;writing-mode:lr-tb;fill:#e46c0a;fill-opacity:1;fill-rule:nonzero;stroke:none"
           transform="matrix(1,0,0,-1,0,402)"><tspan
             id="tspan84"
             y="0"
             x="0 12.9996">H3</tspan></text></g></g></g></svg>
