<?xml version="1.0" encoding="UTF-8" standalone="no"?>
<svg
   xmlns:dc="http://purl.org/dc/elements/1.1/"
   xmlns:cc="http://creativecommons.org/ns#"
   xmlns:rdf="http://www.w3.org/1999/02/22-rdf-syntax-ns#"
   xmlns:svg="http://www.w3.org/2000/svg"
   xmlns="http://www.w3.org/2000/svg"
   viewBox="0 0 910.66669 389.33334"
   height="389.33334"
   width="910.66669"
   xml:space="preserve"
   id="svg126"
   version="1.1"><metadata
     id="metadata132"><rdf:RDF><cc:Work
         rdf:about=""><dc:format>image/svg+xml</dc:format><dc:type
           rdf:resource="http://purl.org/dc/dcmitype/StillImage" /><dc:title></dc:title></cc:Work></rdf:RDF></metadata><defs
     id="defs130"><clipPath
       id="clipPath144"
       clipPathUnits="userSpaceOnUse"><path
         id="path142"
         d="M 0,0 H 683 V 292 H 0 Z" /></clipPath><clipPath
       id="clipPath154"
       clipPathUnits="userSpaceOnUse"><path
         id="path152"
         d="M 8,232 H 285 V -3.423309e-6 H 8 Z" /></clipPath><clipPath
       id="clipPath160"
       clipPathUnits="userSpaceOnUse"><path
         id="path158"
         d="M 8,6.67572e-6 H 285 V 232.00001 H 8 Z" /></clipPath><clipPath
       id="clipPath210"
       clipPathUnits="userSpaceOnUse"><path
         id="path208"
         d="M 386,233 H 663 V -3.438065e-6 H 386 Z" /></clipPath><clipPath
       id="clipPath216"
       clipPathUnits="userSpaceOnUse"><path
         id="path214"
         d="M 386,1.019239e-5 H 663 V 233.00001 H 386 Z" /></clipPath></defs><g
     transform="matrix(1.3333333,0,0,-1.3333333,0,389.33333)"
     id="g134"><g
       id="g136" /><g
       id="g138"><g
         clip-path="url(#clipPath144)"
         id="g140"><path
           id="path146"
           style="fill:#ffffff;fill-opacity:1;fill-rule:nonzero;stroke:none"
           d="M 0,292 H 683 V 0 H 0 Z" /></g></g><g
       id="g148"><g
         clip-path="url(#clipPath154)"
         id="g150"><g
           clip-path="url(#clipPath160)"
           id="g156"><path
             id="path162"
             style="fill:#ffffff;fill-opacity:0;fill-rule:evenodd;stroke:none"
             d="M 8,232 H 285 V 6.67572e-6 H 8 Z" /><g
             transform="matrix(4.572542e-5,0,0,-4.566929e-5,30.21226,231.4003)"
             id="g164"><path
               id="path166"
               style="fill:none;stroke:#7b1979;stroke-width:12700;stroke-linecap:butt;stroke-linejoin:round;stroke-miterlimit:10;stroke-dasharray:none;stroke-opacity:1"
               d="M 0,1579563 C 0,707194.6 707194.4,0.144165 1579563,0.144165 2451932,0.144165 3159126,707194.6 3159126,1579563 c 0,872369 -707194,1579563 -1579563,1579563 C 707194.4,3159126 0,2451932 0,1579563 Z" /></g><g
             transform="matrix(4.572542e-5,0,0,-4.566929e-5,8.76142,230.291)"
             id="g168"><path
               id="path170"
               style="fill:none;stroke:#ffffff;stroke-width:12700;stroke-linecap:butt;stroke-linejoin:round;stroke-miterlimit:10;stroke-dasharray:none;stroke-opacity:1"
               d="M -4.310608e-4,-0.02832031 H 1564498 V 369332.1 H -4.310608e-4 Z" /></g><g
             transform="matrix(0.5807128,0,0,0.58,12.94255,228.203)"
             id="g172"><text
               id="text176"
               style="font-variant:normal;font-weight:bold;font-size:18px;font-family:Calibri;-inkscape-font-specification:Calibri-Bold;writing-mode:lr-tb;fill:#660066;fill-opacity:1;fill-rule:nonzero;stroke:none"
               transform="matrix(1,0,0,-1,44.38574,-18)"><tspan
                 id="tspan174"
                 y="0"
                 x="0 11.3562 20.4804">H1	</tspan></text></g><g
             transform="matrix(0.5807128,0,0,0.58,236.6773,198.886)"
             id="g178"><text
               id="text182"
               style="font-variant:normal;font-weight:bold;font-size:40px;font-family:Calibri;-inkscape-font-specification:Calibri-Bold;writing-mode:lr-tb;fill:#000000;fill-opacity:1;fill-rule:nonzero;stroke:none"
               transform="matrix(1,0,0,-1,0,-40)"><tspan
                 id="tspan180"
                 y="0"
                 x="0 21.464001 41.208 55.071999 74.816002">data	</tspan></text></g><g
             transform="matrix(4.572542e-5,0,0,-4.566929e-5,66.82911,144.6903)"
             id="g184"><path
               id="path186"
               style="fill:none;stroke:#008f00;stroke-width:12700;stroke-linecap:butt;stroke-linejoin:round;stroke-miterlimit:10;stroke-dasharray:none;stroke-opacity:1"
               d="M 0.01940918,1579563 C 0.01940918,707194.4 707194.4,-0.04962158 1579563,-0.04962158 2451931,-0.04962158 3159126,707194.4 3159126,1579563 c 0,872369 -707195,1579563 -1579563,1579563 C 707194.4,3159126 0.01940918,2451932 0.01940918,1579563 Z" /></g><g
             transform="matrix(-4.572542e-5,0,0,4.566929e-5,171.4614,87.68556)"
             id="g188"><path
               id="path190"
               style="fill:none;stroke:#ffffff;stroke-width:76200;stroke-linecap:butt;stroke-linejoin:round;stroke-miterlimit:10;stroke-dasharray:none;stroke-opacity:1"
               d="M -0.1616211,1090071 C 26128.86,1003831 52258.66,917591.1 94065.8,839192 135872.9,760793.1 180293.9,705912.9 250842.7,619674 321393,533433.9 407618.8,405381.1 517362.8,321755 627106.9,238129.1 768205.9,170183 909304.8,117917.1 1050404,65651.06 1222858,23836.95 1363957,8157.091 1505056,-7522.96 1614800,317.0654 1755899,23836.95 1896998,47357.02 2134776,130983.1 2210551,149276" /></g><path
             id="path192"
             style="fill:#919191;fill-opacity:1;fill-rule:evenodd;stroke:none"
             d="m 89.44497,159.2627 c 0,39.8405 32.33673,72.1376 72.22613,72.1376 39.8895,0 72.2262,-32.2971 72.2262,-72.1376 0,-39.8404 -32.3367,-72.13747 -72.2262,-72.13747 -39.8894,0 -72.22613,32.29707 -72.22613,72.13747 z" /><g
             transform="matrix(4.572542e-5,0,0,-4.566929e-5,89.44497,231.4003)"
             id="g194"><path
               id="path196"
               style="fill:none;stroke:#919191;stroke-width:12700;stroke-linecap:butt;stroke-linejoin:round;stroke-miterlimit:10;stroke-dasharray:none;stroke-opacity:1"
               d="M 0,1579563 C 0,707194.6 707194.4,0.144165 1579563,0.144165 2451931,0.144165 3159126,707194.6 3159126,1579563 c 0,872369 -707195,1579563 -1579563,1579563 C 707194.4,3159126 0,2451932 0,1579563 Z" /></g><path
             id="path198"
             style="fill:#7b1979;fill-opacity:1;fill-rule:evenodd;stroke:none"
             d="m 131.0915,225.5354 c 1.7777,-0.7892 4.6089,-4.0115 7.5059,-5.9187 2.8971,-1.9071 7.3085,-3.6828 9.8764,-5.5242 2.5678,-1.8414 3.2263,-3.1566 5.5307,-5.5242 2.3045,-2.3675 5.9916,-5.7871 8.2961,-8.6808 2.3045,-2.8936 4.0822,-5.3268 5.5307,-8.6808 1.4486,-3.3539 2.107,-7.8916 3.1604,-11.4429 1.0535,-3.5512 2.5679,-6.116 3.1605,-9.8646 0.5926,-3.7485 0.5267,-8.7465 0.395,-12.6266 -0.1317,-3.8801 -0.5268,-7.3655 -1.1852,-10.6537 -0.6584,-3.2882 -1.5143,-7.9574 -2.7653,-9.0754 -1.251,-1.118 -2.8971,1.7099 -4.7406,2.3675 -1.8436,0.6576 -4.214,0.9864 -6.3209,1.5783 -2.1069,0.5919 -4.0822,1.4468 -6.3208,1.9729 -2.2386,0.5262 -4.6748,0.9207 -7.1109,1.1838 -2.4362,0.2631 -4.609,0.4603 -7.5061,0.3945 -2.897,-0.0657 -6.9134,-0.3945 -9.8762,-0.7891 -2.9629,-0.3946 -4.5432,-0.4603 -7.9011,-1.5784 -3.3579,-1.1179 -8.0327,-3.1566 -12.2466,-5.1295 -4.2139,-1.9729 -10.27132,-6.7737 -13.03674,-6.7079 -2.76535,0.0658 -2.6995,4.0116 -3.55547,7.1024 -0.85591,3.091 -1.11927,7.6944 -1.58018,11.443 -0.46085,3.7485 -1.05347,7.5628 -1.18512,11.0483 -0.1317,3.4855 -0.06585,6.7736 0.39501,9.8646 0.46085,3.0908 1.58023,5.9187 2.37029,8.6808 0.79012,2.762 1.25103,4.735 2.37035,7.8916 1.11927,3.1567 2.63371,7.6286 4.34559,11.0483 1.71187,3.4198 3.22617,6.2476 5.92577,9.47 2.6995,3.2224 6.3867,7.0368 10.2714,9.8646 3.8846,2.8278 10.0738,5.853 13.0367,7.1025 2.9628,1.2495 1.3827,1.9729 3.1604,1.1837 z" /><g
             transform="matrix(4.572542e-5,0,0,-4.566929e-5,89.15606,225.8644)"
             id="g200"><path
               id="path202"
               style="fill:none;stroke:#7b1979;stroke-width:12700;stroke-linecap:butt;stroke-linejoin:round;stroke-miterlimit:10;stroke-dasharray:none;stroke-opacity:1"
               d="M 917113.9,7203.825 C 955992,24484.17 1017910,95043.81 1081267,136804 c 63357,41759.9 159834,80640.1 215992,120960.1 56158,40320 70557,69119.8 120955,120960.1 50398,51839.8 131035,126719.8 181433,190079.9 50398,63360 89276,116639.7 120955,190079.8 31679,73440.1 46078,172799.9 69117,250560.1 23039,77760 56158,133920 69118,216000 12960,82080 11519,191520 8639,276480 -2880,84960 -11520,161280 -25919,233280 -14399,72000 -33118,174240 -60477,198720 -27359,24480 -63358,-37440 -103676,-51840 -40318,-14400 -92157,-21600 -138235,-34560 -46078,-12960 -89276,-31680 -138234,-43200 -48958,-11520 -102236,-20160 -155514,-25920 -53278,-5760 -100797,-10080 -164154,-8640 -63357,1440 -151193.9,8640 -215990.9,17280 -64797.1,8640 -99357.2,10080 -172794.2,34560 -73437,24480 -175673,69120 -267829,112320 -92156,43200 -224630.8,148320 -285108.9,146880 C 79065.88,2079364 80505.91,1992964 61786.9,1925284 43067.89,1857604 37307.97,1756804 27228.93,1674724 17149.9,1592644 4190.029,1509124 1309.972,1432804 -1570.084,1356484 -130.056,1284484 9948.979,1216804 20028.02,1149124 44507.92,1087204 61786.9,1026724 79065.88,966244.1 89145.89,923044.1 113625,853923.9 c 24479,-69119.8 57599,-167039.8 95037,-241919.8 37438.1,-74879.9 70556,-136800.2 129594.1,-207360.2 59037.8,-70560 139675,-154079.7 224631.8,-216000 C 647844.9,126724 783199.1,60483.91 847996.1,33123.95 912792.9,5763.99 878235.9,-10076.13 917113.9,7203.825 Z" /></g></g></g></g><g
       id="g204"><g
         clip-path="url(#clipPath210)"
         id="g206"><g
           clip-path="url(#clipPath216)"
           id="g212"><path
             id="path218"
             style="fill:#ffffff;fill-opacity:0;fill-rule:evenodd;stroke:none"
             d="M 386,233 H 663 V 1.019239e-5 H 386 Z" /><g
             transform="matrix(4.572542e-5,0,0,-4.575176e-5,407.8766,232.0764)"
             id="g220"><path
               id="path222"
               style="fill:none;stroke:#7b1979;stroke-width:12700;stroke-linecap:butt;stroke-linejoin:round;stroke-miterlimit:10;stroke-dasharray:none;stroke-opacity:1"
               d="M -0.00740051,1579563 C -0.00740051,707194.4 707194.5,-0.08496094 1579563,-0.08496094 2451932,-0.08496094 3159126,707194.4 3159126,1579563 c 0,872369 -707194,1579563 -1579563,1579563 C 707194.5,3159126 -0.00740051,2451932 -0.00740051,1579563 Z" /></g><g
             transform="matrix(4.572542e-5,0,0,-4.575176e-5,386.4258,230.9651)"
             id="g224"><path
               id="path226"
               style="fill:none;stroke:#ffffff;stroke-width:12700;stroke-linecap:butt;stroke-linejoin:round;stroke-miterlimit:10;stroke-dasharray:none;stroke-opacity:1"
               d="M -2.617836e-4,0.130127 H 1564498 V 369332.2 H -2.617836e-4 Z" /></g><g
             transform="matrix(0.5807128,0,0,0.5810474,390.6069,228.8733)"
             id="g228"><text
               id="text232"
               style="font-variant:normal;font-weight:bold;font-size:18px;font-family:Calibri;-inkscape-font-specification:Calibri-Bold;writing-mode:lr-tb;fill:#660066;fill-opacity:1;fill-rule:nonzero;stroke:none"
               transform="matrix(1,0,0,-1,44.38574,-18)"><tspan
                 id="tspan230"
                 y="0"
                 x="0 11.3562 20.4804">H1	</tspan></text></g><g
             transform="matrix(0.5807128,0,0,0.5810474,614.3417,199.5034)"
             id="g234"><text
               id="text238"
               style="font-variant:normal;font-weight:bold;font-size:40px;font-family:Calibri;-inkscape-font-specification:Calibri-Bold;writing-mode:lr-tb;fill:#000000;fill-opacity:1;fill-rule:nonzero;stroke:none"
               transform="matrix(1,0,0,-1,0,-40)"><tspan
                 id="tspan236"
                 y="0"
                 x="0 21.464001 41.208 55.071999 74.816002">data	</tspan></text></g><g
             transform="matrix(4.572542e-5,0,0,-4.575176e-5,444.4935,145.2098)"
             id="g240"><path
               id="path242"
               style="fill:none;stroke:#008f00;stroke-width:12700;stroke-linecap:butt;stroke-linejoin:round;stroke-miterlimit:10;stroke-dasharray:none;stroke-opacity:1"
               d="M -0.03643799,1579563 C -0.03643799,707194.4 707194.4,-0.08496094 1579563,-0.08496094 2451932,-0.08496094 3159126,707194.4 3159126,1579563 c 0,872369 -707194,1579563 -1579563,1579563 C 707194.4,3159126 -0.03643799,2451932 -0.03643799,1579563 Z" /></g><g
             transform="matrix(-4.572542e-5,0,0,4.575176e-5,549.1258,88.10213)"
             id="g244"><path
               id="path246"
               style="fill:none;stroke:#ffffff;stroke-width:76200;stroke-linecap:butt;stroke-linejoin:round;stroke-miterlimit:10;stroke-dasharray:none;stroke-opacity:1"
               d="M -0.04956055,1090071 C 26128.98,1003831 52258.78,917591.1 94065.91,839192.1 135873,760793.2 180294,705913 250842.8,619674.1 321392.9,533434 407618.9,405381.1 517362.9,321755 627107,238129.1 768205.9,170183.1 909304.9,117917.1 1050404,65651.09 1222858,23836.98 1363957,8157.126 1505056,-7522.925 1614800,317.1007 1755899,23836.98 1896998,47357.06 2134776,130983.2 2210551,149276" /></g><g
             transform="matrix(4.572542e-5,0,0,-4.575176e-5,467.1093,232.0764)"
             id="g248"><path
               id="path250"
               style="fill:none;stroke:#000000;stroke-width:12700;stroke-linecap:butt;stroke-linejoin:round;stroke-miterlimit:10;stroke-dasharray:none;stroke-opacity:1"
               d="M 0.06915283,1579563 C 0.06915283,707194.4 707194.5,-0.08496094 1579563,-0.08496094 2451932,-0.08496094 3159126,707194.4 3159126,1579563 c 0,872369 -707194,1579563 -1579563,1579563 C 707194.5,3159126 0.06915283,2451932 0.06915283,1579563 Z" /></g><path
             id="path252"
             style="fill:#7b1979;fill-opacity:1;fill-rule:evenodd;stroke:none"
             d="m 471.2796,130.692 c -0.5377,-4.3046 -3.0918,-3.363 -5.646,-6.4569 -2.5542,-3.0939 -6.5871,-7.3986 -9.6791,-12.1067 -3.0919,-4.7082 -4.705,-15.46971 -8.8724,-16.14227 -4.1674,-0.67262 -11.0233,7.53297 -16.1317,12.10667 -5.1083,4.5737 -10.8889,9.4164 -14.5185,15.3351 -3.6296,5.9189 -5.7805,13.0485 -7.2593,20.1779 -1.4787,7.1295 -2.5541,14.6626 -1.6131,22.5993 0.941,7.9365 4.4362,18.2945 7.2592,25.0205 2.8231,6.7259 4.9739,10.089 9.679,15.3352 4.7051,5.2462 11.2922,11.9721 18.5515,16.1422 7.2593,4.1701 16.8038,7.5331 25.0041,8.8783 8.2003,1.3451 17.6104,0 24.1975,-0.8072 6.5872,-0.8071 16.4006,-0.8071 15.3251,-4.0355 -1.0754,-3.2285 -15.594,-7.8021 -21.7777,-15.3351 -6.1839,-7.5331 -12.2333,-22.1957 -15.3252,-29.8633 -3.0919,-7.6676 -2.9574,-10.896 -3.2263,-16.1423 -0.2689,-5.2462 0.6722,-9.4163 1.6132,-15.3351 0.941,-5.9188 2.9575,-15.0662 2.4197,-19.3708 z" /><g
             transform="matrix(4.572542e-5,0,0,-4.575176e-5,407.2061,232.1529)"
             id="g254"><path
               id="path256"
               style="fill:none;stroke:#7b1979;stroke-width:12700;stroke-linecap:butt;stroke-linejoin:round;stroke-miterlimit:10;stroke-dasharray:none;stroke-opacity:1"
               d="m 1401268,2217638 c -11760,94086 -67619,73505 -123478,141129 -55859,67624 -144058,161711 -211677,264618 -67618.9,102907 -102898,338122 -194037,352823 C 780937,2990909 630999,2811558 519281,2711591 407563,2611624 281145,2505777 201766,2376409 122387,2247041 75348.02,2091210 43007.98,1935380 10668,1779550 -12851.01,1614898 7728.982,1441427 28308.98,1267956 104747,1041561 166486,894550.8 228225,747541.1 275264,674035.9 378163,559368.9 481061,444701.1 625118.9,297691.8 783877,206545.8 942635.1,115399.9 1151372,41895.82 1330709,12493.74 c 179337,-29401.7 385134,0 529192,17641.17 144058,17641.17 358675,17640 335155,88205.09 -23520,70565.1 -341035,170531.1 -476273,335181.8 -135238,164651.3 -267536,485132.1 -335155,652723.2 -67619,167591 -64679,238155 -70559,352823 -5880,114667 14700,205814 35280,335182 20580,129368 64679,329302 52919,423388 z" /></g><path
             id="path258"
             style="fill:#919191;fill-opacity:1;fill-rule:evenodd;stroke:none"
             d="m 508.7559,226.2009 c 1.7777,-0.7906 4.6089,-4.0188 7.5059,-5.9294 2.897,-1.9106 7.3085,-3.6895 9.8763,-5.5342 2.5679,-1.8447 3.2263,-3.1623 5.5308,-5.5341 2.3044,-2.3718 5.9916,-5.7976 8.2961,-8.6965 2.3045,-2.8988 4.0821,-5.3364 5.5307,-8.6964 1.4485,-3.3601 2.1069,-7.906 3.1604,-11.4636 1.0535,-3.5577 2.5678,-6.1271 3.1605,-9.8824 0.5926,-3.7553 0.5267,-8.7624 0.395,-12.6494 -0.1317,-3.8871 -0.5268,-7.3789 -1.1852,-10.673 -0.6584,-3.2941 -1.5143,-7.9718 -2.7653,-9.0918 -1.251,-1.12 -2.8971,1.7129 -4.7407,2.3717 -1.8435,0.6589 -4.2138,0.9883 -6.3208,1.5812 -2.1069,0.593 -4.0822,1.4495 -6.3208,1.9765 -2.2387,0.527 -4.6748,0.9224 -7.111,1.1859 -2.4361,0.2636 -4.609,0.4612 -7.506,0.3953 -2.897,-0.0659 -6.9134,-0.3953 -9.8763,-0.7906 -2.9628,-0.3953 -4.5431,-0.4612 -7.901,-1.5812 -3.3579,-1.12 -8.0327,-3.1623 -12.2466,-5.1388 -4.2139,-1.9765 -10.2714,-6.7859 -13.0367,-6.72 -2.7654,0.0659 -2.6996,4.0188 -3.5555,7.1153 -0.856,3.0965 -1.1193,7.7082 -1.5802,11.4635 -0.4609,3.7554 -1.0535,7.5765 -1.1852,11.0683 -0.1317,3.4918 -0.0658,6.7859 0.395,9.8824 0.461,3.0965 1.5803,5.9294 2.3704,8.6965 0.7901,2.767 1.251,4.7435 2.3703,7.9059 1.1193,3.1623 2.6338,7.6424 4.3456,11.0682 1.7119,3.426 3.2262,6.2589 5.9257,9.4871 2.6996,3.2283 6.3867,7.0495 10.2714,9.8824 3.8847,2.8329 10.0739,5.8636 13.0367,7.1153 2.9629,1.2518 1.3828,1.9765 3.1605,1.1859 z" /><g
             transform="matrix(4.572542e-5,0,0,-4.575176e-5,466.8205,226.5305)"
             id="g260"><path
               id="path262"
               style="fill:none;stroke:#919191;stroke-width:12700;stroke-linecap:butt;stroke-linejoin:round;stroke-miterlimit:10;stroke-dasharray:none;stroke-opacity:1"
               d="m 917114,7203.983 c 38878.1,17280.337 100796,87839.987 164153,129600.217 63357,41759.9 159834,80640 215992,120960.1 56158,40320 70557,69119.8 120955,120960 50398,51839.9 131035,126719.8 181433,190079.9 50398,63360.1 89276,116639.8 120955,190079.9 31679,73440.1 46078,172799.9 69117,250559.9 23039,77760 56158,133920 69118,216000 12960,82080 11519,191520 8639,276480 -2880,84960 -11520,161280 -25919,233280 -14399,72000 -33118,174240 -60477,198720 -27359,24480 -63358,-37440 -103676,-51840 -40318,-14400 -92157,-21600 -138235,-34560 -46078,-12960 -89276,-31680 -138234,-43200 -48958,-11520 -102236,-20160 -155514,-25920 -53278,-5760 -100797,-10080 -164154,-8640 -63357,1440 -151193.9,8640 -215990.9,17280 -64797,8640 -99357.1,10080 -172794.1,34560 -73437,24480 -175673,69120 -267829,112320 -92156,43200 -224630.9,148320 -285109,146880 C 79065.95,2079364 80505.98,1992964 61786.97,1925284 43067.96,1857604 37308.04,1756804 27229,1674724 17149.97,1592644 4190.098,1509124 1310.042,1432804 -1570.015,1356484 -129.9869,1284484 9949.049,1216804 20028.09,1149124 44507.98,1087204 61786.97,1026724 79065.95,966244.3 89145.96,923044.2 113625.1,853924 c 24478.9,-69119.8 57599,-167039.8 95037,-241919.8 37438,-74879.8 70556,-136800.1 129594.1,-207360.1 C 397294,334084 477931.2,250564.3 562888,188644.1 647845,126724.2 783199.1,60484.07 847996.1,33124.11 912793,5764.149 878236,-10075.97 917114,7203.983 Z" /></g></g></g></g><g
       id="g264"><g
         transform="translate(15.15213,-31)"
         id="g266"><text
           id="text270"
           style="font-variant:normal;font-weight:normal;font-size:24px;font-family:Arial;-inkscape-font-specification:ArialMT;writing-mode:lr-tb;fill:#000000;fill-opacity:1;fill-rule:nonzero;stroke:none"
           transform="matrix(1,0,0,-1,0,292)"><tspan
             id="tspan268"
             y="0"
             x="0 16.000799 29.0016 41.001598 48.002399 61.003201 69.002403 74.001602 87.002403 95.001602 103.0008 117 123 136.00079">Posterior = p(</tspan></text></g><g
         transform="translate(159.1521,-31)"
         id="g272"><text
           id="text276"
           style="font-variant:normal;font-weight:bold;font-size:24px;font-family:Arial;-inkscape-font-specification:Arial-BoldMT;writing-mode:lr-tb;fill:#660066;fill-opacity:1;fill-rule:nonzero;stroke:none"
           transform="matrix(1,0,0,-1,0,292)"><tspan
             id="tspan274"
             y="0"
             x="0 16.999201">H1</tspan></text></g><g
         transform="translate(189.1521,-31)"
         id="g278"><text
           id="text282"
           style="font-variant:normal;font-weight:normal;font-size:24px;font-family:Arial;-inkscape-font-specification:ArialMT;writing-mode:lr-tb;fill:#000000;fill-opacity:1;fill-rule:nonzero;stroke:none"
           transform="matrix(1,0,0,-1,0,292)"><tspan
             id="tspan280"
             y="0"
             x="0 6 19.007999 32.015999 39.023998 52.032001">|data)</tspan></text></g><g
         transform="translate(421.3889,-33)"
         id="g284"><text
           id="text288"
           style="font-variant:normal;font-weight:normal;font-size:24px;font-family:Arial;-inkscape-font-specification:ArialMT;writing-mode:lr-tb;fill:#000000;fill-opacity:1;fill-rule:nonzero;stroke:none"
           transform="matrix(1,0,0,-1,0,292)"><tspan
             id="tspan286"
             y="0"
             x="0 13.0008 18 30 43.000801 48 52.999199 66 79.000801 92.001602 105.0024 115.0032 129.0024 136.0032 149.004 157.0032 170.004 183.00481 190.0056 203.00639">Likelihood = p(data|</tspan></text></g><g
         transform="translate(630.3889,-33)"
         id="g290"><text
           id="text294"
           style="font-variant:normal;font-weight:bold;font-size:24px;font-family:Arial;-inkscape-font-specification:Arial-BoldMT;writing-mode:lr-tb;fill:#660066;fill-opacity:1;fill-rule:nonzero;stroke:none"
           transform="matrix(1,0,0,-1,0,292)"><tspan
             id="tspan292"
             y="0"
             x="0 16.999201">H1</tspan></text></g><g
         transform="translate(660.3889,-33)"
         id="g296"><text
           id="text300"
           style="font-variant:normal;font-weight:normal;font-size:24px;font-family:Arial;-inkscape-font-specification:ArialMT;writing-mode:lr-tb;fill:#000000;fill-opacity:1;fill-rule:nonzero;stroke:none"
           transform="matrix(1,0,0,-1,0,292)"><tspan
             id="tspan298"
             y="0"
             x="0">)</tspan></text></g></g></g></svg>
