<?xml version="1.0" encoding="utf-8" standalone="no"?>
<!DOCTYPE svg PUBLIC "-//W3C//DTD SVG 1.1//EN"
  "http://www.w3.org/Graphics/SVG/1.1/DTD/svg11.dtd">
<!-- Created with matplotlib (https://matplotlib.org/) -->
<svg height="360pt" version="1.1" viewBox="0 0 720 360" width="720pt" xmlns="http://www.w3.org/2000/svg" xmlns:xlink="http://www.w3.org/1999/xlink">
 <defs>
  <style type="text/css">
*{stroke-linecap:butt;stroke-linejoin:round;}
  </style>
 </defs>
 <g id="figure_1">
  <g id="patch_1">
   <path d="M 0 360 
L 720 360 
L 720 0 
L 0 0 
z
" style="fill:#ffffff;"/>
  </g>
  <g id="axes_1">
   <g id="patch_2">
    <path d="M 90 315 
L 648 315 
L 648 43.2 
L 90 43.2 
z
" style="fill:#ffffff;"/>
   </g>
   <g id="matplotlib.axis_1">
    <g id="xtick_1">
     <g id="line2d_1">
      <defs>
       <path d="M 0 0 
L 0 3.5 
" id="mb1cadbe55f" style="stroke:#000000;stroke-width:0.8;"/>
      </defs>
      <g>
       <use style="stroke:#000000;stroke-width:0.8;" x="115.363636" xlink:href="#mb1cadbe55f" y="315"/>
      </g>
     </g>
     <g id="text_1">
      <!-- 0.0 -->
      <defs>
       <path d="M 31.78125 66.40625 
Q 24.171875 66.40625 20.328125 58.90625 
Q 16.5 51.421875 16.5 36.375 
Q 16.5 21.390625 20.328125 13.890625 
Q 24.171875 6.390625 31.78125 6.390625 
Q 39.453125 6.390625 43.28125 13.890625 
Q 47.125 21.390625 47.125 36.375 
Q 47.125 51.421875 43.28125 58.90625 
Q 39.453125 66.40625 31.78125 66.40625 
z
M 31.78125 74.21875 
Q 44.046875 74.21875 50.515625 64.515625 
Q 56.984375 54.828125 56.984375 36.375 
Q 56.984375 17.96875 50.515625 8.265625 
Q 44.046875 -1.421875 31.78125 -1.421875 
Q 19.53125 -1.421875 13.0625 8.265625 
Q 6.59375 17.96875 6.59375 36.375 
Q 6.59375 54.828125 13.0625 64.515625 
Q 19.53125 74.21875 31.78125 74.21875 
z
" id="DejaVuSans-48"/>
       <path d="M 10.6875 12.40625 
L 21 12.40625 
L 21 0 
L 10.6875 0 
z
" id="DejaVuSans-46"/>
      </defs>
      <g transform="translate(107.412074 329.598437)scale(0.1 -0.1)">
       <use xlink:href="#DejaVuSans-48"/>
       <use x="63.623047" xlink:href="#DejaVuSans-46"/>
       <use x="95.410156" xlink:href="#DejaVuSans-48"/>
      </g>
     </g>
    </g>
    <g id="xtick_2">
     <g id="line2d_2">
      <g>
       <use style="stroke:#000000;stroke-width:0.8;" x="216.818182" xlink:href="#mb1cadbe55f" y="315"/>
      </g>
     </g>
     <g id="text_2">
      <!-- 0.2 -->
      <defs>
       <path d="M 19.1875 8.296875 
L 53.609375 8.296875 
L 53.609375 0 
L 7.328125 0 
L 7.328125 8.296875 
Q 12.9375 14.109375 22.625 23.890625 
Q 32.328125 33.6875 34.8125 36.53125 
Q 39.546875 41.84375 41.421875 45.53125 
Q 43.3125 49.21875 43.3125 52.78125 
Q 43.3125 58.59375 39.234375 62.25 
Q 35.15625 65.921875 28.609375 65.921875 
Q 23.96875 65.921875 18.8125 64.3125 
Q 13.671875 62.703125 7.8125 59.421875 
L 7.8125 69.390625 
Q 13.765625 71.78125 18.9375 73 
Q 24.125 74.21875 28.421875 74.21875 
Q 39.75 74.21875 46.484375 68.546875 
Q 53.21875 62.890625 53.21875 53.421875 
Q 53.21875 48.921875 51.53125 44.890625 
Q 49.859375 40.875 45.40625 35.40625 
Q 44.1875 33.984375 37.640625 27.21875 
Q 31.109375 20.453125 19.1875 8.296875 
z
" id="DejaVuSans-50"/>
      </defs>
      <g transform="translate(208.866619 329.598437)scale(0.1 -0.1)">
       <use xlink:href="#DejaVuSans-48"/>
       <use x="63.623047" xlink:href="#DejaVuSans-46"/>
       <use x="95.410156" xlink:href="#DejaVuSans-50"/>
      </g>
     </g>
    </g>
    <g id="xtick_3">
     <g id="line2d_3">
      <g>
       <use style="stroke:#000000;stroke-width:0.8;" x="318.272727" xlink:href="#mb1cadbe55f" y="315"/>
      </g>
     </g>
     <g id="text_3">
      <!-- 0.4 -->
      <defs>
       <path d="M 37.796875 64.3125 
L 12.890625 25.390625 
L 37.796875 25.390625 
z
M 35.203125 72.90625 
L 47.609375 72.90625 
L 47.609375 25.390625 
L 58.015625 25.390625 
L 58.015625 17.1875 
L 47.609375 17.1875 
L 47.609375 0 
L 37.796875 0 
L 37.796875 17.1875 
L 4.890625 17.1875 
L 4.890625 26.703125 
z
" id="DejaVuSans-52"/>
      </defs>
      <g transform="translate(310.321165 329.598437)scale(0.1 -0.1)">
       <use xlink:href="#DejaVuSans-48"/>
       <use x="63.623047" xlink:href="#DejaVuSans-46"/>
       <use x="95.410156" xlink:href="#DejaVuSans-52"/>
      </g>
     </g>
    </g>
    <g id="xtick_4">
     <g id="line2d_4">
      <g>
       <use style="stroke:#000000;stroke-width:0.8;" x="419.727273" xlink:href="#mb1cadbe55f" y="315"/>
      </g>
     </g>
     <g id="text_4">
      <!-- 0.6 -->
      <defs>
       <path d="M 33.015625 40.375 
Q 26.375 40.375 22.484375 35.828125 
Q 18.609375 31.296875 18.609375 23.390625 
Q 18.609375 15.53125 22.484375 10.953125 
Q 26.375 6.390625 33.015625 6.390625 
Q 39.65625 6.390625 43.53125 10.953125 
Q 47.40625 15.53125 47.40625 23.390625 
Q 47.40625 31.296875 43.53125 35.828125 
Q 39.65625 40.375 33.015625 40.375 
z
M 52.59375 71.296875 
L 52.59375 62.3125 
Q 48.875 64.0625 45.09375 64.984375 
Q 41.3125 65.921875 37.59375 65.921875 
Q 27.828125 65.921875 22.671875 59.328125 
Q 17.53125 52.734375 16.796875 39.40625 
Q 19.671875 43.65625 24.015625 45.921875 
Q 28.375 48.1875 33.59375 48.1875 
Q 44.578125 48.1875 50.953125 41.515625 
Q 57.328125 34.859375 57.328125 23.390625 
Q 57.328125 12.15625 50.6875 5.359375 
Q 44.046875 -1.421875 33.015625 -1.421875 
Q 20.359375 -1.421875 13.671875 8.265625 
Q 6.984375 17.96875 6.984375 36.375 
Q 6.984375 53.65625 15.1875 63.9375 
Q 23.390625 74.21875 37.203125 74.21875 
Q 40.921875 74.21875 44.703125 73.484375 
Q 48.484375 72.75 52.59375 71.296875 
z
" id="DejaVuSans-54"/>
      </defs>
      <g transform="translate(411.77571 329.598437)scale(0.1 -0.1)">
       <use xlink:href="#DejaVuSans-48"/>
       <use x="63.623047" xlink:href="#DejaVuSans-46"/>
       <use x="95.410156" xlink:href="#DejaVuSans-54"/>
      </g>
     </g>
    </g>
    <g id="xtick_5">
     <g id="line2d_5">
      <g>
       <use style="stroke:#000000;stroke-width:0.8;" x="521.181818" xlink:href="#mb1cadbe55f" y="315"/>
      </g>
     </g>
     <g id="text_5">
      <!-- 0.8 -->
      <defs>
       <path d="M 31.78125 34.625 
Q 24.75 34.625 20.71875 30.859375 
Q 16.703125 27.09375 16.703125 20.515625 
Q 16.703125 13.921875 20.71875 10.15625 
Q 24.75 6.390625 31.78125 6.390625 
Q 38.8125 6.390625 42.859375 10.171875 
Q 46.921875 13.96875 46.921875 20.515625 
Q 46.921875 27.09375 42.890625 30.859375 
Q 38.875 34.625 31.78125 34.625 
z
M 21.921875 38.8125 
Q 15.578125 40.375 12.03125 44.71875 
Q 8.5 49.078125 8.5 55.328125 
Q 8.5 64.0625 14.71875 69.140625 
Q 20.953125 74.21875 31.78125 74.21875 
Q 42.671875 74.21875 48.875 69.140625 
Q 55.078125 64.0625 55.078125 55.328125 
Q 55.078125 49.078125 51.53125 44.71875 
Q 48 40.375 41.703125 38.8125 
Q 48.828125 37.15625 52.796875 32.3125 
Q 56.78125 27.484375 56.78125 20.515625 
Q 56.78125 9.90625 50.3125 4.234375 
Q 43.84375 -1.421875 31.78125 -1.421875 
Q 19.734375 -1.421875 13.25 4.234375 
Q 6.78125 9.90625 6.78125 20.515625 
Q 6.78125 27.484375 10.78125 32.3125 
Q 14.796875 37.15625 21.921875 38.8125 
z
M 18.3125 54.390625 
Q 18.3125 48.734375 21.84375 45.5625 
Q 25.390625 42.390625 31.78125 42.390625 
Q 38.140625 42.390625 41.71875 45.5625 
Q 45.3125 48.734375 45.3125 54.390625 
Q 45.3125 60.0625 41.71875 63.234375 
Q 38.140625 66.40625 31.78125 66.40625 
Q 25.390625 66.40625 21.84375 63.234375 
Q 18.3125 60.0625 18.3125 54.390625 
z
" id="DejaVuSans-56"/>
      </defs>
      <g transform="translate(513.230256 329.598437)scale(0.1 -0.1)">
       <use xlink:href="#DejaVuSans-48"/>
       <use x="63.623047" xlink:href="#DejaVuSans-46"/>
       <use x="95.410156" xlink:href="#DejaVuSans-56"/>
      </g>
     </g>
    </g>
    <g id="xtick_6">
     <g id="line2d_6">
      <g>
       <use style="stroke:#000000;stroke-width:0.8;" x="622.636364" xlink:href="#mb1cadbe55f" y="315"/>
      </g>
     </g>
     <g id="text_6">
      <!-- 1.0 -->
      <defs>
       <path d="M 12.40625 8.296875 
L 28.515625 8.296875 
L 28.515625 63.921875 
L 10.984375 60.40625 
L 10.984375 69.390625 
L 28.421875 72.90625 
L 38.28125 72.90625 
L 38.28125 8.296875 
L 54.390625 8.296875 
L 54.390625 0 
L 12.40625 0 
z
" id="DejaVuSans-49"/>
      </defs>
      <g transform="translate(614.684801 329.598437)scale(0.1 -0.1)">
       <use xlink:href="#DejaVuSans-49"/>
       <use x="63.623047" xlink:href="#DejaVuSans-46"/>
       <use x="95.410156" xlink:href="#DejaVuSans-48"/>
      </g>
     </g>
    </g>
    <g id="text_7">
     <!-- Hipótesis (prob. de exito) -->
     <defs>
      <path d="M 9.8125 72.90625 
L 19.671875 72.90625 
L 19.671875 43.015625 
L 55.515625 43.015625 
L 55.515625 72.90625 
L 65.375 72.90625 
L 65.375 0 
L 55.515625 0 
L 55.515625 34.71875 
L 19.671875 34.71875 
L 19.671875 0 
L 9.8125 0 
z
" id="DejaVuSans-72"/>
      <path d="M 9.421875 54.6875 
L 18.40625 54.6875 
L 18.40625 0 
L 9.421875 0 
z
M 9.421875 75.984375 
L 18.40625 75.984375 
L 18.40625 64.59375 
L 9.421875 64.59375 
z
" id="DejaVuSans-105"/>
      <path d="M 18.109375 8.203125 
L 18.109375 -20.796875 
L 9.078125 -20.796875 
L 9.078125 54.6875 
L 18.109375 54.6875 
L 18.109375 46.390625 
Q 20.953125 51.265625 25.265625 53.625 
Q 29.59375 56 35.59375 56 
Q 45.5625 56 51.78125 48.09375 
Q 58.015625 40.1875 58.015625 27.296875 
Q 58.015625 14.40625 51.78125 6.484375 
Q 45.5625 -1.421875 35.59375 -1.421875 
Q 29.59375 -1.421875 25.265625 0.953125 
Q 20.953125 3.328125 18.109375 8.203125 
z
M 48.6875 27.296875 
Q 48.6875 37.203125 44.609375 42.84375 
Q 40.53125 48.484375 33.40625 48.484375 
Q 26.265625 48.484375 22.1875 42.84375 
Q 18.109375 37.203125 18.109375 27.296875 
Q 18.109375 17.390625 22.1875 11.75 
Q 26.265625 6.109375 33.40625 6.109375 
Q 40.53125 6.109375 44.609375 11.75 
Q 48.6875 17.390625 48.6875 27.296875 
z
" id="DejaVuSans-112"/>
      <path d="M 30.609375 48.390625 
Q 23.390625 48.390625 19.1875 42.75 
Q 14.984375 37.109375 14.984375 27.296875 
Q 14.984375 17.484375 19.15625 11.84375 
Q 23.34375 6.203125 30.609375 6.203125 
Q 37.796875 6.203125 41.984375 11.859375 
Q 46.1875 17.53125 46.1875 27.296875 
Q 46.1875 37.015625 41.984375 42.703125 
Q 37.796875 48.390625 30.609375 48.390625 
z
M 30.609375 56 
Q 42.328125 56 49.015625 48.375 
Q 55.71875 40.765625 55.71875 27.296875 
Q 55.71875 13.875 49.015625 6.21875 
Q 42.328125 -1.421875 30.609375 -1.421875 
Q 18.84375 -1.421875 12.171875 6.21875 
Q 5.515625 13.875 5.515625 27.296875 
Q 5.515625 40.765625 12.171875 48.375 
Q 18.84375 56 30.609375 56 
z
M 37.40625 79.984375 
L 47.125 79.984375 
L 31.203125 61.625 
L 23.734375 61.625 
z
" id="DejaVuSans-243"/>
      <path d="M 18.3125 70.21875 
L 18.3125 54.6875 
L 36.8125 54.6875 
L 36.8125 47.703125 
L 18.3125 47.703125 
L 18.3125 18.015625 
Q 18.3125 11.328125 20.140625 9.421875 
Q 21.96875 7.515625 27.59375 7.515625 
L 36.8125 7.515625 
L 36.8125 0 
L 27.59375 0 
Q 17.1875 0 13.234375 3.875 
Q 9.28125 7.765625 9.28125 18.015625 
L 9.28125 47.703125 
L 2.6875 47.703125 
L 2.6875 54.6875 
L 9.28125 54.6875 
L 9.28125 70.21875 
z
" id="DejaVuSans-116"/>
      <path d="M 56.203125 29.59375 
L 56.203125 25.203125 
L 14.890625 25.203125 
Q 15.484375 15.921875 20.484375 11.0625 
Q 25.484375 6.203125 34.421875 6.203125 
Q 39.59375 6.203125 44.453125 7.46875 
Q 49.3125 8.734375 54.109375 11.28125 
L 54.109375 2.78125 
Q 49.265625 0.734375 44.1875 -0.34375 
Q 39.109375 -1.421875 33.890625 -1.421875 
Q 20.796875 -1.421875 13.15625 6.1875 
Q 5.515625 13.8125 5.515625 26.8125 
Q 5.515625 40.234375 12.765625 48.109375 
Q 20.015625 56 32.328125 56 
Q 43.359375 56 49.78125 48.890625 
Q 56.203125 41.796875 56.203125 29.59375 
z
M 47.21875 32.234375 
Q 47.125 39.59375 43.09375 43.984375 
Q 39.0625 48.390625 32.421875 48.390625 
Q 24.90625 48.390625 20.390625 44.140625 
Q 15.875 39.890625 15.1875 32.171875 
z
" id="DejaVuSans-101"/>
      <path d="M 44.28125 53.078125 
L 44.28125 44.578125 
Q 40.484375 46.53125 36.375 47.5 
Q 32.28125 48.484375 27.875 48.484375 
Q 21.1875 48.484375 17.84375 46.4375 
Q 14.5 44.390625 14.5 40.28125 
Q 14.5 37.15625 16.890625 35.375 
Q 19.28125 33.59375 26.515625 31.984375 
L 29.59375 31.296875 
Q 39.15625 29.25 43.1875 25.515625 
Q 47.21875 21.78125 47.21875 15.09375 
Q 47.21875 7.46875 41.1875 3.015625 
Q 35.15625 -1.421875 24.609375 -1.421875 
Q 20.21875 -1.421875 15.453125 -0.5625 
Q 10.6875 0.296875 5.421875 2 
L 5.421875 11.28125 
Q 10.40625 8.6875 15.234375 7.390625 
Q 20.0625 6.109375 24.8125 6.109375 
Q 31.15625 6.109375 34.5625 8.28125 
Q 37.984375 10.453125 37.984375 14.40625 
Q 37.984375 18.0625 35.515625 20.015625 
Q 33.0625 21.96875 24.703125 23.78125 
L 21.578125 24.515625 
Q 13.234375 26.265625 9.515625 29.90625 
Q 5.8125 33.546875 5.8125 39.890625 
Q 5.8125 47.609375 11.28125 51.796875 
Q 16.75 56 26.8125 56 
Q 31.78125 56 36.171875 55.265625 
Q 40.578125 54.546875 44.28125 53.078125 
z
" id="DejaVuSans-115"/>
      <path id="DejaVuSans-32"/>
      <path d="M 31 75.875 
Q 24.46875 64.65625 21.28125 53.65625 
Q 18.109375 42.671875 18.109375 31.390625 
Q 18.109375 20.125 21.3125 9.0625 
Q 24.515625 -2 31 -13.1875 
L 23.1875 -13.1875 
Q 15.875 -1.703125 12.234375 9.375 
Q 8.59375 20.453125 8.59375 31.390625 
Q 8.59375 42.28125 12.203125 53.3125 
Q 15.828125 64.359375 23.1875 75.875 
z
" id="DejaVuSans-40"/>
      <path d="M 41.109375 46.296875 
Q 39.59375 47.171875 37.8125 47.578125 
Q 36.03125 48 33.890625 48 
Q 26.265625 48 22.1875 43.046875 
Q 18.109375 38.09375 18.109375 28.8125 
L 18.109375 0 
L 9.078125 0 
L 9.078125 54.6875 
L 18.109375 54.6875 
L 18.109375 46.1875 
Q 20.953125 51.171875 25.484375 53.578125 
Q 30.03125 56 36.53125 56 
Q 37.453125 56 38.578125 55.875 
Q 39.703125 55.765625 41.0625 55.515625 
z
" id="DejaVuSans-114"/>
      <path d="M 30.609375 48.390625 
Q 23.390625 48.390625 19.1875 42.75 
Q 14.984375 37.109375 14.984375 27.296875 
Q 14.984375 17.484375 19.15625 11.84375 
Q 23.34375 6.203125 30.609375 6.203125 
Q 37.796875 6.203125 41.984375 11.859375 
Q 46.1875 17.53125 46.1875 27.296875 
Q 46.1875 37.015625 41.984375 42.703125 
Q 37.796875 48.390625 30.609375 48.390625 
z
M 30.609375 56 
Q 42.328125 56 49.015625 48.375 
Q 55.71875 40.765625 55.71875 27.296875 
Q 55.71875 13.875 49.015625 6.21875 
Q 42.328125 -1.421875 30.609375 -1.421875 
Q 18.84375 -1.421875 12.171875 6.21875 
Q 5.515625 13.875 5.515625 27.296875 
Q 5.515625 40.765625 12.171875 48.375 
Q 18.84375 56 30.609375 56 
z
" id="DejaVuSans-111"/>
      <path d="M 48.6875 27.296875 
Q 48.6875 37.203125 44.609375 42.84375 
Q 40.53125 48.484375 33.40625 48.484375 
Q 26.265625 48.484375 22.1875 42.84375 
Q 18.109375 37.203125 18.109375 27.296875 
Q 18.109375 17.390625 22.1875 11.75 
Q 26.265625 6.109375 33.40625 6.109375 
Q 40.53125 6.109375 44.609375 11.75 
Q 48.6875 17.390625 48.6875 27.296875 
z
M 18.109375 46.390625 
Q 20.953125 51.265625 25.265625 53.625 
Q 29.59375 56 35.59375 56 
Q 45.5625 56 51.78125 48.09375 
Q 58.015625 40.1875 58.015625 27.296875 
Q 58.015625 14.40625 51.78125 6.484375 
Q 45.5625 -1.421875 35.59375 -1.421875 
Q 29.59375 -1.421875 25.265625 0.953125 
Q 20.953125 3.328125 18.109375 8.203125 
L 18.109375 0 
L 9.078125 0 
L 9.078125 75.984375 
L 18.109375 75.984375 
z
" id="DejaVuSans-98"/>
      <path d="M 45.40625 46.390625 
L 45.40625 75.984375 
L 54.390625 75.984375 
L 54.390625 0 
L 45.40625 0 
L 45.40625 8.203125 
Q 42.578125 3.328125 38.25 0.953125 
Q 33.9375 -1.421875 27.875 -1.421875 
Q 17.96875 -1.421875 11.734375 6.484375 
Q 5.515625 14.40625 5.515625 27.296875 
Q 5.515625 40.1875 11.734375 48.09375 
Q 17.96875 56 27.875 56 
Q 33.9375 56 38.25 53.625 
Q 42.578125 51.265625 45.40625 46.390625 
z
M 14.796875 27.296875 
Q 14.796875 17.390625 18.875 11.75 
Q 22.953125 6.109375 30.078125 6.109375 
Q 37.203125 6.109375 41.296875 11.75 
Q 45.40625 17.390625 45.40625 27.296875 
Q 45.40625 37.203125 41.296875 42.84375 
Q 37.203125 48.484375 30.078125 48.484375 
Q 22.953125 48.484375 18.875 42.84375 
Q 14.796875 37.203125 14.796875 27.296875 
z
" id="DejaVuSans-100"/>
      <path d="M 54.890625 54.6875 
L 35.109375 28.078125 
L 55.90625 0 
L 45.3125 0 
L 29.390625 21.484375 
L 13.484375 0 
L 2.875 0 
L 24.125 28.609375 
L 4.6875 54.6875 
L 15.28125 54.6875 
L 29.78125 35.203125 
L 44.28125 54.6875 
z
" id="DejaVuSans-120"/>
      <path d="M 8.015625 75.875 
L 15.828125 75.875 
Q 23.140625 64.359375 26.78125 53.3125 
Q 30.421875 42.28125 30.421875 31.390625 
Q 30.421875 20.453125 26.78125 9.375 
Q 23.140625 -1.703125 15.828125 -13.1875 
L 8.015625 -13.1875 
Q 14.5 -2 17.703125 9.0625 
Q 20.90625 20.125 20.90625 31.390625 
Q 20.90625 42.671875 17.703125 53.65625 
Q 14.5 64.65625 8.015625 75.875 
z
" id="DejaVuSans-41"/>
     </defs>
     <g transform="translate(242.53125 351.675)scale(0.2 -0.2)">
      <use xlink:href="#DejaVuSans-72"/>
      <use x="75.195312" xlink:href="#DejaVuSans-105"/>
      <use x="102.978516" xlink:href="#DejaVuSans-112"/>
      <use x="166.455078" xlink:href="#DejaVuSans-243"/>
      <use x="227.636719" xlink:href="#DejaVuSans-116"/>
      <use x="266.845703" xlink:href="#DejaVuSans-101"/>
      <use x="328.369141" xlink:href="#DejaVuSans-115"/>
      <use x="380.46875" xlink:href="#DejaVuSans-105"/>
      <use x="408.251953" xlink:href="#DejaVuSans-115"/>
      <use x="460.351562" xlink:href="#DejaVuSans-32"/>
      <use x="492.138672" xlink:href="#DejaVuSans-40"/>
      <use x="531.152344" xlink:href="#DejaVuSans-112"/>
      <use x="594.628906" xlink:href="#DejaVuSans-114"/>
      <use x="633.492188" xlink:href="#DejaVuSans-111"/>
      <use x="694.673828" xlink:href="#DejaVuSans-98"/>
      <use x="758.150391" xlink:href="#DejaVuSans-46"/>
      <use x="789.9375" xlink:href="#DejaVuSans-32"/>
      <use x="821.724609" xlink:href="#DejaVuSans-100"/>
      <use x="885.201172" xlink:href="#DejaVuSans-101"/>
      <use x="946.724609" xlink:href="#DejaVuSans-32"/>
      <use x="978.511719" xlink:href="#DejaVuSans-101"/>
      <use x="1038.285156" xlink:href="#DejaVuSans-120"/>
      <use x="1097.464844" xlink:href="#DejaVuSans-105"/>
      <use x="1125.248047" xlink:href="#DejaVuSans-116"/>
      <use x="1164.457031" xlink:href="#DejaVuSans-111"/>
      <use x="1225.638672" xlink:href="#DejaVuSans-41"/>
     </g>
    </g>
   </g>
   <g id="matplotlib.axis_2">
    <g id="ytick_1">
     <g id="line2d_7">
      <defs>
       <path d="M 0 0 
L -3.5 0 
" id="m8cde96760c" style="stroke:#000000;stroke-width:0.8;"/>
      </defs>
      <g>
       <use style="stroke:#000000;stroke-width:0.8;" x="90" xlink:href="#m8cde96760c" y="315"/>
      </g>
     </g>
     <g id="text_8">
      <!-- 0.0 -->
      <g transform="translate(67.096875 318.799219)scale(0.1 -0.1)">
       <use xlink:href="#DejaVuSans-48"/>
       <use x="63.623047" xlink:href="#DejaVuSans-46"/>
       <use x="95.410156" xlink:href="#DejaVuSans-48"/>
      </g>
     </g>
    </g>
    <g id="ytick_2">
     <g id="line2d_8">
      <g>
       <use style="stroke:#000000;stroke-width:0.8;" x="90" xlink:href="#m8cde96760c" y="278.76"/>
      </g>
     </g>
     <g id="text_9">
      <!-- 0.2 -->
      <g transform="translate(67.096875 282.559219)scale(0.1 -0.1)">
       <use xlink:href="#DejaVuSans-48"/>
       <use x="63.623047" xlink:href="#DejaVuSans-46"/>
       <use x="95.410156" xlink:href="#DejaVuSans-50"/>
      </g>
     </g>
    </g>
    <g id="ytick_3">
     <g id="line2d_9">
      <g>
       <use style="stroke:#000000;stroke-width:0.8;" x="90" xlink:href="#m8cde96760c" y="242.52"/>
      </g>
     </g>
     <g id="text_10">
      <!-- 0.4 -->
      <g transform="translate(67.096875 246.319219)scale(0.1 -0.1)">
       <use xlink:href="#DejaVuSans-48"/>
       <use x="63.623047" xlink:href="#DejaVuSans-46"/>
       <use x="95.410156" xlink:href="#DejaVuSans-52"/>
      </g>
     </g>
    </g>
    <g id="ytick_4">
     <g id="line2d_10">
      <g>
       <use style="stroke:#000000;stroke-width:0.8;" x="90" xlink:href="#m8cde96760c" y="206.28"/>
      </g>
     </g>
     <g id="text_11">
      <!-- 0.6 -->
      <g transform="translate(67.096875 210.079219)scale(0.1 -0.1)">
       <use xlink:href="#DejaVuSans-48"/>
       <use x="63.623047" xlink:href="#DejaVuSans-46"/>
       <use x="95.410156" xlink:href="#DejaVuSans-54"/>
      </g>
     </g>
    </g>
    <g id="ytick_5">
     <g id="line2d_11">
      <g>
       <use style="stroke:#000000;stroke-width:0.8;" x="90" xlink:href="#m8cde96760c" y="170.04"/>
      </g>
     </g>
     <g id="text_12">
      <!-- 0.8 -->
      <g transform="translate(67.096875 173.839219)scale(0.1 -0.1)">
       <use xlink:href="#DejaVuSans-48"/>
       <use x="63.623047" xlink:href="#DejaVuSans-46"/>
       <use x="95.410156" xlink:href="#DejaVuSans-56"/>
      </g>
     </g>
    </g>
    <g id="ytick_6">
     <g id="line2d_12">
      <g>
       <use style="stroke:#000000;stroke-width:0.8;" x="90" xlink:href="#m8cde96760c" y="133.8"/>
      </g>
     </g>
     <g id="text_13">
      <!-- 1.0 -->
      <g transform="translate(67.096875 137.599219)scale(0.1 -0.1)">
       <use xlink:href="#DejaVuSans-49"/>
       <use x="63.623047" xlink:href="#DejaVuSans-46"/>
       <use x="95.410156" xlink:href="#DejaVuSans-48"/>
      </g>
     </g>
    </g>
    <g id="ytick_7">
     <g id="line2d_13">
      <g>
       <use style="stroke:#000000;stroke-width:0.8;" x="90" xlink:href="#m8cde96760c" y="97.56"/>
      </g>
     </g>
     <g id="text_14">
      <!-- 1.2 -->
      <g transform="translate(67.096875 101.359219)scale(0.1 -0.1)">
       <use xlink:href="#DejaVuSans-49"/>
       <use x="63.623047" xlink:href="#DejaVuSans-46"/>
       <use x="95.410156" xlink:href="#DejaVuSans-50"/>
      </g>
     </g>
    </g>
    <g id="ytick_8">
     <g id="line2d_14">
      <g>
       <use style="stroke:#000000;stroke-width:0.8;" x="90" xlink:href="#m8cde96760c" y="61.32"/>
      </g>
     </g>
     <g id="text_15">
      <!-- 1.4 -->
      <g transform="translate(67.096875 65.119219)scale(0.1 -0.1)">
       <use xlink:href="#DejaVuSans-49"/>
       <use x="63.623047" xlink:href="#DejaVuSans-46"/>
       <use x="95.410156" xlink:href="#DejaVuSans-52"/>
      </g>
     </g>
    </g>
    <g id="text_16">
     <!-- Probabilidad  -->
     <defs>
      <path d="M 19.671875 64.796875 
L 19.671875 37.40625 
L 32.078125 37.40625 
Q 38.96875 37.40625 42.71875 40.96875 
Q 46.484375 44.53125 46.484375 51.125 
Q 46.484375 57.671875 42.71875 61.234375 
Q 38.96875 64.796875 32.078125 64.796875 
z
M 9.8125 72.90625 
L 32.078125 72.90625 
Q 44.34375 72.90625 50.609375 67.359375 
Q 56.890625 61.8125 56.890625 51.125 
Q 56.890625 40.328125 50.609375 34.8125 
Q 44.34375 29.296875 32.078125 29.296875 
L 19.671875 29.296875 
L 19.671875 0 
L 9.8125 0 
z
" id="DejaVuSans-80"/>
      <path d="M 34.28125 27.484375 
Q 23.390625 27.484375 19.1875 25 
Q 14.984375 22.515625 14.984375 16.5 
Q 14.984375 11.71875 18.140625 8.90625 
Q 21.296875 6.109375 26.703125 6.109375 
Q 34.1875 6.109375 38.703125 11.40625 
Q 43.21875 16.703125 43.21875 25.484375 
L 43.21875 27.484375 
z
M 52.203125 31.203125 
L 52.203125 0 
L 43.21875 0 
L 43.21875 8.296875 
Q 40.140625 3.328125 35.546875 0.953125 
Q 30.953125 -1.421875 24.3125 -1.421875 
Q 15.921875 -1.421875 10.953125 3.296875 
Q 6 8.015625 6 15.921875 
Q 6 25.140625 12.171875 29.828125 
Q 18.359375 34.515625 30.609375 34.515625 
L 43.21875 34.515625 
L 43.21875 35.40625 
Q 43.21875 41.609375 39.140625 45 
Q 35.0625 48.390625 27.6875 48.390625 
Q 23 48.390625 18.546875 47.265625 
Q 14.109375 46.140625 10.015625 43.890625 
L 10.015625 52.203125 
Q 14.9375 54.109375 19.578125 55.046875 
Q 24.21875 56 28.609375 56 
Q 40.484375 56 46.34375 49.84375 
Q 52.203125 43.703125 52.203125 31.203125 
z
" id="DejaVuSans-97"/>
      <path d="M 9.421875 75.984375 
L 18.40625 75.984375 
L 18.40625 0 
L 9.421875 0 
z
" id="DejaVuSans-108"/>
     </defs>
     <g transform="translate(36.541875 244.121875)rotate(-90)scale(0.2 -0.2)">
      <use xlink:href="#DejaVuSans-80"/>
      <use x="58.552734" xlink:href="#DejaVuSans-114"/>
      <use x="97.416016" xlink:href="#DejaVuSans-111"/>
      <use x="158.597656" xlink:href="#DejaVuSans-98"/>
      <use x="222.074219" xlink:href="#DejaVuSans-97"/>
      <use x="283.353516" xlink:href="#DejaVuSans-98"/>
      <use x="346.830078" xlink:href="#DejaVuSans-105"/>
      <use x="374.613281" xlink:href="#DejaVuSans-108"/>
      <use x="402.396484" xlink:href="#DejaVuSans-105"/>
      <use x="430.179688" xlink:href="#DejaVuSans-100"/>
      <use x="493.65625" xlink:href="#DejaVuSans-97"/>
      <use x="554.935547" xlink:href="#DejaVuSans-100"/>
      <use x="618.412109" xlink:href="#DejaVuSans-32"/>
     </g>
     <!--  (relativo al max) -->
     <defs>
      <path d="M 2.984375 54.6875 
L 12.5 54.6875 
L 29.59375 8.796875 
L 46.6875 54.6875 
L 56.203125 54.6875 
L 35.6875 0 
L 23.484375 0 
z
" id="DejaVuSans-118"/>
      <path d="M 52 44.1875 
Q 55.375 50.25 60.0625 53.125 
Q 64.75 56 71.09375 56 
Q 79.640625 56 84.28125 50.015625 
Q 88.921875 44.046875 88.921875 33.015625 
L 88.921875 0 
L 79.890625 0 
L 79.890625 32.71875 
Q 79.890625 40.578125 77.09375 44.375 
Q 74.3125 48.1875 68.609375 48.1875 
Q 61.625 48.1875 57.5625 43.546875 
Q 53.515625 38.921875 53.515625 30.90625 
L 53.515625 0 
L 44.484375 0 
L 44.484375 32.71875 
Q 44.484375 40.625 41.703125 44.40625 
Q 38.921875 48.1875 33.109375 48.1875 
Q 26.21875 48.1875 22.15625 43.53125 
Q 18.109375 38.875 18.109375 30.90625 
L 18.109375 0 
L 9.078125 0 
L 9.078125 54.6875 
L 18.109375 54.6875 
L 18.109375 46.1875 
Q 21.1875 51.21875 25.484375 53.609375 
Q 29.78125 56 35.6875 56 
Q 41.65625 56 45.828125 52.96875 
Q 50 49.953125 52 44.1875 
z
" id="DejaVuSans-109"/>
     </defs>
     <g transform="translate(58.9375 264.8125)rotate(-90)scale(0.2 -0.2)">
      <use xlink:href="#DejaVuSans-32"/>
      <use x="31.787109" xlink:href="#DejaVuSans-40"/>
      <use x="70.800781" xlink:href="#DejaVuSans-114"/>
      <use x="109.664062" xlink:href="#DejaVuSans-101"/>
      <use x="171.1875" xlink:href="#DejaVuSans-108"/>
      <use x="198.970703" xlink:href="#DejaVuSans-97"/>
      <use x="260.25" xlink:href="#DejaVuSans-116"/>
      <use x="299.458984" xlink:href="#DejaVuSans-105"/>
      <use x="327.242188" xlink:href="#DejaVuSans-118"/>
      <use x="386.421875" xlink:href="#DejaVuSans-111"/>
      <use x="447.603516" xlink:href="#DejaVuSans-32"/>
      <use x="479.390625" xlink:href="#DejaVuSans-97"/>
      <use x="540.669922" xlink:href="#DejaVuSans-108"/>
      <use x="568.453125" xlink:href="#DejaVuSans-32"/>
      <use x="600.240234" xlink:href="#DejaVuSans-109"/>
      <use x="697.652344" xlink:href="#DejaVuSans-97"/>
      <use x="758.931641" xlink:href="#DejaVuSans-120"/>
      <use x="818.111328" xlink:href="#DejaVuSans-41"/>
     </g>
    </g>
   </g>
   <g id="line2d_15">
    <path clip-path="url(#p1c6815a1d7)" d="M 148.097556 312.007392 
L 149.82143 310.878898 
L 151.545303 309.454295 
L 153.269176 307.692136 
L 154.99305 305.552797 
L 156.716923 302.999959 
L 158.440797 300.002042 
L 160.16467 296.533551 
L 161.888544 292.576268 
L 163.612417 288.120237 
L 165.33629 283.164528 
L 167.060164 277.717725 
L 168.784037 271.79815 
L 170.507911 265.433812 
L 172.231784 258.662076 
L 173.955657 251.529095 
L 175.679531 244.089002 
L 177.403404 236.402918 
L 179.127278 228.537793 
L 180.851151 220.565128 
L 182.575025 212.559616 
L 184.298898 204.597746 
L 186.022771 196.756398 
L 187.746645 189.111476 
L 189.470518 181.736605 
L 191.194392 174.701922 
L 192.918265 168.072982 
L 194.642139 161.909807 
L 196.366012 156.266076 
L 198.089885 151.188478 
L 199.813759 146.716228 
L 201.537632 142.880744 
L 203.261506 139.705479 
L 204.985379 137.20591 
L 206.709252 135.389663 
L 208.433126 134.256762 
L 210.156999 133.8 
L 211.880873 134.005399 
L 213.604746 134.852753 
L 215.32862 136.316237 
L 217.052493 138.365062 
L 218.776366 140.964158 
L 220.50024 144.074885 
L 222.224113 147.655731 
L 223.947987 151.663014 
L 225.67186 156.051551 
L 227.395733 160.775307 
L 229.119607 165.787995 
L 230.84348 171.043639 
L 232.567354 176.497078 
L 234.291227 182.104423 
L 236.015101 187.823451 
L 237.738974 193.61395 
L 239.462847 199.437997 
L 241.186721 205.260185 
L 242.910594 211.047799 
L 244.634468 216.770935 
L 246.358341 222.402573 
L 248.082215 227.91861 
L 249.806088 233.297846 
L 251.529961 238.52194 
L 253.253835 243.575335 
L 254.977708 248.445149 
L 256.701582 253.121055 
L 258.425455 257.595137 
L 260.149328 261.861725 
L 261.873202 265.917237 
L 263.597075 269.759995 
L 265.320949 273.390053 
L 267.044822 276.809014 
L 268.768696 280.019854 
L 270.492569 283.02675 
L 272.216442 285.834909 
L 273.940316 288.450409 
L 275.664189 290.880048 
L 277.388063 293.131204 
L 279.111936 295.211698 
L 280.835809 297.129675 
L 282.559683 298.893496 
L 284.283556 300.511635 
L 286.00743 301.992594 
L 287.731303 303.344822 
L 289.455177 304.576649 
L 291.17905 305.696226 
L 292.902923 306.71148 
L 294.626797 307.63007 
L 296.35067 308.459358 
L 298.074544 309.20638 
L 299.798417 309.877831 
L 301.522291 310.480053 
L 303.246164 311.019026 
L 304.970037 311.500363 
L 306.693911 311.929319 
L 308.417784 312.31079 
L 310.141658 312.64932 
L 311.865531 312.949119 
L 313.589404 313.214066 
L 315.313278 313.447728 
L 317.037151 313.653375 
L 318.761025 313.833993 
" style="fill:none;stroke:#ff0000;stroke-linecap:square;stroke-opacity:0.6;stroke-width:2;"/>
   </g>
   <g id="line2d_16">
    <path clip-path="url(#p1c6815a1d7)" d="M 419.727273 310.337927 
L 421.77686 309.671834 
L 423.826446 308.924349 
L 425.876033 308.08766 
L 427.92562 307.153521 
L 429.975207 306.113271 
L 432.024793 304.957866 
L 434.07438 303.677921 
L 436.123967 302.263766 
L 438.173554 300.705502 
L 440.22314 298.993089 
L 442.272727 297.116425 
L 444.322314 295.065463 
L 446.371901 292.83032 
L 448.421488 290.401419 
L 450.471074 287.769634 
L 452.520661 284.926459 
L 454.570248 281.86418 
L 456.619835 278.576077 
L 458.669421 275.056619 
L 460.719008 271.301688 
L 462.768595 267.308799 
L 464.818182 263.077329 
L 466.867769 258.608756 
L 468.917355 253.906888 
L 470.966942 248.978095 
L 473.016529 243.831528 
L 475.066116 238.479324 
L 477.115702 232.936798 
L 479.165289 227.222599 
L 481.214876 221.35885 
L 483.264463 215.371233 
L 485.31405 209.289049 
L 487.363636 203.145211 
L 489.413223 196.976194 
L 491.46281 190.821918 
L 493.512397 184.725561 
L 495.561983 178.733305 
L 497.61157 172.894006 
L 499.661157 167.258784 
L 501.710744 161.880537 
L 503.760331 156.813373 
L 505.809917 152.111972 
L 507.859504 147.83087 
L 509.909091 144.023683 
L 511.958678 140.742268 
L 514.008264 138.035849 
L 516.057851 135.950099 
L 518.107438 134.526218 
L 520.157025 133.8 
L 522.206612 133.800934 
L 524.256198 134.551341 
L 526.305785 136.065582 
L 528.355372 138.349355 
L 530.404959 141.399108 
L 532.454545 145.201595 
L 534.504132 149.733588 
L 536.553719 154.961777 
L 538.603306 160.842874 
L 540.652893 167.323931 
L 542.702479 174.342882 
L 544.752066 181.829323 
L 546.801653 189.705514 
L 548.85124 197.887605 
L 550.900826 206.287066 
L 552.950413 214.812293 
L 555 223.370363 
L 557.049587 231.868892 
L 559.099174 240.217956 
L 561.14876 248.33201 
L 563.198347 256.131758 
L 565.247934 263.545899 
L 567.297521 270.512697 
L 569.347107 276.981312 
L 571.396694 282.912822 
L 573.446281 288.280903 
L 575.495868 293.072117 
L 577.545455 297.285786 
L 579.595041 300.933439 
L 581.644628 304.03785 
L 583.694215 306.631679 
L 585.743802 308.755796 
L 587.793388 310.457321 
L 589.842975 311.787503 
L 591.892562 312.799529 
L 593.942149 313.546364 
L 595.991736 314.078768 
L 598.041322 314.443571 
L 600.090909 314.682321 
L 602.140496 314.830376 
L 604.190083 314.916474 
L 606.239669 314.962782 
L 608.289256 314.985388 
L 610.338843 314.995138 
L 612.38843 314.998709 
L 614.438017 314.999753 
L 616.487603 314.999972 
L 618.53719 314.999999 
L 620.586777 315 
L 622.636364 315 
" style="fill:none;stroke:#0000ff;stroke-linecap:square;stroke-width:2;"/>
   </g>
   <g id="line2d_17">
    <path clip-path="url(#p1c6815a1d7)" d="M 272.63297 313.291718 
L 274.259382 312.907407 
L 275.885794 312.450238 
L 277.512205 311.909438 
L 279.138617 311.273249 
L 280.765029 310.52895 
L 282.39144 309.662905 
L 284.017852 308.660638 
L 285.644264 307.506938 
L 287.270675 306.185999 
L 288.897087 304.681587 
L 290.523499 302.97725 
L 292.14991 301.05656 
L 293.776322 298.903384 
L 295.402734 296.502196 
L 297.029145 293.838406 
L 298.655557 290.898724 
L 300.281969 287.671534 
L 301.90838 284.147286 
L 303.534792 280.318887 
L 305.161204 276.182089 
L 306.787615 271.735867 
L 308.414027 266.982763 
L 310.040439 261.929203 
L 311.66685 256.585773 
L 313.293262 250.967424 
L 314.919674 245.093631 
L 316.546085 238.988469 
L 318.172497 232.680609 
L 319.798909 226.203227 
L 321.42532 219.593834 
L 323.051732 212.893995 
L 324.678144 206.148974 
L 326.304555 199.407277 
L 327.930967 192.720119 
L 329.557379 186.14081 
L 331.18379 179.724075 
L 332.810202 173.525315 
L 334.436614 167.59983 
L 336.063025 162.002011 
L 337.689437 156.784526 
L 339.315849 151.997502 
L 340.94226 147.687739 
L 342.568672 143.897962 
L 344.195084 140.666126 
L 345.821495 138.024794 
L 347.447907 136.000606 
L 349.074319 134.613839 
L 350.70073 133.878077 
L 352.327142 133.8 
L 353.953554 134.379285 
L 355.579965 135.608634 
L 357.206377 137.473922 
L 358.832789 139.954456 
L 360.4592 143.02335 
L 362.085612 146.647996 
L 363.712024 150.790629 
L 365.338435 155.408958 
L 366.964847 160.456873 
L 368.591259 165.885183 
L 370.21767 171.642395 
L 371.844082 177.675495 
L 373.470494 183.930739 
L 375.096905 190.354411 
L 376.723317 196.893555 
L 378.349729 203.496662 
L 379.97614 210.114296 
L 381.602552 216.69965 
L 383.228964 223.209034 
L 384.855375 229.602274 
L 386.481787 235.843036 
L 388.108199 241.89906 
L 389.73461 247.742308 
L 391.361022 253.349041 
L 392.987434 258.699805 
L 394.613845 263.779357 
L 396.240257 268.576525 
L 397.866669 273.084005 
L 399.49308 277.298124 
L 401.119492 281.218549 
L 402.745904 284.847978 
L 404.372315 288.191807 
L 405.998727 291.257781 
L 407.625139 294.055647 
L 409.25155 296.596807 
L 410.877962 298.89398 
L 412.504374 300.960883 
L 414.130785 302.811928 
L 415.757197 304.461942 
L 417.383608 305.925921 
L 419.01002 307.218802 
L 420.636432 308.355271 
L 422.262843 309.349597 
L 423.889255 310.2155 
L 425.515667 310.966037 
L 427.142078 311.613523 
L 428.76849 312.169476 
L 430.394902 312.644575 
L 432.021313 313.048645 
L 433.647725 313.390662 
" style="fill:none;stroke:#008000;stroke-linecap:square;stroke-opacity:0.6;stroke-width:2;"/>
   </g>
   <g id="patch_3">
    <path d="M 90 315 
L 90 43.2 
" style="fill:none;stroke:#000000;stroke-linecap:square;stroke-linejoin:miter;stroke-width:0.8;"/>
   </g>
   <g id="patch_4">
    <path d="M 648 315 
L 648 43.2 
" style="fill:none;stroke:#000000;stroke-linecap:square;stroke-linejoin:miter;stroke-width:0.8;"/>
   </g>
   <g id="patch_5">
    <path d="M 90 315 
L 648 315 
" style="fill:none;stroke:#000000;stroke-linecap:square;stroke-linejoin:miter;stroke-width:0.8;"/>
   </g>
   <g id="patch_6">
    <path d="M 90 43.2 
L 648 43.2 
" style="fill:none;stroke:#000000;stroke-linecap:square;stroke-linejoin:miter;stroke-width:0.8;"/>
   </g>
   <g id="text_17">
    <!-- Posterior: Prior vs. Likelihood -->
    <defs>
     <path d="M 11.71875 12.40625 
L 22.015625 12.40625 
L 22.015625 0 
L 11.71875 0 
z
M 11.71875 51.703125 
L 22.015625 51.703125 
L 22.015625 39.3125 
L 11.71875 39.3125 
z
" id="DejaVuSans-58"/>
     <path d="M 9.8125 72.90625 
L 19.671875 72.90625 
L 19.671875 8.296875 
L 55.171875 8.296875 
L 55.171875 0 
L 9.8125 0 
z
" id="DejaVuSans-76"/>
     <path d="M 9.078125 75.984375 
L 18.109375 75.984375 
L 18.109375 31.109375 
L 44.921875 54.6875 
L 56.390625 54.6875 
L 27.390625 29.109375 
L 57.625 0 
L 45.90625 0 
L 18.109375 26.703125 
L 18.109375 0 
L 9.078125 0 
z
" id="DejaVuSans-107"/>
     <path d="M 54.890625 33.015625 
L 54.890625 0 
L 45.90625 0 
L 45.90625 32.71875 
Q 45.90625 40.484375 42.875 44.328125 
Q 39.84375 48.1875 33.796875 48.1875 
Q 26.515625 48.1875 22.3125 43.546875 
Q 18.109375 38.921875 18.109375 30.90625 
L 18.109375 0 
L 9.078125 0 
L 9.078125 75.984375 
L 18.109375 75.984375 
L 18.109375 46.1875 
Q 21.34375 51.125 25.703125 53.5625 
Q 30.078125 56 35.796875 56 
Q 45.21875 56 50.046875 50.171875 
Q 54.890625 44.34375 54.890625 33.015625 
z
" id="DejaVuSans-104"/>
    </defs>
    <g transform="translate(224.39375 37.2)scale(0.2 -0.2)">
     <use xlink:href="#DejaVuSans-80"/>
     <use x="56.677734" xlink:href="#DejaVuSans-111"/>
     <use x="117.859375" xlink:href="#DejaVuSans-115"/>
     <use x="169.958984" xlink:href="#DejaVuSans-116"/>
     <use x="209.167969" xlink:href="#DejaVuSans-101"/>
     <use x="270.691406" xlink:href="#DejaVuSans-114"/>
     <use x="311.804688" xlink:href="#DejaVuSans-105"/>
     <use x="339.587891" xlink:href="#DejaVuSans-111"/>
     <use x="400.769531" xlink:href="#DejaVuSans-114"/>
     <use x="440.132812" xlink:href="#DejaVuSans-58"/>
     <use x="473.824219" xlink:href="#DejaVuSans-32"/>
     <use x="505.611328" xlink:href="#DejaVuSans-80"/>
     <use x="564.164062" xlink:href="#DejaVuSans-114"/>
     <use x="605.277344" xlink:href="#DejaVuSans-105"/>
     <use x="633.060547" xlink:href="#DejaVuSans-111"/>
     <use x="694.242188" xlink:href="#DejaVuSans-114"/>
     <use x="735.355469" xlink:href="#DejaVuSans-32"/>
     <use x="767.142578" xlink:href="#DejaVuSans-118"/>
     <use x="826.322266" xlink:href="#DejaVuSans-115"/>
     <use x="878.421875" xlink:href="#DejaVuSans-46"/>
     <use x="910.208984" xlink:href="#DejaVuSans-32"/>
     <use x="941.996094" xlink:href="#DejaVuSans-76"/>
     <use x="997.708984" xlink:href="#DejaVuSans-105"/>
     <use x="1025.492188" xlink:href="#DejaVuSans-107"/>
     <use x="1079.777344" xlink:href="#DejaVuSans-101"/>
     <use x="1141.300781" xlink:href="#DejaVuSans-108"/>
     <use x="1169.083984" xlink:href="#DejaVuSans-105"/>
     <use x="1196.867188" xlink:href="#DejaVuSans-104"/>
     <use x="1260.246094" xlink:href="#DejaVuSans-111"/>
     <use x="1321.427734" xlink:href="#DejaVuSans-111"/>
     <use x="1382.609375" xlink:href="#DejaVuSans-100"/>
    </g>
   </g>
   <g id="legend_1">
    <g id="patch_7">
     <path d="M 461.866875 119.078625 
L 639.6 119.078625 
Q 642 119.078625 642 116.678625 
L 642 51.6 
Q 642 49.2 639.6 49.2 
L 461.866875 49.2 
Q 459.466875 49.2 459.466875 51.6 
L 459.466875 116.678625 
Q 459.466875 119.078625 461.866875 119.078625 
z
" style="fill:#ffffff;opacity:0.8;stroke:#cccccc;stroke-linejoin:miter;"/>
    </g>
    <g id="line2d_18">
     <path d="M 464.266875 58.918125 
L 488.266875 58.918125 
" style="fill:none;stroke:#ff0000;stroke-linecap:square;stroke-opacity:0.6;stroke-width:2;"/>
    </g>
    <g id="line2d_19"/>
    <g id="text_18">
     <!-- Prior beta(10,40) -->
     <defs>
      <path d="M 11.71875 12.40625 
L 22.015625 12.40625 
L 22.015625 4 
L 14.015625 -11.625 
L 7.71875 -11.625 
L 11.71875 4 
z
" id="DejaVuSans-44"/>
     </defs>
     <g transform="translate(497.866875 63.118125)scale(0.12 -0.12)">
      <use xlink:href="#DejaVuSans-80"/>
      <use x="58.552734" xlink:href="#DejaVuSans-114"/>
      <use x="99.666016" xlink:href="#DejaVuSans-105"/>
      <use x="127.449219" xlink:href="#DejaVuSans-111"/>
      <use x="188.630859" xlink:href="#DejaVuSans-114"/>
      <use x="229.744141" xlink:href="#DejaVuSans-32"/>
      <use x="261.53125" xlink:href="#DejaVuSans-98"/>
      <use x="325.007812" xlink:href="#DejaVuSans-101"/>
      <use x="386.53125" xlink:href="#DejaVuSans-116"/>
      <use x="425.740234" xlink:href="#DejaVuSans-97"/>
      <use x="487.019531" xlink:href="#DejaVuSans-40"/>
      <use x="526.033203" xlink:href="#DejaVuSans-49"/>
      <use x="589.65625" xlink:href="#DejaVuSans-48"/>
      <use x="653.279297" xlink:href="#DejaVuSans-44"/>
      <use x="685.066406" xlink:href="#DejaVuSans-52"/>
      <use x="748.689453" xlink:href="#DejaVuSans-48"/>
      <use x="812.3125" xlink:href="#DejaVuSans-41"/>
     </g>
    </g>
    <g id="line2d_20">
     <path d="M 464.266875 84.498375 
L 488.266875 84.498375 
" style="fill:none;stroke:#0000ff;stroke-linecap:square;stroke-width:2;"/>
    </g>
    <g id="line2d_21"/>
    <g id="text_19">
     <!-- Likelihood Bernoulli. -->
     <defs>
      <path d="M 19.671875 34.8125 
L 19.671875 8.109375 
L 35.5 8.109375 
Q 43.453125 8.109375 47.28125 11.40625 
Q 51.125 14.703125 51.125 21.484375 
Q 51.125 28.328125 47.28125 31.5625 
Q 43.453125 34.8125 35.5 34.8125 
z
M 19.671875 64.796875 
L 19.671875 42.828125 
L 34.28125 42.828125 
Q 41.5 42.828125 45.03125 45.53125 
Q 48.578125 48.25 48.578125 53.8125 
Q 48.578125 59.328125 45.03125 62.0625 
Q 41.5 64.796875 34.28125 64.796875 
z
M 9.8125 72.90625 
L 35.015625 72.90625 
Q 46.296875 72.90625 52.390625 68.21875 
Q 58.5 63.53125 58.5 54.890625 
Q 58.5 48.1875 55.375 44.234375 
Q 52.25 40.28125 46.1875 39.3125 
Q 53.46875 37.75 57.5 32.78125 
Q 61.53125 27.828125 61.53125 20.40625 
Q 61.53125 10.640625 54.890625 5.3125 
Q 48.25 0 35.984375 0 
L 9.8125 0 
z
" id="DejaVuSans-66"/>
      <path d="M 54.890625 33.015625 
L 54.890625 0 
L 45.90625 0 
L 45.90625 32.71875 
Q 45.90625 40.484375 42.875 44.328125 
Q 39.84375 48.1875 33.796875 48.1875 
Q 26.515625 48.1875 22.3125 43.546875 
Q 18.109375 38.921875 18.109375 30.90625 
L 18.109375 0 
L 9.078125 0 
L 9.078125 54.6875 
L 18.109375 54.6875 
L 18.109375 46.1875 
Q 21.34375 51.125 25.703125 53.5625 
Q 30.078125 56 35.796875 56 
Q 45.21875 56 50.046875 50.171875 
Q 54.890625 44.34375 54.890625 33.015625 
z
" id="DejaVuSans-110"/>
      <path d="M 8.5 21.578125 
L 8.5 54.6875 
L 17.484375 54.6875 
L 17.484375 21.921875 
Q 17.484375 14.15625 20.5 10.265625 
Q 23.53125 6.390625 29.59375 6.390625 
Q 36.859375 6.390625 41.078125 11.03125 
Q 45.3125 15.671875 45.3125 23.6875 
L 45.3125 54.6875 
L 54.296875 54.6875 
L 54.296875 0 
L 45.3125 0 
L 45.3125 8.40625 
Q 42.046875 3.421875 37.71875 1 
Q 33.40625 -1.421875 27.6875 -1.421875 
Q 18.265625 -1.421875 13.375 4.4375 
Q 8.5 10.296875 8.5 21.578125 
z
M 31.109375 56 
z
" id="DejaVuSans-117"/>
     </defs>
     <g transform="translate(497.866875 80.731875)scale(0.12 -0.12)">
      <use xlink:href="#DejaVuSans-76"/>
      <use x="55.712891" xlink:href="#DejaVuSans-105"/>
      <use x="83.496094" xlink:href="#DejaVuSans-107"/>
      <use x="137.78125" xlink:href="#DejaVuSans-101"/>
      <use x="199.304688" xlink:href="#DejaVuSans-108"/>
      <use x="227.087891" xlink:href="#DejaVuSans-105"/>
      <use x="254.871094" xlink:href="#DejaVuSans-104"/>
      <use x="318.25" xlink:href="#DejaVuSans-111"/>
      <use x="379.431641" xlink:href="#DejaVuSans-111"/>
      <use x="440.613281" xlink:href="#DejaVuSans-100"/>
      <use x="504.089844" xlink:href="#DejaVuSans-32"/>
      <use x="535.876953" xlink:href="#DejaVuSans-66"/>
      <use x="604.480469" xlink:href="#DejaVuSans-101"/>
      <use x="666.003906" xlink:href="#DejaVuSans-114"/>
      <use x="705.367188" xlink:href="#DejaVuSans-110"/>
      <use x="768.746094" xlink:href="#DejaVuSans-111"/>
      <use x="829.927734" xlink:href="#DejaVuSans-117"/>
      <use x="893.306641" xlink:href="#DejaVuSans-108"/>
      <use x="921.089844" xlink:href="#DejaVuSans-108"/>
      <use x="948.873047" xlink:href="#DejaVuSans-105"/>
      <use x="976.65625" xlink:href="#DejaVuSans-46"/>
     </g>
     <!-- Exitos: 32, Intentos: 40 -->
     <defs>
      <path d="M 9.8125 72.90625 
L 55.90625 72.90625 
L 55.90625 64.59375 
L 19.671875 64.59375 
L 19.671875 43.015625 
L 54.390625 43.015625 
L 54.390625 34.71875 
L 19.671875 34.71875 
L 19.671875 8.296875 
L 56.78125 8.296875 
L 56.78125 0 
L 9.8125 0 
z
" id="DejaVuSans-69"/>
      <path d="M 40.578125 39.3125 
Q 47.65625 37.796875 51.625 33 
Q 55.609375 28.21875 55.609375 21.1875 
Q 55.609375 10.40625 48.1875 4.484375 
Q 40.765625 -1.421875 27.09375 -1.421875 
Q 22.515625 -1.421875 17.65625 -0.515625 
Q 12.796875 0.390625 7.625 2.203125 
L 7.625 11.71875 
Q 11.71875 9.328125 16.59375 8.109375 
Q 21.484375 6.890625 26.8125 6.890625 
Q 36.078125 6.890625 40.9375 10.546875 
Q 45.796875 14.203125 45.796875 21.1875 
Q 45.796875 27.640625 41.28125 31.265625 
Q 36.765625 34.90625 28.71875 34.90625 
L 20.21875 34.90625 
L 20.21875 43.015625 
L 29.109375 43.015625 
Q 36.375 43.015625 40.234375 45.921875 
Q 44.09375 48.828125 44.09375 54.296875 
Q 44.09375 59.90625 40.109375 62.90625 
Q 36.140625 65.921875 28.71875 65.921875 
Q 24.65625 65.921875 20.015625 65.03125 
Q 15.375 64.15625 9.8125 62.3125 
L 9.8125 71.09375 
Q 15.4375 72.65625 20.34375 73.4375 
Q 25.25 74.21875 29.59375 74.21875 
Q 40.828125 74.21875 47.359375 69.109375 
Q 53.90625 64.015625 53.90625 55.328125 
Q 53.90625 49.265625 50.4375 45.09375 
Q 46.96875 40.921875 40.578125 39.3125 
z
" id="DejaVuSans-51"/>
      <path d="M 9.8125 72.90625 
L 19.671875 72.90625 
L 19.671875 0 
L 9.8125 0 
z
" id="DejaVuSans-73"/>
     </defs>
     <g transform="translate(497.866875 94.16925)scale(0.12 -0.12)">
      <use xlink:href="#DejaVuSans-69"/>
      <use x="63.183594" xlink:href="#DejaVuSans-120"/>
      <use x="122.363281" xlink:href="#DejaVuSans-105"/>
      <use x="150.146484" xlink:href="#DejaVuSans-116"/>
      <use x="189.355469" xlink:href="#DejaVuSans-111"/>
      <use x="250.537109" xlink:href="#DejaVuSans-115"/>
      <use x="302.636719" xlink:href="#DejaVuSans-58"/>
      <use x="336.328125" xlink:href="#DejaVuSans-32"/>
      <use x="368.115234" xlink:href="#DejaVuSans-51"/>
      <use x="431.738281" xlink:href="#DejaVuSans-50"/>
      <use x="495.361328" xlink:href="#DejaVuSans-44"/>
      <use x="527.148438" xlink:href="#DejaVuSans-32"/>
      <use x="558.935547" xlink:href="#DejaVuSans-73"/>
      <use x="588.427734" xlink:href="#DejaVuSans-110"/>
      <use x="651.806641" xlink:href="#DejaVuSans-116"/>
      <use x="691.015625" xlink:href="#DejaVuSans-101"/>
      <use x="752.539062" xlink:href="#DejaVuSans-110"/>
      <use x="815.917969" xlink:href="#DejaVuSans-116"/>
      <use x="855.126953" xlink:href="#DejaVuSans-111"/>
      <use x="916.308594" xlink:href="#DejaVuSans-115"/>
      <use x="968.408203" xlink:href="#DejaVuSans-58"/>
      <use x="1002.099609" xlink:href="#DejaVuSans-32"/>
      <use x="1033.886719" xlink:href="#DejaVuSans-52"/>
      <use x="1097.509766" xlink:href="#DejaVuSans-48"/>
     </g>
    </g>
    <g id="line2d_22">
     <path d="M 464.266875 107.583 
L 488.266875 107.583 
" style="fill:none;stroke:#008000;stroke-linecap:square;stroke-opacity:0.6;stroke-width:2;"/>
    </g>
    <g id="line2d_23"/>
    <g id="text_20">
     <!-- Posterior beta(42,48) -->
     <g transform="translate(497.866875 111.783)scale(0.12 -0.12)">
      <use xlink:href="#DejaVuSans-80"/>
      <use x="56.677734" xlink:href="#DejaVuSans-111"/>
      <use x="117.859375" xlink:href="#DejaVuSans-115"/>
      <use x="169.958984" xlink:href="#DejaVuSans-116"/>
      <use x="209.167969" xlink:href="#DejaVuSans-101"/>
      <use x="270.691406" xlink:href="#DejaVuSans-114"/>
      <use x="311.804688" xlink:href="#DejaVuSans-105"/>
      <use x="339.587891" xlink:href="#DejaVuSans-111"/>
      <use x="400.769531" xlink:href="#DejaVuSans-114"/>
      <use x="441.882812" xlink:href="#DejaVuSans-32"/>
      <use x="473.669922" xlink:href="#DejaVuSans-98"/>
      <use x="537.146484" xlink:href="#DejaVuSans-101"/>
      <use x="598.669922" xlink:href="#DejaVuSans-116"/>
      <use x="637.878906" xlink:href="#DejaVuSans-97"/>
      <use x="699.158203" xlink:href="#DejaVuSans-40"/>
      <use x="738.171875" xlink:href="#DejaVuSans-52"/>
      <use x="801.794922" xlink:href="#DejaVuSans-50"/>
      <use x="865.417969" xlink:href="#DejaVuSans-44"/>
      <use x="897.205078" xlink:href="#DejaVuSans-52"/>
      <use x="960.828125" xlink:href="#DejaVuSans-56"/>
      <use x="1024.451172" xlink:href="#DejaVuSans-41"/>
     </g>
    </g>
   </g>
  </g>
 </g>
 <defs>
  <clipPath id="p1c6815a1d7">
   <rect height="271.8" width="558" x="90" y="43.2"/>
  </clipPath>
 </defs>
</svg>
