<?xml version="1.0" encoding="utf-8" standalone="no"?>
<!DOCTYPE svg PUBLIC "-//W3C//DTD SVG 1.1//EN"
  "http://www.w3.org/Graphics/SVG/1.1/DTD/svg11.dtd">
<!-- Created with matplotlib (https://matplotlib.org/) -->
<svg height="360pt" version="1.1" viewBox="0 0 360 360" width="360pt" xmlns="http://www.w3.org/2000/svg" xmlns:xlink="http://www.w3.org/1999/xlink">
 <defs>
  <style type="text/css">
*{stroke-linecap:butt;stroke-linejoin:round;}
  </style>
 </defs>
 <g id="figure_1">
  <g id="patch_1">
   <path d="M 0 360 
L 360 360 
L 360 0 
L 0 0 
z
" style="fill:#ffffff;"/>
  </g>
  <g id="axes_1">
   <g id="patch_2">
    <path d="M 45 315 
L 324 315 
L 324 43.2 
L 45 43.2 
z
" style="fill:#ffffff;"/>
   </g>
   <g id="PolyCollection_1">
    <path clip-path="url(#p73916c5d5d)" d="M -2560.353659 300.19901 
L -2560.353659 299.838418 
L -2545.859419 299.838418 
L -2531.36518 299.839702 
L -2516.87094 299.841805 
L -2502.376701 299.844889 
L -2487.882461 299.848574 
L -2473.388222 299.852834 
L -2458.893982 299.857074 
L -2444.399743 299.861297 
L -2429.905503 299.86511 
L -2415.411264 299.868544 
L -2400.917024 299.87138 
L -2386.422785 299.87377 
L -2371.928545 299.875752 
L -2357.434306 299.877499 
L -2342.940066 299.878788 
L -2328.445827 299.879954 
L -2313.951587 299.880676 
L -2299.457348 299.881172 
L -2284.963108 299.880849 
L -2270.468869 299.879495 
L -2255.974629 299.877063 
L -2241.48039 299.872391 
L -2226.98615 299.865788 
L -2212.491911 299.856893 
L -2197.997671 299.845451 
L -2183.503432 299.832089 
L -2169.009192 299.816879 
L -2154.514953 299.800765 
L -2140.020713 299.784063 
L -2125.526474 299.768101 
L -2111.032234 299.753753 
L -2096.537995 299.741785 
L -2082.043755 299.732804 
L -2067.549516 299.726915 
L -2053.055276 299.724205 
L -2038.561037 299.724671 
L -2024.066797 299.726975 
L -2009.572558 299.730751 
L -1995.078318 299.735109 
L -1980.584079 299.739271 
L -1966.089839 299.742424 
L -1951.5956 299.743795 
L -1937.10136 299.743747 
L -1922.607121 299.742136 
L -1908.112882 299.739218 
L -1893.618642 299.735289 
L -1879.124403 299.730819 
L -1864.630163 299.726494 
L -1850.135924 299.72295 
L -1835.641684 299.720086 
L -1821.147445 299.718499 
L -1806.653205 299.717916 
L -1792.158966 299.718072 
L -1777.664726 299.71883 
L -1763.170487 299.71999 
L -1748.676247 299.720962 
L -1734.182008 299.721231 
L -1719.687768 299.720758 
L -1705.193529 299.718773 
L -1690.699289 299.714881 
L -1676.20505 299.709241 
L -1661.71081 299.701461 
L -1647.216571 299.692243 
L -1632.722331 299.68128 
L -1618.228092 299.66923 
L -1603.733852 299.656452 
L -1589.239613 299.643401 
L -1574.745373 299.630548 
L -1560.251134 299.618295 
L -1545.756894 299.607429 
L -1531.262655 299.597504 
L -1516.768415 299.589319 
L -1502.274176 299.582714 
L -1487.779936 299.577701 
L -1473.285697 299.574251 
L -1458.791457 299.572488 
L -1444.297218 299.572557 
L -1429.802978 299.574078 
L -1415.308739 299.577196 
L -1400.814499 299.581842 
L -1386.32026 299.588203 
L -1371.82602 299.595548 
L -1357.331781 299.603997 
L -1342.837541 299.612687 
L -1328.343302 299.621201 
L -1313.849062 299.629489 
L -1299.354823 299.636529 
L -1284.860583 299.641814 
L -1270.366344 299.645106 
L -1255.872104 299.645674 
L -1241.377865 299.644044 
L -1226.883625 299.639711 
L -1212.389386 299.632995 
L -1197.895146 299.624334 
L -1183.400907 299.61402 
L -1168.906668 299.602721 
L -1154.412428 299.590415 
L -1139.918189 299.577814 
L -1125.423949 299.565343 
L -1110.92971 299.552796 
L -1096.43547 299.540011 
L -1081.941231 299.52755 
L -1067.446991 299.515512 
L -1052.952752 299.503783 
L -1038.458512 299.492087 
L -1023.964273 299.479905 
L -1009.470033 299.467951 
L -994.975794 299.455449 
L -980.481554 299.44264 
L -965.987315 299.429079 
L -951.493075 299.414726 
L -936.998836 299.399792 
L -922.504596 299.384072 
L -908.010357 299.367666 
L -893.516117 299.350393 
L -879.021878 299.332403 
L -864.527638 299.313822 
L -850.033399 299.294691 
L -835.539159 299.27489 
L -821.04492 299.254303 
L -806.55068 299.232788 
L -792.056441 299.209824 
L -777.562201 299.18516 
L -763.067962 299.158585 
L -748.573722 299.129987 
L -734.079483 299.098525 
L -719.585243 299.065117 
L -705.091004 299.030266 
L -690.596764 298.994348 
L -676.102525 298.958317 
L -661.608285 298.922984 
L -647.114046 298.889381 
L -632.619806 298.858693 
L -618.125567 298.830966 
L -603.631327 298.80585 
L -589.137088 298.785274 
L -574.642848 298.76769 
L -560.148609 298.752608 
L -545.654369 298.739139 
L -531.16013 298.726447 
L -516.66589 298.714281 
L -502.171651 298.701018 
L -487.677411 298.686674 
L -473.183172 298.670689 
L -458.688932 298.652728 
L -444.194693 298.633182 
L -429.700454 298.611129 
L -415.206214 298.585972 
L -400.711975 298.557696 
L -386.217735 298.526459 
L -371.723496 298.491175 
L -357.229256 298.451959 
L -342.735017 298.408875 
L -328.240777 298.361517 
L -313.746538 298.309526 
L -299.252298 298.254091 
L -284.758059 298.194605 
L -270.263819 298.130932 
L -255.76958 298.064122 
L -241.27534 297.993565 
L -226.781101 297.920348 
L -212.286861 297.842998 
L -197.792622 297.759743 
L -183.298382 297.671027 
L -168.804143 297.576283 
L -154.309903 297.473058 
L -139.815664 297.361477 
L -125.321424 297.239436 
L -110.827185 297.104056 
L -96.332945 296.953082 
L -81.838706 296.785874 
L -67.344466 296.596725 
L -52.850227 296.384589 
L -38.355987 296.145967 
L -23.861748 295.877848 
L -9.367508 295.574837 
L 5.126731 295.231246 
L 19.620971 294.842047 
L 34.11521 294.390994 
L 48.60945 293.857122 
L 63.103689 293.185127 
L 77.597929 291.458236 
L 92.092168 288.930455 
L 106.586408 286.118854 
L 121.080647 282.234132 
L 135.574887 276.904253 
L 150.069126 269.7283 
L 164.563366 260.293723 
L 179.057605 248.235948 
L 193.551845 233.303226 
L 208.046084 215.432696 
L 222.540324 194.829983 
L 237.034563 172.030327 
L 251.528803 147.920991 
L 266.023042 123.711764 
L 280.517282 100.860469 
L 295.011521 80.929273 
L 309.50576 65.413992 
L 324 55.554545 
L 324 300.19901 
L 324 300.19901 
L 309.50576 300.19901 
L 295.011521 300.19901 
L 280.517282 300.19901 
L 266.023042 300.19901 
L 251.528803 300.19901 
L 237.034563 300.19901 
L 222.540324 300.19901 
L 208.046084 300.19901 
L 193.551845 300.19901 
L 179.057605 300.19901 
L 164.563366 300.19901 
L 150.069126 300.19901 
L 135.574887 300.19901 
L 121.080647 300.19901 
L 106.586408 300.19901 
L 92.092168 300.19901 
L 77.597929 300.19901 
L 63.103689 300.19901 
L 48.60945 300.19901 
L 34.11521 300.19901 
L 19.620971 300.19901 
L 5.126731 300.19901 
L -9.367508 300.19901 
L -23.861748 300.19901 
L -38.355987 300.19901 
L -52.850227 300.19901 
L -67.344466 300.19901 
L -81.838706 300.19901 
L -96.332945 300.19901 
L -110.827185 300.19901 
L -125.321424 300.19901 
L -139.815664 300.19901 
L -154.309903 300.19901 
L -168.804143 300.19901 
L -183.298382 300.19901 
L -197.792622 300.19901 
L -212.286861 300.19901 
L -226.781101 300.19901 
L -241.27534 300.19901 
L -255.76958 300.19901 
L -270.263819 300.19901 
L -284.758059 300.19901 
L -299.252298 300.19901 
L -313.746538 300.19901 
L -328.240777 300.19901 
L -342.735017 300.19901 
L -357.229256 300.19901 
L -371.723496 300.19901 
L -386.217735 300.19901 
L -400.711975 300.19901 
L -415.206214 300.19901 
L -429.700454 300.19901 
L -444.194693 300.19901 
L -458.688932 300.19901 
L -473.183172 300.19901 
L -487.677411 300.19901 
L -502.171651 300.19901 
L -516.66589 300.19901 
L -531.16013 300.19901 
L -545.654369 300.19901 
L -560.148609 300.19901 
L -574.642848 300.19901 
L -589.137088 300.19901 
L -603.631327 300.19901 
L -618.125567 300.19901 
L -632.619806 300.19901 
L -647.114046 300.19901 
L -661.608285 300.19901 
L -676.102525 300.19901 
L -690.596764 300.19901 
L -705.091004 300.19901 
L -719.585243 300.19901 
L -734.079483 300.19901 
L -748.573722 300.19901 
L -763.067962 300.19901 
L -777.562201 300.19901 
L -792.056441 300.19901 
L -806.55068 300.19901 
L -821.04492 300.19901 
L -835.539159 300.19901 
L -850.033399 300.19901 
L -864.527638 300.19901 
L -879.021878 300.19901 
L -893.516117 300.19901 
L -908.010357 300.19901 
L -922.504596 300.19901 
L -936.998836 300.19901 
L -951.493075 300.19901 
L -965.987315 300.19901 
L -980.481554 300.19901 
L -994.975794 300.19901 
L -1009.470033 300.19901 
L -1023.964273 300.19901 
L -1038.458512 300.19901 
L -1052.952752 300.19901 
L -1067.446991 300.19901 
L -1081.941231 300.19901 
L -1096.43547 300.19901 
L -1110.92971 300.19901 
L -1125.423949 300.19901 
L -1139.918189 300.19901 
L -1154.412428 300.19901 
L -1168.906668 300.19901 
L -1183.400907 300.19901 
L -1197.895146 300.19901 
L -1212.389386 300.19901 
L -1226.883625 300.19901 
L -1241.377865 300.19901 
L -1255.872104 300.19901 
L -1270.366344 300.19901 
L -1284.860583 300.19901 
L -1299.354823 300.19901 
L -1313.849062 300.19901 
L -1328.343302 300.19901 
L -1342.837541 300.19901 
L -1357.331781 300.19901 
L -1371.82602 300.19901 
L -1386.32026 300.19901 
L -1400.814499 300.19901 
L -1415.308739 300.19901 
L -1429.802978 300.19901 
L -1444.297218 300.19901 
L -1458.791457 300.19901 
L -1473.285697 300.19901 
L -1487.779936 300.19901 
L -1502.274176 300.19901 
L -1516.768415 300.19901 
L -1531.262655 300.19901 
L -1545.756894 300.19901 
L -1560.251134 300.19901 
L -1574.745373 300.19901 
L -1589.239613 300.19901 
L -1603.733852 300.19901 
L -1618.228092 300.19901 
L -1632.722331 300.19901 
L -1647.216571 300.19901 
L -1661.71081 300.19901 
L -1676.20505 300.19901 
L -1690.699289 300.19901 
L -1705.193529 300.19901 
L -1719.687768 300.19901 
L -1734.182008 300.19901 
L -1748.676247 300.19901 
L -1763.170487 300.19901 
L -1777.664726 300.19901 
L -1792.158966 300.19901 
L -1806.653205 300.19901 
L -1821.147445 300.19901 
L -1835.641684 300.19901 
L -1850.135924 300.19901 
L -1864.630163 300.19901 
L -1879.124403 300.19901 
L -1893.618642 300.19901 
L -1908.112882 300.19901 
L -1922.607121 300.19901 
L -1937.10136 300.19901 
L -1951.5956 300.19901 
L -1966.089839 300.19901 
L -1980.584079 300.19901 
L -1995.078318 300.19901 
L -2009.572558 300.19901 
L -2024.066797 300.19901 
L -2038.561037 300.19901 
L -2053.055276 300.19901 
L -2067.549516 300.19901 
L -2082.043755 300.19901 
L -2096.537995 300.19901 
L -2111.032234 300.19901 
L -2125.526474 300.19901 
L -2140.020713 300.19901 
L -2154.514953 300.19901 
L -2169.009192 300.19901 
L -2183.503432 300.19901 
L -2197.997671 300.19901 
L -2212.491911 300.19901 
L -2226.98615 300.19901 
L -2241.48039 300.19901 
L -2255.974629 300.19901 
L -2270.468869 300.19901 
L -2284.963108 300.19901 
L -2299.457348 300.19901 
L -2313.951587 300.19901 
L -2328.445827 300.19901 
L -2342.940066 300.19901 
L -2357.434306 300.19901 
L -2371.928545 300.19901 
L -2386.422785 300.19901 
L -2400.917024 300.19901 
L -2415.411264 300.19901 
L -2429.905503 300.19901 
L -2444.399743 300.19901 
L -2458.893982 300.19901 
L -2473.388222 300.19901 
L -2487.882461 300.19901 
L -2502.376701 300.19901 
L -2516.87094 300.19901 
L -2531.36518 300.19901 
L -2545.859419 300.19901 
L -2560.353659 300.19901 
z
" style="fill:#800080;fill-opacity:0.2;stroke:#800080;stroke-opacity:0.2;"/>
   </g>
   <g id="matplotlib.axis_1">
    <g id="xtick_1">
     <g id="line2d_1">
      <defs>
       <path d="M 0 0 
L 0 3.5 
" id="m5d04e9c717" style="stroke:#000000;stroke-width:0.8;"/>
      </defs>
      <g>
       <use style="stroke:#000000;stroke-width:0.8;" x="45" xlink:href="#m5d04e9c717" y="315"/>
      </g>
     </g>
     <g id="text_1">
      <!-- 0.997 -->
      <defs>
       <path d="M 31.78125 66.40625 
Q 24.171875 66.40625 20.328125 58.90625 
Q 16.5 51.421875 16.5 36.375 
Q 16.5 21.390625 20.328125 13.890625 
Q 24.171875 6.390625 31.78125 6.390625 
Q 39.453125 6.390625 43.28125 13.890625 
Q 47.125 21.390625 47.125 36.375 
Q 47.125 51.421875 43.28125 58.90625 
Q 39.453125 66.40625 31.78125 66.40625 
z
M 31.78125 74.21875 
Q 44.046875 74.21875 50.515625 64.515625 
Q 56.984375 54.828125 56.984375 36.375 
Q 56.984375 17.96875 50.515625 8.265625 
Q 44.046875 -1.421875 31.78125 -1.421875 
Q 19.53125 -1.421875 13.0625 8.265625 
Q 6.59375 17.96875 6.59375 36.375 
Q 6.59375 54.828125 13.0625 64.515625 
Q 19.53125 74.21875 31.78125 74.21875 
z
" id="DejaVuSans-48"/>
       <path d="M 10.6875 12.40625 
L 21 12.40625 
L 21 0 
L 10.6875 0 
z
" id="DejaVuSans-46"/>
       <path d="M 10.984375 1.515625 
L 10.984375 10.5 
Q 14.703125 8.734375 18.5 7.8125 
Q 22.3125 6.890625 25.984375 6.890625 
Q 35.75 6.890625 40.890625 13.453125 
Q 46.046875 20.015625 46.78125 33.40625 
Q 43.953125 29.203125 39.59375 26.953125 
Q 35.25 24.703125 29.984375 24.703125 
Q 19.046875 24.703125 12.671875 31.3125 
Q 6.296875 37.9375 6.296875 49.421875 
Q 6.296875 60.640625 12.9375 67.421875 
Q 19.578125 74.21875 30.609375 74.21875 
Q 43.265625 74.21875 49.921875 64.515625 
Q 56.59375 54.828125 56.59375 36.375 
Q 56.59375 19.140625 48.40625 8.859375 
Q 40.234375 -1.421875 26.421875 -1.421875 
Q 22.703125 -1.421875 18.890625 -0.6875 
Q 15.09375 0.046875 10.984375 1.515625 
z
M 30.609375 32.421875 
Q 37.25 32.421875 41.125 36.953125 
Q 45.015625 41.5 45.015625 49.421875 
Q 45.015625 57.28125 41.125 61.84375 
Q 37.25 66.40625 30.609375 66.40625 
Q 23.96875 66.40625 20.09375 61.84375 
Q 16.21875 57.28125 16.21875 49.421875 
Q 16.21875 41.5 20.09375 36.953125 
Q 23.96875 32.421875 30.609375 32.421875 
z
" id="DejaVuSans-57"/>
       <path d="M 8.203125 72.90625 
L 55.078125 72.90625 
L 55.078125 68.703125 
L 28.609375 0 
L 18.3125 0 
L 43.21875 64.59375 
L 8.203125 64.59375 
z
" id="DejaVuSans-55"/>
      </defs>
      <g transform="translate(24.960312 332.637812)scale(0.14 -0.14)">
       <use xlink:href="#DejaVuSans-48"/>
       <use x="63.623047" xlink:href="#DejaVuSans-46"/>
       <use x="95.410156" xlink:href="#DejaVuSans-57"/>
       <use x="159.033203" xlink:href="#DejaVuSans-57"/>
       <use x="222.65625" xlink:href="#DejaVuSans-55"/>
      </g>
     </g>
    </g>
    <g id="xtick_2">
     <g id="line2d_2">
      <g>
       <use style="stroke:#000000;stroke-width:0.8;" x="138" xlink:href="#m5d04e9c717" y="315"/>
      </g>
     </g>
     <g id="text_2">
      <!-- 0.998 -->
      <defs>
       <path d="M 31.78125 34.625 
Q 24.75 34.625 20.71875 30.859375 
Q 16.703125 27.09375 16.703125 20.515625 
Q 16.703125 13.921875 20.71875 10.15625 
Q 24.75 6.390625 31.78125 6.390625 
Q 38.8125 6.390625 42.859375 10.171875 
Q 46.921875 13.96875 46.921875 20.515625 
Q 46.921875 27.09375 42.890625 30.859375 
Q 38.875 34.625 31.78125 34.625 
z
M 21.921875 38.8125 
Q 15.578125 40.375 12.03125 44.71875 
Q 8.5 49.078125 8.5 55.328125 
Q 8.5 64.0625 14.71875 69.140625 
Q 20.953125 74.21875 31.78125 74.21875 
Q 42.671875 74.21875 48.875 69.140625 
Q 55.078125 64.0625 55.078125 55.328125 
Q 55.078125 49.078125 51.53125 44.71875 
Q 48 40.375 41.703125 38.8125 
Q 48.828125 37.15625 52.796875 32.3125 
Q 56.78125 27.484375 56.78125 20.515625 
Q 56.78125 9.90625 50.3125 4.234375 
Q 43.84375 -1.421875 31.78125 -1.421875 
Q 19.734375 -1.421875 13.25 4.234375 
Q 6.78125 9.90625 6.78125 20.515625 
Q 6.78125 27.484375 10.78125 32.3125 
Q 14.796875 37.15625 21.921875 38.8125 
z
M 18.3125 54.390625 
Q 18.3125 48.734375 21.84375 45.5625 
Q 25.390625 42.390625 31.78125 42.390625 
Q 38.140625 42.390625 41.71875 45.5625 
Q 45.3125 48.734375 45.3125 54.390625 
Q 45.3125 60.0625 41.71875 63.234375 
Q 38.140625 66.40625 31.78125 66.40625 
Q 25.390625 66.40625 21.84375 63.234375 
Q 18.3125 60.0625 18.3125 54.390625 
z
" id="DejaVuSans-56"/>
      </defs>
      <g transform="translate(117.960313 332.637812)scale(0.14 -0.14)">
       <use xlink:href="#DejaVuSans-48"/>
       <use x="63.623047" xlink:href="#DejaVuSans-46"/>
       <use x="95.410156" xlink:href="#DejaVuSans-57"/>
       <use x="159.033203" xlink:href="#DejaVuSans-57"/>
       <use x="222.65625" xlink:href="#DejaVuSans-56"/>
      </g>
     </g>
    </g>
    <g id="xtick_3">
     <g id="line2d_3">
      <g>
       <use style="stroke:#000000;stroke-width:0.8;" x="231" xlink:href="#m5d04e9c717" y="315"/>
      </g>
     </g>
     <g id="text_3">
      <!-- 0.999 -->
      <g transform="translate(210.960312 332.637812)scale(0.14 -0.14)">
       <use xlink:href="#DejaVuSans-48"/>
       <use x="63.623047" xlink:href="#DejaVuSans-46"/>
       <use x="95.410156" xlink:href="#DejaVuSans-57"/>
       <use x="159.033203" xlink:href="#DejaVuSans-57"/>
       <use x="222.65625" xlink:href="#DejaVuSans-57"/>
      </g>
     </g>
    </g>
    <g id="xtick_4">
     <g id="line2d_4">
      <g>
       <use style="stroke:#000000;stroke-width:0.8;" x="324" xlink:href="#m5d04e9c717" y="315"/>
      </g>
     </g>
     <g id="text_4">
      <!-- 1.000 -->
      <defs>
       <path d="M 12.40625 8.296875 
L 28.515625 8.296875 
L 28.515625 63.921875 
L 10.984375 60.40625 
L 10.984375 69.390625 
L 28.421875 72.90625 
L 38.28125 72.90625 
L 38.28125 8.296875 
L 54.390625 8.296875 
L 54.390625 0 
L 12.40625 0 
z
" id="DejaVuSans-49"/>
      </defs>
      <g transform="translate(303.960312 332.637812)scale(0.14 -0.14)">
       <use xlink:href="#DejaVuSans-49"/>
       <use x="63.623047" xlink:href="#DejaVuSans-46"/>
       <use x="95.410156" xlink:href="#DejaVuSans-48"/>
       <use x="159.033203" xlink:href="#DejaVuSans-48"/>
       <use x="222.65625" xlink:href="#DejaVuSans-48"/>
      </g>
     </g>
    </g>
    <g id="text_5">
     <!-- Probabilidad -->
     <defs>
      <path d="M 19.671875 64.796875 
L 19.671875 37.40625 
L 32.078125 37.40625 
Q 38.96875 37.40625 42.71875 40.96875 
Q 46.484375 44.53125 46.484375 51.125 
Q 46.484375 57.671875 42.71875 61.234375 
Q 38.96875 64.796875 32.078125 64.796875 
z
M 9.8125 72.90625 
L 32.078125 72.90625 
Q 44.34375 72.90625 50.609375 67.359375 
Q 56.890625 61.8125 56.890625 51.125 
Q 56.890625 40.328125 50.609375 34.8125 
Q 44.34375 29.296875 32.078125 29.296875 
L 19.671875 29.296875 
L 19.671875 0 
L 9.8125 0 
z
" id="DejaVuSans-80"/>
      <path d="M 41.109375 46.296875 
Q 39.59375 47.171875 37.8125 47.578125 
Q 36.03125 48 33.890625 48 
Q 26.265625 48 22.1875 43.046875 
Q 18.109375 38.09375 18.109375 28.8125 
L 18.109375 0 
L 9.078125 0 
L 9.078125 54.6875 
L 18.109375 54.6875 
L 18.109375 46.1875 
Q 20.953125 51.171875 25.484375 53.578125 
Q 30.03125 56 36.53125 56 
Q 37.453125 56 38.578125 55.875 
Q 39.703125 55.765625 41.0625 55.515625 
z
" id="DejaVuSans-114"/>
      <path d="M 30.609375 48.390625 
Q 23.390625 48.390625 19.1875 42.75 
Q 14.984375 37.109375 14.984375 27.296875 
Q 14.984375 17.484375 19.15625 11.84375 
Q 23.34375 6.203125 30.609375 6.203125 
Q 37.796875 6.203125 41.984375 11.859375 
Q 46.1875 17.53125 46.1875 27.296875 
Q 46.1875 37.015625 41.984375 42.703125 
Q 37.796875 48.390625 30.609375 48.390625 
z
M 30.609375 56 
Q 42.328125 56 49.015625 48.375 
Q 55.71875 40.765625 55.71875 27.296875 
Q 55.71875 13.875 49.015625 6.21875 
Q 42.328125 -1.421875 30.609375 -1.421875 
Q 18.84375 -1.421875 12.171875 6.21875 
Q 5.515625 13.875 5.515625 27.296875 
Q 5.515625 40.765625 12.171875 48.375 
Q 18.84375 56 30.609375 56 
z
" id="DejaVuSans-111"/>
      <path d="M 48.6875 27.296875 
Q 48.6875 37.203125 44.609375 42.84375 
Q 40.53125 48.484375 33.40625 48.484375 
Q 26.265625 48.484375 22.1875 42.84375 
Q 18.109375 37.203125 18.109375 27.296875 
Q 18.109375 17.390625 22.1875 11.75 
Q 26.265625 6.109375 33.40625 6.109375 
Q 40.53125 6.109375 44.609375 11.75 
Q 48.6875 17.390625 48.6875 27.296875 
z
M 18.109375 46.390625 
Q 20.953125 51.265625 25.265625 53.625 
Q 29.59375 56 35.59375 56 
Q 45.5625 56 51.78125 48.09375 
Q 58.015625 40.1875 58.015625 27.296875 
Q 58.015625 14.40625 51.78125 6.484375 
Q 45.5625 -1.421875 35.59375 -1.421875 
Q 29.59375 -1.421875 25.265625 0.953125 
Q 20.953125 3.328125 18.109375 8.203125 
L 18.109375 0 
L 9.078125 0 
L 9.078125 75.984375 
L 18.109375 75.984375 
z
" id="DejaVuSans-98"/>
      <path d="M 34.28125 27.484375 
Q 23.390625 27.484375 19.1875 25 
Q 14.984375 22.515625 14.984375 16.5 
Q 14.984375 11.71875 18.140625 8.90625 
Q 21.296875 6.109375 26.703125 6.109375 
Q 34.1875 6.109375 38.703125 11.40625 
Q 43.21875 16.703125 43.21875 25.484375 
L 43.21875 27.484375 
z
M 52.203125 31.203125 
L 52.203125 0 
L 43.21875 0 
L 43.21875 8.296875 
Q 40.140625 3.328125 35.546875 0.953125 
Q 30.953125 -1.421875 24.3125 -1.421875 
Q 15.921875 -1.421875 10.953125 3.296875 
Q 6 8.015625 6 15.921875 
Q 6 25.140625 12.171875 29.828125 
Q 18.359375 34.515625 30.609375 34.515625 
L 43.21875 34.515625 
L 43.21875 35.40625 
Q 43.21875 41.609375 39.140625 45 
Q 35.0625 48.390625 27.6875 48.390625 
Q 23 48.390625 18.546875 47.265625 
Q 14.109375 46.140625 10.015625 43.890625 
L 10.015625 52.203125 
Q 14.9375 54.109375 19.578125 55.046875 
Q 24.21875 56 28.609375 56 
Q 40.484375 56 46.34375 49.84375 
Q 52.203125 43.703125 52.203125 31.203125 
z
" id="DejaVuSans-97"/>
      <path d="M 9.421875 54.6875 
L 18.40625 54.6875 
L 18.40625 0 
L 9.421875 0 
z
M 9.421875 75.984375 
L 18.40625 75.984375 
L 18.40625 64.59375 
L 9.421875 64.59375 
z
" id="DejaVuSans-105"/>
      <path d="M 9.421875 75.984375 
L 18.40625 75.984375 
L 18.40625 0 
L 9.421875 0 
z
" id="DejaVuSans-108"/>
      <path d="M 45.40625 46.390625 
L 45.40625 75.984375 
L 54.390625 75.984375 
L 54.390625 0 
L 45.40625 0 
L 45.40625 8.203125 
Q 42.578125 3.328125 38.25 0.953125 
Q 33.9375 -1.421875 27.875 -1.421875 
Q 17.96875 -1.421875 11.734375 6.484375 
Q 5.515625 14.40625 5.515625 27.296875 
Q 5.515625 40.1875 11.734375 48.09375 
Q 17.96875 56 27.875 56 
Q 33.9375 56 38.25 53.625 
Q 42.578125 51.265625 45.40625 46.390625 
z
M 14.796875 27.296875 
Q 14.796875 17.390625 18.875 11.75 
Q 22.953125 6.109375 30.078125 6.109375 
Q 37.203125 6.109375 41.296875 11.75 
Q 45.40625 17.390625 45.40625 27.296875 
Q 45.40625 37.203125 41.296875 42.84375 
Q 37.203125 48.484375 30.078125 48.484375 
Q 22.953125 48.484375 18.875 42.84375 
Q 14.796875 37.203125 14.796875 27.296875 
z
" id="DejaVuSans-100"/>
     </defs>
     <g transform="translate(138.117188 350.947031)scale(0.15 -0.15)">
      <use xlink:href="#DejaVuSans-80"/>
      <use x="58.552734" xlink:href="#DejaVuSans-114"/>
      <use x="97.416016" xlink:href="#DejaVuSans-111"/>
      <use x="158.597656" xlink:href="#DejaVuSans-98"/>
      <use x="222.074219" xlink:href="#DejaVuSans-97"/>
      <use x="283.353516" xlink:href="#DejaVuSans-98"/>
      <use x="346.830078" xlink:href="#DejaVuSans-105"/>
      <use x="374.613281" xlink:href="#DejaVuSans-108"/>
      <use x="402.396484" xlink:href="#DejaVuSans-105"/>
      <use x="430.179688" xlink:href="#DejaVuSans-100"/>
      <use x="493.65625" xlink:href="#DejaVuSans-97"/>
      <use x="554.935547" xlink:href="#DejaVuSans-100"/>
     </g>
    </g>
   </g>
   <g id="matplotlib.axis_2"/>
   <g id="line2d_5">
    <path clip-path="url(#p73916c5d5d)" d="M -1 295.376482 
L 19.620971 294.842047 
L 48.60945 293.857122 
L 63.103689 293.185127 
L 77.597929 291.458236 
L 92.092168 288.930455 
L 106.586408 286.118854 
L 121.080647 282.234132 
L 135.574887 276.904253 
L 150.069126 269.7283 
L 164.563366 260.293723 
L 179.057605 248.235948 
L 193.551845 233.303226 
L 208.046084 215.432696 
L 222.540324 194.829983 
L 237.034563 172.030327 
L 266.023042 123.711764 
L 280.517282 100.860469 
L 295.011521 80.929273 
L 309.50576 65.413992 
L 324 55.554545 
L 324 55.554545 
" style="fill:none;stroke:#800080;stroke-linecap:square;stroke-width:1.5;"/>
   </g>
   <g id="line2d_6">
    <path clip-path="url(#p73916c5d5d)" style="fill:none;stroke:#800080;stroke-linecap:square;stroke-width:1.5;"/>
   </g>
   <g id="line2d_7">
    <path clip-path="url(#p73916c5d5d)" d="M 324 302.645455 
L 324 55.554545 
" style="fill:none;stroke:#800080;stroke-linecap:square;stroke-width:1.5;"/>
   </g>
   <g id="line2d_8">
    <defs>
     <path d="M 0 3 
C 0.795609 3 1.55874 2.683901 2.12132 2.12132 
C 2.683901 1.55874 3 0.795609 3 0 
C 3 -0.795609 2.683901 -1.55874 2.12132 -2.12132 
C 1.55874 -2.683901 0.795609 -3 0 -3 
C -0.795609 -3 -1.55874 -2.683901 -2.12132 -2.12132 
C -2.683901 -1.55874 -3 -0.795609 -3 0 
C -3 0.795609 -2.683901 1.55874 -2.12132 2.12132 
C -1.55874 2.683901 -0.795609 3 0 3 
z
" id="m5bcab393d9" style="stroke:#000000;"/>
    </defs>
    <g clip-path="url(#p73916c5d5d)"/>
   </g>
   <g id="patch_3">
    <path d="M 45 315 
L 324 315 
" style="fill:none;stroke:#000000;stroke-linecap:square;stroke-linejoin:miter;stroke-width:0.8;"/>
   </g>
   <g id="text_6">
    <!-- Probabilidad de defecto en el anillo O, -->
    <defs>
     <path id="DejaVuSans-32"/>
     <path d="M 56.203125 29.59375 
L 56.203125 25.203125 
L 14.890625 25.203125 
Q 15.484375 15.921875 20.484375 11.0625 
Q 25.484375 6.203125 34.421875 6.203125 
Q 39.59375 6.203125 44.453125 7.46875 
Q 49.3125 8.734375 54.109375 11.28125 
L 54.109375 2.78125 
Q 49.265625 0.734375 44.1875 -0.34375 
Q 39.109375 -1.421875 33.890625 -1.421875 
Q 20.796875 -1.421875 13.15625 6.1875 
Q 5.515625 13.8125 5.515625 26.8125 
Q 5.515625 40.234375 12.765625 48.109375 
Q 20.015625 56 32.328125 56 
Q 43.359375 56 49.78125 48.890625 
Q 56.203125 41.796875 56.203125 29.59375 
z
M 47.21875 32.234375 
Q 47.125 39.59375 43.09375 43.984375 
Q 39.0625 48.390625 32.421875 48.390625 
Q 24.90625 48.390625 20.390625 44.140625 
Q 15.875 39.890625 15.1875 32.171875 
z
" id="DejaVuSans-101"/>
     <path d="M 37.109375 75.984375 
L 37.109375 68.5 
L 28.515625 68.5 
Q 23.6875 68.5 21.796875 66.546875 
Q 19.921875 64.59375 19.921875 59.515625 
L 19.921875 54.6875 
L 34.71875 54.6875 
L 34.71875 47.703125 
L 19.921875 47.703125 
L 19.921875 0 
L 10.890625 0 
L 10.890625 47.703125 
L 2.296875 47.703125 
L 2.296875 54.6875 
L 10.890625 54.6875 
L 10.890625 58.5 
Q 10.890625 67.625 15.140625 71.796875 
Q 19.390625 75.984375 28.609375 75.984375 
z
" id="DejaVuSans-102"/>
     <path d="M 48.78125 52.59375 
L 48.78125 44.1875 
Q 44.96875 46.296875 41.140625 47.34375 
Q 37.3125 48.390625 33.40625 48.390625 
Q 24.65625 48.390625 19.8125 42.84375 
Q 14.984375 37.3125 14.984375 27.296875 
Q 14.984375 17.28125 19.8125 11.734375 
Q 24.65625 6.203125 33.40625 6.203125 
Q 37.3125 6.203125 41.140625 7.25 
Q 44.96875 8.296875 48.78125 10.40625 
L 48.78125 2.09375 
Q 45.015625 0.34375 40.984375 -0.53125 
Q 36.96875 -1.421875 32.421875 -1.421875 
Q 20.0625 -1.421875 12.78125 6.34375 
Q 5.515625 14.109375 5.515625 27.296875 
Q 5.515625 40.671875 12.859375 48.328125 
Q 20.21875 56 33.015625 56 
Q 37.15625 56 41.109375 55.140625 
Q 45.0625 54.296875 48.78125 52.59375 
z
" id="DejaVuSans-99"/>
     <path d="M 18.3125 70.21875 
L 18.3125 54.6875 
L 36.8125 54.6875 
L 36.8125 47.703125 
L 18.3125 47.703125 
L 18.3125 18.015625 
Q 18.3125 11.328125 20.140625 9.421875 
Q 21.96875 7.515625 27.59375 7.515625 
L 36.8125 7.515625 
L 36.8125 0 
L 27.59375 0 
Q 17.1875 0 13.234375 3.875 
Q 9.28125 7.765625 9.28125 18.015625 
L 9.28125 47.703125 
L 2.6875 47.703125 
L 2.6875 54.6875 
L 9.28125 54.6875 
L 9.28125 70.21875 
z
" id="DejaVuSans-116"/>
     <path d="M 54.890625 33.015625 
L 54.890625 0 
L 45.90625 0 
L 45.90625 32.71875 
Q 45.90625 40.484375 42.875 44.328125 
Q 39.84375 48.1875 33.796875 48.1875 
Q 26.515625 48.1875 22.3125 43.546875 
Q 18.109375 38.921875 18.109375 30.90625 
L 18.109375 0 
L 9.078125 0 
L 9.078125 54.6875 
L 18.109375 54.6875 
L 18.109375 46.1875 
Q 21.34375 51.125 25.703125 53.5625 
Q 30.078125 56 35.796875 56 
Q 45.21875 56 50.046875 50.171875 
Q 54.890625 44.34375 54.890625 33.015625 
z
" id="DejaVuSans-110"/>
     <path d="M 39.40625 66.21875 
Q 28.65625 66.21875 22.328125 58.203125 
Q 16.015625 50.203125 16.015625 36.375 
Q 16.015625 22.609375 22.328125 14.59375 
Q 28.65625 6.59375 39.40625 6.59375 
Q 50.140625 6.59375 56.421875 14.59375 
Q 62.703125 22.609375 62.703125 36.375 
Q 62.703125 50.203125 56.421875 58.203125 
Q 50.140625 66.21875 39.40625 66.21875 
z
M 39.40625 74.21875 
Q 54.734375 74.21875 63.90625 63.9375 
Q 73.09375 53.65625 73.09375 36.375 
Q 73.09375 19.140625 63.90625 8.859375 
Q 54.734375 -1.421875 39.40625 -1.421875 
Q 24.03125 -1.421875 14.8125 8.828125 
Q 5.609375 19.09375 5.609375 36.375 
Q 5.609375 53.65625 14.8125 63.9375 
Q 24.03125 74.21875 39.40625 74.21875 
z
" id="DejaVuSans-79"/>
     <path d="M 11.71875 12.40625 
L 22.015625 12.40625 
L 22.015625 4 
L 14.015625 -11.625 
L 7.71875 -11.625 
L 11.71875 4 
z
" id="DejaVuSans-44"/>
    </defs>
    <g transform="translate(13.034531 19.779375)scale(0.18 -0.18)">
     <use xlink:href="#DejaVuSans-80"/>
     <use x="58.552734" xlink:href="#DejaVuSans-114"/>
     <use x="97.416016" xlink:href="#DejaVuSans-111"/>
     <use x="158.597656" xlink:href="#DejaVuSans-98"/>
     <use x="222.074219" xlink:href="#DejaVuSans-97"/>
     <use x="283.353516" xlink:href="#DejaVuSans-98"/>
     <use x="346.830078" xlink:href="#DejaVuSans-105"/>
     <use x="374.613281" xlink:href="#DejaVuSans-108"/>
     <use x="402.396484" xlink:href="#DejaVuSans-105"/>
     <use x="430.179688" xlink:href="#DejaVuSans-100"/>
     <use x="493.65625" xlink:href="#DejaVuSans-97"/>
     <use x="554.935547" xlink:href="#DejaVuSans-100"/>
     <use x="618.412109" xlink:href="#DejaVuSans-32"/>
     <use x="650.199219" xlink:href="#DejaVuSans-100"/>
     <use x="713.675781" xlink:href="#DejaVuSans-101"/>
     <use x="775.199219" xlink:href="#DejaVuSans-32"/>
     <use x="806.986328" xlink:href="#DejaVuSans-100"/>
     <use x="870.462891" xlink:href="#DejaVuSans-101"/>
     <use x="931.986328" xlink:href="#DejaVuSans-102"/>
     <use x="967.191406" xlink:href="#DejaVuSans-101"/>
     <use x="1028.714844" xlink:href="#DejaVuSans-99"/>
     <use x="1083.695312" xlink:href="#DejaVuSans-116"/>
     <use x="1122.904297" xlink:href="#DejaVuSans-111"/>
     <use x="1184.085938" xlink:href="#DejaVuSans-32"/>
     <use x="1215.873047" xlink:href="#DejaVuSans-101"/>
     <use x="1277.396484" xlink:href="#DejaVuSans-110"/>
     <use x="1340.775391" xlink:href="#DejaVuSans-32"/>
     <use x="1372.5625" xlink:href="#DejaVuSans-101"/>
     <use x="1434.085938" xlink:href="#DejaVuSans-108"/>
     <use x="1461.869141" xlink:href="#DejaVuSans-32"/>
     <use x="1493.65625" xlink:href="#DejaVuSans-97"/>
     <use x="1554.935547" xlink:href="#DejaVuSans-110"/>
     <use x="1618.314453" xlink:href="#DejaVuSans-105"/>
     <use x="1646.097656" xlink:href="#DejaVuSans-108"/>
     <use x="1673.880859" xlink:href="#DejaVuSans-108"/>
     <use x="1701.664062" xlink:href="#DejaVuSans-111"/>
     <use x="1762.845703" xlink:href="#DejaVuSans-32"/>
     <use x="1794.632812" xlink:href="#DejaVuSans-79"/>
     <use x="1873.34375" xlink:href="#DejaVuSans-44"/>
    </g>
    <!-- dado $t = 31$ Fahrenheit -->
    <defs>
     <path d="M 42.28125 54.6875 
L 40.921875 47.703125 
L 23 47.703125 
L 17.1875 18.015625 
Q 16.890625 16.359375 16.75 15.234375 
Q 16.609375 14.109375 16.609375 13.484375 
Q 16.609375 10.359375 18.484375 8.9375 
Q 20.359375 7.515625 24.515625 7.515625 
L 33.59375 7.515625 
L 32.078125 0 
L 23.484375 0 
Q 15.484375 0 11.546875 3.125 
Q 7.625 6.25 7.625 12.59375 
Q 7.625 13.71875 7.765625 15.0625 
Q 7.90625 16.40625 8.203125 18.015625 
L 14.015625 47.703125 
L 6.390625 47.703125 
L 7.8125 54.6875 
L 15.28125 54.6875 
L 18.3125 70.21875 
L 27.296875 70.21875 
L 24.3125 54.6875 
z
" id="DejaVuSans-Oblique-116"/>
     <path d="M 10.59375 45.40625 
L 73.1875 45.40625 
L 73.1875 37.203125 
L 10.59375 37.203125 
z
M 10.59375 25.484375 
L 73.1875 25.484375 
L 73.1875 17.1875 
L 10.59375 17.1875 
z
" id="DejaVuSans-61"/>
     <path d="M 40.578125 39.3125 
Q 47.65625 37.796875 51.625 33 
Q 55.609375 28.21875 55.609375 21.1875 
Q 55.609375 10.40625 48.1875 4.484375 
Q 40.765625 -1.421875 27.09375 -1.421875 
Q 22.515625 -1.421875 17.65625 -0.515625 
Q 12.796875 0.390625 7.625 2.203125 
L 7.625 11.71875 
Q 11.71875 9.328125 16.59375 8.109375 
Q 21.484375 6.890625 26.8125 6.890625 
Q 36.078125 6.890625 40.9375 10.546875 
Q 45.796875 14.203125 45.796875 21.1875 
Q 45.796875 27.640625 41.28125 31.265625 
Q 36.765625 34.90625 28.71875 34.90625 
L 20.21875 34.90625 
L 20.21875 43.015625 
L 29.109375 43.015625 
Q 36.375 43.015625 40.234375 45.921875 
Q 44.09375 48.828125 44.09375 54.296875 
Q 44.09375 59.90625 40.109375 62.90625 
Q 36.140625 65.921875 28.71875 65.921875 
Q 24.65625 65.921875 20.015625 65.03125 
Q 15.375 64.15625 9.8125 62.3125 
L 9.8125 71.09375 
Q 15.4375 72.65625 20.34375 73.4375 
Q 25.25 74.21875 29.59375 74.21875 
Q 40.828125 74.21875 47.359375 69.109375 
Q 53.90625 64.015625 53.90625 55.328125 
Q 53.90625 49.265625 50.4375 45.09375 
Q 46.96875 40.921875 40.578125 39.3125 
z
" id="DejaVuSans-51"/>
     <path d="M 9.8125 72.90625 
L 51.703125 72.90625 
L 51.703125 64.59375 
L 19.671875 64.59375 
L 19.671875 43.109375 
L 48.578125 43.109375 
L 48.578125 34.8125 
L 19.671875 34.8125 
L 19.671875 0 
L 9.8125 0 
z
" id="DejaVuSans-70"/>
     <path d="M 54.890625 33.015625 
L 54.890625 0 
L 45.90625 0 
L 45.90625 32.71875 
Q 45.90625 40.484375 42.875 44.328125 
Q 39.84375 48.1875 33.796875 48.1875 
Q 26.515625 48.1875 22.3125 43.546875 
Q 18.109375 38.921875 18.109375 30.90625 
L 18.109375 0 
L 9.078125 0 
L 9.078125 75.984375 
L 18.109375 75.984375 
L 18.109375 46.1875 
Q 21.34375 51.125 25.703125 53.5625 
Q 30.078125 56 35.796875 56 
Q 45.21875 56 50.046875 50.171875 
Q 54.890625 44.34375 54.890625 33.015625 
z
" id="DejaVuSans-104"/>
    </defs>
    <g transform="translate(81.63 39.935437)scale(0.18 -0.18)">
     <use transform="translate(0 0.015625)" xlink:href="#DejaVuSans-100"/>
     <use transform="translate(63.476562 0.015625)" xlink:href="#DejaVuSans-97"/>
     <use transform="translate(124.755859 0.015625)" xlink:href="#DejaVuSans-100"/>
     <use transform="translate(188.232422 0.015625)" xlink:href="#DejaVuSans-111"/>
     <use transform="translate(249.414062 0.015625)" xlink:href="#DejaVuSans-32"/>
     <use transform="translate(281.201172 0.015625)" xlink:href="#DejaVuSans-Oblique-116"/>
     <use transform="translate(339.892578 0.015625)" xlink:href="#DejaVuSans-61"/>
     <use transform="translate(443.164062 0.015625)" xlink:href="#DejaVuSans-51"/>
     <use transform="translate(506.787109 0.015625)" xlink:href="#DejaVuSans-49"/>
     <use transform="translate(570.410156 0.015625)" xlink:href="#DejaVuSans-32"/>
     <use transform="translate(602.197266 0.015625)" xlink:href="#DejaVuSans-70"/>
     <use transform="translate(659.716797 0.015625)" xlink:href="#DejaVuSans-97"/>
     <use transform="translate(720.996094 0.015625)" xlink:href="#DejaVuSans-104"/>
     <use transform="translate(784.375 0.015625)" xlink:href="#DejaVuSans-114"/>
     <use transform="translate(825.488281 0.015625)" xlink:href="#DejaVuSans-101"/>
     <use transform="translate(887.011719 0.015625)" xlink:href="#DejaVuSans-110"/>
     <use transform="translate(950.390625 0.015625)" xlink:href="#DejaVuSans-104"/>
     <use transform="translate(1013.769531 0.015625)" xlink:href="#DejaVuSans-101"/>
     <use transform="translate(1075.292969 0.015625)" xlink:href="#DejaVuSans-105"/>
     <use transform="translate(1103.076172 0.015625)" xlink:href="#DejaVuSans-116"/>
    </g>
   </g>
  </g>
 </g>
 <defs>
  <clipPath id="p73916c5d5d">
   <rect height="271.8" width="279" x="45" y="43.2"/>
  </clipPath>
 </defs>
</svg>
