<?xml version="1.0" encoding="utf-8" standalone="no"?>
<!DOCTYPE svg PUBLIC "-//W3C//DTD SVG 1.1//EN"
  "http://www.w3.org/Graphics/SVG/1.1/DTD/svg11.dtd">
<!-- Created with matplotlib (https://matplotlib.org/) -->
<svg height="360pt" version="1.1" viewBox="0 0 720 360" width="720pt" xmlns="http://www.w3.org/2000/svg" xmlns:xlink="http://www.w3.org/1999/xlink">
 <defs>
  <style type="text/css">
*{stroke-linecap:butt;stroke-linejoin:round;}
  </style>
 </defs>
 <g id="figure_1">
  <g id="patch_1">
   <path d="M 0 360 
L 720 360 
L 720 0 
L 0 0 
z
" style="fill:#ffffff;"/>
  </g>
  <g id="axes_1">
   <g id="patch_2">
    <path d="M 90 315 
L 343.636364 315 
L 343.636364 43.2 
L 90 43.2 
z
" style="fill:#ffffff;"/>
   </g>
   <g id="PolyCollection_1">
    <defs>
     <path d="M 101.528926 -57.718428 
L 101.528926 -90.517792 
L 102.687612 -90.517792 
L 103.846298 -90.960704 
L 105.004984 -91.80415 
L 106.16367 -93.056103 
L 107.322356 -94.653166 
L 108.481042 -96.587078 
L 109.639728 -98.765006 
L 110.798414 -101.134413 
L 111.9571 -103.613184 
L 113.115786 -106.145912 
L 114.274472 -108.640538 
L 115.433158 -111.081557 
L 116.591844 -113.374914 
L 117.75053 -115.512772 
L 118.909215 -117.471633 
L 120.067901 -119.247235 
L 121.226587 -120.841358 
L 122.385273 -122.247459 
L 123.543959 -123.511901 
L 124.702645 -124.624125 
L 125.861331 -125.61287 
L 127.020017 -126.505237 
L 128.178703 -127.257097 
L 129.337389 -127.910369 
L 130.496075 -128.455255 
L 131.654761 -128.925619 
L 132.813447 -129.361572 
L 133.972133 -129.750503 
L 135.130819 -130.116416 
L 136.289505 -130.532378 
L 137.448191 -130.988997 
L 138.606877 -131.528913 
L 139.765563 -132.167562 
L 140.924249 -132.968565 
L 142.082935 -133.951084 
L 143.241621 -135.093843 
L 144.400307 -136.397566 
L 145.558993 -137.883832 
L 146.717679 -139.564904 
L 147.876365 -141.43295 
L 149.035051 -143.459669 
L 150.193737 -145.636184 
L 151.352423 -147.919524 
L 152.511109 -150.272421 
L 153.669795 -152.696427 
L 154.828481 -155.148948 
L 155.987167 -157.587911 
L 157.145853 -159.995009 
L 158.304539 -162.411772 
L 159.463225 -164.80757 
L 160.621911 -167.163182 
L 161.780597 -169.51893 
L 162.939283 -171.894061 
L 164.097969 -174.335844 
L 165.256655 -176.85242 
L 166.415341 -179.49057 
L 167.574027 -182.311676 
L 168.732713 -185.289309 
L 169.891399 -188.432436 
L 171.050085 -191.732532 
L 172.208771 -195.150715 
L 173.367457 -198.676091 
L 174.526143 -202.276612 
L 175.684829 -205.938918 
L 176.843515 -209.61302 
L 178.002201 -213.213243 
L 179.160887 -216.822663 
L 180.319573 -220.333468 
L 181.478259 -223.795011 
L 182.636945 -227.217449 
L 183.795631 -230.565071 
L 184.954317 -233.890162 
L 186.113003 -237.182555 
L 187.271689 -240.434027 
L 188.430375 -243.639689 
L 189.589061 -246.799891 
L 190.747747 -249.976123 
L 191.906433 -253.080254 
L 193.065119 -256.163669 
L 194.223805 -259.196807 
L 195.382491 -262.224884 
L 196.541177 -265.120266 
L 197.699863 -267.965139 
L 198.858549 -270.676575 
L 200.017235 -273.223864 
L 201.175921 -275.550375 
L 202.334607 -277.691764 
L 203.493293 -279.599652 
L 204.651979 -281.251323 
L 205.810665 -282.63121 
L 206.969351 -283.780059 
L 208.128037 -284.711221 
L 209.286723 -285.421474 
L 210.445409 -285.984368 
L 211.604095 -286.481581 
L 212.762781 -286.877726 
L 213.921467 -287.259715 
L 215.080153 -287.581349 
L 216.238839 -287.88909 
L 217.397525 -288.188272 
L 218.556211 -288.496292 
L 219.714897 -288.861348 
L 220.873583 -289.153793 
L 222.032269 -289.496534 
L 223.190955 -289.81714 
L 224.349641 -290.149955 
L 225.508327 -290.628437 
L 226.667013 -291.206359 
L 227.825699 -291.944192 
L 228.984385 -292.879075 
L 230.143071 -294.044121 
L 231.301757 -295.421857 
L 232.460443 -296.957718 
L 233.619129 -298.64758 
L 234.777815 -300.329403 
L 235.936501 -301.871435 
L 237.095187 -303.117773 
L 238.253873 -304.06411 
L 239.412559 -304.445455 
L 240.571245 -304.289498 
L 241.729931 -303.535266 
L 242.888617 -302.204856 
L 244.047303 -300.251225 
L 245.205989 -297.746499 
L 246.364675 -294.793385 
L 247.523361 -291.410304 
L 248.682047 -287.653118 
L 249.840733 -283.557673 
L 250.999419 -279.188685 
L 252.158105 -274.569316 
L 253.316791 -269.709566 
L 254.475477 -264.679255 
L 255.634163 -259.497163 
L 256.792849 -254.239285 
L 257.951535 -248.984562 
L 259.110221 -243.816359 
L 260.268907 -238.765992 
L 261.427593 -233.907786 
L 262.586278 -229.368359 
L 263.744964 -225.09694 
L 264.90365 -221.141736 
L 266.062336 -217.495989 
L 267.221022 -214.079792 
L 268.379708 -210.945289 
L 269.538394 -208.016922 
L 270.69708 -205.246788 
L 271.855766 -202.624242 
L 273.014452 -200.066977 
L 274.173138 -197.570365 
L 275.331824 -195.078812 
L 276.49051 -192.600989 
L 277.649196 -190.137471 
L 278.807882 -187.629736 
L 279.966568 -185.094241 
L 281.125254 -182.566554 
L 282.28394 -180.027403 
L 283.442626 -177.534323 
L 284.601312 -175.11825 
L 285.759998 -172.870571 
L 286.918684 -170.803031 
L 288.07737 -168.950219 
L 289.236056 -167.436208 
L 290.394742 -166.22785 
L 291.553428 -165.354863 
L 292.712114 -164.790971 
L 293.8708 -164.466296 
L 295.029486 -164.319557 
L 296.188172 -164.257647 
L 297.346858 -164.172688 
L 298.505544 -163.943823 
L 299.66423 -163.443418 
L 300.822916 -162.601508 
L 301.981602 -161.380719 
L 303.140288 -159.703807 
L 304.298974 -157.570376 
L 305.45766 -155.025326 
L 306.616346 -152.125987 
L 307.775032 -148.94111 
L 308.933718 -145.559075 
L 310.092404 -142.049317 
L 311.25109 -138.486917 
L 312.409776 -134.953277 
L 313.568462 -131.486494 
L 314.727148 -128.134359 
L 315.885834 -124.894988 
L 317.04452 -121.774616 
L 318.203206 -118.762616 
L 319.361892 -115.836841 
L 320.520578 -113.004009 
L 321.679264 -110.258858 
L 322.83795 -107.617625 
L 323.996636 -105.106404 
L 325.155322 -102.739515 
L 326.314008 -100.576514 
L 327.472694 -98.636657 
L 328.63138 -97.001807 
L 329.790066 -95.69457 
L 330.948752 -94.7113 
L 332.107438 -94.106648 
L 332.107438 -57.718428 
L 332.107438 -57.718428 
L 330.948752 -57.718428 
L 329.790066 -57.718428 
L 328.63138 -57.718428 
L 327.472694 -57.718428 
L 326.314008 -57.718428 
L 325.155322 -57.718428 
L 323.996636 -57.718428 
L 322.83795 -57.718428 
L 321.679264 -57.718428 
L 320.520578 -57.718428 
L 319.361892 -57.718428 
L 318.203206 -57.718428 
L 317.04452 -57.718428 
L 315.885834 -57.718428 
L 314.727148 -57.718428 
L 313.568462 -57.718428 
L 312.409776 -57.718428 
L 311.25109 -57.718428 
L 310.092404 -57.718428 
L 308.933718 -57.718428 
L 307.775032 -57.718428 
L 306.616346 -57.718428 
L 305.45766 -57.718428 
L 304.298974 -57.718428 
L 303.140288 -57.718428 
L 301.981602 -57.718428 
L 300.822916 -57.718428 
L 299.66423 -57.718428 
L 298.505544 -57.718428 
L 297.346858 -57.718428 
L 296.188172 -57.718428 
L 295.029486 -57.718428 
L 293.8708 -57.718428 
L 292.712114 -57.718428 
L 291.553428 -57.718428 
L 290.394742 -57.718428 
L 289.236056 -57.718428 
L 288.07737 -57.718428 
L 286.918684 -57.718428 
L 285.759998 -57.718428 
L 284.601312 -57.718428 
L 283.442626 -57.718428 
L 282.28394 -57.718428 
L 281.125254 -57.718428 
L 279.966568 -57.718428 
L 278.807882 -57.718428 
L 277.649196 -57.718428 
L 276.49051 -57.718428 
L 275.331824 -57.718428 
L 274.173138 -57.718428 
L 273.014452 -57.718428 
L 271.855766 -57.718428 
L 270.69708 -57.718428 
L 269.538394 -57.718428 
L 268.379708 -57.718428 
L 267.221022 -57.718428 
L 266.062336 -57.718428 
L 264.90365 -57.718428 
L 263.744964 -57.718428 
L 262.586278 -57.718428 
L 261.427593 -57.718428 
L 260.268907 -57.718428 
L 259.110221 -57.718428 
L 257.951535 -57.718428 
L 256.792849 -57.718428 
L 255.634163 -57.718428 
L 254.475477 -57.718428 
L 253.316791 -57.718428 
L 252.158105 -57.718428 
L 250.999419 -57.718428 
L 249.840733 -57.718428 
L 248.682047 -57.718428 
L 247.523361 -57.718428 
L 246.364675 -57.718428 
L 245.205989 -57.718428 
L 244.047303 -57.718428 
L 242.888617 -57.718428 
L 241.729931 -57.718428 
L 240.571245 -57.718428 
L 239.412559 -57.718428 
L 238.253873 -57.718428 
L 237.095187 -57.718428 
L 235.936501 -57.718428 
L 234.777815 -57.718428 
L 233.619129 -57.718428 
L 232.460443 -57.718428 
L 231.301757 -57.718428 
L 230.143071 -57.718428 
L 228.984385 -57.718428 
L 227.825699 -57.718428 
L 226.667013 -57.718428 
L 225.508327 -57.718428 
L 224.349641 -57.718428 
L 223.190955 -57.718428 
L 222.032269 -57.718428 
L 220.873583 -57.718428 
L 219.714897 -57.718428 
L 218.556211 -57.718428 
L 217.397525 -57.718428 
L 216.238839 -57.718428 
L 215.080153 -57.718428 
L 213.921467 -57.718428 
L 212.762781 -57.718428 
L 211.604095 -57.718428 
L 210.445409 -57.718428 
L 209.286723 -57.718428 
L 208.128037 -57.718428 
L 206.969351 -57.718428 
L 205.810665 -57.718428 
L 204.651979 -57.718428 
L 203.493293 -57.718428 
L 202.334607 -57.718428 
L 201.175921 -57.718428 
L 200.017235 -57.718428 
L 198.858549 -57.718428 
L 197.699863 -57.718428 
L 196.541177 -57.718428 
L 195.382491 -57.718428 
L 194.223805 -57.718428 
L 193.065119 -57.718428 
L 191.906433 -57.718428 
L 190.747747 -57.718428 
L 189.589061 -57.718428 
L 188.430375 -57.718428 
L 187.271689 -57.718428 
L 186.113003 -57.718428 
L 184.954317 -57.718428 
L 183.795631 -57.718428 
L 182.636945 -57.718428 
L 181.478259 -57.718428 
L 180.319573 -57.718428 
L 179.160887 -57.718428 
L 178.002201 -57.718428 
L 176.843515 -57.718428 
L 175.684829 -57.718428 
L 174.526143 -57.718428 
L 173.367457 -57.718428 
L 172.208771 -57.718428 
L 171.050085 -57.718428 
L 169.891399 -57.718428 
L 168.732713 -57.718428 
L 167.574027 -57.718428 
L 166.415341 -57.718428 
L 165.256655 -57.718428 
L 164.097969 -57.718428 
L 162.939283 -57.718428 
L 161.780597 -57.718428 
L 160.621911 -57.718428 
L 159.463225 -57.718428 
L 158.304539 -57.718428 
L 157.145853 -57.718428 
L 155.987167 -57.718428 
L 154.828481 -57.718428 
L 153.669795 -57.718428 
L 152.511109 -57.718428 
L 151.352423 -57.718428 
L 150.193737 -57.718428 
L 149.035051 -57.718428 
L 147.876365 -57.718428 
L 146.717679 -57.718428 
L 145.558993 -57.718428 
L 144.400307 -57.718428 
L 143.241621 -57.718428 
L 142.082935 -57.718428 
L 140.924249 -57.718428 
L 139.765563 -57.718428 
L 138.606877 -57.718428 
L 137.448191 -57.718428 
L 136.289505 -57.718428 
L 135.130819 -57.718428 
L 133.972133 -57.718428 
L 132.813447 -57.718428 
L 131.654761 -57.718428 
L 130.496075 -57.718428 
L 129.337389 -57.718428 
L 128.178703 -57.718428 
L 127.020017 -57.718428 
L 125.861331 -57.718428 
L 124.702645 -57.718428 
L 123.543959 -57.718428 
L 122.385273 -57.718428 
L 121.226587 -57.718428 
L 120.067901 -57.718428 
L 118.909215 -57.718428 
L 117.75053 -57.718428 
L 116.591844 -57.718428 
L 115.433158 -57.718428 
L 114.274472 -57.718428 
L 113.115786 -57.718428 
L 111.9571 -57.718428 
L 110.798414 -57.718428 
L 109.639728 -57.718428 
L 108.481042 -57.718428 
L 107.322356 -57.718428 
L 106.16367 -57.718428 
L 105.004984 -57.718428 
L 103.846298 -57.718428 
L 102.687612 -57.718428 
L 101.528926 -57.718428 
z
" id="mf980b83c76" style="stroke:#008000;stroke-opacity:0.2;"/>
    </defs>
    <g clip-path="url(#p7556084e1c)">
     <use style="fill:#008000;fill-opacity:0.2;stroke:#008000;stroke-opacity:0.2;" x="0" xlink:href="#mf980b83c76" y="360"/>
    </g>
   </g>
   <g id="matplotlib.axis_1">
    <g id="xtick_1">
     <g id="line2d_1">
      <defs>
       <path d="M 0 0 
L 0 3.5 
" id="m626e1b0b3d" style="stroke:#000000;stroke-width:0.8;"/>
      </defs>
      <g>
       <use style="stroke:#000000;stroke-width:0.8;" x="120.822079" xlink:href="#m626e1b0b3d" y="315"/>
      </g>
     </g>
     <g id="text_1">
      <!-- 0.1 -->
      <defs>
       <path d="M 31.78125 66.40625 
Q 24.171875 66.40625 20.328125 58.90625 
Q 16.5 51.421875 16.5 36.375 
Q 16.5 21.390625 20.328125 13.890625 
Q 24.171875 6.390625 31.78125 6.390625 
Q 39.453125 6.390625 43.28125 13.890625 
Q 47.125 21.390625 47.125 36.375 
Q 47.125 51.421875 43.28125 58.90625 
Q 39.453125 66.40625 31.78125 66.40625 
z
M 31.78125 74.21875 
Q 44.046875 74.21875 50.515625 64.515625 
Q 56.984375 54.828125 56.984375 36.375 
Q 56.984375 17.96875 50.515625 8.265625 
Q 44.046875 -1.421875 31.78125 -1.421875 
Q 19.53125 -1.421875 13.0625 8.265625 
Q 6.59375 17.96875 6.59375 36.375 
Q 6.59375 54.828125 13.0625 64.515625 
Q 19.53125 74.21875 31.78125 74.21875 
z
" id="DejaVuSans-48"/>
       <path d="M 10.6875 12.40625 
L 21 12.40625 
L 21 0 
L 10.6875 0 
z
" id="DejaVuSans-46"/>
       <path d="M 12.40625 8.296875 
L 28.515625 8.296875 
L 28.515625 63.921875 
L 10.984375 60.40625 
L 10.984375 69.390625 
L 28.421875 72.90625 
L 38.28125 72.90625 
L 38.28125 8.296875 
L 54.390625 8.296875 
L 54.390625 0 
L 12.40625 0 
z
" id="DejaVuSans-49"/>
      </defs>
      <g transform="translate(109.689892 332.637812)scale(0.14 -0.14)">
       <use xlink:href="#DejaVuSans-48"/>
       <use x="63.623047" xlink:href="#DejaVuSans-46"/>
       <use x="95.410156" xlink:href="#DejaVuSans-49"/>
      </g>
     </g>
    </g>
    <g id="xtick_2">
     <g id="line2d_2">
      <g>
       <use style="stroke:#000000;stroke-width:0.8;" x="172.903836" xlink:href="#m626e1b0b3d" y="315"/>
      </g>
     </g>
     <g id="text_2">
      <!-- 0.2 -->
      <defs>
       <path d="M 19.1875 8.296875 
L 53.609375 8.296875 
L 53.609375 0 
L 7.328125 0 
L 7.328125 8.296875 
Q 12.9375 14.109375 22.625 23.890625 
Q 32.328125 33.6875 34.8125 36.53125 
Q 39.546875 41.84375 41.421875 45.53125 
Q 43.3125 49.21875 43.3125 52.78125 
Q 43.3125 58.59375 39.234375 62.25 
Q 35.15625 65.921875 28.609375 65.921875 
Q 23.96875 65.921875 18.8125 64.3125 
Q 13.671875 62.703125 7.8125 59.421875 
L 7.8125 69.390625 
Q 13.765625 71.78125 18.9375 73 
Q 24.125 74.21875 28.421875 74.21875 
Q 39.75 74.21875 46.484375 68.546875 
Q 53.21875 62.890625 53.21875 53.421875 
Q 53.21875 48.921875 51.53125 44.890625 
Q 49.859375 40.875 45.40625 35.40625 
Q 44.1875 33.984375 37.640625 27.21875 
Q 31.109375 20.453125 19.1875 8.296875 
z
" id="DejaVuSans-50"/>
      </defs>
      <g transform="translate(161.771649 332.637812)scale(0.14 -0.14)">
       <use xlink:href="#DejaVuSans-48"/>
       <use x="63.623047" xlink:href="#DejaVuSans-46"/>
       <use x="95.410156" xlink:href="#DejaVuSans-50"/>
      </g>
     </g>
    </g>
    <g id="xtick_3">
     <g id="line2d_3">
      <g>
       <use style="stroke:#000000;stroke-width:0.8;" x="224.985593" xlink:href="#m626e1b0b3d" y="315"/>
      </g>
     </g>
     <g id="text_3">
      <!-- 0.3 -->
      <defs>
       <path d="M 40.578125 39.3125 
Q 47.65625 37.796875 51.625 33 
Q 55.609375 28.21875 55.609375 21.1875 
Q 55.609375 10.40625 48.1875 4.484375 
Q 40.765625 -1.421875 27.09375 -1.421875 
Q 22.515625 -1.421875 17.65625 -0.515625 
Q 12.796875 0.390625 7.625 2.203125 
L 7.625 11.71875 
Q 11.71875 9.328125 16.59375 8.109375 
Q 21.484375 6.890625 26.8125 6.890625 
Q 36.078125 6.890625 40.9375 10.546875 
Q 45.796875 14.203125 45.796875 21.1875 
Q 45.796875 27.640625 41.28125 31.265625 
Q 36.765625 34.90625 28.71875 34.90625 
L 20.21875 34.90625 
L 20.21875 43.015625 
L 29.109375 43.015625 
Q 36.375 43.015625 40.234375 45.921875 
Q 44.09375 48.828125 44.09375 54.296875 
Q 44.09375 59.90625 40.109375 62.90625 
Q 36.140625 65.921875 28.71875 65.921875 
Q 24.65625 65.921875 20.015625 65.03125 
Q 15.375 64.15625 9.8125 62.3125 
L 9.8125 71.09375 
Q 15.4375 72.65625 20.34375 73.4375 
Q 25.25 74.21875 29.59375 74.21875 
Q 40.828125 74.21875 47.359375 69.109375 
Q 53.90625 64.015625 53.90625 55.328125 
Q 53.90625 49.265625 50.4375 45.09375 
Q 46.96875 40.921875 40.578125 39.3125 
z
" id="DejaVuSans-51"/>
      </defs>
      <g transform="translate(213.853405 332.637812)scale(0.14 -0.14)">
       <use xlink:href="#DejaVuSans-48"/>
       <use x="63.623047" xlink:href="#DejaVuSans-46"/>
       <use x="95.410156" xlink:href="#DejaVuSans-51"/>
      </g>
     </g>
    </g>
    <g id="xtick_4">
     <g id="line2d_4">
      <g>
       <use style="stroke:#000000;stroke-width:0.8;" x="277.06735" xlink:href="#m626e1b0b3d" y="315"/>
      </g>
     </g>
     <g id="text_4">
      <!-- 0.4 -->
      <defs>
       <path d="M 37.796875 64.3125 
L 12.890625 25.390625 
L 37.796875 25.390625 
z
M 35.203125 72.90625 
L 47.609375 72.90625 
L 47.609375 25.390625 
L 58.015625 25.390625 
L 58.015625 17.1875 
L 47.609375 17.1875 
L 47.609375 0 
L 37.796875 0 
L 37.796875 17.1875 
L 4.890625 17.1875 
L 4.890625 26.703125 
z
" id="DejaVuSans-52"/>
      </defs>
      <g transform="translate(265.935162 332.637812)scale(0.14 -0.14)">
       <use xlink:href="#DejaVuSans-48"/>
       <use x="63.623047" xlink:href="#DejaVuSans-46"/>
       <use x="95.410156" xlink:href="#DejaVuSans-52"/>
      </g>
     </g>
    </g>
    <g id="xtick_5">
     <g id="line2d_5">
      <g>
       <use style="stroke:#000000;stroke-width:0.8;" x="329.149106" xlink:href="#m626e1b0b3d" y="315"/>
      </g>
     </g>
     <g id="text_5">
      <!-- 0.5 -->
      <defs>
       <path d="M 10.796875 72.90625 
L 49.515625 72.90625 
L 49.515625 64.59375 
L 19.828125 64.59375 
L 19.828125 46.734375 
Q 21.96875 47.46875 24.109375 47.828125 
Q 26.265625 48.1875 28.421875 48.1875 
Q 40.625 48.1875 47.75 41.5 
Q 54.890625 34.8125 54.890625 23.390625 
Q 54.890625 11.625 47.5625 5.09375 
Q 40.234375 -1.421875 26.90625 -1.421875 
Q 22.3125 -1.421875 17.546875 -0.640625 
Q 12.796875 0.140625 7.71875 1.703125 
L 7.71875 11.625 
Q 12.109375 9.234375 16.796875 8.0625 
Q 21.484375 6.890625 26.703125 6.890625 
Q 35.15625 6.890625 40.078125 11.328125 
Q 45.015625 15.765625 45.015625 23.390625 
Q 45.015625 31 40.078125 35.4375 
Q 35.15625 39.890625 26.703125 39.890625 
Q 22.75 39.890625 18.8125 39.015625 
Q 14.890625 38.140625 10.796875 36.28125 
z
" id="DejaVuSans-53"/>
      </defs>
      <g transform="translate(318.016919 332.637812)scale(0.14 -0.14)">
       <use xlink:href="#DejaVuSans-48"/>
       <use x="63.623047" xlink:href="#DejaVuSans-46"/>
       <use x="95.410156" xlink:href="#DejaVuSans-53"/>
      </g>
     </g>
    </g>
   </g>
   <g id="matplotlib.axis_2"/>
   <g id="line2d_6">
    <path clip-path="url(#p7556084e1c)" d="M 101.528926 269.482208 
L 102.687612 269.482208 
L 103.846298 269.039296 
L 105.004984 268.19585 
L 106.16367 266.943897 
L 107.322356 265.346834 
L 108.481042 263.412922 
L 110.798414 258.865587 
L 116.591844 246.625086 
L 118.909215 242.528367 
L 121.226587 239.158642 
L 123.543959 236.488099 
L 125.861331 234.38713 
L 127.020017 233.494763 
L 129.337389 232.089631 
L 131.654761 231.074381 
L 135.130819 229.883584 
L 137.448191 229.011003 
L 139.765563 227.832438 
L 140.924249 227.031435 
L 142.082935 226.048916 
L 143.241621 224.906157 
L 144.400307 223.602434 
L 145.558993 222.116168 
L 147.876365 218.56705 
L 150.193737 214.363816 
L 153.669795 207.303573 
L 160.621911 192.836818 
L 164.097969 185.664156 
L 166.415341 180.50943 
L 168.732713 174.710691 
L 171.050085 168.267468 
L 174.526143 157.723388 
L 180.319573 139.666532 
L 184.954317 126.109838 
L 189.589061 113.200109 
L 194.223805 100.803193 
L 196.541177 94.879734 
L 198.858549 89.323425 
L 201.175921 84.449625 
L 202.334607 82.308236 
L 203.493293 80.400348 
L 204.651979 78.748677 
L 205.810665 77.36879 
L 206.969351 76.219941 
L 208.128037 75.288779 
L 209.286723 74.578526 
L 211.604095 73.518419 
L 215.080153 72.418651 
L 224.349641 69.850045 
L 226.667013 68.793641 
L 227.825699 68.055808 
L 228.984385 67.120925 
L 230.143071 65.955879 
L 232.460443 63.042282 
L 235.936501 58.128565 
L 237.095187 56.882227 
L 238.253873 55.93589 
L 239.412559 55.554545 
L 240.571245 55.710502 
L 241.729931 56.464734 
L 242.888617 57.795144 
L 244.047303 59.748775 
L 245.205989 62.253501 
L 246.364675 65.206615 
L 247.523361 68.589696 
L 249.840733 76.442327 
L 252.158105 85.430684 
L 254.475477 95.320745 
L 261.427593 126.092214 
L 263.744964 134.90306 
L 266.062336 142.504011 
L 268.379708 149.054711 
L 270.69708 154.753212 
L 274.173138 162.429635 
L 285.759998 187.129429 
L 288.07737 191.049781 
L 289.236056 192.563792 
L 290.394742 193.77215 
L 291.553428 194.645137 
L 292.712114 195.209029 
L 293.8708 195.533704 
L 296.188172 195.742353 
L 297.346858 195.827312 
L 298.505544 196.056177 
L 299.66423 196.556582 
L 300.822916 197.398492 
L 301.981602 198.619281 
L 303.140288 200.296193 
L 304.298974 202.429624 
L 305.45766 204.974674 
L 307.775032 211.05889 
L 311.25109 221.513083 
L 314.727148 231.865641 
L 317.04452 238.225384 
L 320.520578 246.995991 
L 322.83795 252.382375 
L 325.155322 257.260485 
L 327.472694 261.363343 
L 328.63138 262.998193 
L 329.790066 264.30543 
L 330.948752 265.2887 
L 332.107438 265.893352 
L 332.107438 265.893352 
" style="fill:none;stroke:#008000;stroke-linecap:square;stroke-width:1.5;"/>
   </g>
   <g id="line2d_7">
    <path clip-path="url(#p7556084e1c)" d="M 101.528926 302.609566 
L 101.528926 269.482208 
" style="fill:none;stroke:#008000;stroke-linecap:square;stroke-width:1.5;"/>
   </g>
   <g id="line2d_8">
    <path clip-path="url(#p7556084e1c)" d="M 332.107438 302.645455 
L 332.107438 265.893352 
" style="fill:none;stroke:#008000;stroke-linecap:square;stroke-width:1.5;"/>
   </g>
   <g id="line2d_9">
    <defs>
     <path d="M 0 3 
C 0.795609 3 1.55874 2.683901 2.12132 2.12132 
C 2.683901 1.55874 3 0.795609 3 0 
C 3 -0.795609 2.683901 -1.55874 2.12132 -2.12132 
C 1.55874 -2.683901 0.795609 -3 0 -3 
C -0.795609 -3 -1.55874 -2.683901 -2.12132 -2.12132 
C -2.683901 -1.55874 -3 -0.795609 -3 0 
C -3 0.795609 -2.683901 1.55874 -2.12132 2.12132 
C -1.55874 2.683901 -0.795609 3 0 3 
z
" id="madff0f3c50" style="stroke:#000000;"/>
    </defs>
    <g clip-path="url(#p7556084e1c)">
     <use style="fill:#008000;stroke:#000000;" x="227.244335" xlink:href="#madff0f3c50" y="302.281572"/>
    </g>
   </g>
   <g id="patch_3">
    <path d="M 90 315 
L 343.636364 315 
" style="fill:none;stroke:#000000;stroke-linecap:square;stroke-linejoin:miter;stroke-width:0.8;"/>
   </g>
   <g id="text_6">
    <!-- $\beta$ -->
    <defs>
     <path d="M 13.625 3.375 
L 8.9375 -20.796875 
L -0.09375 -20.796875 
L 14.5 54.34375 
Q 18.84375 76.609375 39.65625 76.609375 
Q 60.75 76.609375 57.171875 57.8125 
Q 54.734375 44.4375 45.21875 39.546875 
Q 58.015625 35.15625 55.515625 22.125 
Q 51.125 -1.078125 27.484375 -1.03125 
Q 17.140625 -0.984375 13.625 3.375 
z
M 15.921875 15.09375 
Q 19.671875 6.59375 29.296875 6.640625 
Q 43.359375 6.640625 46.34375 21.96875 
Q 49.03125 35.75 26.171875 34.671875 
L 27.78125 42.96875 
Q 45.453125 42.671875 48.53125 58.59375 
Q 50.640625 69.34375 39.203125 69.28125 
Q 26.421875 69.28125 23.484375 54.046875 
z
" id="DejaVuSans-Oblique-946"/>
    </defs>
    <g transform="translate(208.818182 37.2)scale(0.25 -0.25)">
     <use transform="translate(0 0.390625)" xlink:href="#DejaVuSans-Oblique-946"/>
    </g>
   </g>
  </g>
  <g id="axes_2">
   <g id="patch_4">
    <path d="M 394.363636 315 
L 648 315 
L 648 43.2 
L 394.363636 43.2 
z
" style="fill:#ffffff;"/>
   </g>
   <g id="PolyCollection_2">
    <defs>
     <path d="M 405.892562 -57.780399 
L 405.892562 -100.365766 
L 407.051248 -100.365766 
L 408.209934 -100.868434 
L 409.36862 -101.855682 
L 410.527306 -103.293102 
L 411.685992 -105.163839 
L 412.844678 -107.366638 
L 414.003364 -109.842829 
L 415.16205 -112.533289 
L 416.320736 -115.366083 
L 417.479422 -118.281062 
L 418.638108 -121.218989 
L 419.796794 -124.137926 
L 420.95548 -127.023195 
L 422.114166 -129.875618 
L 423.272852 -132.661689 
L 424.431538 -135.434082 
L 425.590224 -138.192331 
L 426.74891 -140.942642 
L 427.907596 -143.695359 
L 429.066282 -146.431386 
L 430.224968 -149.129687 
L 431.383654 -151.747963 
L 432.54234 -154.203735 
L 433.701026 -156.481013 
L 434.859712 -158.507608 
L 436.018398 -160.26622 
L 437.177084 -161.728587 
L 438.33577 -162.923244 
L 439.494456 -163.873951 
L 440.653142 -164.656508 
L 441.811828 -165.321787 
L 442.970514 -165.957713 
L 444.1292 -166.637269 
L 445.287886 -167.418321 
L 446.446572 -168.359684 
L 447.605258 -169.497007 
L 448.763944 -170.846379 
L 449.92263 -172.404761 
L 451.081316 -174.153994 
L 452.240002 -176.098526 
L 453.398688 -178.217888 
L 454.557374 -180.488887 
L 455.71606 -182.897978 
L 456.874746 -185.436251 
L 458.033432 -188.052722 
L 459.192118 -190.710617 
L 460.350804 -193.41474 
L 461.50949 -196.156848 
L 462.668176 -198.890099 
L 463.826862 -201.618992 
L 464.985548 -204.375864 
L 466.144234 -207.152166 
L 467.30292 -209.991653 
L 468.461606 -212.93097 
L 469.620292 -216.020511 
L 470.778978 -219.30344 
L 471.937664 -222.801105 
L 473.09635 -226.546527 
L 474.255036 -230.555598 
L 475.413722 -234.840151 
L 476.572407 -239.372796 
L 477.731093 -244.110004 
L 478.889779 -249.017291 
L 480.048465 -254.048635 
L 481.207151 -259.154024 
L 482.365837 -264.276682 
L 483.524523 -269.369869 
L 484.683209 -274.386837 
L 485.841895 -279.237677 
L 487.000581 -283.853189 
L 488.159267 -288.185909 
L 489.317953 -292.131202 
L 490.476639 -295.628303 
L 491.635325 -298.600773 
L 492.794011 -301.002123 
L 493.952697 -302.754915 
L 495.111383 -303.893146 
L 496.270069 -304.445455 
L 497.428755 -304.431864 
L 498.587441 -303.924355 
L 499.746127 -303.048592 
L 500.904813 -301.913489 
L 502.063499 -300.612632 
L 503.222185 -299.247225 
L 504.380871 -297.917355 
L 505.539557 -296.686129 
L 506.698243 -295.581638 
L 507.856929 -294.62289 
L 509.015615 -293.813363 
L 510.174301 -293.122502 
L 511.332987 -292.55894 
L 512.491673 -292.097367 
L 513.650359 -291.732309 
L 514.809045 -291.420149 
L 515.967731 -291.143863 
L 517.126417 -290.8406 
L 518.285103 -290.521149 
L 519.443789 -290.170273 
L 520.602475 -289.745283 
L 521.761161 -289.216732 
L 522.919847 -288.5839 
L 524.078533 -287.862553 
L 525.237219 -287.024407 
L 526.395905 -286.063373 
L 527.554591 -285.05111 
L 528.713277 -283.958895 
L 529.871963 -282.765957 
L 531.030649 -281.535113 
L 532.189335 -280.219013 
L 533.348021 -278.826208 
L 534.506707 -277.340809 
L 535.665393 -275.747239 
L 536.824079 -273.953449 
L 537.982765 -271.977169 
L 539.141451 -269.816196 
L 540.300137 -267.45042 
L 541.458823 -264.891395 
L 542.617509 -262.159731 
L 543.776195 -259.257445 
L 544.934881 -256.185617 
L 546.093567 -253.024186 
L 547.252253 -249.786447 
L 548.410939 -246.511065 
L 549.569625 -243.244808 
L 550.728311 -239.990046 
L 551.886997 -236.761804 
L 553.045683 -233.532605 
L 554.204369 -230.288845 
L 555.363055 -227.021619 
L 556.521741 -223.712664 
L 557.680427 -220.334574 
L 558.839113 -216.862276 
L 559.997799 -213.289056 
L 561.156485 -209.616684 
L 562.315171 -205.88109 
L 563.473857 -202.10105 
L 564.632543 -198.309234 
L 565.791229 -194.542893 
L 566.949915 -190.885855 
L 568.108601 -187.368989 
L 569.267287 -184.027035 
L 570.425973 -180.878053 
L 571.584659 -177.944634 
L 572.743345 -175.182941 
L 573.902031 -172.596331 
L 575.060717 -170.164235 
L 576.219403 -167.820039 
L 577.378089 -165.565914 
L 578.536775 -163.381373 
L 579.695461 -161.225841 
L 580.854147 -159.076358 
L 582.012833 -156.930067 
L 583.171519 -154.776437 
L 584.330205 -152.618857 
L 585.488891 -150.491098 
L 586.647577 -148.414626 
L 587.806263 -146.347387 
L 588.964949 -144.327486 
L 590.123635 -142.38823 
L 591.282321 -140.511463 
L 592.441007 -138.737989 
L 593.599693 -137.087119 
L 594.758379 -135.567387 
L 595.917065 -134.205719 
L 597.075751 -133.001897 
L 598.234437 -131.943636 
L 599.393123 -131.046784 
L 600.551809 -130.282361 
L 601.710495 -129.619967 
L 602.869181 -129.033027 
L 604.027867 -128.482307 
L 605.186553 -127.941732 
L 606.345239 -127.39997 
L 607.503925 -126.82483 
L 608.662611 -126.207258 
L 609.821297 -125.543771 
L 610.979983 -124.79994 
L 612.138669 -124.006093 
L 613.297355 -123.143382 
L 614.456041 -122.16774 
L 615.614727 -121.066322 
L 616.773413 -119.797983 
L 617.932099 -118.354321 
L 619.090785 -116.690943 
L 620.24947 -114.799261 
L 621.408156 -112.691767 
L 622.566842 -110.377964 
L 623.725528 -107.909697 
L 624.884214 -105.338669 
L 626.0429 -102.733478 
L 627.201586 -100.167187 
L 628.360272 -97.715737 
L 629.518958 -95.461558 
L 630.677644 -93.43666 
L 631.83633 -91.689918 
L 632.995016 -90.258597 
L 634.153702 -89.144139 
L 635.312388 -88.353146 
L 636.471074 -87.874038 
L 636.471074 -57.780399 
L 636.471074 -57.780399 
L 635.312388 -57.780399 
L 634.153702 -57.780399 
L 632.995016 -57.780399 
L 631.83633 -57.780399 
L 630.677644 -57.780399 
L 629.518958 -57.780399 
L 628.360272 -57.780399 
L 627.201586 -57.780399 
L 626.0429 -57.780399 
L 624.884214 -57.780399 
L 623.725528 -57.780399 
L 622.566842 -57.780399 
L 621.408156 -57.780399 
L 620.24947 -57.780399 
L 619.090785 -57.780399 
L 617.932099 -57.780399 
L 616.773413 -57.780399 
L 615.614727 -57.780399 
L 614.456041 -57.780399 
L 613.297355 -57.780399 
L 612.138669 -57.780399 
L 610.979983 -57.780399 
L 609.821297 -57.780399 
L 608.662611 -57.780399 
L 607.503925 -57.780399 
L 606.345239 -57.780399 
L 605.186553 -57.780399 
L 604.027867 -57.780399 
L 602.869181 -57.780399 
L 601.710495 -57.780399 
L 600.551809 -57.780399 
L 599.393123 -57.780399 
L 598.234437 -57.780399 
L 597.075751 -57.780399 
L 595.917065 -57.780399 
L 594.758379 -57.780399 
L 593.599693 -57.780399 
L 592.441007 -57.780399 
L 591.282321 -57.780399 
L 590.123635 -57.780399 
L 588.964949 -57.780399 
L 587.806263 -57.780399 
L 586.647577 -57.780399 
L 585.488891 -57.780399 
L 584.330205 -57.780399 
L 583.171519 -57.780399 
L 582.012833 -57.780399 
L 580.854147 -57.780399 
L 579.695461 -57.780399 
L 578.536775 -57.780399 
L 577.378089 -57.780399 
L 576.219403 -57.780399 
L 575.060717 -57.780399 
L 573.902031 -57.780399 
L 572.743345 -57.780399 
L 571.584659 -57.780399 
L 570.425973 -57.780399 
L 569.267287 -57.780399 
L 568.108601 -57.780399 
L 566.949915 -57.780399 
L 565.791229 -57.780399 
L 564.632543 -57.780399 
L 563.473857 -57.780399 
L 562.315171 -57.780399 
L 561.156485 -57.780399 
L 559.997799 -57.780399 
L 558.839113 -57.780399 
L 557.680427 -57.780399 
L 556.521741 -57.780399 
L 555.363055 -57.780399 
L 554.204369 -57.780399 
L 553.045683 -57.780399 
L 551.886997 -57.780399 
L 550.728311 -57.780399 
L 549.569625 -57.780399 
L 548.410939 -57.780399 
L 547.252253 -57.780399 
L 546.093567 -57.780399 
L 544.934881 -57.780399 
L 543.776195 -57.780399 
L 542.617509 -57.780399 
L 541.458823 -57.780399 
L 540.300137 -57.780399 
L 539.141451 -57.780399 
L 537.982765 -57.780399 
L 536.824079 -57.780399 
L 535.665393 -57.780399 
L 534.506707 -57.780399 
L 533.348021 -57.780399 
L 532.189335 -57.780399 
L 531.030649 -57.780399 
L 529.871963 -57.780399 
L 528.713277 -57.780399 
L 527.554591 -57.780399 
L 526.395905 -57.780399 
L 525.237219 -57.780399 
L 524.078533 -57.780399 
L 522.919847 -57.780399 
L 521.761161 -57.780399 
L 520.602475 -57.780399 
L 519.443789 -57.780399 
L 518.285103 -57.780399 
L 517.126417 -57.780399 
L 515.967731 -57.780399 
L 514.809045 -57.780399 
L 513.650359 -57.780399 
L 512.491673 -57.780399 
L 511.332987 -57.780399 
L 510.174301 -57.780399 
L 509.015615 -57.780399 
L 507.856929 -57.780399 
L 506.698243 -57.780399 
L 505.539557 -57.780399 
L 504.380871 -57.780399 
L 503.222185 -57.780399 
L 502.063499 -57.780399 
L 500.904813 -57.780399 
L 499.746127 -57.780399 
L 498.587441 -57.780399 
L 497.428755 -57.780399 
L 496.270069 -57.780399 
L 495.111383 -57.780399 
L 493.952697 -57.780399 
L 492.794011 -57.780399 
L 491.635325 -57.780399 
L 490.476639 -57.780399 
L 489.317953 -57.780399 
L 488.159267 -57.780399 
L 487.000581 -57.780399 
L 485.841895 -57.780399 
L 484.683209 -57.780399 
L 483.524523 -57.780399 
L 482.365837 -57.780399 
L 481.207151 -57.780399 
L 480.048465 -57.780399 
L 478.889779 -57.780399 
L 477.731093 -57.780399 
L 476.572407 -57.780399 
L 475.413722 -57.780399 
L 474.255036 -57.780399 
L 473.09635 -57.780399 
L 471.937664 -57.780399 
L 470.778978 -57.780399 
L 469.620292 -57.780399 
L 468.461606 -57.780399 
L 467.30292 -57.780399 
L 466.144234 -57.780399 
L 464.985548 -57.780399 
L 463.826862 -57.780399 
L 462.668176 -57.780399 
L 461.50949 -57.780399 
L 460.350804 -57.780399 
L 459.192118 -57.780399 
L 458.033432 -57.780399 
L 456.874746 -57.780399 
L 455.71606 -57.780399 
L 454.557374 -57.780399 
L 453.398688 -57.780399 
L 452.240002 -57.780399 
L 451.081316 -57.780399 
L 449.92263 -57.780399 
L 448.763944 -57.780399 
L 447.605258 -57.780399 
L 446.446572 -57.780399 
L 445.287886 -57.780399 
L 444.1292 -57.780399 
L 442.970514 -57.780399 
L 441.811828 -57.780399 
L 440.653142 -57.780399 
L 439.494456 -57.780399 
L 438.33577 -57.780399 
L 437.177084 -57.780399 
L 436.018398 -57.780399 
L 434.859712 -57.780399 
L 433.701026 -57.780399 
L 432.54234 -57.780399 
L 431.383654 -57.780399 
L 430.224968 -57.780399 
L 429.066282 -57.780399 
L 427.907596 -57.780399 
L 426.74891 -57.780399 
L 425.590224 -57.780399 
L 424.431538 -57.780399 
L 423.272852 -57.780399 
L 422.114166 -57.780399 
L 420.95548 -57.780399 
L 419.796794 -57.780399 
L 418.638108 -57.780399 
L 417.479422 -57.780399 
L 416.320736 -57.780399 
L 415.16205 -57.780399 
L 414.003364 -57.780399 
L 412.844678 -57.780399 
L 411.685992 -57.780399 
L 410.527306 -57.780399 
L 409.36862 -57.780399 
L 408.209934 -57.780399 
L 407.051248 -57.780399 
L 405.892562 -57.780399 
z
" id="m47950c3f50" style="stroke:#ff0000;stroke-opacity:0.2;"/>
    </defs>
    <g clip-path="url(#pedc4e223b6)">
     <use style="fill:#ff0000;fill-opacity:0.2;stroke:#ff0000;stroke-opacity:0.2;" x="0" xlink:href="#m47950c3f50" y="360"/>
    </g>
   </g>
   <g id="matplotlib.axis_3">
    <g id="xtick_6">
     <g id="line2d_10">
      <g>
       <use style="stroke:#000000;stroke-width:0.8;" x="431.403416" xlink:href="#m626e1b0b3d" y="315"/>
      </g>
     </g>
     <g id="text_7">
      <!-- −30 -->
      <defs>
       <path d="M 10.59375 35.5 
L 73.1875 35.5 
L 73.1875 27.203125 
L 10.59375 27.203125 
z
" id="DejaVuSans-8722"/>
      </defs>
      <g transform="translate(416.630135 332.637812)scale(0.14 -0.14)">
       <use xlink:href="#DejaVuSans-8722"/>
       <use x="83.789062" xlink:href="#DejaVuSans-51"/>
       <use x="147.412109" xlink:href="#DejaVuSans-48"/>
      </g>
     </g>
    </g>
    <g id="xtick_7">
     <g id="line2d_11">
      <g>
       <use style="stroke:#000000;stroke-width:0.8;" x="507.964563" xlink:href="#m626e1b0b3d" y="315"/>
      </g>
     </g>
     <g id="text_8">
      <!-- −20 -->
      <g transform="translate(493.191281 332.637812)scale(0.14 -0.14)">
       <use xlink:href="#DejaVuSans-8722"/>
       <use x="83.789062" xlink:href="#DejaVuSans-50"/>
       <use x="147.412109" xlink:href="#DejaVuSans-48"/>
      </g>
     </g>
    </g>
    <g id="xtick_8">
     <g id="line2d_12">
      <g>
       <use style="stroke:#000000;stroke-width:0.8;" x="584.525709" xlink:href="#m626e1b0b3d" y="315"/>
      </g>
     </g>
     <g id="text_9">
      <!-- −10 -->
      <g transform="translate(569.752428 332.637812)scale(0.14 -0.14)">
       <use xlink:href="#DejaVuSans-8722"/>
       <use x="83.789062" xlink:href="#DejaVuSans-49"/>
       <use x="147.412109" xlink:href="#DejaVuSans-48"/>
      </g>
     </g>
    </g>
   </g>
   <g id="matplotlib.axis_4"/>
   <g id="line2d_13">
    <path clip-path="url(#pedc4e223b6)" d="M 405.892562 259.634234 
L 407.051248 259.634234 
L 408.209934 259.131566 
L 409.36862 258.144318 
L 410.527306 256.706898 
L 411.685992 254.836161 
L 412.844678 252.633362 
L 415.16205 247.466711 
L 419.796794 235.862074 
L 424.431538 224.565918 
L 431.383654 208.252037 
L 433.701026 203.518987 
L 434.859712 201.492392 
L 436.018398 199.73378 
L 437.177084 198.271413 
L 438.33577 197.076756 
L 439.494456 196.126049 
L 441.811828 194.678213 
L 444.1292 193.362731 
L 445.287886 192.581679 
L 446.446572 191.640316 
L 447.605258 190.502993 
L 448.763944 189.153621 
L 449.92263 187.595239 
L 452.240002 183.901474 
L 454.557374 179.511113 
L 456.874746 174.563749 
L 461.50949 163.843152 
L 467.30292 150.008347 
L 469.620292 143.979489 
L 471.937664 137.198895 
L 474.255036 129.444402 
L 476.572407 120.627204 
L 480.048465 105.951365 
L 485.841895 80.762323 
L 488.159267 71.814091 
L 489.317953 67.868798 
L 490.476639 64.371697 
L 491.635325 61.399227 
L 492.794011 58.997877 
L 493.952697 57.245085 
L 495.111383 56.106854 
L 496.270069 55.554545 
L 497.428755 55.568136 
L 498.587441 56.075645 
L 499.746127 56.951408 
L 500.904813 58.086511 
L 505.539557 63.313871 
L 507.856929 65.37711 
L 510.174301 66.877498 
L 512.491673 67.902633 
L 514.809045 68.579851 
L 518.285103 69.478851 
L 520.602475 70.254717 
L 522.919847 71.4161 
L 525.237219 72.975593 
L 527.554591 74.94889 
L 529.871963 77.234043 
L 532.189335 79.780987 
L 534.506707 82.659191 
L 535.665393 84.252761 
L 537.982765 88.022831 
L 540.300137 92.54958 
L 542.617509 97.840269 
L 544.934881 103.814383 
L 549.569625 116.755192 
L 557.680427 139.665426 
L 561.156485 150.383316 
L 568.108601 172.631011 
L 570.425973 179.121947 
L 572.743345 184.817059 
L 575.060717 189.835765 
L 578.536775 196.618627 
L 587.806263 213.652613 
L 590.123635 217.61177 
L 592.441007 221.262011 
L 594.758379 224.432613 
L 597.075751 226.998103 
L 598.234437 228.056364 
L 600.551809 229.717639 
L 602.869181 230.966973 
L 608.662611 233.792742 
L 610.979983 235.20006 
L 613.297355 236.856618 
L 615.614727 238.933678 
L 616.773413 240.202017 
L 617.932099 241.645679 
L 619.090785 243.309057 
L 620.24947 245.200739 
L 622.566842 249.622036 
L 626.0429 257.266522 
L 628.360272 262.284263 
L 630.677644 266.56334 
L 631.83633 268.310082 
L 632.995016 269.741403 
L 634.153702 270.855861 
L 635.312388 271.646854 
L 636.471074 272.125962 
L 636.471074 272.125962 
" style="fill:none;stroke:#ff0000;stroke-linecap:square;stroke-width:1.5;"/>
   </g>
   <g id="line2d_14">
    <path clip-path="url(#pedc4e223b6)" d="M 405.892562 302.645455 
L 405.892562 259.634234 
" style="fill:none;stroke:#ff0000;stroke-linecap:square;stroke-width:1.5;"/>
   </g>
   <g id="line2d_15">
    <path clip-path="url(#pedc4e223b6)" d="M 636.471074 302.520537 
L 636.471074 272.125962 
" style="fill:none;stroke:#ff0000;stroke-linecap:square;stroke-width:1.5;"/>
   </g>
   <g id="line2d_16">
    <defs>
     <path d="M 0 3 
C 0.795609 3 1.55874 2.683901 2.12132 2.12132 
C 2.683901 1.55874 3 0.795609 3 0 
C 3 -0.795609 2.683901 -1.55874 2.12132 -2.12132 
C 1.55874 -2.683901 0.795609 -3 0 -3 
C -0.795609 -3 -1.55874 -2.683901 -2.12132 -2.12132 
C -2.683901 -1.55874 -3 -0.795609 -3 0 
C -3 0.795609 -2.683901 1.55874 -2.12132 2.12132 
C -1.55874 2.683901 -0.795609 3 0 3 
z
" id="me41efad17a" style="stroke:#000000;"/>
    </defs>
    <g clip-path="url(#pedc4e223b6)">
     <use style="fill:#ff0000;stroke:#000000;" x="508.772855" xlink:href="#me41efad17a" y="302.219601"/>
    </g>
   </g>
   <g id="patch_5">
    <path d="M 394.363636 315 
L 648 315 
" style="fill:none;stroke:#000000;stroke-linecap:square;stroke-linejoin:miter;stroke-width:0.8;"/>
   </g>
   <g id="text_10">
    <!-- $\alpha$ -->
    <defs>
     <path d="M 40.921875 25.4375 
L 40.96875 36.71875 
Q 41.015625 48.25 32.328125 48.296875 
Q 25.828125 48.34375 21.78125 42.921875 
Q 16.703125 36.234375 14.984375 27.296875 
Q 12.890625 16.546875 15.53125 11.421875 
Q 18.265625 6.203125 24.171875 6.203125 
Q 30.71875 6.203125 36.234375 16.609375 
z
M 33.84375 55.90625 
Q 49.078125 56.15625 48.875 40.375 
Q 48.875 40.375 56.5 54.6875 
L 64.5 54.6875 
L 48.734375 25.046875 
L 48.578125 14.359375 
Q 48.578125 11.96875 49.90625 9.96875 
Q 51.421875 7.625 52.984375 7.625 
L 57.328125 7.625 
L 55.859375 0 
L 50.4375 0 
Q 45.84375 0 42.53125 4.109375 
Q 40.96875 6.15625 40.921875 10.453125 
Q 37.75 5.21875 32.28125 0.78125 
Q 29.6875 -1.265625 22.703125 -1.21875 
Q 11.28125 -1.125 7.125 6.203125 
Q 2.875 13.8125 5.515625 27.296875 
Q 8.34375 41.796875 15.765625 48.390625 
Q 24.125 55.765625 33.84375 55.90625 
z
" id="DejaVuSans-Oblique-945"/>
    </defs>
    <g transform="translate(512.931818 37.2)scale(0.25 -0.25)">
     <use transform="translate(0 0.84375)" xlink:href="#DejaVuSans-Oblique-945"/>
    </g>
   </g>
  </g>
 </g>
 <defs>
  <clipPath id="p7556084e1c">
   <rect height="271.8" width="253.636364" x="90" y="43.2"/>
  </clipPath>
  <clipPath id="pedc4e223b6">
   <rect height="271.8" width="253.636364" x="394.363636" y="43.2"/>
  </clipPath>
 </defs>
</svg>
