<?xml version="1.0" encoding="utf-8" standalone="no"?>
<!DOCTYPE svg PUBLIC "-//W3C//DTD SVG 1.1//EN"
  "http://www.w3.org/Graphics/SVG/1.1/DTD/svg11.dtd">
<!-- Created with matplotlib (https://matplotlib.org/) -->
<svg height="288pt" version="1.1" viewBox="0 0 432 288" width="432pt" xmlns="http://www.w3.org/2000/svg" xmlns:xlink="http://www.w3.org/1999/xlink">
 <defs>
  <style type="text/css">
*{stroke-linecap:butt;stroke-linejoin:round;}
  </style>
 </defs>
 <g id="figure_1">
  <g id="patch_1">
   <path d="M 0 288 
L 432 288 
L 432 0 
L 0 0 
z
" style="fill:#ffffff;"/>
  </g>
  <g id="axes_1">
   <g id="patch_2">
    <path d="M 54 252 
L 388.8 252 
L 388.8 34.56 
L 54 34.56 
z
" style="fill:#ffffff;"/>
   </g>
   <g id="matplotlib.axis_1">
    <g id="xtick_1">
     <g id="line2d_1">
      <defs>
       <path d="M 0 0 
L 0 3.5 
" id="md80598339e" style="stroke:#000000;stroke-width:0.8;"/>
      </defs>
      <g>
       <use style="stroke:#000000;stroke-width:0.8;" x="69.218182" xlink:href="#md80598339e" y="252"/>
      </g>
     </g>
     <g id="text_1">
      <!-- −4 -->
      <defs>
       <path d="M 10.59375 35.5 
L 73.1875 35.5 
L 73.1875 27.203125 
L 10.59375 27.203125 
z
" id="DejaVuSans-8722"/>
       <path d="M 37.796875 64.3125 
L 12.890625 25.390625 
L 37.796875 25.390625 
z
M 35.203125 72.90625 
L 47.609375 72.90625 
L 47.609375 25.390625 
L 58.015625 25.390625 
L 58.015625 17.1875 
L 47.609375 17.1875 
L 47.609375 0 
L 37.796875 0 
L 37.796875 17.1875 
L 4.890625 17.1875 
L 4.890625 26.703125 
z
" id="DejaVuSans-52"/>
      </defs>
      <g transform="translate(61.847088 266.598437)scale(0.1 -0.1)">
       <use xlink:href="#DejaVuSans-8722"/>
       <use x="83.789062" xlink:href="#DejaVuSans-52"/>
      </g>
     </g>
    </g>
    <g id="xtick_2">
     <g id="line2d_2">
      <g>
       <use style="stroke:#000000;stroke-width:0.8;" x="107.263636" xlink:href="#md80598339e" y="252"/>
      </g>
     </g>
     <g id="text_2">
      <!-- −3 -->
      <defs>
       <path d="M 40.578125 39.3125 
Q 47.65625 37.796875 51.625 33 
Q 55.609375 28.21875 55.609375 21.1875 
Q 55.609375 10.40625 48.1875 4.484375 
Q 40.765625 -1.421875 27.09375 -1.421875 
Q 22.515625 -1.421875 17.65625 -0.515625 
Q 12.796875 0.390625 7.625 2.203125 
L 7.625 11.71875 
Q 11.71875 9.328125 16.59375 8.109375 
Q 21.484375 6.890625 26.8125 6.890625 
Q 36.078125 6.890625 40.9375 10.546875 
Q 45.796875 14.203125 45.796875 21.1875 
Q 45.796875 27.640625 41.28125 31.265625 
Q 36.765625 34.90625 28.71875 34.90625 
L 20.21875 34.90625 
L 20.21875 43.015625 
L 29.109375 43.015625 
Q 36.375 43.015625 40.234375 45.921875 
Q 44.09375 48.828125 44.09375 54.296875 
Q 44.09375 59.90625 40.109375 62.90625 
Q 36.140625 65.921875 28.71875 65.921875 
Q 24.65625 65.921875 20.015625 65.03125 
Q 15.375 64.15625 9.8125 62.3125 
L 9.8125 71.09375 
Q 15.4375 72.65625 20.34375 73.4375 
Q 25.25 74.21875 29.59375 74.21875 
Q 40.828125 74.21875 47.359375 69.109375 
Q 53.90625 64.015625 53.90625 55.328125 
Q 53.90625 49.265625 50.4375 45.09375 
Q 46.96875 40.921875 40.578125 39.3125 
z
" id="DejaVuSans-51"/>
      </defs>
      <g transform="translate(99.892543 266.598437)scale(0.1 -0.1)">
       <use xlink:href="#DejaVuSans-8722"/>
       <use x="83.789062" xlink:href="#DejaVuSans-51"/>
      </g>
     </g>
    </g>
    <g id="xtick_3">
     <g id="line2d_3">
      <g>
       <use style="stroke:#000000;stroke-width:0.8;" x="145.309091" xlink:href="#md80598339e" y="252"/>
      </g>
     </g>
     <g id="text_3">
      <!-- −2 -->
      <defs>
       <path d="M 19.1875 8.296875 
L 53.609375 8.296875 
L 53.609375 0 
L 7.328125 0 
L 7.328125 8.296875 
Q 12.9375 14.109375 22.625 23.890625 
Q 32.328125 33.6875 34.8125 36.53125 
Q 39.546875 41.84375 41.421875 45.53125 
Q 43.3125 49.21875 43.3125 52.78125 
Q 43.3125 58.59375 39.234375 62.25 
Q 35.15625 65.921875 28.609375 65.921875 
Q 23.96875 65.921875 18.8125 64.3125 
Q 13.671875 62.703125 7.8125 59.421875 
L 7.8125 69.390625 
Q 13.765625 71.78125 18.9375 73 
Q 24.125 74.21875 28.421875 74.21875 
Q 39.75 74.21875 46.484375 68.546875 
Q 53.21875 62.890625 53.21875 53.421875 
Q 53.21875 48.921875 51.53125 44.890625 
Q 49.859375 40.875 45.40625 35.40625 
Q 44.1875 33.984375 37.640625 27.21875 
Q 31.109375 20.453125 19.1875 8.296875 
z
" id="DejaVuSans-50"/>
      </defs>
      <g transform="translate(137.937997 266.598437)scale(0.1 -0.1)">
       <use xlink:href="#DejaVuSans-8722"/>
       <use x="83.789062" xlink:href="#DejaVuSans-50"/>
      </g>
     </g>
    </g>
    <g id="xtick_4">
     <g id="line2d_4">
      <g>
       <use style="stroke:#000000;stroke-width:0.8;" x="183.354545" xlink:href="#md80598339e" y="252"/>
      </g>
     </g>
     <g id="text_4">
      <!-- −1 -->
      <defs>
       <path d="M 12.40625 8.296875 
L 28.515625 8.296875 
L 28.515625 63.921875 
L 10.984375 60.40625 
L 10.984375 69.390625 
L 28.421875 72.90625 
L 38.28125 72.90625 
L 38.28125 8.296875 
L 54.390625 8.296875 
L 54.390625 0 
L 12.40625 0 
z
" id="DejaVuSans-49"/>
      </defs>
      <g transform="translate(175.983452 266.598437)scale(0.1 -0.1)">
       <use xlink:href="#DejaVuSans-8722"/>
       <use x="83.789062" xlink:href="#DejaVuSans-49"/>
      </g>
     </g>
    </g>
    <g id="xtick_5">
     <g id="line2d_5">
      <g>
       <use style="stroke:#000000;stroke-width:0.8;" x="221.4" xlink:href="#md80598339e" y="252"/>
      </g>
     </g>
     <g id="text_5">
      <!-- 0 -->
      <defs>
       <path d="M 31.78125 66.40625 
Q 24.171875 66.40625 20.328125 58.90625 
Q 16.5 51.421875 16.5 36.375 
Q 16.5 21.390625 20.328125 13.890625 
Q 24.171875 6.390625 31.78125 6.390625 
Q 39.453125 6.390625 43.28125 13.890625 
Q 47.125 21.390625 47.125 36.375 
Q 47.125 51.421875 43.28125 58.90625 
Q 39.453125 66.40625 31.78125 66.40625 
z
M 31.78125 74.21875 
Q 44.046875 74.21875 50.515625 64.515625 
Q 56.984375 54.828125 56.984375 36.375 
Q 56.984375 17.96875 50.515625 8.265625 
Q 44.046875 -1.421875 31.78125 -1.421875 
Q 19.53125 -1.421875 13.0625 8.265625 
Q 6.59375 17.96875 6.59375 36.375 
Q 6.59375 54.828125 13.0625 64.515625 
Q 19.53125 74.21875 31.78125 74.21875 
z
" id="DejaVuSans-48"/>
      </defs>
      <g transform="translate(218.21875 266.598437)scale(0.1 -0.1)">
       <use xlink:href="#DejaVuSans-48"/>
      </g>
     </g>
    </g>
    <g id="xtick_6">
     <g id="line2d_6">
      <g>
       <use style="stroke:#000000;stroke-width:0.8;" x="259.445455" xlink:href="#md80598339e" y="252"/>
      </g>
     </g>
     <g id="text_6">
      <!-- 1 -->
      <g transform="translate(256.264205 266.598437)scale(0.1 -0.1)">
       <use xlink:href="#DejaVuSans-49"/>
      </g>
     </g>
    </g>
    <g id="xtick_7">
     <g id="line2d_7">
      <g>
       <use style="stroke:#000000;stroke-width:0.8;" x="297.490909" xlink:href="#md80598339e" y="252"/>
      </g>
     </g>
     <g id="text_7">
      <!-- 2 -->
      <g transform="translate(294.309659 266.598437)scale(0.1 -0.1)">
       <use xlink:href="#DejaVuSans-50"/>
      </g>
     </g>
    </g>
    <g id="xtick_8">
     <g id="line2d_8">
      <g>
       <use style="stroke:#000000;stroke-width:0.8;" x="335.536364" xlink:href="#md80598339e" y="252"/>
      </g>
     </g>
     <g id="text_8">
      <!-- 3 -->
      <g transform="translate(332.355114 266.598437)scale(0.1 -0.1)">
       <use xlink:href="#DejaVuSans-51"/>
      </g>
     </g>
    </g>
    <g id="xtick_9">
     <g id="line2d_9">
      <g>
       <use style="stroke:#000000;stroke-width:0.8;" x="373.581818" xlink:href="#md80598339e" y="252"/>
      </g>
     </g>
     <g id="text_9">
      <!-- 4 -->
      <g transform="translate(370.400568 266.598437)scale(0.1 -0.1)">
       <use xlink:href="#DejaVuSans-52"/>
      </g>
     </g>
    </g>
   </g>
   <g id="matplotlib.axis_2">
    <g id="ytick_1">
     <g id="line2d_10">
      <defs>
       <path d="M 0 0 
L -3.5 0 
" id="m2a26c8aac3" style="stroke:#000000;stroke-width:0.8;"/>
      </defs>
      <g>
       <use style="stroke:#000000;stroke-width:0.8;" x="54" xlink:href="#m2a26c8aac3" y="242.116364"/>
      </g>
     </g>
     <g id="text_10">
      <!-- 0.0 -->
      <defs>
       <path d="M 10.6875 12.40625 
L 21 12.40625 
L 21 0 
L 10.6875 0 
z
" id="DejaVuSans-46"/>
      </defs>
      <g transform="translate(31.096875 245.915582)scale(0.1 -0.1)">
       <use xlink:href="#DejaVuSans-48"/>
       <use x="63.623047" xlink:href="#DejaVuSans-46"/>
       <use x="95.410156" xlink:href="#DejaVuSans-48"/>
      </g>
     </g>
    </g>
    <g id="ytick_2">
     <g id="line2d_11">
      <g>
       <use style="stroke:#000000;stroke-width:0.8;" x="54" xlink:href="#m2a26c8aac3" y="202.581818"/>
      </g>
     </g>
     <g id="text_11">
      <!-- 0.2 -->
      <g transform="translate(31.096875 206.381037)scale(0.1 -0.1)">
       <use xlink:href="#DejaVuSans-48"/>
       <use x="63.623047" xlink:href="#DejaVuSans-46"/>
       <use x="95.410156" xlink:href="#DejaVuSans-50"/>
      </g>
     </g>
    </g>
    <g id="ytick_3">
     <g id="line2d_12">
      <g>
       <use style="stroke:#000000;stroke-width:0.8;" x="54" xlink:href="#m2a26c8aac3" y="163.047273"/>
      </g>
     </g>
     <g id="text_12">
      <!-- 0.4 -->
      <g transform="translate(31.096875 166.846491)scale(0.1 -0.1)">
       <use xlink:href="#DejaVuSans-48"/>
       <use x="63.623047" xlink:href="#DejaVuSans-46"/>
       <use x="95.410156" xlink:href="#DejaVuSans-52"/>
      </g>
     </g>
    </g>
    <g id="ytick_4">
     <g id="line2d_13">
      <g>
       <use style="stroke:#000000;stroke-width:0.8;" x="54" xlink:href="#m2a26c8aac3" y="123.512727"/>
      </g>
     </g>
     <g id="text_13">
      <!-- 0.6 -->
      <defs>
       <path d="M 33.015625 40.375 
Q 26.375 40.375 22.484375 35.828125 
Q 18.609375 31.296875 18.609375 23.390625 
Q 18.609375 15.53125 22.484375 10.953125 
Q 26.375 6.390625 33.015625 6.390625 
Q 39.65625 6.390625 43.53125 10.953125 
Q 47.40625 15.53125 47.40625 23.390625 
Q 47.40625 31.296875 43.53125 35.828125 
Q 39.65625 40.375 33.015625 40.375 
z
M 52.59375 71.296875 
L 52.59375 62.3125 
Q 48.875 64.0625 45.09375 64.984375 
Q 41.3125 65.921875 37.59375 65.921875 
Q 27.828125 65.921875 22.671875 59.328125 
Q 17.53125 52.734375 16.796875 39.40625 
Q 19.671875 43.65625 24.015625 45.921875 
Q 28.375 48.1875 33.59375 48.1875 
Q 44.578125 48.1875 50.953125 41.515625 
Q 57.328125 34.859375 57.328125 23.390625 
Q 57.328125 12.15625 50.6875 5.359375 
Q 44.046875 -1.421875 33.015625 -1.421875 
Q 20.359375 -1.421875 13.671875 8.265625 
Q 6.984375 17.96875 6.984375 36.375 
Q 6.984375 53.65625 15.1875 63.9375 
Q 23.390625 74.21875 37.203125 74.21875 
Q 40.921875 74.21875 44.703125 73.484375 
Q 48.484375 72.75 52.59375 71.296875 
z
" id="DejaVuSans-54"/>
      </defs>
      <g transform="translate(31.096875 127.311946)scale(0.1 -0.1)">
       <use xlink:href="#DejaVuSans-48"/>
       <use x="63.623047" xlink:href="#DejaVuSans-46"/>
       <use x="95.410156" xlink:href="#DejaVuSans-54"/>
      </g>
     </g>
    </g>
    <g id="ytick_5">
     <g id="line2d_14">
      <g>
       <use style="stroke:#000000;stroke-width:0.8;" x="54" xlink:href="#m2a26c8aac3" y="83.978181"/>
      </g>
     </g>
     <g id="text_14">
      <!-- 0.8 -->
      <defs>
       <path d="M 31.78125 34.625 
Q 24.75 34.625 20.71875 30.859375 
Q 16.703125 27.09375 16.703125 20.515625 
Q 16.703125 13.921875 20.71875 10.15625 
Q 24.75 6.390625 31.78125 6.390625 
Q 38.8125 6.390625 42.859375 10.171875 
Q 46.921875 13.96875 46.921875 20.515625 
Q 46.921875 27.09375 42.890625 30.859375 
Q 38.875 34.625 31.78125 34.625 
z
M 21.921875 38.8125 
Q 15.578125 40.375 12.03125 44.71875 
Q 8.5 49.078125 8.5 55.328125 
Q 8.5 64.0625 14.71875 69.140625 
Q 20.953125 74.21875 31.78125 74.21875 
Q 42.671875 74.21875 48.875 69.140625 
Q 55.078125 64.0625 55.078125 55.328125 
Q 55.078125 49.078125 51.53125 44.71875 
Q 48 40.375 41.703125 38.8125 
Q 48.828125 37.15625 52.796875 32.3125 
Q 56.78125 27.484375 56.78125 20.515625 
Q 56.78125 9.90625 50.3125 4.234375 
Q 43.84375 -1.421875 31.78125 -1.421875 
Q 19.734375 -1.421875 13.25 4.234375 
Q 6.78125 9.90625 6.78125 20.515625 
Q 6.78125 27.484375 10.78125 32.3125 
Q 14.796875 37.15625 21.921875 38.8125 
z
M 18.3125 54.390625 
Q 18.3125 48.734375 21.84375 45.5625 
Q 25.390625 42.390625 31.78125 42.390625 
Q 38.140625 42.390625 41.71875 45.5625 
Q 45.3125 48.734375 45.3125 54.390625 
Q 45.3125 60.0625 41.71875 63.234375 
Q 38.140625 66.40625 31.78125 66.40625 
Q 25.390625 66.40625 21.84375 63.234375 
Q 18.3125 60.0625 18.3125 54.390625 
z
" id="DejaVuSans-56"/>
      </defs>
      <g transform="translate(31.096875 87.7774)scale(0.1 -0.1)">
       <use xlink:href="#DejaVuSans-48"/>
       <use x="63.623047" xlink:href="#DejaVuSans-46"/>
       <use x="95.410156" xlink:href="#DejaVuSans-56"/>
      </g>
     </g>
    </g>
    <g id="ytick_6">
     <g id="line2d_15">
      <g>
       <use style="stroke:#000000;stroke-width:0.8;" x="54" xlink:href="#m2a26c8aac3" y="44.443636"/>
      </g>
     </g>
     <g id="text_15">
      <!-- 1.0 -->
      <g transform="translate(31.096875 48.242855)scale(0.1 -0.1)">
       <use xlink:href="#DejaVuSans-49"/>
       <use x="63.623047" xlink:href="#DejaVuSans-46"/>
       <use x="95.410156" xlink:href="#DejaVuSans-48"/>
      </g>
     </g>
    </g>
   </g>
   <g id="line2d_16">
    <path clip-path="url(#p4a506a5ac6)" d="M 69.218182 47.999019 
L 72.292562 48.292424 
L 75.366942 48.609522 
L 78.441322 48.952138 
L 81.515702 49.322221 
L 84.590083 49.721853 
L 87.664463 50.153252 
L 90.738843 50.618777 
L 93.813223 51.120939 
L 96.887603 51.662396 
L 99.961983 52.245967 
L 103.036364 52.874625 
L 106.110744 53.551507 
L 109.185124 54.279907 
L 112.259504 55.063281 
L 115.333884 55.905236 
L 118.408264 56.809531 
L 121.482645 57.780063 
L 124.557025 58.820857 
L 127.631405 59.93605 
L 130.705785 61.129869 
L 133.780165 62.406612 
L 136.854545 63.770612 
L 139.928926 65.226209 
L 143.003306 66.777704 
L 146.077686 68.429319 
L 149.152066 70.18514 
L 152.226446 72.049064 
L 155.300826 74.024732 
L 158.375207 76.115463 
L 161.449587 78.324179 
L 164.523967 80.653326 
L 167.598347 83.104798 
L 170.672727 85.679853 
L 173.747107 88.379031 
L 176.821488 91.202079 
L 179.895868 94.147876 
L 182.970248 97.214364 
L 186.044628 100.398496 
L 189.119008 103.696193 
L 192.193388 107.102309 
L 195.267769 110.61063 
L 198.342149 114.213876 
L 201.416529 117.903732 
L 204.490909 121.670903 
L 207.565289 125.505187 
L 210.639669 129.395571 
L 213.71405 133.330345 
L 216.78843 137.29724 
L 219.86281 141.283577 
L 222.93719 145.276422 
L 226.01157 149.262759 
L 229.08595 153.229655 
L 232.160331 157.164429 
L 235.234711 161.054812 
L 238.309091 164.889096 
L 241.383471 168.656268 
L 244.457851 172.346124 
L 247.532231 175.949369 
L 250.606612 179.45769 
L 253.680992 182.863807 
L 256.755372 186.161503 
L 259.829752 189.345636 
L 262.904132 192.412124 
L 265.978512 195.35792 
L 269.052893 198.180969 
L 272.127273 200.880147 
L 275.201653 203.455202 
L 278.276033 205.906674 
L 281.350413 208.235821 
L 284.424793 210.444536 
L 287.499174 212.535267 
L 290.573554 214.510936 
L 293.647934 216.37486 
L 296.722314 218.130681 
L 299.796694 219.782295 
L 302.871074 221.333791 
L 305.945455 222.789387 
L 309.019835 224.153388 
L 312.094215 225.43013 
L 315.168595 226.62395 
L 318.242975 227.739142 
L 321.317355 228.779936 
L 324.391736 229.750468 
L 327.466116 230.654763 
L 330.540496 231.496719 
L 333.614876 232.280092 
L 336.689256 233.008493 
L 339.763636 233.685374 
L 342.838017 234.314033 
L 345.912397 234.897603 
L 348.986777 235.439061 
L 352.061157 235.941222 
L 355.135537 236.406748 
L 358.209917 236.838146 
L 361.284298 237.237778 
L 364.358678 237.607861 
L 367.433058 237.950477 
L 370.507438 238.267576 
L 373.581818 238.56098 
" style="fill:none;stroke:#1f77b4;stroke-dasharray:3.7,1.6;stroke-dashoffset:0;"/>
   </g>
   <g id="line2d_17">
    <path clip-path="url(#p4a506a5ac6)" d="M 69.218182 44.44485 
L 72.292562 44.445184 
L 75.366942 44.445608 
L 78.441322 44.446149 
L 81.515702 44.446839 
L 84.590083 44.447717 
L 87.664463 44.448837 
L 90.738843 44.450264 
L 93.813223 44.452082 
L 96.887603 44.454399 
L 99.961983 44.457352 
L 103.036364 44.461114 
L 106.110744 44.465908 
L 109.185124 44.472018 
L 112.259504 44.479802 
L 115.333884 44.489721 
L 118.408264 44.502361 
L 121.482645 44.518465 
L 124.557025 44.538983 
L 127.631405 44.565124 
L 130.705785 44.598426 
L 133.780165 44.640848 
L 136.854545 44.694881 
L 139.928926 44.763695 
L 143.003306 44.851317 
L 146.077686 44.962864 
L 149.152066 45.10483 
L 152.226446 45.285446 
L 155.300826 45.515132 
L 158.375207 45.807054 
L 161.449587 46.177805 
L 164.523967 46.648242 
L 167.598347 47.244472 
L 170.672727 47.999019 
L 173.747107 48.952138 
L 176.821488 50.153252 
L 179.895868 51.662396 
L 182.970248 53.551507 
L 186.044628 55.905236 
L 189.119008 58.820857 
L 192.193388 62.406612 
L 195.267769 66.777704 
L 198.342149 72.049064 
L 201.416529 78.324179 
L 204.490909 85.679853 
L 207.565289 94.147876 
L 210.639669 103.696193 
L 213.71405 114.213876 
L 216.78843 125.505187 
L 219.86281 137.29724 
L 222.93719 149.262759 
L 226.01157 161.054812 
L 229.08595 172.346124 
L 232.160331 182.863807 
L 235.234711 192.412124 
L 238.309091 200.880147 
L 241.383471 208.235821 
L 244.457851 214.510936 
L 247.532231 219.782295 
L 250.606612 224.153388 
L 253.680992 227.739142 
L 256.755372 230.654763 
L 259.829752 233.008493 
L 262.904132 234.897603 
L 265.978512 236.406748 
L 269.052893 237.607861 
L 272.127273 238.56098 
L 275.201653 239.315527 
L 278.276033 239.911758 
L 281.350413 240.382195 
L 284.424793 240.752946 
L 287.499174 241.044867 
L 290.573554 241.274553 
L 293.647934 241.455169 
L 296.722314 241.597135 
L 299.796694 241.708683 
L 302.871074 241.796305 
L 305.945455 241.865118 
L 309.019835 241.919152 
L 312.094215 241.961574 
L 315.168595 241.994876 
L 318.242975 242.021017 
L 321.317355 242.041535 
L 324.391736 242.057639 
L 327.466116 242.070278 
L 330.540496 242.080197 
L 333.614876 242.087982 
L 336.689256 242.094091 
L 339.763636 242.098886 
L 342.838017 242.102648 
L 345.912397 242.1056 
L 348.986777 242.107917 
L 352.061157 242.109736 
L 355.135537 242.111162 
L 358.209917 242.112282 
L 361.284298 242.113161 
L 364.358678 242.11385 
L 367.433058 242.114391 
L 370.507438 242.114816 
L 373.581818 242.115149 
" style="fill:none;stroke:#ff7f0e;stroke-dasharray:3.7,1.6;stroke-dashoffset:0;"/>
   </g>
   <g id="line2d_18">
    <path clip-path="url(#p4a506a5ac6)" d="M 69.218182 242.116363 
L 72.292562 242.116363 
L 75.366942 242.116363 
L 78.441322 242.116362 
L 81.515702 242.116362 
L 84.590083 242.116361 
L 87.664463 242.116359 
L 90.738843 242.116357 
L 93.813223 242.116353 
L 96.887603 242.116348 
L 99.961983 242.11634 
L 103.036364 242.116329 
L 106.110744 242.116312 
L 109.185124 242.116286 
L 112.259504 242.116247 
L 115.333884 242.116189 
L 118.408264 242.116102 
L 121.482645 242.115972 
L 124.557025 242.115777 
L 127.631405 242.115485 
L 130.705785 242.115047 
L 133.780165 242.114391 
L 136.854545 242.113409 
L 139.928926 242.111939 
L 143.003306 242.109736 
L 146.077686 242.106436 
L 149.152066 242.101494 
L 152.226446 242.094091 
L 155.300826 242.083005 
L 158.375207 242.0664 
L 161.449587 242.041535 
L 164.523967 242.004302 
L 167.598347 241.948557 
L 170.672727 241.865118 
L 173.747107 241.74027 
L 176.821488 241.55356 
L 179.895868 241.274553 
L 182.970248 240.858113 
L 186.044628 240.237629 
L 189.119008 239.315527 
L 192.193388 237.950477 
L 195.267769 235.941222 
L 198.342149 233.008493 
L 201.416529 228.779936 
L 204.490909 222.789387 
L 207.565289 214.510936 
L 210.639669 203.455202 
L 213.71405 189.345636 
L 216.78843 172.346124 
L 219.86281 153.229655 
L 222.93719 133.330345 
L 226.01157 114.213876 
L 229.08595 97.214364 
L 232.160331 83.104798 
L 235.234711 72.049064 
L 238.309091 63.770612 
L 241.383471 57.780063 
L 244.457851 53.551507 
L 247.532231 50.618777 
L 250.606612 48.609522 
L 253.680992 47.244472 
L 256.755372 46.32237 
L 259.829752 45.701886 
L 262.904132 45.285446 
L 265.978512 45.00644 
L 269.052893 44.819729 
L 272.127273 44.694881 
L 275.201653 44.611442 
L 278.276033 44.555698 
L 281.350413 44.518465 
L 284.424793 44.493599 
L 287.499174 44.476995 
L 290.573554 44.465908 
L 293.647934 44.458506 
L 296.722314 44.453564 
L 299.796694 44.450264 
L 302.871074 44.448061 
L 305.945455 44.44659 
L 309.019835 44.445608 
L 312.094215 44.444953 
L 315.168595 44.444515 
L 318.242975 44.444223 
L 321.317355 44.444028 
L 324.391736 44.443898 
L 327.466116 44.443811 
L 330.540496 44.443753 
L 333.614876 44.443714 
L 336.689256 44.443688 
L 339.763636 44.443671 
L 342.838017 44.443659 
L 345.912397 44.443651 
L 348.986777 44.443646 
L 352.061157 44.443643 
L 355.135537 44.443641 
L 358.209917 44.443639 
L 361.284298 44.443638 
L 364.358678 44.443637 
L 367.433058 44.443637 
L 370.507438 44.443637 
L 373.581818 44.443636 
" style="fill:none;stroke:#2ca02c;stroke-dasharray:3.7,1.6;stroke-dashoffset:0;"/>
   </g>
   <g id="line2d_19">
    <path clip-path="url(#p4a506a5ac6)" d="M 69.218182 53.818438 
L 72.292562 54.56704 
L 75.366942 55.37195 
L 78.441322 56.236835 
L 81.515702 57.165505 
L 84.590083 58.161907 
L 87.664463 59.23011 
L 90.738843 60.374288 
L 93.813223 61.598698 
L 96.887603 62.907653 
L 99.961983 64.305495 
L 103.036364 65.796553 
L 106.110744 67.385104 
L 109.185124 69.075326 
L 112.259504 70.871241 
L 115.333884 72.776659 
L 118.408264 74.795106 
L 121.482645 76.929763 
L 124.557025 79.183381 
L 127.631405 81.55821 
L 130.705785 84.055915 
L 133.780165 86.677494 
L 136.854545 89.423199 
L 139.928926 92.292458 
L 143.003306 95.283807 
L 146.077686 98.394823 
L 149.152066 101.622077 
L 152.226446 104.961091 
L 155.300826 108.406321 
L 158.375207 111.951148 
L 161.449587 115.587901 
L 164.523967 119.30789 
L 167.598347 123.10147 
L 170.672727 126.958122 
L 173.747107 130.866557 
L 176.821488 134.81484 
L 179.895868 138.790529 
L 182.970248 142.78083 
L 186.044628 146.77276 
L 189.119008 150.753312 
L 192.193388 154.709629 
L 195.267769 158.629167 
L 198.342149 162.499851 
L 201.416529 166.310217 
L 204.490909 170.049544 
L 207.565289 173.707959 
L 210.639669 177.276528 
L 213.71405 180.747318 
L 216.78843 184.113448 
L 219.86281 187.369103 
L 222.93719 190.509541 
L 226.01157 193.531072 
L 229.08595 196.431028 
L 232.160331 199.207708 
L 235.234711 201.860326 
L 238.309091 204.388933 
L 241.383471 206.79435 
L 244.457851 209.078082 
L 247.532231 211.242239 
L 250.606612 213.289457 
L 253.680992 215.222813 
L 256.755372 217.045756 
L 259.829752 218.762032 
L 262.904132 220.375614 
L 265.978512 221.890648 
L 269.052893 223.311389 
L 272.127273 224.642158 
L 275.201653 225.887298 
L 278.276033 227.051132 
L 281.350413 228.137934 
L 284.424793 229.151901 
L 287.499174 230.097129 
L 290.573554 230.977597 
L 293.647934 231.797152 
L 296.722314 232.559496 
L 299.796694 233.26818 
L 302.871074 233.9266 
L 305.945455 234.537992 
L 309.019835 235.10543 
L 312.094215 235.63183 
L 315.168595 236.11995 
L 318.242975 236.572392 
L 321.317355 236.991609 
L 324.391736 237.379907 
L 327.466116 237.739454 
L 330.540496 238.072279 
L 333.614876 238.380285 
L 336.689256 238.665251 
L 339.763636 238.928838 
L 342.838017 239.172598 
L 345.912397 239.397978 
L 348.986777 239.606325 
L 352.061157 239.798893 
L 355.135537 239.97685 
L 358.209917 240.141279 
L 361.284298 240.293189 
L 364.358678 240.433516 
L 367.433058 240.563128 
L 370.507438 240.68283 
L 373.581818 240.79337 
" style="fill:none;stroke:#348abd;stroke-linecap:square;stroke-width:1.5;"/>
   </g>
   <g id="line2d_20">
    <path clip-path="url(#p4a506a5ac6)" d="M 69.218182 44.4438 
L 72.292562 44.443845 
L 75.366942 44.443903 
L 78.441322 44.443976 
L 81.515702 44.444069 
L 84.590083 44.444188 
L 87.664463 44.44434 
L 90.738843 44.444533 
L 93.813223 44.444779 
L 96.887603 44.445093 
L 99.961983 44.445492 
L 103.036364 44.446002 
L 106.110744 44.44665 
L 109.185124 44.447477 
L 112.259504 44.448531 
L 115.333884 44.449874 
L 118.408264 44.451586 
L 121.482645 44.453766 
L 124.557025 44.456545 
L 127.631405 44.460086 
L 130.705785 44.464599 
L 133.780165 44.470349 
L 136.854545 44.477676 
L 139.928926 44.487012 
L 143.003306 44.498908 
L 146.077686 44.514066 
L 149.152066 44.533378 
L 152.226446 44.557984 
L 155.300826 44.58933 
L 158.375207 44.629262 
L 161.449587 44.680124 
L 164.523967 44.744902 
L 167.598347 44.82739 
L 170.672727 44.932406 
L 173.747107 45.066071 
L 176.821488 45.236141 
L 179.895868 45.452444 
L 182.970248 45.727397 
L 186.044628 46.076668 
L 189.119008 46.51996 
L 192.193388 47.081965 
L 195.267769 47.793484 
L 198.342149 48.69271 
L 201.416529 49.826635 
L 204.490909 51.252512 
L 207.565289 53.039199 
L 210.639669 55.268133 
L 213.71405 58.033515 
L 216.78843 61.441112 
L 219.86281 65.604926 
L 222.93719 70.640839 
L 226.01157 76.656477 
L 229.08595 83.736942 
L 232.160331 91.927085 
L 235.234711 101.212456 
L 238.309091 111.50285 
L 241.383471 122.6236 
L 244.457851 134.319547 
L 247.532231 146.274125 
L 250.606612 158.141655 
L 253.680992 169.586359 
L 256.755372 180.319062 
L 259.829752 190.123423 
L 262.904132 198.8674 
L 265.978512 206.500365 
L 269.052893 213.039848 
L 272.127273 218.553197 
L 275.201653 223.138805 
L 278.276033 226.909953 
L 281.350413 229.982597 
L 284.424793 232.467208 
L 287.499174 234.464033 
L 290.573554 236.060938 
L 293.647934 237.332986 
L 296.722314 238.343079 
L 299.796694 239.143162 
L 302.871074 239.775644 
L 305.945455 240.274853 
L 309.019835 240.668383 
L 312.094215 240.978305 
L 315.168595 241.222195 
L 318.242975 241.414004 
L 321.317355 241.564784 
L 324.391736 241.683266 
L 327.466116 241.776342 
L 330.540496 241.849442 
L 333.614876 241.906843 
L 336.689256 241.95191 
L 339.763636 241.98729 
L 342.838017 242.015062 
L 345.912397 242.036861 
L 348.986777 242.053971 
L 352.061157 242.067399 
L 355.135537 242.077938 
L 358.209917 242.086209 
L 361.284298 242.0927 
L 364.358678 242.097794 
L 367.433058 242.101791 
L 370.507438 242.104928 
L 373.581818 242.10739 
" style="fill:none;stroke:#a60628;stroke-linecap:square;stroke-width:1.5;"/>
   </g>
   <g id="line2d_21">
    <path clip-path="url(#p4a506a5ac6)" d="M 69.218182 242.116364 
L 72.292562 242.116364 
L 75.366942 242.116364 
L 78.441322 242.116364 
L 81.515702 242.116364 
L 84.590083 242.116364 
L 87.664463 242.116364 
L 90.738843 242.116364 
L 93.813223 242.116364 
L 96.887603 242.116364 
L 99.961983 242.116364 
L 103.036364 242.116364 
L 106.110744 242.116364 
L 109.185124 242.116364 
L 112.259504 242.116364 
L 115.333884 242.116363 
L 118.408264 242.116363 
L 121.482645 242.116363 
L 124.557025 242.116363 
L 127.631405 242.116363 
L 130.705785 242.116362 
L 133.780165 242.116362 
L 136.854545 242.116361 
L 139.928926 242.11636 
L 143.003306 242.116358 
L 146.077686 242.116355 
L 149.152066 242.11635 
L 152.226446 242.116343 
L 155.300826 242.116333 
L 158.375207 242.116318 
L 161.449587 242.116295 
L 164.523967 242.116261 
L 167.598347 242.11621 
L 170.672727 242.116134 
L 173.747107 242.11602 
L 176.821488 242.115849 
L 179.895868 242.115593 
L 182.970248 242.115209 
L 186.044628 242.114634 
L 189.119008 242.113773 
L 192.193388 242.112483 
L 195.267769 242.110551 
L 198.342149 242.107658 
L 201.416529 242.103323 
L 204.490909 242.096832 
L 207.565289 242.087109 
L 210.639669 242.072547 
L 213.71405 242.05074 
L 216.78843 242.018085 
L 219.86281 241.969191 
L 222.93719 241.896001 
L 226.01157 241.786474 
L 229.08595 241.622644 
L 232.160331 241.377757 
L 235.234711 241.012085 
L 238.309091 240.466891 
L 241.383471 239.655899 
L 244.457851 238.453619 
L 247.532231 236.680218 
L 250.606612 234.083734 
L 253.680992 230.323165 
L 256.755372 224.961302 
L 259.829752 217.484674 
L 262.904132 207.376619 
L 265.978512 194.267542 
L 269.052893 178.153679 
L 272.127273 159.601878 
L 275.201653 139.78724 
L 278.276033 120.249782 
L 281.350413 102.446551 
L 284.424793 87.352291 
L 287.499174 75.31776 
L 290.573554 66.184385 
L 293.647934 59.508867 
L 296.722314 54.762848 
L 299.796694 51.454569 
L 302.871074 49.180092 
L 305.945455 47.631162 
L 309.019835 46.58315 
L 312.094215 45.877169 
L 315.168595 45.403 
L 318.242975 45.085159 
L 321.317355 44.87239 
L 324.391736 44.730086 
L 327.466116 44.634967 
L 330.540496 44.571413 
L 333.614876 44.52896 
L 336.689256 44.500608 
L 339.763636 44.481675 
L 342.838017 44.469033 
L 345.912397 44.460592 
L 348.986777 44.454957 
L 352.061157 44.451194 
L 355.135537 44.448682 
L 358.209917 44.447005 
L 361.284298 44.445885 
L 364.358678 44.445137 
L 367.433058 44.444638 
L 370.507438 44.444305 
L 373.581818 44.444083 
" style="fill:none;stroke:#7a68a6;stroke-linecap:square;stroke-width:1.5;"/>
   </g>
   <g id="patch_3">
    <path d="M 54 252 
L 54 34.56 
" style="fill:none;stroke:#000000;stroke-linecap:square;stroke-linejoin:miter;stroke-width:0.8;"/>
   </g>
   <g id="patch_4">
    <path d="M 388.8 252 
L 388.8 34.56 
" style="fill:none;stroke:#000000;stroke-linecap:square;stroke-linejoin:miter;stroke-width:0.8;"/>
   </g>
   <g id="patch_5">
    <path d="M 54 252 
L 388.8 252 
" style="fill:none;stroke:#000000;stroke-linecap:square;stroke-linejoin:miter;stroke-width:0.8;"/>
   </g>
   <g id="patch_6">
    <path d="M 54 34.56 
L 388.8 34.56 
" style="fill:none;stroke:#000000;stroke-linecap:square;stroke-linejoin:miter;stroke-width:0.8;"/>
   </g>
   <g id="legend_1">
    <g id="patch_7">
     <path d="M 61 247 
L 160.7 247 
Q 162.7 247 162.7 245 
L 162.7 157.2 
Q 162.7 155.2 160.7 155.2 
L 61 155.2 
Q 59 155.2 59 157.2 
L 59 245 
Q 59 247 61 247 
z
" style="fill:#ffffff;opacity:0.8;stroke:#cccccc;stroke-linejoin:miter;"/>
    </g>
    <g id="line2d_22">
     <path d="M 63 163.4 
L 83 163.4 
" style="fill:none;stroke:#1f77b4;stroke-dasharray:3.7,1.6;stroke-dashoffset:0;"/>
    </g>
    <g id="line2d_23"/>
    <g id="text_16">
     <!-- $\beta = 1$ -->
     <defs>
      <path d="M 13.625 3.375 
L 8.9375 -20.796875 
L -0.09375 -20.796875 
L 14.5 54.34375 
Q 18.84375 76.609375 39.65625 76.609375 
Q 60.75 76.609375 57.171875 57.8125 
Q 54.734375 44.4375 45.21875 39.546875 
Q 58.015625 35.15625 55.515625 22.125 
Q 51.125 -1.078125 27.484375 -1.03125 
Q 17.140625 -0.984375 13.625 3.375 
z
M 15.921875 15.09375 
Q 19.671875 6.59375 29.296875 6.640625 
Q 43.359375 6.640625 46.34375 21.96875 
Q 49.03125 35.75 26.171875 34.671875 
L 27.78125 42.96875 
Q 45.453125 42.671875 48.53125 58.59375 
Q 50.640625 69.34375 39.203125 69.28125 
Q 26.421875 69.28125 23.484375 54.046875 
z
" id="DejaVuSans-Oblique-946"/>
      <path d="M 10.59375 45.40625 
L 73.1875 45.40625 
L 73.1875 37.203125 
L 10.59375 37.203125 
z
M 10.59375 25.484375 
L 73.1875 25.484375 
L 73.1875 17.1875 
L 10.59375 17.1875 
z
" id="DejaVuSans-61"/>
     </defs>
     <g transform="translate(91 166.9)scale(0.1 -0.1)">
      <use transform="translate(0 0.390625)" xlink:href="#DejaVuSans-Oblique-946"/>
      <use transform="translate(83.300781 0.390625)" xlink:href="#DejaVuSans-61"/>
      <use transform="translate(186.572266 0.390625)" xlink:href="#DejaVuSans-49"/>
     </g>
    </g>
    <g id="line2d_24">
     <path d="M 63 178.2 
L 83 178.2 
" style="fill:none;stroke:#ff7f0e;stroke-dasharray:3.7,1.6;stroke-dashoffset:0;"/>
    </g>
    <g id="line2d_25"/>
    <g id="text_17">
     <!-- $\beta = 3$ -->
     <g transform="translate(91 181.7)scale(0.1 -0.1)">
      <use transform="translate(0 0.390625)" xlink:href="#DejaVuSans-Oblique-946"/>
      <use transform="translate(83.300781 0.390625)" xlink:href="#DejaVuSans-61"/>
      <use transform="translate(186.572266 0.390625)" xlink:href="#DejaVuSans-51"/>
     </g>
    </g>
    <g id="line2d_26">
     <path d="M 63 193 
L 83 193 
" style="fill:none;stroke:#2ca02c;stroke-dasharray:3.7,1.6;stroke-dashoffset:0;"/>
    </g>
    <g id="line2d_27"/>
    <g id="text_18">
     <!-- $\beta = -5$ -->
     <defs>
      <path d="M 10.796875 72.90625 
L 49.515625 72.90625 
L 49.515625 64.59375 
L 19.828125 64.59375 
L 19.828125 46.734375 
Q 21.96875 47.46875 24.109375 47.828125 
Q 26.265625 48.1875 28.421875 48.1875 
Q 40.625 48.1875 47.75 41.5 
Q 54.890625 34.8125 54.890625 23.390625 
Q 54.890625 11.625 47.5625 5.09375 
Q 40.234375 -1.421875 26.90625 -1.421875 
Q 22.3125 -1.421875 17.546875 -0.640625 
Q 12.796875 0.140625 7.71875 1.703125 
L 7.71875 11.625 
Q 12.109375 9.234375 16.796875 8.0625 
Q 21.484375 6.890625 26.703125 6.890625 
Q 35.15625 6.890625 40.078125 11.328125 
Q 45.015625 15.765625 45.015625 23.390625 
Q 45.015625 31 40.078125 35.4375 
Q 35.15625 39.890625 26.703125 39.890625 
Q 22.75 39.890625 18.8125 39.015625 
Q 14.890625 38.140625 10.796875 36.28125 
z
" id="DejaVuSans-53"/>
     </defs>
     <g transform="translate(91 196.5)scale(0.1 -0.1)">
      <use transform="translate(0 0.390625)" xlink:href="#DejaVuSans-Oblique-946"/>
      <use transform="translate(83.300781 0.390625)" xlink:href="#DejaVuSans-61"/>
      <use transform="translate(206.054688 0.390625)" xlink:href="#DejaVuSans-8722"/>
      <use transform="translate(309.326172 0.390625)" xlink:href="#DejaVuSans-53"/>
     </g>
    </g>
    <g id="line2d_28">
     <path d="M 63 207.8 
L 83 207.8 
" style="fill:none;stroke:#348abd;stroke-linecap:square;stroke-width:1.5;"/>
    </g>
    <g id="line2d_29"/>
    <g id="text_19">
     <!-- $\beta = 1, \alpha = 1$ -->
     <defs>
      <path d="M 11.71875 12.40625 
L 22.015625 12.40625 
L 22.015625 4 
L 14.015625 -11.625 
L 7.71875 -11.625 
L 11.71875 4 
z
" id="DejaVuSans-44"/>
      <path d="M 40.921875 25.4375 
L 40.96875 36.71875 
Q 41.015625 48.25 32.328125 48.296875 
Q 25.828125 48.34375 21.78125 42.921875 
Q 16.703125 36.234375 14.984375 27.296875 
Q 12.890625 16.546875 15.53125 11.421875 
Q 18.265625 6.203125 24.171875 6.203125 
Q 30.71875 6.203125 36.234375 16.609375 
z
M 33.84375 55.90625 
Q 49.078125 56.15625 48.875 40.375 
Q 48.875 40.375 56.5 54.6875 
L 64.5 54.6875 
L 48.734375 25.046875 
L 48.578125 14.359375 
Q 48.578125 11.96875 49.90625 9.96875 
Q 51.421875 7.625 52.984375 7.625 
L 57.328125 7.625 
L 55.859375 0 
L 50.4375 0 
Q 45.84375 0 42.53125 4.109375 
Q 40.96875 6.15625 40.921875 10.453125 
Q 37.75 5.21875 32.28125 0.78125 
Q 29.6875 -1.265625 22.703125 -1.21875 
Q 11.28125 -1.125 7.125 6.203125 
Q 2.875 13.8125 5.515625 27.296875 
Q 8.34375 41.796875 15.765625 48.390625 
Q 24.125 55.765625 33.84375 55.90625 
z
" id="DejaVuSans-Oblique-945"/>
     </defs>
     <g transform="translate(91 211.3)scale(0.1 -0.1)">
      <use transform="translate(0 0.390625)" xlink:href="#DejaVuSans-Oblique-946"/>
      <use transform="translate(83.300781 0.390625)" xlink:href="#DejaVuSans-61"/>
      <use transform="translate(186.572266 0.390625)" xlink:href="#DejaVuSans-49"/>
      <use transform="translate(250.195312 0.390625)" xlink:href="#DejaVuSans-44"/>
      <use transform="translate(301.464844 0.390625)" xlink:href="#DejaVuSans-Oblique-945"/>
      <use transform="translate(386.865234 0.390625)" xlink:href="#DejaVuSans-61"/>
      <use transform="translate(490.136719 0.390625)" xlink:href="#DejaVuSans-49"/>
     </g>
    </g>
    <g id="line2d_30">
     <path d="M 63 222.6 
L 83 222.6 
" style="fill:none;stroke:#a60628;stroke-linecap:square;stroke-width:1.5;"/>
    </g>
    <g id="line2d_31"/>
    <g id="text_20">
     <!-- $\beta = 3, \alpha = -2$ -->
     <g transform="translate(91 226.1)scale(0.1 -0.1)">
      <use transform="translate(0 0.390625)" xlink:href="#DejaVuSans-Oblique-946"/>
      <use transform="translate(83.300781 0.390625)" xlink:href="#DejaVuSans-61"/>
      <use transform="translate(186.572266 0.390625)" xlink:href="#DejaVuSans-51"/>
      <use transform="translate(250.195312 0.390625)" xlink:href="#DejaVuSans-44"/>
      <use transform="translate(301.464844 0.390625)" xlink:href="#DejaVuSans-Oblique-945"/>
      <use transform="translate(386.865234 0.390625)" xlink:href="#DejaVuSans-61"/>
      <use transform="translate(509.619141 0.390625)" xlink:href="#DejaVuSans-8722"/>
      <use transform="translate(612.890625 0.390625)" xlink:href="#DejaVuSans-50"/>
     </g>
    </g>
    <g id="line2d_32">
     <path d="M 63 237.4 
L 83 237.4 
" style="fill:none;stroke:#7a68a6;stroke-linecap:square;stroke-width:1.5;"/>
    </g>
    <g id="line2d_33"/>
    <g id="text_21">
     <!-- $\beta = -5, \alpha = 7$ -->
     <defs>
      <path d="M 8.203125 72.90625 
L 55.078125 72.90625 
L 55.078125 68.703125 
L 28.609375 0 
L 18.3125 0 
L 43.21875 64.59375 
L 8.203125 64.59375 
z
" id="DejaVuSans-55"/>
     </defs>
     <g transform="translate(91 240.9)scale(0.1 -0.1)">
      <use transform="translate(0 0.390625)" xlink:href="#DejaVuSans-Oblique-946"/>
      <use transform="translate(83.300781 0.390625)" xlink:href="#DejaVuSans-61"/>
      <use transform="translate(206.054688 0.390625)" xlink:href="#DejaVuSans-8722"/>
      <use transform="translate(309.326172 0.390625)" xlink:href="#DejaVuSans-53"/>
      <use transform="translate(372.949219 0.390625)" xlink:href="#DejaVuSans-44"/>
      <use transform="translate(424.21875 0.390625)" xlink:href="#DejaVuSans-Oblique-945"/>
      <use transform="translate(509.619141 0.390625)" xlink:href="#DejaVuSans-61"/>
      <use transform="translate(612.890625 0.390625)" xlink:href="#DejaVuSans-55"/>
     </g>
    </g>
   </g>
  </g>
 </g>
 <defs>
  <clipPath id="p4a506a5ac6">
   <rect height="217.44" width="334.8" x="54" y="34.56"/>
  </clipPath>
 </defs>
</svg>
