<?xml version="1.0" encoding="UTF-8" standalone="no"?>
<svg
   xmlns:dc="http://purl.org/dc/elements/1.1/"
   xmlns:cc="http://creativecommons.org/ns#"
   xmlns:rdf="http://www.w3.org/1999/02/22-rdf-syntax-ns#"
   xmlns:svg="http://www.w3.org/2000/svg"
   xmlns="http://www.w3.org/2000/svg"
   xmlns:sodipodi="http://sodipodi.sourceforge.net/DTD/sodipodi-0.dtd"
   xmlns:inkscape="http://www.inkscape.org/namespaces/inkscape"
   width="470.45087pt"
   height="268pt"
   viewBox="0 0 470.45087 268"
   version="1.1"
   id="svg9680"
   sodipodi:docname="model_mem.gv.svg"
   inkscape:version="1.0.2 (e86c870, 2021-01-15)">
  <metadata
     id="metadata9686">
    <rdf:RDF>
      <cc:Work
         rdf:about="">
        <dc:format>image/svg+xml</dc:format>
        <dc:type
           rdf:resource="http://purl.org/dc/dcmitype/StillImage" />
        <dc:title />
      </cc:Work>
    </rdf:RDF>
  </metadata>
  <defs
     id="defs9684" />
  <sodipodi:namedview
     pagecolor="#ffffff"
     bordercolor="#666666"
     borderopacity="1"
     objecttolerance="10"
     gridtolerance="10"
     guidetolerance="10"
     inkscape:pageopacity="0"
     inkscape:pageshadow="2"
     inkscape:window-width="1848"
     inkscape:window-height="1016"
     id="namedview9682"
     showgrid="false"
     inkscape:zoom="0.85288159"
     inkscape:cx="205.33333"
     inkscape:cy="178.66667"
     inkscape:window-x="72"
     inkscape:window-y="27"
     inkscape:window-maximized="1"
     inkscape:current-layer="svg9680"
     inkscape:document-rotation="0" />
  <polygon
     fill="#ffffff"
     stroke="transparent"
     points="-4,4 -4,-264 304,-264 304,4 "
     id="polygon9582"
     transform="translate(4,264)" />
  <text
     text-anchor="middle"
     x="187"
     y="19.199997"
     font-family="Times, serif"
     font-size="14px"
     id="text9584">\fontsize{22pt}{1em}$\text{Caída Exponencial de la Memoria}$</text>
  <path
     fill="none"
     stroke="#000000"
     d="m 92,256 c 0,0 200,0 200,0 6,0 12,-6 12,-12 0,0 0,-145 0,-145 0,-6 -6,-12 -12,-12 0,0 -200,0 -200,0 -6,0 -12,6 -12,12 0,0 0,145 0,145 0,6 6,12 12,12"
     id="path9588" />
  <text
     text-anchor="middle"
     x="180.5"
     y="102.2"
     font-family="Times, serif"
     font-size="14px"
     id="text9590">$\text{Tiempo para recordar}_j$</text>
  <path
     fill="none"
     stroke="#000000"
     d="m 196,213 c 0,0 86,0 86,0 6,0 12,-6 12,-12 0,0 0,-69 0,-69 0,-6 -6,-12 -12,-12 0,0 -86,0 -86,0 -6,0 -12,6 -12,12 0,0 0,69 0,69 0,6 6,12 12,12"
     id="path9595" />
  <text
     text-anchor="middle"
     x="239"
     y="205.2"
     font-family="Times, serif"
     font-size="14px"
     id="text9597">$\text{Persona}_i$</text>
  <circle
     fill="none"
     stroke="#000000"
     cx="29"
     cy="115"
     id="ellipse9602"
     r="25" />
  <text
     text-anchor="middle"
     x="29"
     y="118.7"
     font-family="Times, serif"
     font-size="14px"
     id="text9604">$\alpha$</text>
  <circle
     fill="none"
     stroke="#000000"
     cx="119"
     cy="149"
     id="ellipse9609"
     r="25" />
  <circle
     fill="none"
     stroke="#000000"
     cx="119"
     cy="149"
     id="ellipse9611"
     r="29" />
  <text
     text-anchor="middle"
     x="119"
     y="152.7"
     font-family="Times, serif"
     font-size="14px"
     id="text9613">$Mem_j$</text>
  <path
     fill="none"
     stroke="#000000"
     d="m 52.66,123.76 c 9.03,3.48 19.65,7.59 29.66,11.45"
     id="path9618" />
  <polygon
     fill="#000000"
     stroke="#000000"
     points="77.08,-125.51 79.6,-132.04 87.67,-125.17 "
     id="polygon9620"
     transform="translate(4,264)" />
  <polygon
     fill="#808080"
     stroke="#000000"
     points="210,-84 260,-84 260,-134 210,-134 "
     id="polygon9625"
     transform="translate(4,264)" />
  <text
     text-anchor="middle"
     x="239"
     y="158.7"
     font-family="Times, serif"
     font-size="14px"
     id="text9627">$Rec_{i,j}$</text>
  <path
     fill="none"
     stroke="#000000"
     d="m 148.26,150.44 c 16.6,0.84 37.71,1.91 55.28,2.81"
     id="path9632" />
  <polygon
     fill="#000000"
     stroke="#000000"
     points="199.79,-107.24 200.14,-114.23 209.95,-110.22 "
     id="polygon9634"
     transform="translate(4,264)" />
  <circle
     fill="none"
     stroke="#000000"
     cx="29"
     cy="183"
     id="ellipse9639"
     r="25" />
  <text
     text-anchor="middle"
     x="29"
     y="186.7"
     font-family="Times, serif"
     font-size="14px"
     id="text9641">$\beta$</text>
  <path
     fill="none"
     stroke="#000000"
     d="m 52.66,174.24 c 9.03,-3.48 19.65,-7.59 29.66,-11.45"
     id="path9646" />
  <polygon
     fill="#000000"
     stroke="#000000"
     points="79.6,-97.96 77.08,-104.49 87.67,-104.83 "
     id="polygon9648"
     transform="translate(4,264)" />
  <polygon
     fill="#808080"
     stroke="#000000"
     points="210,-187 260,-187 260,-237 210,-237 "
     id="polygon9653"
     transform="translate(4,264)" />
  <text
     text-anchor="middle"
     x="239"
     y="55.699997"
     font-family="Times, serif"
     font-size="14px"
     id="text9655">$Items_n$</text>
  <path
     fill="none"
     stroke="#000000"
     d="m 239,77.18 c 0,14.07 0,28.15 0,42.22"
     id="path9660" />
  <polygon
     fill="#000000"
     stroke="#000000"
     points="231.5,-144.35 238.5,-144.35 235,-134.35 "
     id="polygon9662"
     transform="translate(4,264)" />
  <circle
     fill="#808080"
     stroke="#000000"
     cx="119"
     cy="221"
     id="ellipse9667"
     r="25" />
  <text
     text-anchor="middle"
     x="119"
     y="224.7"
     font-family="Times, serif"
     font-size="14px"
     id="text9669">$t_j$</text>
  <path
     fill="none"
     stroke="#000000"
     d="m 119,195.97 c 0,-2.48 0,-4.95 0,-7.43"
     id="path9674" />
  <polygon
     fill="#000000"
     stroke="#000000"
     points="118.5,-75.64 111.5,-75.64 115,-85.64 "
     id="polygon9676"
     transform="translate(4,264)" />
  <text
     xml:space="preserve"
     style="font-size:20px;line-height:1.25;font-family:sans-serif;stroke-width:0.75"
     x="313.06607"
     y="103.46638"
     id="text9529"><tspan
       sodipodi:role="line"
       id="tspan9527"
       x="313.06607"
       y="103.46638"
       style="stroke-width:0.75">$</tspan><tspan
       sodipodi:role="line"
       x="313.06607"
       y="128.46637"
       style="stroke-width:0.75"
       id="tspan9531">\alpha \sim Beta(1,1)</tspan><tspan
       sodipodi:role="line"
       x="313.06607"
       y="153.46637"
       style="stroke-width:0.75"
       id="tspan9535">\beta \sim Beta(1,1)</tspan><tspan
       sodipodi:role="line"
       x="313.06607"
       y="178.46637"
       style="stroke-width:0.75"
       id="tspan9541">Mem_j \sim min\left(1, e^{-\alpha t_j} + \beta\right)</tspan><tspan
       sodipodi:role="line"
       x="313.06607"
       y="203.46637"
       style="stroke-width:0.75"
       id="tspan9543">Rec_{i,j} \sim Binomial(Mem_j,Items_n)</tspan><tspan
       sodipodi:role="line"
       x="313.06607"
       y="228.46637"
       style="stroke-width:0.75"
       id="tspan9537">$</tspan></text>
</svg>
