<?xml version="1.0" encoding="UTF-8" standalone="no"?>
<svg
   xmlns:dc="http://purl.org/dc/elements/1.1/"
   xmlns:cc="http://creativecommons.org/ns#"
   xmlns:rdf="http://www.w3.org/1999/02/22-rdf-syntax-ns#"
   xmlns:svg="http://www.w3.org/2000/svg"
   xmlns="http://www.w3.org/2000/svg"
   xmlns:sodipodi="http://sodipodi.sourceforge.net/DTD/sodipodi-0.dtd"
   xmlns:inkscape="http://www.inkscape.org/namespaces/inkscape"
   width="356pt"
   height="147pt"
   viewBox="0 0 356 147"
   version="1.1"
   id="svg12782"
   sodipodi:docname="model_ab.gv.svg"
   inkscape:version="1.0.2 (e86c870, 2021-01-15)">
  <metadata
     id="metadata12788">
    <rdf:RDF>
      <cc:Work
         rdf:about="">
        <dc:format>image/svg+xml</dc:format>
        <dc:type
           rdf:resource="http://purl.org/dc/dcmitype/StillImage" />
        <dc:title></dc:title>
      </cc:Work>
    </rdf:RDF>
  </metadata>
  <defs
     id="defs12786" />
  <sodipodi:namedview
     pagecolor="#ffffff"
     bordercolor="#666666"
     borderopacity="1"
     objecttolerance="10"
     gridtolerance="10"
     guidetolerance="10"
     inkscape:pageopacity="0"
     inkscape:pageshadow="2"
     inkscape:window-width="1848"
     inkscape:window-height="1016"
     id="namedview12784"
     showgrid="false"
     inkscape:zoom="1.5549134"
     inkscape:cx="248.77305"
     inkscape:cy="98"
     inkscape:window-x="72"
     inkscape:window-y="27"
     inkscape:window-maximized="1"
     inkscape:current-layer="svg12782" />
  <polygon
     fill="#ffffff"
     stroke="transparent"
     points="-4,4 -4,-143 202,-143 202,4 "
     id="polygon12684"
     transform="translate(4,143)" />
  <text
     text-anchor="middle"
     x="103"
     y="19.199997"
     font-family="Times, serif"
     font-size="14px"
     id="text12686">A/B testing</text>
  <circle
     fill="none"
     stroke="#000000"
     cx="76"
     cy="45"
     id="ellipse12690"
     r="18" />
  <text
     text-anchor="middle"
     x="76"
     y="48.699997"
     font-family="Times, serif"
     font-size="14px"
     id="text12692">$\theta_1$</text>
  <polygon
     fill="#808080"
     stroke="#000000"
     points="6,-4 42,-4 42,-40 6,-40 "
     id="polygon12697"
     transform="translate(4,143)" />
  <text
     text-anchor="middle"
     x="28"
     y="124.7"
     font-family="Times, serif"
     font-size="14px"
     id="text12699">$k_{1}$</text>
  <path
     fill="none"
     stroke="#000000"
     d="M 66.52,60.62 C 60.31,70.19 52.02,82.96 44.73,94.21"
     id="path12704" />
  <polygon
     fill="#000000"
     stroke="#000000"
     points="43.53,-46.67 35.15,-40.19 37.65,-50.48 "
     id="polygon12706"
     transform="translate(4,143)" />
  <circle
     fill="none"
     stroke="#000000"
     cx="97"
     cy="121"
     id="ellipse12711"
     r="18" />
  <circle
     fill="none"
     stroke="#000000"
     cx="97"
     cy="121"
     id="ellipse12713"
     r="22" />
  <text
     text-anchor="middle"
     x="97"
     y="124.7"
     font-family="Times, serif"
     font-size="14px"
     id="text12715">$\delta$</text>
  <path
     fill="none"
     stroke="#000000"
     d="m 80.66,62.42 c 2.29,8.07 5.12,18.05 7.78,27.43"
     id="path12720" />
  <polygon
     fill="#000000"
     stroke="#000000"
     points="87.86,-53.92 87.23,-43.34 81.13,-52 "
     id="polygon12722"
     transform="translate(4,143)" />
  <polygon
     fill="#808080"
     stroke="#000000"
     points="0,-80 36,-80 36,-116 0,-116 "
     id="polygon12727"
     transform="translate(4,143)" />
  <text
     text-anchor="middle"
     x="22"
     y="48.699997"
     font-family="Times, serif"
     font-size="14px"
     id="text12729">$n_{1}$</text>
  <path
     fill="none"
     stroke="#000000"
     d="m 23.39,63.16 c 0.71,8.78 1.6,19.68 2.4,29.57"
     id="path12734" />
  <polygon
     fill="#000000"
     stroke="#000000"
     points="25.3,-50.32 22.62,-40.07 18.32,-49.75 "
     id="polygon12736"
     transform="translate(4,143)" />
  <circle
     fill="none"
     stroke="#000000"
     cx="130"
     cy="45"
     id="ellipse12741"
     r="18" />
  <text
     text-anchor="middle"
     x="130"
     y="48.699997"
     font-family="Times, serif"
     font-size="14px"
     id="text12743">$\theta_2$</text>
  <polygon
     fill="#808080"
     stroke="#000000"
     points="156,-4 192,-4 192,-40 156,-40 "
     id="polygon12748"
     transform="translate(4,143)" />
  <text
     text-anchor="middle"
     x="178"
     y="124.7"
     font-family="Times, serif"
     font-size="14px"
     id="text12750">$k_{2}$</text>
  <path
     fill="none"
     stroke="#000000"
     d="m 139.48,60.62 c 6.21,9.57 14.5,22.34 21.79,33.59"
     id="path12755" />
  <polygon
     fill="#000000"
     stroke="#000000"
     points="160.35,-50.48 162.85,-40.19 154.47,-46.67 "
     id="polygon12757"
     transform="translate(4,143)" />
  <path
     fill="none"
     stroke="#000000"
     d="m 123,61.69 c -3.84,8.62 -8.73,19.57 -13.22,29.66"
     id="path12762" />
  <polygon
     fill="#000000"
     stroke="#000000"
     points="108.9,-50.07 101.63,-42.36 102.51,-52.92 "
     id="polygon12764"
     transform="translate(4,143)" />
  <polygon
     fill="#808080"
     stroke="#000000"
     points="162,-80 198,-80 198,-116 162,-116 "
     id="polygon12769"
     transform="translate(4,143)" />
  <text
     text-anchor="middle"
     x="184"
     y="48.699997"
     font-family="Times, serif"
     font-size="14px"
     id="text12771">$n_{2}$</text>
  <path
     fill="none"
     stroke="#000000"
     d="m 182.61,63.16 c -0.71,8.78 -1.6,19.68 -2.4,29.57"
     id="path12776" />
  <polygon
     fill="#000000"
     stroke="#000000"
     points="179.68,-49.75 175.38,-40.07 172.7,-50.32 "
     id="polygon12778"
     transform="translate(4,143)" />
  <text
     xml:space="preserve"
     style="font-size:20px;line-height:1.25;font-family:sans-serif;stroke-width:0.75"
     x="213.05103"
     y="13.059991"
     id="text12874"><tspan
       sodipodi:role="line"
       id="tspan12872"
       x="213.05103"
       y="13.059991"
       style="stroke-width:0.75">$</tspan><tspan
       sodipodi:role="line"
       x="213.05103"
       y="38.05999"
       style="stroke-width:0.75"
       id="tspan12876">k_{1} \sim  Binomial(\theta_1, n_1)</tspan><tspan
       sodipodi:role="line"
       x="213.05103"
       y="63.05999"
       style="stroke-width:0.75"
       id="tspan12880">k_{2} \sim  Binomial(\theta_2, n_2)</tspan><tspan
       sodipodi:role="line"
       x="213.05103"
       y="88.05999"
       style="stroke-width:0.75"
       id="tspan12882">\theta_1 \sim Beta(1,1)</tspan><tspan
       sodipodi:role="line"
       x="213.05103"
       y="113.05999"
       style="stroke-width:0.75"
       id="tspan12884">\theta_2 \sim Beta(1,1)</tspan><tspan
       sodipodi:role="line"
       x="213.05103"
       y="138.06"
       style="stroke-width:0.75"
       id="tspan12886">\delta = \theta_1 - \theta_2</tspan><tspan
       sodipodi:role="line"
       x="213.05103"
       y="163.06"
       style="stroke-width:0.75"
       id="tspan12878">$</tspan></text>
</svg>
