<?xml version="1.0" encoding="UTF-8" standalone="no"?>
<!DOCTYPE svg PUBLIC "-//W3C//DTD SVG 1.1//EN"
 "http://www.w3.org/Graphics/SVG/1.1/DTD/svg11.dtd">
<!-- Generated by graphviz version 2.43.0 (0)
 -->
<!-- Title: G Pages: 1 -->
<svg width="278pt" height="145pt"
 viewBox="0.00 0.00 278.00 145.00" xmlns="http://www.w3.org/2000/svg" xmlns:xlink="http://www.w3.org/1999/xlink">
<g id="graph0" class="graph" transform="scale(1 1) rotate(0) translate(4 141)">
<title>G</title>
<polygon fill="white" stroke="transparent" points="-4,4 -4,-141 274,-141 274,4 -4,4"/>
<text text-anchor="middle" x="135" y="-121.8" font-family="Times,serif" font-size="14.00">Rats tumor</text>
<!-- hyperpar -->
<g id="node1" class="node">
<title>hyperpar</title>
<text text-anchor="middle" x="135" y="-103.3" font-family="Times,serif" font-size="14.00">$alpha,beta$</text>
</g>
<!-- theta_1 -->
<g id="node2" class="node">
<title>theta_1</title>
<text text-anchor="middle" x="7" y="-53.3" font-family="Times,serif" font-size="14.00">$theta_1$</text>
</g>
<!-- hyperpar&#45;&gt;theta_1 -->
<g id="edge1" class="edge">
<title>hyperpar&#45;&gt;theta_1</title>
<path fill="none" stroke="black" d="M127.75,-103.28C107.86,-95.82 52.04,-74.89 23.81,-64.3"/>
<polygon fill="black" stroke="black" points="24.76,-60.92 14.17,-60.69 22.3,-67.48 24.76,-60.92"/>
</g>
<!-- theta_2 -->
<g id="node3" class="node">
<title>theta_2</title>
<text text-anchor="middle" x="39" y="-53.3" font-family="Times,serif" font-size="14.00">$theta_2$</text>
</g>
<!-- hyperpar&#45;&gt;theta_2 -->
<g id="edge2" class="edge">
<title>hyperpar&#45;&gt;theta_2</title>
<path fill="none" stroke="black" d="M127.78,-102.39C112.42,-94.71 76.16,-76.58 55.03,-66.02"/>
<polygon fill="black" stroke="black" points="56.55,-62.86 46.04,-61.52 53.42,-69.12 56.55,-62.86"/>
</g>
<!-- theta_3 -->
<g id="node4" class="node">
<title>theta_3</title>
<text text-anchor="middle" x="71" y="-53.3" font-family="Times,serif" font-size="14.00">$theta_3$</text>
</g>
<!-- hyperpar&#45;&gt;theta_3 -->
<g id="edge3" class="edge">
<title>hyperpar&#45;&gt;theta_3</title>
<path fill="none" stroke="black" d="M127.66,-100.49C117.63,-92.97 99.4,-79.3 86.32,-69.49"/>
<polygon fill="black" stroke="black" points="88.36,-66.64 78.26,-63.44 84.16,-72.24 88.36,-66.64"/>
</g>
<!-- theta_4 -->
<g id="node5" class="node">
<title>theta_4</title>
<text text-anchor="middle" x="103" y="-53.3" font-family="Times,serif" font-size="14.00">$...$</text>
</g>
<!-- hyperpar&#45;&gt;theta_4 -->
<g id="edge4" class="edge">
<title>hyperpar&#45;&gt;theta_4</title>
<path fill="none" stroke="black" d="M130.82,-99.72C126.24,-92.86 118.75,-81.62 112.69,-72.54"/>
<polygon fill="black" stroke="black" points="115.54,-70.5 107.08,-64.12 109.72,-74.39 115.54,-70.5"/>
</g>
<!-- theta_5 -->
<g id="node6" class="node">
<title>theta_5</title>
<text text-anchor="middle" x="135" y="-53.3" font-family="Times,serif" font-size="14.00">$...$</text>
</g>
<!-- hyperpar&#45;&gt;theta_5 -->
<g id="edge5" class="edge">
<title>hyperpar&#45;&gt;theta_5</title>
<path fill="none" stroke="black" d="M135,-99.72C135,-93.29 135,-83.02 135,-74.28"/>
<polygon fill="black" stroke="black" points="138.5,-74.12 135,-64.12 131.5,-74.12 138.5,-74.12"/>
</g>
<!-- theta_6 -->
<g id="node7" class="node">
<title>theta_6</title>
<text text-anchor="middle" x="167" y="-53.3" font-family="Times,serif" font-size="14.00">$...$</text>
</g>
<!-- hyperpar&#45;&gt;theta_6 -->
<g id="edge6" class="edge">
<title>hyperpar&#45;&gt;theta_6</title>
<path fill="none" stroke="black" d="M139.18,-99.72C143.76,-92.86 151.25,-81.62 157.31,-72.54"/>
<polygon fill="black" stroke="black" points="160.28,-74.39 162.92,-64.12 154.46,-70.5 160.28,-74.39"/>
</g>
<!-- theta_7 -->
<g id="node8" class="node">
<title>theta_7</title>
<text text-anchor="middle" x="199" y="-53.3" font-family="Times,serif" font-size="14.00">$...$</text>
</g>
<!-- hyperpar&#45;&gt;theta_7 -->
<g id="edge7" class="edge">
<title>hyperpar&#45;&gt;theta_7</title>
<path fill="none" stroke="black" d="M142.34,-100.49C152.37,-92.97 170.6,-79.3 183.68,-69.49"/>
<polygon fill="black" stroke="black" points="185.84,-72.24 191.74,-63.44 181.64,-66.64 185.84,-72.24"/>
</g>
<!-- theta_8 -->
<g id="node9" class="node">
<title>theta_8</title>
<text text-anchor="middle" x="231" y="-53.3" font-family="Times,serif" font-size="14.00">$theta_{70}$</text>
</g>
<!-- hyperpar&#45;&gt;theta_8 -->
<g id="edge8" class="edge">
<title>hyperpar&#45;&gt;theta_8</title>
<path fill="none" stroke="black" d="M142.22,-102.39C157.58,-94.71 193.84,-76.58 214.97,-66.02"/>
<polygon fill="black" stroke="black" points="216.58,-69.12 223.96,-61.52 213.45,-62.86 216.58,-69.12"/>
</g>
<!-- theta_9 -->
<g id="node10" class="node">
<title>theta_9</title>
<text text-anchor="middle" x="263" y="-53.3" font-family="Times,serif" font-size="14.00">$theta_{71}$</text>
</g>
<!-- hyperpar&#45;&gt;theta_9 -->
<g id="edge9" class="edge">
<title>hyperpar&#45;&gt;theta_9</title>
<path fill="none" stroke="black" d="M142.25,-103.28C162.14,-95.82 217.96,-74.89 246.19,-64.3"/>
<polygon fill="black" stroke="black" points="247.7,-67.48 255.83,-60.69 245.24,-60.92 247.7,-67.48"/>
</g>
<!-- y_1 -->
<g id="node11" class="node">
<title>y_1</title>
<text text-anchor="middle" x="7" y="-3.3" font-family="Times,serif" font-size="14.00">$y_1$</text>
</g>
<!-- theta_1&#45;&gt;y_1 -->
<g id="edge10" class="edge">
<title>theta_1&#45;&gt;y_1</title>
<path fill="none" stroke="black" d="M7,-49.72C7,-43.29 7,-33.02 7,-24.28"/>
<polygon fill="black" stroke="black" points="10.5,-24.12 7,-14.12 3.5,-24.12 10.5,-24.12"/>
</g>
<!-- y_2 -->
<g id="node12" class="node">
<title>y_2</title>
<text text-anchor="middle" x="39" y="-3.3" font-family="Times,serif" font-size="14.00">$y_2$</text>
</g>
<!-- theta_2&#45;&gt;y_2 -->
<g id="edge11" class="edge">
<title>theta_2&#45;&gt;y_2</title>
<path fill="none" stroke="black" d="M39,-49.72C39,-43.29 39,-33.02 39,-24.28"/>
<polygon fill="black" stroke="black" points="42.5,-24.12 39,-14.12 35.5,-24.12 42.5,-24.12"/>
</g>
<!-- y_3 -->
<g id="node13" class="node">
<title>y_3</title>
<text text-anchor="middle" x="71" y="-3.3" font-family="Times,serif" font-size="14.00">$y_3$</text>
</g>
<!-- theta_3&#45;&gt;y_3 -->
<g id="edge12" class="edge">
<title>theta_3&#45;&gt;y_3</title>
<path fill="none" stroke="black" d="M71,-49.72C71,-43.29 71,-33.02 71,-24.28"/>
<polygon fill="black" stroke="black" points="74.5,-24.12 71,-14.12 67.5,-24.12 74.5,-24.12"/>
</g>
<!-- y_4 -->
<g id="node14" class="node">
<title>y_4</title>
<text text-anchor="middle" x="103" y="-3.3" font-family="Times,serif" font-size="14.00">$...$</text>
</g>
<!-- theta_4&#45;&gt;y_4 -->
<g id="edge13" class="edge">
<title>theta_4&#45;&gt;y_4</title>
<path fill="none" stroke="black" d="M103,-49.72C103,-43.29 103,-33.02 103,-24.28"/>
<polygon fill="black" stroke="black" points="106.5,-24.12 103,-14.12 99.5,-24.12 106.5,-24.12"/>
</g>
<!-- y_5 -->
<g id="node15" class="node">
<title>y_5</title>
<text text-anchor="middle" x="135" y="-3.3" font-family="Times,serif" font-size="14.00">$...$</text>
</g>
<!-- theta_5&#45;&gt;y_5 -->
<g id="edge14" class="edge">
<title>theta_5&#45;&gt;y_5</title>
<path fill="none" stroke="black" d="M135,-49.72C135,-43.29 135,-33.02 135,-24.28"/>
<polygon fill="black" stroke="black" points="138.5,-24.12 135,-14.12 131.5,-24.12 138.5,-24.12"/>
</g>
<!-- y_6 -->
<g id="node16" class="node">
<title>y_6</title>
<text text-anchor="middle" x="167" y="-3.3" font-family="Times,serif" font-size="14.00">$...$</text>
</g>
<!-- theta_6&#45;&gt;y_6 -->
<g id="edge15" class="edge">
<title>theta_6&#45;&gt;y_6</title>
<path fill="none" stroke="black" d="M167,-49.72C167,-43.29 167,-33.02 167,-24.28"/>
<polygon fill="black" stroke="black" points="170.5,-24.12 167,-14.12 163.5,-24.12 170.5,-24.12"/>
</g>
<!-- y_7 -->
<g id="node17" class="node">
<title>y_7</title>
<text text-anchor="middle" x="199" y="-3.3" font-family="Times,serif" font-size="14.00">$...$</text>
</g>
<!-- theta_7&#45;&gt;y_7 -->
<g id="edge16" class="edge">
<title>theta_7&#45;&gt;y_7</title>
<path fill="none" stroke="black" d="M199,-49.72C199,-43.29 199,-33.02 199,-24.28"/>
<polygon fill="black" stroke="black" points="202.5,-24.12 199,-14.12 195.5,-24.12 202.5,-24.12"/>
</g>
<!-- y_8 -->
<g id="node18" class="node">
<title>y_8</title>
<text text-anchor="middle" x="231" y="-3.3" font-family="Times,serif" font-size="14.00">$y_{70}$</text>
</g>
<!-- theta_8&#45;&gt;y_8 -->
<g id="edge17" class="edge">
<title>theta_8&#45;&gt;y_8</title>
<path fill="none" stroke="black" d="M231,-49.72C231,-43.29 231,-33.02 231,-24.28"/>
<polygon fill="black" stroke="black" points="234.5,-24.12 231,-14.12 227.5,-24.12 234.5,-24.12"/>
</g>
<!-- y_9 -->
<g id="node19" class="node">
<title>y_9</title>
<text text-anchor="middle" x="263" y="-3.3" font-family="Times,serif" font-size="14.00">$y_{71}$</text>
</g>
<!-- theta_9&#45;&gt;y_9 -->
<g id="edge18" class="edge">
<title>theta_9&#45;&gt;y_9</title>
<path fill="none" stroke="black" d="M263,-49.72C263,-43.29 263,-33.02 263,-24.28"/>
<polygon fill="black" stroke="black" points="266.5,-24.12 263,-14.12 259.5,-24.12 266.5,-24.12"/>
</g>
</g>
</svg>
