<?xml version="1.0" encoding="UTF-8" standalone="no"?>
<!DOCTYPE svg PUBLIC "-//W3C//DTD SVG 1.1//EN"
 "http://www.w3.org/Graphics/SVG/1.1/DTD/svg11.dtd">
<!-- Generated by graphviz version 2.46.0 (20210118.1747)
 -->
<!-- Title: G Pages: 1 -->
<svg width="212pt" height="468pt"
 viewBox="0.00 0.00 212.16 467.82" xmlns="http://www.w3.org/2000/svg" xmlns:xlink="http://www.w3.org/1999/xlink">
<g id="graph0" class="graph" transform="scale(1 1) rotate(0) translate(4 463.82)">
<title>G</title>
<polygon fill="white" stroke="transparent" points="-4,4 -4,-463.82 208.16,-463.82 208.16,4 -4,4"/>
<g id="clust1" class="cluster">
<title>cluster0</title>
<polygon fill="none" stroke="red" points="67.5,-188.32 67.5,-368.82 181.5,-368.82 181.5,-188.32 67.5,-188.32"/>
<text text-anchor="middle" x="101" y="-353.62" font-family="Times New Roman,serif" font-size="14.00">$theta_i$</text>
</g>
<!-- d -->
<g id="node1" class="node">
<title>d</title>
<ellipse fill="none" stroke="black" cx="29.5" cy="-434.82" rx="25" ry="25"/>
<text text-anchor="middle" x="29.5" y="-431.12" font-family="Times New Roman,serif" font-size="14.00">Nodo</text>
</g>
<!-- e -->
<g id="node2" class="node">
<title>e</title>
<path fill="none" stroke="black" d="M47,-342.32C47,-342.32 12,-342.32 12,-342.32 6,-342.32 0,-336.32 0,-330.32 0,-330.32 0,-295.32 0,-295.32 0,-289.32 6,-283.32 12,-283.32 12,-283.32 47,-283.32 47,-283.32 53,-283.32 59,-289.32 59,-295.32 59,-295.32 59,-330.32 59,-330.32 59,-336.32 53,-342.32 47,-342.32"/>
<text text-anchor="middle" x="29.5" y="-309.12" font-family="Times New Roman,serif" font-size="14.00">$mu$</text>
</g>
<!-- d&#45;&gt;e -->
<g id="edge1" class="edge">
<title>d&#45;&gt;e</title>
<path fill="none" stroke="black" d="M29.5,-409.54C29.5,-393.24 29.5,-371.42 29.5,-352.73"/>
<polygon fill="black" stroke="black" points="33,-352.72 29.5,-342.72 26,-352.72 33,-352.72"/>
<text text-anchor="middle" x="56" y="-380.62" font-family="Times New Roman,serif" font-size="14.00"> mi texto </text>
</g>
<!-- f -->
<g id="node3" class="node">
<title>f</title>
<text text-anchor="middle" x="123.5" y="-309.12" font-family="Times New Roman,serif" font-size="14.00">VI</text>
</g>
<!-- e&#45;&gt;f -->
<g id="edge2" class="edge">
<title>e&#45;&gt;f</title>
<path fill="none" stroke="black" d="M59.24,-312.82C59.33,-312.82 59.41,-312.82 59.49,-312.82"/>
<polygon fill="black" stroke="black" points="57.5,-316.32 67.5,-312.82 57.5,-309.32 57.5,-316.32"/>
<text text-anchor="middle" x="76.75" y="-319.62" font-family="Times New Roman,serif" font-size="14.00"> &#160;</text>
</g>
<!-- g -->
<g id="node4" class="node">
<title>g</title>
<path fill="none" stroke="black" d="M161,-246.32C161,-246.32 88,-246.32 88,-246.32 82,-246.32 76,-240.32 76,-234.32 76,-234.32 76,-208.32 76,-208.32 76,-202.32 82,-196.32 88,-196.32 88,-196.32 161,-196.32 161,-196.32 167,-196.32 173,-202.32 173,-208.32 173,-208.32 173,-234.32 173,-234.32 173,-240.32 167,-246.32 161,-246.32"/>
<text text-anchor="middle" x="124.5" y="-217.62" font-family="Times New Roman,serif" font-size="14.00">$sum_i x_i$</text>
</g>
<!-- f&#45;&gt;g -->
<g id="edge3" class="edge">
<title>f&#45;&gt;g</title>
<path fill="none" stroke="black" d="M123.77,-287.36C123.88,-277.91 124,-266.93 124.12,-256.71"/>
<polygon fill="black" stroke="black" points="127.62,-256.48 124.23,-246.44 120.62,-256.4 127.62,-256.48"/>
</g>
<!-- h -->
<g id="node5" class="node">
<title>h</title>
<ellipse fill="none" stroke="black" cx="124.5" cy="-79.66" rx="75.81" ry="75.81"/>
<ellipse fill="none" stroke="black" cx="124.5" cy="-79.66" rx="79.82" ry="79.82"/>
<text text-anchor="middle" x="124.5" y="-75.96" font-family="Times New Roman,serif" font-size="14.00">$int beta_i di$</text>
</g>
<!-- g&#45;&gt;h -->
<g id="edge4" class="edge">
<title>g&#45;&gt;h</title>
<path fill="none" stroke="black" d="M124.5,-188.32C124.5,-182.56 124.5,-176.31 124.5,-169.81"/>
<polygon fill="black" stroke="black" points="128,-169.6 124.5,-159.6 121,-169.6 128,-169.6"/>
</g>
</g>
</svg>
