<?xml version="1.0" encoding="utf-8" standalone="no"?>
<!DOCTYPE svg PUBLIC "-//W3C//DTD SVG 1.1//EN"
  "http://www.w3.org/Graphics/SVG/1.1/DTD/svg11.dtd">
<!-- Created with matplotlib (https://matplotlib.org/) -->
<svg height="360pt" version="1.1" viewBox="0 0 576 360" width="576pt" xmlns="http://www.w3.org/2000/svg" xmlns:xlink="http://www.w3.org/1999/xlink">
 <metadata>
  <rdf:RDF xmlns:cc="http://creativecommons.org/ns#" xmlns:dc="http://purl.org/dc/elements/1.1/" xmlns:rdf="http://www.w3.org/1999/02/22-rdf-syntax-ns#">
   <cc:Work>
    <dc:type rdf:resource="http://purl.org/dc/dcmitype/StillImage"/>
    <dc:date>2022-01-10T18:52:16.228065</dc:date>
    <dc:format>image/svg+xml</dc:format>
    <dc:creator>
     <cc:Agent>
      <dc:title>Matplotlib v3.3.2, https://matplotlib.org/</dc:title>
     </cc:Agent>
    </dc:creator>
   </cc:Work>
  </rdf:RDF>
 </metadata>
 <defs>
  <style type="text/css">*{stroke-linecap:butt;stroke-linejoin:round;}</style>
 </defs>
 <g id="figure_1">
  <g id="patch_1">
   <path d="M 0 360 
L 576 360 
L 576 0 
L 0 0 
z
" style="fill:none;"/>
  </g>
  <g id="axes_1">
   <g id="patch_2">
    <path d="M 72 315 
L 274.909091 315 
L 274.909091 43.2 
L 72 43.2 
z
" style="fill:#ffffff;"/>
   </g>
   <g id="PolyCollection_1">
    <defs>
     <path d="M 81.22314 -57.380095 
L 81.22314 -59.935002 
L 81.371111 -59.937085 
L 81.519082 -59.944404 
L 81.667053 -59.958485 
L 81.815024 -59.976189 
L 81.962994 -60.002311 
L 82.110965 -60.036213 
L 82.258936 -60.07399 
L 82.406907 -60.119788 
L 82.554877 -60.171814 
L 82.702848 -60.233894 
L 82.850819 -60.303298 
L 82.99879 -60.381652 
L 83.146761 -60.469221 
L 83.294731 -60.568513 
L 83.442702 -60.679895 
L 83.590673 -60.799873 
L 83.738644 -60.933006 
L 83.886614 -61.078346 
L 84.034585 -61.232574 
L 84.182556 -61.402035 
L 84.330527 -61.582416 
L 84.478498 -61.778164 
L 84.626468 -61.985024 
L 84.774439 -62.200265 
L 84.92241 -62.431815 
L 85.070381 -62.669957 
L 85.218351 -62.919002 
L 85.366322 -63.178164 
L 85.514293 -63.447752 
L 85.662264 -63.722633 
L 85.810235 -64.010625 
L 85.958205 -64.305496 
L 86.106176 -64.606013 
L 86.254147 -64.916546 
L 86.402118 -65.232323 
L 86.550088 -65.558569 
L 86.698059 -65.89055 
L 86.84603 -66.227111 
L 86.994001 -66.572864 
L 87.141971 -66.924604 
L 87.289942 -67.283856 
L 87.437913 -67.649989 
L 87.585884 -68.024424 
L 87.733855 -68.404776 
L 87.881825 -68.790252 
L 88.029796 -69.177135 
L 88.177767 -69.569496 
L 88.325738 -69.966329 
L 88.473708 -70.371679 
L 88.621679 -70.782825 
L 88.76965 -71.200023 
L 88.917621 -71.620548 
L 89.065592 -72.049285 
L 89.213562 -72.483702 
L 89.361533 -72.924217 
L 89.509504 -73.374701 
L 89.657475 -73.832803 
L 89.805445 -74.305611 
L 89.953416 -74.790124 
L 90.101387 -75.28429 
L 90.249358 -75.790008 
L 90.397329 -76.317168 
L 90.545299 -76.853092 
L 90.69327 -77.401011 
L 90.841241 -77.9713 
L 90.989212 -78.547887 
L 91.137182 -79.135195 
L 91.285153 -79.744214 
L 91.433124 -80.359325 
L 91.581095 -80.984119 
L 91.729066 -81.615206 
L 91.877036 -82.259942 
L 92.025007 -82.917694 
L 92.172978 -83.582575 
L 92.320949 -84.258578 
L 92.468919 -84.935757 
L 92.61689 -85.624401 
L 92.764861 -86.317238 
L 92.912832 -87.023823 
L 93.060802 -87.742183 
L 93.208773 -88.475694 
L 93.356744 -89.233199 
L 93.504715 -90.014308 
L 93.652686 -90.817679 
L 93.800656 -91.650062 
L 93.948627 -92.507194 
L 94.096598 -93.402801 
L 94.244569 -94.336713 
L 94.392539 -95.301414 
L 94.54051 -96.302257 
L 94.688481 -97.346352 
L 94.836452 -98.431171 
L 94.984423 -99.559919 
L 95.132393 -100.71492 
L 95.280364 -101.908463 
L 95.428335 -103.139715 
L 95.576306 -104.392622 
L 95.724276 -105.675621 
L 95.872247 -106.988962 
L 96.020218 -108.318417 
L 96.168189 -109.663741 
L 96.31616 -111.038595 
L 96.46413 -112.429631 
L 96.612101 -113.83414 
L 96.760072 -115.247621 
L 96.908043 -116.666845 
L 97.056013 -118.097662 
L 97.203984 -119.53324 
L 97.351955 -120.984609 
L 97.499926 -122.441291 
L 97.647896 -123.899429 
L 97.795867 -125.360443 
L 97.943838 -126.830737 
L 98.091809 -128.297409 
L 98.23978 -129.772308 
L 98.38775 -131.239148 
L 98.535721 -132.702043 
L 98.683692 -134.164384 
L 98.831663 -135.617488 
L 98.979633 -137.073514 
L 99.127604 -138.533906 
L 99.275575 -139.993917 
L 99.423546 -141.453594 
L 99.571517 -142.923428 
L 99.719487 -144.398786 
L 99.867458 -145.892926 
L 100.015429 -147.41 
L 100.1634 -148.952313 
L 100.31137 -150.518262 
L 100.459341 -152.120359 
L 100.607312 -153.763636 
L 100.755283 -155.45951 
L 100.903254 -157.193735 
L 101.051224 -158.991445 
L 101.199195 -160.850381 
L 101.347166 -162.759822 
L 101.495137 -164.719853 
L 101.643107 -166.732024 
L 101.791078 -168.810607 
L 101.939049 -170.926161 
L 102.08702 -173.074963 
L 102.234991 -175.261899 
L 102.382961 -177.476651 
L 102.530932 -179.713537 
L 102.678903 -181.947701 
L 102.826874 -184.184458 
L 102.974844 -186.429135 
L 103.122815 -188.659824 
L 103.270786 -190.861199 
L 103.418757 -193.046838 
L 103.566727 -195.205017 
L 103.714698 -197.344885 
L 103.862669 -199.436623 
L 104.01064 -201.517547 
L 104.158611 -203.564709 
L 104.306581 -205.582538 
L 104.454552 -207.57514 
L 104.602523 -209.556488 
L 104.750494 -211.524796 
L 104.898464 -213.476522 
L 105.046435 -215.424057 
L 105.194406 -217.371173 
L 105.342377 -219.327862 
L 105.490348 -221.296918 
L 105.638318 -223.279285 
L 105.786289 -225.268198 
L 105.93426 -227.273543 
L 106.082231 -229.310911 
L 106.230201 -231.364994 
L 106.378172 -233.421541 
L 106.526143 -235.484664 
L 106.674114 -237.552711 
L 106.822085 -239.591355 
L 106.970055 -241.631626 
L 107.118026 -243.637437 
L 107.265997 -245.589749 
L 107.413968 -247.489162 
L 107.561938 -249.319599 
L 107.709909 -251.074962 
L 107.85788 -252.765311 
L 108.005851 -254.386155 
L 108.153822 -255.925249 
L 108.301792 -257.396385 
L 108.449763 -258.789187 
L 108.597734 -260.120619 
L 108.745705 -261.398846 
L 108.893675 -262.653595 
L 109.041646 -263.876437 
L 109.189617 -265.096084 
L 109.337588 -266.316512 
L 109.485558 -267.542953 
L 109.633529 -268.791867 
L 109.7815 -270.076533 
L 109.929471 -271.399534 
L 110.077442 -272.767398 
L 110.225412 -274.166128 
L 110.373383 -275.576689 
L 110.521354 -277.01454 
L 110.669325 -278.474569 
L 110.817295 -279.944957 
L 110.965266 -281.386929 
L 111.113237 -282.819353 
L 111.261208 -284.232776 
L 111.409179 -285.589497 
L 111.557149 -286.89156 
L 111.70512 -288.1351 
L 111.853091 -289.324536 
L 112.001062 -290.431862 
L 112.149032 -291.469334 
L 112.297003 -292.443224 
L 112.444974 -293.339894 
L 112.592945 -294.147724 
L 112.740916 -294.919993 
L 112.888886 -295.623951 
L 113.036857 -296.265431 
L 113.184828 -296.853758 
L 113.332799 -297.397749 
L 113.480769 -297.910354 
L 113.62874 -298.38426 
L 113.776711 -298.823557 
L 113.924682 -299.247111 
L 114.072653 -299.644044 
L 114.220623 -300.021793 
L 114.368594 -300.389269 
L 114.516565 -300.739065 
L 114.664536 -301.06499 
L 114.812506 -301.382458 
L 114.960477 -301.700912 
L 115.108448 -301.975149 
L 115.256419 -302.243483 
L 115.404389 -302.494885 
L 115.55236 -302.715311 
L 115.700331 -302.921903 
L 115.848302 -303.120335 
L 115.996273 -303.29415 
L 116.144243 -303.447022 
L 116.292214 -303.577869 
L 116.440185 -303.66953 
L 116.588156 -303.740537 
L 116.736126 -303.808079 
L 116.884097 -303.869067 
L 117.032068 -303.929231 
L 117.180039 -303.979935 
L 117.32801 -304.031132 
L 117.47598 -304.086598 
L 117.623951 -304.139709 
L 117.771922 -304.189509 
L 117.919893 -304.26318 
L 118.067863 -304.329307 
L 118.215834 -304.383641 
L 118.363805 -304.421925 
L 118.511776 -304.445455 
L 118.659747 -304.422648 
L 118.807717 -304.372128 
L 118.955688 -304.276547 
L 119.103659 -304.127491 
L 119.25163 -303.908298 
L 119.3996 -303.595634 
L 119.547571 -303.201243 
L 119.695542 -302.707907 
L 119.843513 -302.110217 
L 119.991483 -301.422821 
L 120.139454 -300.630173 
L 120.287425 -299.741534 
L 120.435396 -298.763202 
L 120.583367 -297.690362 
L 120.731337 -296.530895 
L 120.879308 -295.288414 
L 121.027279 -294.005185 
L 121.17525 -292.661967 
L 121.32322 -291.262282 
L 121.471191 -289.837831 
L 121.619162 -288.394359 
L 121.767133 -286.943699 
L 121.915104 -285.478557 
L 122.063074 -284.015556 
L 122.211045 -282.586855 
L 122.359016 -281.171354 
L 122.506987 -279.770912 
L 122.654957 -278.401182 
L 122.802928 -277.053819 
L 122.950899 -275.741106 
L 123.09887 -274.45814 
L 123.246841 -273.205572 
L 123.394811 -271.984397 
L 123.542782 -270.772874 
L 123.690753 -269.603727 
L 123.838724 -268.433633 
L 123.986694 -267.272935 
L 124.134665 -266.096044 
L 124.282636 -264.908614 
L 124.430607 -263.692984 
L 124.578578 -262.447487 
L 124.726548 -261.157622 
L 124.874519 -259.82547 
L 125.02249 -258.451561 
L 125.170461 -257.002503 
L 125.318431 -255.494601 
L 125.466402 -253.915518 
L 125.614373 -252.269381 
L 125.762344 -250.577699 
L 125.910314 -248.84032 
L 126.058285 -247.046265 
L 126.206256 -245.226349 
L 126.354227 -243.37617 
L 126.502198 -241.498572 
L 126.650168 -239.625937 
L 126.798139 -237.748261 
L 126.94611 -235.870057 
L 127.094081 -234.017217 
L 127.242051 -232.186391 
L 127.390022 -230.38189 
L 127.537993 -228.597606 
L 127.685964 -226.841481 
L 127.833935 -225.107516 
L 127.981905 -223.411516 
L 128.129876 -221.736979 
L 128.277847 -220.077396 
L 128.425818 -218.436431 
L 128.573788 -216.803582 
L 128.721759 -215.179425 
L 128.86973 -213.561949 
L 129.017701 -211.938767 
L 129.165672 -210.322551 
L 129.313642 -208.708562 
L 129.461613 -207.098955 
L 129.609584 -205.470071 
L 129.757555 -203.828735 
L 129.905525 -202.178548 
L 130.053496 -200.51353 
L 130.201467 -198.827212 
L 130.349438 -197.120211 
L 130.497409 -195.406187 
L 130.645379 -193.641402 
L 130.79335 -191.849077 
L 130.941321 -190.034939 
L 131.089292 -188.172025 
L 131.237262 -186.288008 
L 131.385233 -184.375661 
L 131.533204 -182.424178 
L 131.681175 -180.444862 
L 131.829145 -178.437749 
L 131.977116 -176.411541 
L 132.125087 -174.378577 
L 132.273058 -172.329734 
L 132.421029 -170.281957 
L 132.568999 -168.247735 
L 132.71697 -166.234394 
L 132.864941 -164.25302 
L 133.012912 -162.295788 
L 133.160882 -160.391117 
L 133.308853 -158.527821 
L 133.456824 -156.722261 
L 133.604795 -154.965046 
L 133.752766 -153.280603 
L 133.900736 -151.639071 
L 134.048707 -150.048024 
L 134.196678 -148.503078 
L 134.344649 -147.001941 
L 134.492619 -145.525749 
L 134.64059 -144.081464 
L 134.788561 -142.657022 
L 134.936532 -141.258511 
L 135.084503 -139.868234 
L 135.232473 -138.493853 
L 135.380444 -137.115471 
L 135.528415 -135.748364 
L 135.676386 -134.376081 
L 135.824356 -133.013642 
L 135.972327 -131.645549 
L 136.120298 -130.301358 
L 136.268269 -128.965968 
L 136.416239 -127.652903 
L 136.56421 -126.363184 
L 136.712181 -125.104343 
L 136.860152 -123.863317 
L 137.008123 -122.655334 
L 137.156093 -121.484 
L 137.304064 -120.338943 
L 137.452035 -119.21768 
L 137.600006 -118.123722 
L 137.747976 -117.05337 
L 137.895947 -115.99643 
L 138.043918 -114.941866 
L 138.191889 -113.894314 
L 138.33986 -112.853878 
L 138.48783 -111.803221 
L 138.635801 -110.739296 
L 138.783772 -109.66734 
L 138.931743 -108.570063 
L 139.079713 -107.445889 
L 139.227684 -106.323443 
L 139.375655 -105.165449 
L 139.523626 -103.992255 
L 139.671597 -102.811963 
L 139.819567 -101.613505 
L 139.967538 -100.411084 
L 140.115509 -99.212986 
L 140.26348 -98.015251 
L 140.41145 -96.836458 
L 140.559421 -95.670203 
L 140.707392 -94.533429 
L 140.855363 -93.426266 
L 141.003334 -92.352203 
L 141.151304 -91.325434 
L 141.299275 -90.340854 
L 141.447246 -89.398556 
L 141.595217 -88.517804 
L 141.743187 -87.68144 
L 141.891158 -86.900918 
L 142.039129 -86.165205 
L 142.1871 -85.4812 
L 142.33507 -84.829601 
L 142.483041 -84.223211 
L 142.631012 -83.652596 
L 142.778983 -83.112293 
L 142.926954 -82.590665 
L 143.074924 -82.085698 
L 143.222895 -81.592491 
L 143.370866 -81.103159 
L 143.518837 -80.610526 
L 143.666807 -80.118243 
L 143.814778 -79.61778 
L 143.962749 -79.114682 
L 144.11072 -78.59698 
L 144.258691 -78.076413 
L 144.406661 -77.54839 
L 144.554632 -77.014674 
L 144.702603 -76.472296 
L 144.850574 -75.931819 
L 144.998544 -75.391824 
L 145.146515 -74.854005 
L 145.294486 -74.328125 
L 145.442457 -73.816465 
L 145.590428 -73.315695 
L 145.738398 -72.83257 
L 145.886369 -72.367987 
L 146.03434 -71.927829 
L 146.182311 -71.506683 
L 146.330281 -71.108885 
L 146.478252 -70.733112 
L 146.626223 -70.379029 
L 146.774194 -70.04885 
L 146.922165 -69.728779 
L 147.070135 -69.430133 
L 147.218106 -69.149976 
L 147.366077 -68.879702 
L 147.514048 -68.619866 
L 147.662018 -68.371189 
L 147.809989 -68.124603 
L 147.95796 -67.886117 
L 148.105931 -67.651159 
L 148.253901 -67.414342 
L 148.401872 -67.176791 
L 148.549843 -66.939013 
L 148.697814 -66.702353 
L 148.845785 -66.464931 
L 148.993755 -66.224748 
L 149.141726 -65.98552 
L 149.289697 -65.748451 
L 149.437668 -65.515063 
L 149.585638 -65.284829 
L 149.733609 -65.054439 
L 149.88158 -64.832273 
L 150.029551 -64.61512 
L 150.177522 -64.406471 
L 150.325492 -64.200743 
L 150.473463 -64.004252 
L 150.621434 -63.814835 
L 150.769405 -63.629673 
L 150.917375 -63.451017 
L 151.065346 -63.274753 
L 151.213317 -63.103176 
L 151.361288 -62.93128 
L 151.509259 -62.761463 
L 151.657229 -62.591766 
L 151.8052 -62.42084 
L 151.953171 -62.250977 
L 152.101142 -62.078244 
L 152.249112 -61.903453 
L 152.397083 -61.728219 
L 152.545054 -61.550984 
L 152.693025 -61.37445 
L 152.840995 -61.19723 
L 152.988966 -61.022596 
L 153.136937 -60.851691 
L 153.284908 -60.682486 
L 153.432879 -60.516657 
L 153.580849 -60.356368 
L 153.72882 -60.204516 
L 153.876791 -60.057004 
L 154.024762 -59.917749 
L 154.172732 -59.787384 
L 154.320703 -59.66481 
L 154.468674 -59.549996 
L 154.616645 -59.443895 
L 154.764616 -59.345264 
L 154.912586 -59.255206 
L 155.060557 -59.172488 
L 155.208528 -59.099499 
L 155.356499 -59.035388 
L 155.504469 -58.979054 
L 155.65244 -58.928454 
L 155.800411 -58.885483 
L 155.948382 -58.847303 
L 156.096353 -58.817209 
L 156.244323 -58.790653 
L 156.392294 -58.769345 
L 156.540265 -58.753107 
L 156.688236 -58.741906 
L 156.836206 -58.735899 
L 156.836206 -57.380095 
L 156.836206 -57.380095 
L 156.688236 -57.380095 
L 156.540265 -57.380095 
L 156.392294 -57.380095 
L 156.244323 -57.380095 
L 156.096353 -57.380095 
L 155.948382 -57.380095 
L 155.800411 -57.380095 
L 155.65244 -57.380095 
L 155.504469 -57.380095 
L 155.356499 -57.380095 
L 155.208528 -57.380095 
L 155.060557 -57.380095 
L 154.912586 -57.380095 
L 154.764616 -57.380095 
L 154.616645 -57.380095 
L 154.468674 -57.380095 
L 154.320703 -57.380095 
L 154.172732 -57.380095 
L 154.024762 -57.380095 
L 153.876791 -57.380095 
L 153.72882 -57.380095 
L 153.580849 -57.380095 
L 153.432879 -57.380095 
L 153.284908 -57.380095 
L 153.136937 -57.380095 
L 152.988966 -57.380095 
L 152.840995 -57.380095 
L 152.693025 -57.380095 
L 152.545054 -57.380095 
L 152.397083 -57.380095 
L 152.249112 -57.380095 
L 152.101142 -57.380095 
L 151.953171 -57.380095 
L 151.8052 -57.380095 
L 151.657229 -57.380095 
L 151.509259 -57.380095 
L 151.361288 -57.380095 
L 151.213317 -57.380095 
L 151.065346 -57.380095 
L 150.917375 -57.380095 
L 150.769405 -57.380095 
L 150.621434 -57.380095 
L 150.473463 -57.380095 
L 150.325492 -57.380095 
L 150.177522 -57.380095 
L 150.029551 -57.380095 
L 149.88158 -57.380095 
L 149.733609 -57.380095 
L 149.585638 -57.380095 
L 149.437668 -57.380095 
L 149.289697 -57.380095 
L 149.141726 -57.380095 
L 148.993755 -57.380095 
L 148.845785 -57.380095 
L 148.697814 -57.380095 
L 148.549843 -57.380095 
L 148.401872 -57.380095 
L 148.253901 -57.380095 
L 148.105931 -57.380095 
L 147.95796 -57.380095 
L 147.809989 -57.380095 
L 147.662018 -57.380095 
L 147.514048 -57.380095 
L 147.366077 -57.380095 
L 147.218106 -57.380095 
L 147.070135 -57.380095 
L 146.922165 -57.380095 
L 146.774194 -57.380095 
L 146.626223 -57.380095 
L 146.478252 -57.380095 
L 146.330281 -57.380095 
L 146.182311 -57.380095 
L 146.03434 -57.380095 
L 145.886369 -57.380095 
L 145.738398 -57.380095 
L 145.590428 -57.380095 
L 145.442457 -57.380095 
L 145.294486 -57.380095 
L 145.146515 -57.380095 
L 144.998544 -57.380095 
L 144.850574 -57.380095 
L 144.702603 -57.380095 
L 144.554632 -57.380095 
L 144.406661 -57.380095 
L 144.258691 -57.380095 
L 144.11072 -57.380095 
L 143.962749 -57.380095 
L 143.814778 -57.380095 
L 143.666807 -57.380095 
L 143.518837 -57.380095 
L 143.370866 -57.380095 
L 143.222895 -57.380095 
L 143.074924 -57.380095 
L 142.926954 -57.380095 
L 142.778983 -57.380095 
L 142.631012 -57.380095 
L 142.483041 -57.380095 
L 142.33507 -57.380095 
L 142.1871 -57.380095 
L 142.039129 -57.380095 
L 141.891158 -57.380095 
L 141.743187 -57.380095 
L 141.595217 -57.380095 
L 141.447246 -57.380095 
L 141.299275 -57.380095 
L 141.151304 -57.380095 
L 141.003334 -57.380095 
L 140.855363 -57.380095 
L 140.707392 -57.380095 
L 140.559421 -57.380095 
L 140.41145 -57.380095 
L 140.26348 -57.380095 
L 140.115509 -57.380095 
L 139.967538 -57.380095 
L 139.819567 -57.380095 
L 139.671597 -57.380095 
L 139.523626 -57.380095 
L 139.375655 -57.380095 
L 139.227684 -57.380095 
L 139.079713 -57.380095 
L 138.931743 -57.380095 
L 138.783772 -57.380095 
L 138.635801 -57.380095 
L 138.48783 -57.380095 
L 138.33986 -57.380095 
L 138.191889 -57.380095 
L 138.043918 -57.380095 
L 137.895947 -57.380095 
L 137.747976 -57.380095 
L 137.600006 -57.380095 
L 137.452035 -57.380095 
L 137.304064 -57.380095 
L 137.156093 -57.380095 
L 137.008123 -57.380095 
L 136.860152 -57.380095 
L 136.712181 -57.380095 
L 136.56421 -57.380095 
L 136.416239 -57.380095 
L 136.268269 -57.380095 
L 136.120298 -57.380095 
L 135.972327 -57.380095 
L 135.824356 -57.380095 
L 135.676386 -57.380095 
L 135.528415 -57.380095 
L 135.380444 -57.380095 
L 135.232473 -57.380095 
L 135.084503 -57.380095 
L 134.936532 -57.380095 
L 134.788561 -57.380095 
L 134.64059 -57.380095 
L 134.492619 -57.380095 
L 134.344649 -57.380095 
L 134.196678 -57.380095 
L 134.048707 -57.380095 
L 133.900736 -57.380095 
L 133.752766 -57.380095 
L 133.604795 -57.380095 
L 133.456824 -57.380095 
L 133.308853 -57.380095 
L 133.160882 -57.380095 
L 133.012912 -57.380095 
L 132.864941 -57.380095 
L 132.71697 -57.380095 
L 132.568999 -57.380095 
L 132.421029 -57.380095 
L 132.273058 -57.380095 
L 132.125087 -57.380095 
L 131.977116 -57.380095 
L 131.829145 -57.380095 
L 131.681175 -57.380095 
L 131.533204 -57.380095 
L 131.385233 -57.380095 
L 131.237262 -57.380095 
L 131.089292 -57.380095 
L 130.941321 -57.380095 
L 130.79335 -57.380095 
L 130.645379 -57.380095 
L 130.497409 -57.380095 
L 130.349438 -57.380095 
L 130.201467 -57.380095 
L 130.053496 -57.380095 
L 129.905525 -57.380095 
L 129.757555 -57.380095 
L 129.609584 -57.380095 
L 129.461613 -57.380095 
L 129.313642 -57.380095 
L 129.165672 -57.380095 
L 129.017701 -57.380095 
L 128.86973 -57.380095 
L 128.721759 -57.380095 
L 128.573788 -57.380095 
L 128.425818 -57.380095 
L 128.277847 -57.380095 
L 128.129876 -57.380095 
L 127.981905 -57.380095 
L 127.833935 -57.380095 
L 127.685964 -57.380095 
L 127.537993 -57.380095 
L 127.390022 -57.380095 
L 127.242051 -57.380095 
L 127.094081 -57.380095 
L 126.94611 -57.380095 
L 126.798139 -57.380095 
L 126.650168 -57.380095 
L 126.502198 -57.380095 
L 126.354227 -57.380095 
L 126.206256 -57.380095 
L 126.058285 -57.380095 
L 125.910314 -57.380095 
L 125.762344 -57.380095 
L 125.614373 -57.380095 
L 125.466402 -57.380095 
L 125.318431 -57.380095 
L 125.170461 -57.380095 
L 125.02249 -57.380095 
L 124.874519 -57.380095 
L 124.726548 -57.380095 
L 124.578578 -57.380095 
L 124.430607 -57.380095 
L 124.282636 -57.380095 
L 124.134665 -57.380095 
L 123.986694 -57.380095 
L 123.838724 -57.380095 
L 123.690753 -57.380095 
L 123.542782 -57.380095 
L 123.394811 -57.380095 
L 123.246841 -57.380095 
L 123.09887 -57.380095 
L 122.950899 -57.380095 
L 122.802928 -57.380095 
L 122.654957 -57.380095 
L 122.506987 -57.380095 
L 122.359016 -57.380095 
L 122.211045 -57.380095 
L 122.063074 -57.380095 
L 121.915104 -57.380095 
L 121.767133 -57.380095 
L 121.619162 -57.380095 
L 121.471191 -57.380095 
L 121.32322 -57.380095 
L 121.17525 -57.380095 
L 121.027279 -57.380095 
L 120.879308 -57.380095 
L 120.731337 -57.380095 
L 120.583367 -57.380095 
L 120.435396 -57.380095 
L 120.287425 -57.380095 
L 120.139454 -57.380095 
L 119.991483 -57.380095 
L 119.843513 -57.380095 
L 119.695542 -57.380095 
L 119.547571 -57.380095 
L 119.3996 -57.380095 
L 119.25163 -57.380095 
L 119.103659 -57.380095 
L 118.955688 -57.380095 
L 118.807717 -57.380095 
L 118.659747 -57.380095 
L 118.511776 -57.380095 
L 118.363805 -57.380095 
L 118.215834 -57.380095 
L 118.067863 -57.380095 
L 117.919893 -57.380095 
L 117.771922 -57.380095 
L 117.623951 -57.380095 
L 117.47598 -57.380095 
L 117.32801 -57.380095 
L 117.180039 -57.380095 
L 117.032068 -57.380095 
L 116.884097 -57.380095 
L 116.736126 -57.380095 
L 116.588156 -57.380095 
L 116.440185 -57.380095 
L 116.292214 -57.380095 
L 116.144243 -57.380095 
L 115.996273 -57.380095 
L 115.848302 -57.380095 
L 115.700331 -57.380095 
L 115.55236 -57.380095 
L 115.404389 -57.380095 
L 115.256419 -57.380095 
L 115.108448 -57.380095 
L 114.960477 -57.380095 
L 114.812506 -57.380095 
L 114.664536 -57.380095 
L 114.516565 -57.380095 
L 114.368594 -57.380095 
L 114.220623 -57.380095 
L 114.072653 -57.380095 
L 113.924682 -57.380095 
L 113.776711 -57.380095 
L 113.62874 -57.380095 
L 113.480769 -57.380095 
L 113.332799 -57.380095 
L 113.184828 -57.380095 
L 113.036857 -57.380095 
L 112.888886 -57.380095 
L 112.740916 -57.380095 
L 112.592945 -57.380095 
L 112.444974 -57.380095 
L 112.297003 -57.380095 
L 112.149032 -57.380095 
L 112.001062 -57.380095 
L 111.853091 -57.380095 
L 111.70512 -57.380095 
L 111.557149 -57.380095 
L 111.409179 -57.380095 
L 111.261208 -57.380095 
L 111.113237 -57.380095 
L 110.965266 -57.380095 
L 110.817295 -57.380095 
L 110.669325 -57.380095 
L 110.521354 -57.380095 
L 110.373383 -57.380095 
L 110.225412 -57.380095 
L 110.077442 -57.380095 
L 109.929471 -57.380095 
L 109.7815 -57.380095 
L 109.633529 -57.380095 
L 109.485558 -57.380095 
L 109.337588 -57.380095 
L 109.189617 -57.380095 
L 109.041646 -57.380095 
L 108.893675 -57.380095 
L 108.745705 -57.380095 
L 108.597734 -57.380095 
L 108.449763 -57.380095 
L 108.301792 -57.380095 
L 108.153822 -57.380095 
L 108.005851 -57.380095 
L 107.85788 -57.380095 
L 107.709909 -57.380095 
L 107.561938 -57.380095 
L 107.413968 -57.380095 
L 107.265997 -57.380095 
L 107.118026 -57.380095 
L 106.970055 -57.380095 
L 106.822085 -57.380095 
L 106.674114 -57.380095 
L 106.526143 -57.380095 
L 106.378172 -57.380095 
L 106.230201 -57.380095 
L 106.082231 -57.380095 
L 105.93426 -57.380095 
L 105.786289 -57.380095 
L 105.638318 -57.380095 
L 105.490348 -57.380095 
L 105.342377 -57.380095 
L 105.194406 -57.380095 
L 105.046435 -57.380095 
L 104.898464 -57.380095 
L 104.750494 -57.380095 
L 104.602523 -57.380095 
L 104.454552 -57.380095 
L 104.306581 -57.380095 
L 104.158611 -57.380095 
L 104.01064 -57.380095 
L 103.862669 -57.380095 
L 103.714698 -57.380095 
L 103.566727 -57.380095 
L 103.418757 -57.380095 
L 103.270786 -57.380095 
L 103.122815 -57.380095 
L 102.974844 -57.380095 
L 102.826874 -57.380095 
L 102.678903 -57.380095 
L 102.530932 -57.380095 
L 102.382961 -57.380095 
L 102.234991 -57.380095 
L 102.08702 -57.380095 
L 101.939049 -57.380095 
L 101.791078 -57.380095 
L 101.643107 -57.380095 
L 101.495137 -57.380095 
L 101.347166 -57.380095 
L 101.199195 -57.380095 
L 101.051224 -57.380095 
L 100.903254 -57.380095 
L 100.755283 -57.380095 
L 100.607312 -57.380095 
L 100.459341 -57.380095 
L 100.31137 -57.380095 
L 100.1634 -57.380095 
L 100.015429 -57.380095 
L 99.867458 -57.380095 
L 99.719487 -57.380095 
L 99.571517 -57.380095 
L 99.423546 -57.380095 
L 99.275575 -57.380095 
L 99.127604 -57.380095 
L 98.979633 -57.380095 
L 98.831663 -57.380095 
L 98.683692 -57.380095 
L 98.535721 -57.380095 
L 98.38775 -57.380095 
L 98.23978 -57.380095 
L 98.091809 -57.380095 
L 97.943838 -57.380095 
L 97.795867 -57.380095 
L 97.647896 -57.380095 
L 97.499926 -57.380095 
L 97.351955 -57.380095 
L 97.203984 -57.380095 
L 97.056013 -57.380095 
L 96.908043 -57.380095 
L 96.760072 -57.380095 
L 96.612101 -57.380095 
L 96.46413 -57.380095 
L 96.31616 -57.380095 
L 96.168189 -57.380095 
L 96.020218 -57.380095 
L 95.872247 -57.380095 
L 95.724276 -57.380095 
L 95.576306 -57.380095 
L 95.428335 -57.380095 
L 95.280364 -57.380095 
L 95.132393 -57.380095 
L 94.984423 -57.380095 
L 94.836452 -57.380095 
L 94.688481 -57.380095 
L 94.54051 -57.380095 
L 94.392539 -57.380095 
L 94.244569 -57.380095 
L 94.096598 -57.380095 
L 93.948627 -57.380095 
L 93.800656 -57.380095 
L 93.652686 -57.380095 
L 93.504715 -57.380095 
L 93.356744 -57.380095 
L 93.208773 -57.380095 
L 93.060802 -57.380095 
L 92.912832 -57.380095 
L 92.764861 -57.380095 
L 92.61689 -57.380095 
L 92.468919 -57.380095 
L 92.320949 -57.380095 
L 92.172978 -57.380095 
L 92.025007 -57.380095 
L 91.877036 -57.380095 
L 91.729066 -57.380095 
L 91.581095 -57.380095 
L 91.433124 -57.380095 
L 91.285153 -57.380095 
L 91.137182 -57.380095 
L 90.989212 -57.380095 
L 90.841241 -57.380095 
L 90.69327 -57.380095 
L 90.545299 -57.380095 
L 90.397329 -57.380095 
L 90.249358 -57.380095 
L 90.101387 -57.380095 
L 89.953416 -57.380095 
L 89.805445 -57.380095 
L 89.657475 -57.380095 
L 89.509504 -57.380095 
L 89.361533 -57.380095 
L 89.213562 -57.380095 
L 89.065592 -57.380095 
L 88.917621 -57.380095 
L 88.76965 -57.380095 
L 88.621679 -57.380095 
L 88.473708 -57.380095 
L 88.325738 -57.380095 
L 88.177767 -57.380095 
L 88.029796 -57.380095 
L 87.881825 -57.380095 
L 87.733855 -57.380095 
L 87.585884 -57.380095 
L 87.437913 -57.380095 
L 87.289942 -57.380095 
L 87.141971 -57.380095 
L 86.994001 -57.380095 
L 86.84603 -57.380095 
L 86.698059 -57.380095 
L 86.550088 -57.380095 
L 86.402118 -57.380095 
L 86.254147 -57.380095 
L 86.106176 -57.380095 
L 85.958205 -57.380095 
L 85.810235 -57.380095 
L 85.662264 -57.380095 
L 85.514293 -57.380095 
L 85.366322 -57.380095 
L 85.218351 -57.380095 
L 85.070381 -57.380095 
L 84.92241 -57.380095 
L 84.774439 -57.380095 
L 84.626468 -57.380095 
L 84.478498 -57.380095 
L 84.330527 -57.380095 
L 84.182556 -57.380095 
L 84.034585 -57.380095 
L 83.886614 -57.380095 
L 83.738644 -57.380095 
L 83.590673 -57.380095 
L 83.442702 -57.380095 
L 83.294731 -57.380095 
L 83.146761 -57.380095 
L 82.99879 -57.380095 
L 82.850819 -57.380095 
L 82.702848 -57.380095 
L 82.554877 -57.380095 
L 82.406907 -57.380095 
L 82.258936 -57.380095 
L 82.110965 -57.380095 
L 81.962994 -57.380095 
L 81.815024 -57.380095 
L 81.667053 -57.380095 
L 81.519082 -57.380095 
L 81.371111 -57.380095 
L 81.22314 -57.380095 
z
" id="m4a9f1304a7" style="stroke:#1f77b4;stroke-opacity:0.1;"/>
    </defs>
    <g clip-path="url(#p9aa75fa039)">
     <use style="fill:#1f77b4;fill-opacity:0.1;stroke:#1f77b4;stroke-opacity:0.1;" x="0" xlink:href="#m4a9f1304a7" y="360"/>
    </g>
   </g>
   <g id="PolyCollection_2">
    <defs>
     <path d="M 154.681151 -57.380095 
L 154.681151 -58.677939 
L 154.898381 -58.685429 
L 155.115612 -58.700449 
L 155.332842 -58.722348 
L 155.550073 -58.751403 
L 155.767303 -58.787551 
L 155.984534 -58.830736 
L 156.201764 -58.87904 
L 156.418995 -58.933951 
L 156.636225 -58.993522 
L 156.853456 -59.057901 
L 157.070686 -59.126862 
L 157.287917 -59.1999 
L 157.505147 -59.276704 
L 157.722378 -59.354688 
L 157.939609 -59.436556 
L 158.156839 -59.518617 
L 158.37407 -59.604063 
L 158.5913 -59.688306 
L 158.808531 -59.775082 
L 159.025761 -59.862513 
L 159.242992 -59.948827 
L 159.460222 -60.036452 
L 159.677453 -60.12533 
L 159.894683 -60.213915 
L 160.111914 -60.303787 
L 160.329144 -60.396468 
L 160.546375 -60.487096 
L 160.763605 -60.580752 
L 160.980836 -60.677779 
L 161.198066 -60.777062 
L 161.415297 -60.879309 
L 161.632528 -60.984068 
L 161.849758 -61.091435 
L 162.066989 -61.203103 
L 162.284219 -61.318246 
L 162.50145 -61.440236 
L 162.71868 -61.566274 
L 162.935911 -61.698756 
L 163.153141 -61.837019 
L 163.370372 -61.983529 
L 163.587602 -62.138254 
L 163.804833 -62.299164 
L 164.022063 -62.470682 
L 164.239294 -62.651254 
L 164.456524 -62.844363 
L 164.673755 -63.045548 
L 164.890985 -63.25488 
L 165.108216 -63.475906 
L 165.325446 -63.706458 
L 165.542677 -63.945206 
L 165.759908 -64.195164 
L 165.977138 -64.45074 
L 166.194369 -64.715334 
L 166.411599 -64.989149 
L 166.62883 -65.270558 
L 166.84606 -65.554861 
L 167.063291 -65.849464 
L 167.280521 -66.148979 
L 167.497752 -66.455005 
L 167.714982 -66.768741 
L 167.932213 -67.090763 
L 168.149443 -67.423527 
L 168.366674 -67.762719 
L 168.583904 -68.112675 
L 168.801135 -68.470711 
L 169.018365 -68.839692 
L 169.235596 -69.222322 
L 169.452827 -69.613299 
L 169.670057 -70.013016 
L 169.887288 -70.42286 
L 170.104518 -70.839502 
L 170.321749 -71.264655 
L 170.538979 -71.696865 
L 170.75621 -72.134664 
L 170.97344 -72.581541 
L 171.190671 -73.027598 
L 171.407901 -73.478799 
L 171.625132 -73.932159 
L 171.842362 -74.38623 
L 172.059593 -74.841111 
L 172.276823 -75.308203 
L 172.494054 -75.772912 
L 172.711284 -76.244872 
L 172.928515 -76.724503 
L 173.145746 -77.21288 
L 173.362976 -77.71314 
L 173.580207 -78.229255 
L 173.797437 -78.759789 
L 174.014668 -79.307662 
L 174.231898 -79.879978 
L 174.449129 -80.47245 
L 174.666359 -81.090147 
L 174.88359 -81.735036 
L 175.10082 -82.40446 
L 175.318051 -83.109369 
L 175.535281 -83.840495 
L 175.752512 -84.605107 
L 175.969742 -85.397668 
L 176.186973 -86.221398 
L 176.404203 -87.07359 
L 176.621434 -87.954839 
L 176.838664 -88.865061 
L 177.055895 -89.798964 
L 177.273126 -90.763161 
L 177.490356 -91.738352 
L 177.707587 -92.732334 
L 177.924817 -93.742192 
L 178.142048 -94.764651 
L 178.359278 -95.79835 
L 178.576509 -96.837579 
L 178.793739 -97.882078 
L 179.01097 -98.927014 
L 179.2282 -99.977124 
L 179.445431 -101.025404 
L 179.662661 -102.079127 
L 179.879892 -103.137576 
L 180.097122 -104.198723 
L 180.314353 -105.268478 
L 180.531583 -106.346078 
L 180.748814 -107.439207 
L 180.966045 -108.54224 
L 181.183275 -109.671252 
L 181.400506 -110.808678 
L 181.617736 -111.973221 
L 181.834967 -113.166629 
L 182.052197 -114.386701 
L 182.269428 -115.635378 
L 182.486658 -116.909926 
L 182.703889 -118.209858 
L 182.921119 -119.543481 
L 183.13835 -120.899821 
L 183.35558 -122.278333 
L 183.572811 -123.689418 
L 183.790041 -125.115028 
L 184.007272 -126.563701 
L 184.224502 -128.036666 
L 184.441733 -129.521013 
L 184.658963 -131.011496 
L 184.876194 -132.521533 
L 185.093425 -134.039144 
L 185.310655 -135.568178 
L 185.527886 -137.095873 
L 185.745116 -138.614946 
L 185.962347 -140.130096 
L 186.179577 -141.636 
L 186.396808 -143.128687 
L 186.614038 -144.595691 
L 186.831269 -146.042373 
L 187.048499 -147.457437 
L 187.26573 -148.83937 
L 187.48296 -150.194734 
L 187.700191 -151.510558 
L 187.917421 -152.799455 
L 188.134652 -154.067373 
L 188.351882 -155.308144 
L 188.569113 -156.514531 
L 188.786344 -157.702337 
L 189.003574 -158.875573 
L 189.220805 -160.032925 
L 189.438035 -161.194579 
L 189.655266 -162.342842 
L 189.872496 -163.499376 
L 190.089727 -164.648326 
L 190.306957 -165.808755 
L 190.524188 -166.973364 
L 190.741418 -168.136557 
L 190.958649 -169.316764 
L 191.175879 -170.49969 
L 191.39311 -171.698184 
L 191.61034 -172.908188 
L 191.827571 -174.120623 
L 192.044801 -175.340826 
L 192.262032 -176.56776 
L 192.479262 -177.80779 
L 192.696493 -179.060411 
L 192.913724 -180.342015 
L 193.130954 -181.644178 
L 193.348185 -182.97834 
L 193.565415 -184.325107 
L 193.782646 -185.710809 
L 193.999876 -187.112471 
L 194.217107 -188.544943 
L 194.434337 -190.00276 
L 194.651568 -191.476357 
L 194.868798 -192.968903 
L 195.086029 -194.471288 
L 195.303259 -195.982 
L 195.52049 -197.492852 
L 195.73772 -199.00539 
L 195.954951 -200.494889 
L 196.172181 -201.976013 
L 196.389412 -203.433669 
L 196.606643 -204.864948 
L 196.823873 -206.264699 
L 197.041104 -207.628455 
L 197.258334 -208.941229 
L 197.475565 -210.200858 
L 197.692795 -211.42068 
L 197.910026 -212.594905 
L 198.127256 -213.712828 
L 198.344487 -214.784093 
L 198.561717 -215.812685 
L 198.778948 -216.781587 
L 198.996178 -217.712252 
L 199.213409 -218.590521 
L 199.430639 -219.429333 
L 199.64787 -220.230864 
L 199.8651 -220.990715 
L 200.082331 -221.713998 
L 200.299561 -222.405613 
L 200.516792 -223.06557 
L 200.734023 -223.716261 
L 200.951253 -224.353344 
L 201.168484 -224.971622 
L 201.385714 -225.583747 
L 201.602945 -226.17921 
L 201.820175 -226.767427 
L 202.037406 -227.349071 
L 202.254636 -227.942655 
L 202.471867 -228.534915 
L 202.689097 -229.110587 
L 202.906328 -229.695458 
L 203.123558 -230.281809 
L 203.340789 -230.847362 
L 203.558019 -231.415164 
L 203.77525 -231.967653 
L 203.99248 -232.516208 
L 204.209711 -233.057165 
L 204.426942 -233.578196 
L 204.644172 -234.074304 
L 204.861403 -234.552255 
L 205.078633 -235.008673 
L 205.295864 -235.424833 
L 205.513094 -235.818748 
L 205.730325 -236.167599 
L 205.947555 -236.490482 
L 206.164786 -236.779159 
L 206.382016 -237.020484 
L 206.599247 -237.226988 
L 206.816477 -237.398969 
L 207.033708 -237.543028 
L 207.250938 -237.642611 
L 207.468169 -237.717391 
L 207.685399 -237.745426 
L 207.90263 -237.753407 
L 208.119861 -237.714761 
L 208.337091 -237.642916 
L 208.554322 -237.528387 
L 208.771552 -237.369046 
L 208.988783 -237.160961 
L 209.206013 -236.911756 
L 209.423244 -236.616481 
L 209.640474 -236.270146 
L 209.857705 -235.870413 
L 210.074935 -235.394799 
L 210.292166 -234.865736 
L 210.509396 -234.291363 
L 210.726627 -233.643221 
L 210.943857 -232.937875 
L 211.161088 -232.199472 
L 211.378318 -231.396008 
L 211.595549 -230.573386 
L 211.812779 -229.712519 
L 212.03001 -228.824841 
L 212.247241 -227.921897 
L 212.464471 -227.003843 
L 212.681702 -226.077069 
L 212.898932 -225.14159 
L 213.116163 -224.19813 
L 213.333393 -223.2655 
L 213.550624 -222.324519 
L 213.767854 -221.381879 
L 213.985085 -220.44533 
L 214.202315 -219.497698 
L 214.419546 -218.551781 
L 214.636776 -217.5731 
L 214.854007 -216.594719 
L 215.071237 -215.602834 
L 215.288468 -214.584966 
L 215.505698 -213.565445 
L 215.722929 -212.532087 
L 215.94016 -211.477764 
L 216.15739 -210.41319 
L 216.374621 -209.330666 
L 216.591851 -208.239149 
L 216.809082 -207.135237 
L 217.026312 -206.028879 
L 217.243543 -204.905153 
L 217.460773 -203.764518 
L 217.678004 -202.622787 
L 217.895234 -201.470429 
L 218.112465 -200.315987 
L 218.329695 -199.144547 
L 218.546926 -197.960551 
L 218.764156 -196.771812 
L 218.981387 -195.570715 
L 219.198617 -194.362294 
L 219.415848 -193.141479 
L 219.633078 -191.929281 
L 219.850309 -190.708457 
L 220.06754 -189.495229 
L 220.28477 -188.287407 
L 220.502001 -187.094527 
L 220.719231 -185.907532 
L 220.936462 -184.733598 
L 221.153692 -183.576764 
L 221.370923 -182.420329 
L 221.588153 -181.269033 
L 221.805384 -180.121356 
L 222.022614 -178.974621 
L 222.239845 -177.819739 
L 222.457075 -176.662066 
L 222.674306 -175.475768 
L 222.891536 -174.264999 
L 223.108767 -173.039309 
L 223.325997 -171.784735 
L 223.543228 -170.491391 
L 223.760459 -169.186896 
L 223.977689 -167.830773 
L 224.19492 -166.45585 
L 224.41215 -165.05612 
L 224.629381 -163.640745 
L 224.846611 -162.212704 
L 225.063842 -160.778733 
L 225.281072 -159.33869 
L 225.498303 -157.898982 
L 225.715533 -156.458679 
L 225.932764 -155.030126 
L 226.149994 -153.606622 
L 226.367225 -152.194985 
L 226.584455 -150.800029 
L 226.801686 -149.413721 
L 227.018916 -148.052438 
L 227.236147 -146.699093 
L 227.453377 -145.366427 
L 227.670608 -144.049535 
L 227.887839 -142.739885 
L 228.105069 -141.45892 
L 228.3223 -140.196279 
L 228.53953 -138.95036 
L 228.756761 -137.727209 
L 228.973991 -136.532914 
L 229.191222 -135.365941 
L 229.408452 -134.223182 
L 229.625683 -133.103931 
L 229.842913 -132.012342 
L 230.060144 -130.938118 
L 230.277374 -129.885065 
L 230.494605 -128.853986 
L 230.711835 -127.839332 
L 230.929066 -126.838396 
L 231.146296 -125.849138 
L 231.363527 -124.859312 
L 231.580758 -123.875019 
L 231.797988 -122.894071 
L 232.015219 -121.903639 
L 232.232449 -120.908308 
L 232.44968 -119.909838 
L 232.66691 -118.900833 
L 232.884141 -117.88401 
L 233.101371 -116.863466 
L 233.318602 -115.827928 
L 233.535832 -114.779365 
L 233.753063 -113.734587 
L 233.970293 -112.686629 
L 234.187524 -111.634683 
L 234.404754 -110.586423 
L 234.621985 -109.539788 
L 234.839215 -108.494415 
L 235.056446 -107.465761 
L 235.273676 -106.447915 
L 235.490907 -105.439546 
L 235.708138 -104.444026 
L 235.925368 -103.466746 
L 236.142599 -102.502752 
L 236.359829 -101.56732 
L 236.57706 -100.644002 
L 236.79429 -99.73822 
L 237.011521 -98.846034 
L 237.228751 -97.973433 
L 237.445982 -97.107549 
L 237.663212 -96.261218 
L 237.880443 -95.426861 
L 238.097673 -94.601405 
L 238.314904 -93.789571 
L 238.532134 -92.987403 
L 238.749365 -92.196719 
L 238.966595 -91.411795 
L 239.183826 -90.63743 
L 239.401057 -89.872197 
L 239.618287 -89.12164 
L 239.835518 -88.383909 
L 240.052748 -87.657134 
L 240.269979 -86.94699 
L 240.487209 -86.247226 
L 240.70444 -85.568555 
L 240.92167 -84.906506 
L 241.138901 -84.255709 
L 241.356131 -83.616439 
L 241.573362 -82.993473 
L 241.790592 -82.380877 
L 242.007823 -81.782053 
L 242.225053 -81.194952 
L 242.442284 -80.619977 
L 242.659514 -80.054668 
L 242.876745 -79.496146 
L 243.093976 -78.948007 
L 243.311206 -78.403817 
L 243.528437 -77.867943 
L 243.745667 -77.339932 
L 243.962898 -76.817091 
L 244.180128 -76.302192 
L 244.397359 -75.798139 
L 244.614589 -75.296671 
L 244.83182 -74.801753 
L 245.04905 -74.312348 
L 245.266281 -73.833297 
L 245.483511 -73.359276 
L 245.700742 -72.891266 
L 245.917972 -72.428275 
L 246.135203 -71.968209 
L 246.352433 -71.511576 
L 246.569664 -71.057209 
L 246.786894 -70.610697 
L 247.004125 -70.170711 
L 247.221356 -69.73727 
L 247.438586 -69.309535 
L 247.655817 -68.888821 
L 247.873047 -68.477883 
L 248.090278 -68.078417 
L 248.307508 -67.692232 
L 248.524739 -67.317419 
L 248.741969 -66.954874 
L 248.9592 -66.609769 
L 249.17643 -66.280315 
L 249.393661 -65.96811 
L 249.610891 -65.671208 
L 249.828122 -65.394684 
L 250.045352 -65.132073 
L 250.262583 -64.887933 
L 250.479813 -64.661642 
L 250.697044 -64.44669 
L 250.914275 -64.245519 
L 251.131505 -64.056427 
L 251.348736 -63.880449 
L 251.565966 -63.716877 
L 251.783197 -63.558442 
L 252.000427 -63.403891 
L 252.217658 -63.254802 
L 252.434888 -63.112073 
L 252.652119 -62.970234 
L 252.869349 -62.827287 
L 253.08658 -62.681046 
L 253.30381 -62.534087 
L 253.521041 -62.385595 
L 253.738271 -62.233337 
L 253.955502 -62.077134 
L 254.172732 -61.917455 
L 254.389963 -61.754208 
L 254.607193 -61.586469 
L 254.824424 -61.416461 
L 255.041655 -61.244544 
L 255.258885 -61.07278 
L 255.476116 -60.901277 
L 255.693346 -60.730854 
L 255.910577 -60.564055 
L 256.127807 -60.400351 
L 256.345038 -60.24193 
L 256.562268 -60.089672 
L 256.779499 -59.942874 
L 256.996729 -59.804181 
L 257.21396 -59.672377 
L 257.43119 -59.547588 
L 257.648421 -59.431084 
L 257.865651 -59.322283 
L 258.082882 -59.218727 
L 258.300112 -59.12208 
L 258.517343 -59.031156 
L 258.734574 -58.946228 
L 258.951804 -58.866286 
L 259.169035 -58.790709 
L 259.386265 -58.719584 
L 259.603496 -58.653406 
L 259.820726 -58.590749 
L 260.037957 -58.532594 
L 260.255187 -58.478956 
L 260.472418 -58.429767 
L 260.689648 -58.385331 
L 260.906879 -58.344087 
L 261.124109 -58.307408 
L 261.34134 -58.275727 
L 261.55857 -58.248091 
L 261.775801 -58.224421 
L 261.993031 -58.205161 
L 262.210262 -58.189738 
L 262.427492 -58.176725 
L 262.644723 -58.166756 
L 262.861954 -58.159601 
L 263.079184 -58.155736 
L 263.296415 -58.153266 
L 263.513645 -58.153106 
L 263.730876 -58.15402 
L 263.948106 -58.156603 
L 264.165337 -58.159175 
L 264.382567 -58.162961 
L 264.599798 -58.165731 
L 264.817028 -58.168428 
L 265.034259 -58.170518 
L 265.251489 -58.173134 
L 265.46872 -58.174979 
L 265.68595 -58.17597 
L 265.68595 -57.380095 
L 265.68595 -57.380095 
L 265.46872 -57.380095 
L 265.251489 -57.380095 
L 265.034259 -57.380095 
L 264.817028 -57.380095 
L 264.599798 -57.380095 
L 264.382567 -57.380095 
L 264.165337 -57.380095 
L 263.948106 -57.380095 
L 263.730876 -57.380095 
L 263.513645 -57.380095 
L 263.296415 -57.380095 
L 263.079184 -57.380095 
L 262.861954 -57.380095 
L 262.644723 -57.380095 
L 262.427492 -57.380095 
L 262.210262 -57.380095 
L 261.993031 -57.380095 
L 261.775801 -57.380095 
L 261.55857 -57.380095 
L 261.34134 -57.380095 
L 261.124109 -57.380095 
L 260.906879 -57.380095 
L 260.689648 -57.380095 
L 260.472418 -57.380095 
L 260.255187 -57.380095 
L 260.037957 -57.380095 
L 259.820726 -57.380095 
L 259.603496 -57.380095 
L 259.386265 -57.380095 
L 259.169035 -57.380095 
L 258.951804 -57.380095 
L 258.734574 -57.380095 
L 258.517343 -57.380095 
L 258.300112 -57.380095 
L 258.082882 -57.380095 
L 257.865651 -57.380095 
L 257.648421 -57.380095 
L 257.43119 -57.380095 
L 257.21396 -57.380095 
L 256.996729 -57.380095 
L 256.779499 -57.380095 
L 256.562268 -57.380095 
L 256.345038 -57.380095 
L 256.127807 -57.380095 
L 255.910577 -57.380095 
L 255.693346 -57.380095 
L 255.476116 -57.380095 
L 255.258885 -57.380095 
L 255.041655 -57.380095 
L 254.824424 -57.380095 
L 254.607193 -57.380095 
L 254.389963 -57.380095 
L 254.172732 -57.380095 
L 253.955502 -57.380095 
L 253.738271 -57.380095 
L 253.521041 -57.380095 
L 253.30381 -57.380095 
L 253.08658 -57.380095 
L 252.869349 -57.380095 
L 252.652119 -57.380095 
L 252.434888 -57.380095 
L 252.217658 -57.380095 
L 252.000427 -57.380095 
L 251.783197 -57.380095 
L 251.565966 -57.380095 
L 251.348736 -57.380095 
L 251.131505 -57.380095 
L 250.914275 -57.380095 
L 250.697044 -57.380095 
L 250.479813 -57.380095 
L 250.262583 -57.380095 
L 250.045352 -57.380095 
L 249.828122 -57.380095 
L 249.610891 -57.380095 
L 249.393661 -57.380095 
L 249.17643 -57.380095 
L 248.9592 -57.380095 
L 248.741969 -57.380095 
L 248.524739 -57.380095 
L 248.307508 -57.380095 
L 248.090278 -57.380095 
L 247.873047 -57.380095 
L 247.655817 -57.380095 
L 247.438586 -57.380095 
L 247.221356 -57.380095 
L 247.004125 -57.380095 
L 246.786894 -57.380095 
L 246.569664 -57.380095 
L 246.352433 -57.380095 
L 246.135203 -57.380095 
L 245.917972 -57.380095 
L 245.700742 -57.380095 
L 245.483511 -57.380095 
L 245.266281 -57.380095 
L 245.04905 -57.380095 
L 244.83182 -57.380095 
L 244.614589 -57.380095 
L 244.397359 -57.380095 
L 244.180128 -57.380095 
L 243.962898 -57.380095 
L 243.745667 -57.380095 
L 243.528437 -57.380095 
L 243.311206 -57.380095 
L 243.093976 -57.380095 
L 242.876745 -57.380095 
L 242.659514 -57.380095 
L 242.442284 -57.380095 
L 242.225053 -57.380095 
L 242.007823 -57.380095 
L 241.790592 -57.380095 
L 241.573362 -57.380095 
L 241.356131 -57.380095 
L 241.138901 -57.380095 
L 240.92167 -57.380095 
L 240.70444 -57.380095 
L 240.487209 -57.380095 
L 240.269979 -57.380095 
L 240.052748 -57.380095 
L 239.835518 -57.380095 
L 239.618287 -57.380095 
L 239.401057 -57.380095 
L 239.183826 -57.380095 
L 238.966595 -57.380095 
L 238.749365 -57.380095 
L 238.532134 -57.380095 
L 238.314904 -57.380095 
L 238.097673 -57.380095 
L 237.880443 -57.380095 
L 237.663212 -57.380095 
L 237.445982 -57.380095 
L 237.228751 -57.380095 
L 237.011521 -57.380095 
L 236.79429 -57.380095 
L 236.57706 -57.380095 
L 236.359829 -57.380095 
L 236.142599 -57.380095 
L 235.925368 -57.380095 
L 235.708138 -57.380095 
L 235.490907 -57.380095 
L 235.273676 -57.380095 
L 235.056446 -57.380095 
L 234.839215 -57.380095 
L 234.621985 -57.380095 
L 234.404754 -57.380095 
L 234.187524 -57.380095 
L 233.970293 -57.380095 
L 233.753063 -57.380095 
L 233.535832 -57.380095 
L 233.318602 -57.380095 
L 233.101371 -57.380095 
L 232.884141 -57.380095 
L 232.66691 -57.380095 
L 232.44968 -57.380095 
L 232.232449 -57.380095 
L 232.015219 -57.380095 
L 231.797988 -57.380095 
L 231.580758 -57.380095 
L 231.363527 -57.380095 
L 231.146296 -57.380095 
L 230.929066 -57.380095 
L 230.711835 -57.380095 
L 230.494605 -57.380095 
L 230.277374 -57.380095 
L 230.060144 -57.380095 
L 229.842913 -57.380095 
L 229.625683 -57.380095 
L 229.408452 -57.380095 
L 229.191222 -57.380095 
L 228.973991 -57.380095 
L 228.756761 -57.380095 
L 228.53953 -57.380095 
L 228.3223 -57.380095 
L 228.105069 -57.380095 
L 227.887839 -57.380095 
L 227.670608 -57.380095 
L 227.453377 -57.380095 
L 227.236147 -57.380095 
L 227.018916 -57.380095 
L 226.801686 -57.380095 
L 226.584455 -57.380095 
L 226.367225 -57.380095 
L 226.149994 -57.380095 
L 225.932764 -57.380095 
L 225.715533 -57.380095 
L 225.498303 -57.380095 
L 225.281072 -57.380095 
L 225.063842 -57.380095 
L 224.846611 -57.380095 
L 224.629381 -57.380095 
L 224.41215 -57.380095 
L 224.19492 -57.380095 
L 223.977689 -57.380095 
L 223.760459 -57.380095 
L 223.543228 -57.380095 
L 223.325997 -57.380095 
L 223.108767 -57.380095 
L 222.891536 -57.380095 
L 222.674306 -57.380095 
L 222.457075 -57.380095 
L 222.239845 -57.380095 
L 222.022614 -57.380095 
L 221.805384 -57.380095 
L 221.588153 -57.380095 
L 221.370923 -57.380095 
L 221.153692 -57.380095 
L 220.936462 -57.380095 
L 220.719231 -57.380095 
L 220.502001 -57.380095 
L 220.28477 -57.380095 
L 220.06754 -57.380095 
L 219.850309 -57.380095 
L 219.633078 -57.380095 
L 219.415848 -57.380095 
L 219.198617 -57.380095 
L 218.981387 -57.380095 
L 218.764156 -57.380095 
L 218.546926 -57.380095 
L 218.329695 -57.380095 
L 218.112465 -57.380095 
L 217.895234 -57.380095 
L 217.678004 -57.380095 
L 217.460773 -57.380095 
L 217.243543 -57.380095 
L 217.026312 -57.380095 
L 216.809082 -57.380095 
L 216.591851 -57.380095 
L 216.374621 -57.380095 
L 216.15739 -57.380095 
L 215.94016 -57.380095 
L 215.722929 -57.380095 
L 215.505698 -57.380095 
L 215.288468 -57.380095 
L 215.071237 -57.380095 
L 214.854007 -57.380095 
L 214.636776 -57.380095 
L 214.419546 -57.380095 
L 214.202315 -57.380095 
L 213.985085 -57.380095 
L 213.767854 -57.380095 
L 213.550624 -57.380095 
L 213.333393 -57.380095 
L 213.116163 -57.380095 
L 212.898932 -57.380095 
L 212.681702 -57.380095 
L 212.464471 -57.380095 
L 212.247241 -57.380095 
L 212.03001 -57.380095 
L 211.812779 -57.380095 
L 211.595549 -57.380095 
L 211.378318 -57.380095 
L 211.161088 -57.380095 
L 210.943857 -57.380095 
L 210.726627 -57.380095 
L 210.509396 -57.380095 
L 210.292166 -57.380095 
L 210.074935 -57.380095 
L 209.857705 -57.380095 
L 209.640474 -57.380095 
L 209.423244 -57.380095 
L 209.206013 -57.380095 
L 208.988783 -57.380095 
L 208.771552 -57.380095 
L 208.554322 -57.380095 
L 208.337091 -57.380095 
L 208.119861 -57.380095 
L 207.90263 -57.380095 
L 207.685399 -57.380095 
L 207.468169 -57.380095 
L 207.250938 -57.380095 
L 207.033708 -57.380095 
L 206.816477 -57.380095 
L 206.599247 -57.380095 
L 206.382016 -57.380095 
L 206.164786 -57.380095 
L 205.947555 -57.380095 
L 205.730325 -57.380095 
L 205.513094 -57.380095 
L 205.295864 -57.380095 
L 205.078633 -57.380095 
L 204.861403 -57.380095 
L 204.644172 -57.380095 
L 204.426942 -57.380095 
L 204.209711 -57.380095 
L 203.99248 -57.380095 
L 203.77525 -57.380095 
L 203.558019 -57.380095 
L 203.340789 -57.380095 
L 203.123558 -57.380095 
L 202.906328 -57.380095 
L 202.689097 -57.380095 
L 202.471867 -57.380095 
L 202.254636 -57.380095 
L 202.037406 -57.380095 
L 201.820175 -57.380095 
L 201.602945 -57.380095 
L 201.385714 -57.380095 
L 201.168484 -57.380095 
L 200.951253 -57.380095 
L 200.734023 -57.380095 
L 200.516792 -57.380095 
L 200.299561 -57.380095 
L 200.082331 -57.380095 
L 199.8651 -57.380095 
L 199.64787 -57.380095 
L 199.430639 -57.380095 
L 199.213409 -57.380095 
L 198.996178 -57.380095 
L 198.778948 -57.380095 
L 198.561717 -57.380095 
L 198.344487 -57.380095 
L 198.127256 -57.380095 
L 197.910026 -57.380095 
L 197.692795 -57.380095 
L 197.475565 -57.380095 
L 197.258334 -57.380095 
L 197.041104 -57.380095 
L 196.823873 -57.380095 
L 196.606643 -57.380095 
L 196.389412 -57.380095 
L 196.172181 -57.380095 
L 195.954951 -57.380095 
L 195.73772 -57.380095 
L 195.52049 -57.380095 
L 195.303259 -57.380095 
L 195.086029 -57.380095 
L 194.868798 -57.380095 
L 194.651568 -57.380095 
L 194.434337 -57.380095 
L 194.217107 -57.380095 
L 193.999876 -57.380095 
L 193.782646 -57.380095 
L 193.565415 -57.380095 
L 193.348185 -57.380095 
L 193.130954 -57.380095 
L 192.913724 -57.380095 
L 192.696493 -57.380095 
L 192.479262 -57.380095 
L 192.262032 -57.380095 
L 192.044801 -57.380095 
L 191.827571 -57.380095 
L 191.61034 -57.380095 
L 191.39311 -57.380095 
L 191.175879 -57.380095 
L 190.958649 -57.380095 
L 190.741418 -57.380095 
L 190.524188 -57.380095 
L 190.306957 -57.380095 
L 190.089727 -57.380095 
L 189.872496 -57.380095 
L 189.655266 -57.380095 
L 189.438035 -57.380095 
L 189.220805 -57.380095 
L 189.003574 -57.380095 
L 188.786344 -57.380095 
L 188.569113 -57.380095 
L 188.351882 -57.380095 
L 188.134652 -57.380095 
L 187.917421 -57.380095 
L 187.700191 -57.380095 
L 187.48296 -57.380095 
L 187.26573 -57.380095 
L 187.048499 -57.380095 
L 186.831269 -57.380095 
L 186.614038 -57.380095 
L 186.396808 -57.380095 
L 186.179577 -57.380095 
L 185.962347 -57.380095 
L 185.745116 -57.380095 
L 185.527886 -57.380095 
L 185.310655 -57.380095 
L 185.093425 -57.380095 
L 184.876194 -57.380095 
L 184.658963 -57.380095 
L 184.441733 -57.380095 
L 184.224502 -57.380095 
L 184.007272 -57.380095 
L 183.790041 -57.380095 
L 183.572811 -57.380095 
L 183.35558 -57.380095 
L 183.13835 -57.380095 
L 182.921119 -57.380095 
L 182.703889 -57.380095 
L 182.486658 -57.380095 
L 182.269428 -57.380095 
L 182.052197 -57.380095 
L 181.834967 -57.380095 
L 181.617736 -57.380095 
L 181.400506 -57.380095 
L 181.183275 -57.380095 
L 180.966045 -57.380095 
L 180.748814 -57.380095 
L 180.531583 -57.380095 
L 180.314353 -57.380095 
L 180.097122 -57.380095 
L 179.879892 -57.380095 
L 179.662661 -57.380095 
L 179.445431 -57.380095 
L 179.2282 -57.380095 
L 179.01097 -57.380095 
L 178.793739 -57.380095 
L 178.576509 -57.380095 
L 178.359278 -57.380095 
L 178.142048 -57.380095 
L 177.924817 -57.380095 
L 177.707587 -57.380095 
L 177.490356 -57.380095 
L 177.273126 -57.380095 
L 177.055895 -57.380095 
L 176.838664 -57.380095 
L 176.621434 -57.380095 
L 176.404203 -57.380095 
L 176.186973 -57.380095 
L 175.969742 -57.380095 
L 175.752512 -57.380095 
L 175.535281 -57.380095 
L 175.318051 -57.380095 
L 175.10082 -57.380095 
L 174.88359 -57.380095 
L 174.666359 -57.380095 
L 174.449129 -57.380095 
L 174.231898 -57.380095 
L 174.014668 -57.380095 
L 173.797437 -57.380095 
L 173.580207 -57.380095 
L 173.362976 -57.380095 
L 173.145746 -57.380095 
L 172.928515 -57.380095 
L 172.711284 -57.380095 
L 172.494054 -57.380095 
L 172.276823 -57.380095 
L 172.059593 -57.380095 
L 171.842362 -57.380095 
L 171.625132 -57.380095 
L 171.407901 -57.380095 
L 171.190671 -57.380095 
L 170.97344 -57.380095 
L 170.75621 -57.380095 
L 170.538979 -57.380095 
L 170.321749 -57.380095 
L 170.104518 -57.380095 
L 169.887288 -57.380095 
L 169.670057 -57.380095 
L 169.452827 -57.380095 
L 169.235596 -57.380095 
L 169.018365 -57.380095 
L 168.801135 -57.380095 
L 168.583904 -57.380095 
L 168.366674 -57.380095 
L 168.149443 -57.380095 
L 167.932213 -57.380095 
L 167.714982 -57.380095 
L 167.497752 -57.380095 
L 167.280521 -57.380095 
L 167.063291 -57.380095 
L 166.84606 -57.380095 
L 166.62883 -57.380095 
L 166.411599 -57.380095 
L 166.194369 -57.380095 
L 165.977138 -57.380095 
L 165.759908 -57.380095 
L 165.542677 -57.380095 
L 165.325446 -57.380095 
L 165.108216 -57.380095 
L 164.890985 -57.380095 
L 164.673755 -57.380095 
L 164.456524 -57.380095 
L 164.239294 -57.380095 
L 164.022063 -57.380095 
L 163.804833 -57.380095 
L 163.587602 -57.380095 
L 163.370372 -57.380095 
L 163.153141 -57.380095 
L 162.935911 -57.380095 
L 162.71868 -57.380095 
L 162.50145 -57.380095 
L 162.284219 -57.380095 
L 162.066989 -57.380095 
L 161.849758 -57.380095 
L 161.632528 -57.380095 
L 161.415297 -57.380095 
L 161.198066 -57.380095 
L 160.980836 -57.380095 
L 160.763605 -57.380095 
L 160.546375 -57.380095 
L 160.329144 -57.380095 
L 160.111914 -57.380095 
L 159.894683 -57.380095 
L 159.677453 -57.380095 
L 159.460222 -57.380095 
L 159.242992 -57.380095 
L 159.025761 -57.380095 
L 158.808531 -57.380095 
L 158.5913 -57.380095 
L 158.37407 -57.380095 
L 158.156839 -57.380095 
L 157.939609 -57.380095 
L 157.722378 -57.380095 
L 157.505147 -57.380095 
L 157.287917 -57.380095 
L 157.070686 -57.380095 
L 156.853456 -57.380095 
L 156.636225 -57.380095 
L 156.418995 -57.380095 
L 156.201764 -57.380095 
L 155.984534 -57.380095 
L 155.767303 -57.380095 
L 155.550073 -57.380095 
L 155.332842 -57.380095 
L 155.115612 -57.380095 
L 154.898381 -57.380095 
L 154.681151 -57.380095 
z
" id="m72f7348523" style="stroke:#ff7f0e;stroke-opacity:0.1;"/>
    </defs>
    <g clip-path="url(#p9aa75fa039)">
     <use style="fill:#ff7f0e;fill-opacity:0.1;stroke:#ff7f0e;stroke-opacity:0.1;" x="0" xlink:href="#m72f7348523" y="360"/>
    </g>
   </g>
   <g id="matplotlib.axis_1">
    <g id="xtick_1">
     <g id="line2d_1">
      <defs>
       <path d="M 0 0 
L 0 3.5 
" id="m0e3583da66" style="stroke:#000000;stroke-width:0.8;"/>
      </defs>
      <g>
       <use style="stroke:#000000;stroke-width:0.8;" x="158.306152" xlink:href="#m0e3583da66" y="315"/>
      </g>
     </g>
     <g id="text_1">
      <!-- 20 -->
      <g transform="translate(149.398652 332.637812)scale(0.14 -0.14)">
       <defs>
        <path d="M 19.1875 8.296875 
L 53.609375 8.296875 
L 53.609375 0 
L 7.328125 0 
L 7.328125 8.296875 
Q 12.9375 14.109375 22.625 23.890625 
Q 32.328125 33.6875 34.8125 36.53125 
Q 39.546875 41.84375 41.421875 45.53125 
Q 43.3125 49.21875 43.3125 52.78125 
Q 43.3125 58.59375 39.234375 62.25 
Q 35.15625 65.921875 28.609375 65.921875 
Q 23.96875 65.921875 18.8125 64.3125 
Q 13.671875 62.703125 7.8125 59.421875 
L 7.8125 69.390625 
Q 13.765625 71.78125 18.9375 73 
Q 24.125 74.21875 28.421875 74.21875 
Q 39.75 74.21875 46.484375 68.546875 
Q 53.21875 62.890625 53.21875 53.421875 
Q 53.21875 48.921875 51.53125 44.890625 
Q 49.859375 40.875 45.40625 35.40625 
Q 44.1875 33.984375 37.640625 27.21875 
Q 31.109375 20.453125 19.1875 8.296875 
z
" id="DejaVuSans-50"/>
        <path d="M 31.78125 66.40625 
Q 24.171875 66.40625 20.328125 58.90625 
Q 16.5 51.421875 16.5 36.375 
Q 16.5 21.390625 20.328125 13.890625 
Q 24.171875 6.390625 31.78125 6.390625 
Q 39.453125 6.390625 43.28125 13.890625 
Q 47.125 21.390625 47.125 36.375 
Q 47.125 51.421875 43.28125 58.90625 
Q 39.453125 66.40625 31.78125 66.40625 
z
M 31.78125 74.21875 
Q 44.046875 74.21875 50.515625 64.515625 
Q 56.984375 54.828125 56.984375 36.375 
Q 56.984375 17.96875 50.515625 8.265625 
Q 44.046875 -1.421875 31.78125 -1.421875 
Q 19.53125 -1.421875 13.0625 8.265625 
Q 6.59375 17.96875 6.59375 36.375 
Q 6.59375 54.828125 13.0625 64.515625 
Q 19.53125 74.21875 31.78125 74.21875 
z
" id="DejaVuSans-48"/>
       </defs>
       <use xlink:href="#DejaVuSans-50"/>
       <use x="63.623047" xlink:href="#DejaVuSans-48"/>
      </g>
     </g>
    </g>
    <g id="xtick_2">
     <g id="line2d_2">
      <g>
       <use style="stroke:#000000;stroke-width:0.8;" x="249.858419" xlink:href="#m0e3583da66" y="315"/>
      </g>
     </g>
     <g id="text_2">
      <!-- 25 -->
      <g transform="translate(240.950919 332.637812)scale(0.14 -0.14)">
       <defs>
        <path d="M 10.796875 72.90625 
L 49.515625 72.90625 
L 49.515625 64.59375 
L 19.828125 64.59375 
L 19.828125 46.734375 
Q 21.96875 47.46875 24.109375 47.828125 
Q 26.265625 48.1875 28.421875 48.1875 
Q 40.625 48.1875 47.75 41.5 
Q 54.890625 34.8125 54.890625 23.390625 
Q 54.890625 11.625 47.5625 5.09375 
Q 40.234375 -1.421875 26.90625 -1.421875 
Q 22.3125 -1.421875 17.546875 -0.640625 
Q 12.796875 0.140625 7.71875 1.703125 
L 7.71875 11.625 
Q 12.109375 9.234375 16.796875 8.0625 
Q 21.484375 6.890625 26.703125 6.890625 
Q 35.15625 6.890625 40.078125 11.328125 
Q 45.015625 15.765625 45.015625 23.390625 
Q 45.015625 31 40.078125 35.4375 
Q 35.15625 39.890625 26.703125 39.890625 
Q 22.75 39.890625 18.8125 39.015625 
Q 14.890625 38.140625 10.796875 36.28125 
z
" id="DejaVuSans-53"/>
       </defs>
       <use xlink:href="#DejaVuSans-50"/>
       <use x="63.623047" xlink:href="#DejaVuSans-53"/>
      </g>
     </g>
    </g>
    <g id="text_3">
     <!-- msj x day -->
     <g transform="translate(137.155717 350.947031)scale(0.15 -0.15)">
      <defs>
       <path d="M 52 44.1875 
Q 55.375 50.25 60.0625 53.125 
Q 64.75 56 71.09375 56 
Q 79.640625 56 84.28125 50.015625 
Q 88.921875 44.046875 88.921875 33.015625 
L 88.921875 0 
L 79.890625 0 
L 79.890625 32.71875 
Q 79.890625 40.578125 77.09375 44.375 
Q 74.3125 48.1875 68.609375 48.1875 
Q 61.625 48.1875 57.5625 43.546875 
Q 53.515625 38.921875 53.515625 30.90625 
L 53.515625 0 
L 44.484375 0 
L 44.484375 32.71875 
Q 44.484375 40.625 41.703125 44.40625 
Q 38.921875 48.1875 33.109375 48.1875 
Q 26.21875 48.1875 22.15625 43.53125 
Q 18.109375 38.875 18.109375 30.90625 
L 18.109375 0 
L 9.078125 0 
L 9.078125 54.6875 
L 18.109375 54.6875 
L 18.109375 46.1875 
Q 21.1875 51.21875 25.484375 53.609375 
Q 29.78125 56 35.6875 56 
Q 41.65625 56 45.828125 52.96875 
Q 50 49.953125 52 44.1875 
z
" id="DejaVuSans-109"/>
       <path d="M 44.28125 53.078125 
L 44.28125 44.578125 
Q 40.484375 46.53125 36.375 47.5 
Q 32.28125 48.484375 27.875 48.484375 
Q 21.1875 48.484375 17.84375 46.4375 
Q 14.5 44.390625 14.5 40.28125 
Q 14.5 37.15625 16.890625 35.375 
Q 19.28125 33.59375 26.515625 31.984375 
L 29.59375 31.296875 
Q 39.15625 29.25 43.1875 25.515625 
Q 47.21875 21.78125 47.21875 15.09375 
Q 47.21875 7.46875 41.1875 3.015625 
Q 35.15625 -1.421875 24.609375 -1.421875 
Q 20.21875 -1.421875 15.453125 -0.5625 
Q 10.6875 0.296875 5.421875 2 
L 5.421875 11.28125 
Q 10.40625 8.6875 15.234375 7.390625 
Q 20.0625 6.109375 24.8125 6.109375 
Q 31.15625 6.109375 34.5625 8.28125 
Q 37.984375 10.453125 37.984375 14.40625 
Q 37.984375 18.0625 35.515625 20.015625 
Q 33.0625 21.96875 24.703125 23.78125 
L 21.578125 24.515625 
Q 13.234375 26.265625 9.515625 29.90625 
Q 5.8125 33.546875 5.8125 39.890625 
Q 5.8125 47.609375 11.28125 51.796875 
Q 16.75 56 26.8125 56 
Q 31.78125 56 36.171875 55.265625 
Q 40.578125 54.546875 44.28125 53.078125 
z
" id="DejaVuSans-115"/>
       <path d="M 9.421875 54.6875 
L 18.40625 54.6875 
L 18.40625 -0.984375 
Q 18.40625 -11.421875 14.421875 -16.109375 
Q 10.453125 -20.796875 1.609375 -20.796875 
L -1.8125 -20.796875 
L -1.8125 -13.1875 
L 0.59375 -13.1875 
Q 5.71875 -13.1875 7.5625 -10.8125 
Q 9.421875 -8.453125 9.421875 -0.984375 
z
M 9.421875 75.984375 
L 18.40625 75.984375 
L 18.40625 64.59375 
L 9.421875 64.59375 
z
" id="DejaVuSans-106"/>
       <path id="DejaVuSans-32"/>
       <path d="M 54.890625 54.6875 
L 35.109375 28.078125 
L 55.90625 0 
L 45.3125 0 
L 29.390625 21.484375 
L 13.484375 0 
L 2.875 0 
L 24.125 28.609375 
L 4.6875 54.6875 
L 15.28125 54.6875 
L 29.78125 35.203125 
L 44.28125 54.6875 
z
" id="DejaVuSans-120"/>
       <path d="M 45.40625 46.390625 
L 45.40625 75.984375 
L 54.390625 75.984375 
L 54.390625 0 
L 45.40625 0 
L 45.40625 8.203125 
Q 42.578125 3.328125 38.25 0.953125 
Q 33.9375 -1.421875 27.875 -1.421875 
Q 17.96875 -1.421875 11.734375 6.484375 
Q 5.515625 14.40625 5.515625 27.296875 
Q 5.515625 40.1875 11.734375 48.09375 
Q 17.96875 56 27.875 56 
Q 33.9375 56 38.25 53.625 
Q 42.578125 51.265625 45.40625 46.390625 
z
M 14.796875 27.296875 
Q 14.796875 17.390625 18.875 11.75 
Q 22.953125 6.109375 30.078125 6.109375 
Q 37.203125 6.109375 41.296875 11.75 
Q 45.40625 17.390625 45.40625 27.296875 
Q 45.40625 37.203125 41.296875 42.84375 
Q 37.203125 48.484375 30.078125 48.484375 
Q 22.953125 48.484375 18.875 42.84375 
Q 14.796875 37.203125 14.796875 27.296875 
z
" id="DejaVuSans-100"/>
       <path d="M 34.28125 27.484375 
Q 23.390625 27.484375 19.1875 25 
Q 14.984375 22.515625 14.984375 16.5 
Q 14.984375 11.71875 18.140625 8.90625 
Q 21.296875 6.109375 26.703125 6.109375 
Q 34.1875 6.109375 38.703125 11.40625 
Q 43.21875 16.703125 43.21875 25.484375 
L 43.21875 27.484375 
z
M 52.203125 31.203125 
L 52.203125 0 
L 43.21875 0 
L 43.21875 8.296875 
Q 40.140625 3.328125 35.546875 0.953125 
Q 30.953125 -1.421875 24.3125 -1.421875 
Q 15.921875 -1.421875 10.953125 3.296875 
Q 6 8.015625 6 15.921875 
Q 6 25.140625 12.171875 29.828125 
Q 18.359375 34.515625 30.609375 34.515625 
L 43.21875 34.515625 
L 43.21875 35.40625 
Q 43.21875 41.609375 39.140625 45 
Q 35.0625 48.390625 27.6875 48.390625 
Q 23 48.390625 18.546875 47.265625 
Q 14.109375 46.140625 10.015625 43.890625 
L 10.015625 52.203125 
Q 14.9375 54.109375 19.578125 55.046875 
Q 24.21875 56 28.609375 56 
Q 40.484375 56 46.34375 49.84375 
Q 52.203125 43.703125 52.203125 31.203125 
z
" id="DejaVuSans-97"/>
       <path d="M 32.171875 -5.078125 
Q 28.375 -14.84375 24.75 -17.8125 
Q 21.140625 -20.796875 15.09375 -20.796875 
L 7.90625 -20.796875 
L 7.90625 -13.28125 
L 13.1875 -13.28125 
Q 16.890625 -13.28125 18.9375 -11.515625 
Q 21 -9.765625 23.484375 -3.21875 
L 25.09375 0.875 
L 2.984375 54.6875 
L 12.5 54.6875 
L 29.59375 11.921875 
L 46.6875 54.6875 
L 56.203125 54.6875 
z
" id="DejaVuSans-121"/>
      </defs>
      <use xlink:href="#DejaVuSans-109"/>
      <use x="97.412109" xlink:href="#DejaVuSans-115"/>
      <use x="149.511719" xlink:href="#DejaVuSans-106"/>
      <use x="177.294922" xlink:href="#DejaVuSans-32"/>
      <use x="209.082031" xlink:href="#DejaVuSans-120"/>
      <use x="268.261719" xlink:href="#DejaVuSans-32"/>
      <use x="300.048828" xlink:href="#DejaVuSans-100"/>
      <use x="363.525391" xlink:href="#DejaVuSans-97"/>
      <use x="424.804688" xlink:href="#DejaVuSans-121"/>
     </g>
    </g>
   </g>
   <g id="matplotlib.axis_2"/>
   <g id="line2d_3">
    <path clip-path="url(#p9aa75fa039)" d="M 81.22314 300.064998 
L 82.110965 299.963787 
L 82.850819 299.696702 
L 83.590673 299.200127 
L 84.330527 298.417584 
L 85.218351 297.080998 
L 86.254147 295.083454 
L 87.437913 292.350011 
L 89.065592 287.950715 
L 90.249358 284.209992 
L 91.433124 279.640675 
L 92.912832 272.976177 
L 93.948627 267.492806 
L 94.836452 261.568829 
L 95.872247 253.011038 
L 97.647896 236.100571 
L 100.755283 204.54049 
L 101.791078 191.189393 
L 107.265997 114.410251 
L 108.153822 104.074751 
L 109.041646 96.123563 
L 110.373383 84.423311 
L 112.001062 69.568138 
L 112.740916 65.080007 
L 113.480769 62.089646 
L 114.368594 59.610731 
L 115.256419 57.756517 
L 115.996273 56.70585 
L 116.440185 56.33047 
L 118.067863 55.670693 
L 118.511776 55.554545 
L 118.955688 55.723453 
L 119.25163 56.091702 
L 119.547571 56.798757 
L 119.991483 58.577179 
L 120.583367 62.309638 
L 121.32322 68.737718 
L 123.542782 89.227126 
L 125.02249 101.548439 
L 125.910314 111.15968 
L 129.461613 152.901045 
L 131.089292 171.827975 
L 134.64059 215.918536 
L 136.712181 234.895657 
L 137.895947 244.00357 
L 139.819567 258.386495 
L 141.299275 269.659146 
L 142.039129 273.834795 
L 142.778983 276.887707 
L 146.182311 288.493317 
L 147.070135 290.569867 
L 148.253901 292.585658 
L 150.621434 296.185165 
L 152.988966 298.977404 
L 154.172732 300.212616 
L 155.060557 300.827512 
L 155.948382 301.152697 
L 156.836206 301.264101 
L 156.836206 301.264101 
" style="fill:none;stroke:#1f77b4;stroke-linecap:square;stroke-width:1.5;"/>
   </g>
   <g id="line2d_4">
    <path clip-path="url(#p9aa75fa039)" d="M 81.22314 302.645455 
L 81.22314 300.064998 
" style="fill:none;stroke:#1f77b4;stroke-linecap:square;stroke-width:1.5;"/>
   </g>
   <g id="line2d_5">
    <path clip-path="url(#p9aa75fa039)" d="M 156.836206 302.633464 
L 156.836206 301.264101 
" style="fill:none;stroke:#1f77b4;stroke-linecap:square;stroke-width:1.5;"/>
   </g>
   <g id="line2d_6">
    <defs>
     <path d="M 0 3 
C 0.795609 3 1.55874 2.683901 2.12132 2.12132 
C 2.683901 1.55874 3 0.795609 3 0 
C 3 -0.795609 2.683901 -1.55874 2.12132 -2.12132 
C 1.55874 -2.683901 0.795609 -3 0 -3 
C -0.795609 -3 -1.55874 -2.683901 -2.12132 -2.12132 
C -2.683901 -1.55874 -3 -0.795609 -3 0 
C -3 0.795609 -2.683901 1.55874 -2.12132 2.12132 
C -1.55874 2.683901 -0.795609 3 0 3 
z
" id="m5fb82af19a" style="stroke:#000000;"/>
    </defs>
    <g clip-path="url(#p9aa75fa039)">
     <use style="fill:#1f77b4;stroke:#000000;" x="117.219911" xlink:href="#m5fb82af19a" y="302.619905"/>
    </g>
   </g>
   <g id="line2d_7">
    <path clip-path="url(#p9aa75fa039)" d="M 154.681151 301.322061 
L 155.984534 301.169264 
L 157.505147 300.723296 
L 160.329144 299.603532 
L 162.284219 298.681754 
L 163.804833 297.700836 
L 164.890985 296.74512 
L 166.194369 295.284666 
L 167.714982 293.231259 
L 169.018365 291.160308 
L 170.538979 288.303135 
L 172.928515 283.275497 
L 174.231898 280.120022 
L 175.318051 276.890631 
L 176.404203 272.92641 
L 177.707587 267.267666 
L 180.531583 253.653922 
L 182.269428 244.364622 
L 183.790041 234.884972 
L 188.786344 202.297663 
L 193.130954 178.355822 
L 194.868798 167.031097 
L 197.258334 151.058771 
L 198.344487 145.215907 
L 199.430639 140.570667 
L 200.516792 136.93443 
L 202.254636 132.057345 
L 204.426942 126.421804 
L 205.513094 124.181252 
L 206.382016 122.979516 
L 207.033708 122.456972 
L 207.685399 122.254574 
L 208.119861 122.285239 
L 208.554322 122.471613 
L 208.988783 122.839039 
L 209.640474 123.729854 
L 210.292166 125.134264 
L 210.943857 127.062125 
L 211.812779 130.287481 
L 214.202315 140.502302 
L 215.94016 148.522236 
L 218.112465 159.684013 
L 223.543228 189.508609 
L 225.063842 199.221267 
L 227.887839 217.260115 
L 229.625683 226.896069 
L 231.363527 235.140688 
L 234.404754 249.413577 
L 236.57706 259.355998 
L 238.314904 266.210429 
L 240.269979 273.05301 
L 241.790592 277.619123 
L 243.528437 282.132057 
L 245.483511 286.640724 
L 247.655817 291.111179 
L 248.9592 293.390231 
L 250.045352 294.867927 
L 251.131505 295.943573 
L 252.434888 296.887927 
L 254.607193 298.413531 
L 257.21396 300.327623 
L 258.517343 300.968844 
L 260.037957 301.467406 
L 261.55857 301.751909 
L 263.296415 301.846734 
L 265.68595 301.82403 
L 265.68595 301.82403 
" style="fill:none;stroke:#ff7f0e;stroke-linecap:square;stroke-width:1.5;"/>
   </g>
   <g id="line2d_8">
    <path clip-path="url(#p9aa75fa039)" d="M 154.681151 302.632884 
L 154.681151 301.322061 
" style="fill:none;stroke:#ff7f0e;stroke-linecap:square;stroke-width:1.5;"/>
   </g>
   <g id="line2d_9">
    <path clip-path="url(#p9aa75fa039)" d="M 265.68595 302.627864 
L 265.68595 301.82403 
" style="fill:none;stroke:#ff7f0e;stroke-linecap:square;stroke-width:1.5;"/>
   </g>
   <g id="line2d_10">
    <defs>
     <path d="M 0 3 
C 0.795609 3 1.55874 2.683901 2.12132 2.12132 
C 2.683901 1.55874 3 0.795609 3 0 
C 3 -0.795609 2.683901 -1.55874 2.12132 -2.12132 
C 1.55874 -2.683901 0.795609 -3 0 -3 
C -0.795609 -3 -1.55874 -2.683901 -2.12132 -2.12132 
C -2.683901 -1.55874 -3 -0.795609 -3 0 
C -3 0.795609 -2.683901 1.55874 -2.12132 2.12132 
C -1.55874 2.683901 -0.795609 3 0 3 
z
" id="mdd52f38137" style="stroke:#000000;"/>
    </defs>
    <g clip-path="url(#p9aa75fa039)">
     <use style="fill:#ff7f0e;stroke:#000000;" x="207.759013" xlink:href="#mdd52f38137" y="302.619905"/>
    </g>
   </g>
   <g id="line2d_11"/>
   <g id="line2d_12"/>
   <g id="patch_3">
    <path d="M 72 315 
L 274.909091 315 
" style="fill:none;stroke:#000000;stroke-linecap:square;stroke-linejoin:miter;stroke-width:0.8;"/>
   </g>
   <g id="text_4">
    <!-- $\lambda$ (msj x day) -->
    <g transform="translate(108.154545 37.2)scale(0.2 -0.2)">
     <defs>
      <path d="M 36.71875 67.4375 
L 48.828125 0 
L 39.3125 0 
L 31.84375 40.4375 
L 5.125 0 
L -4.390625 0 
L 29.734375 52.4375 
L 28.03125 62.109375 
Q 26.953125 68.265625 21.734375 68.265625 
L 17.046875 68.265625 
L 18.5 75.984375 
L 24.21875 75.875 
Q 35.203125 75.734375 36.71875 67.4375 
z
" id="DejaVuSans-Oblique-955"/>
      <path d="M 31 75.875 
Q 24.46875 64.65625 21.28125 53.65625 
Q 18.109375 42.671875 18.109375 31.390625 
Q 18.109375 20.125 21.3125 9.0625 
Q 24.515625 -2 31 -13.1875 
L 23.1875 -13.1875 
Q 15.875 -1.703125 12.234375 9.375 
Q 8.59375 20.453125 8.59375 31.390625 
Q 8.59375 42.28125 12.203125 53.3125 
Q 15.828125 64.359375 23.1875 75.875 
z
" id="DejaVuSans-40"/>
      <path d="M 8.015625 75.875 
L 15.828125 75.875 
Q 23.140625 64.359375 26.78125 53.3125 
Q 30.421875 42.28125 30.421875 31.390625 
Q 30.421875 20.453125 26.78125 9.375 
Q 23.140625 -1.703125 15.828125 -13.1875 
L 8.015625 -13.1875 
Q 14.5 -2 17.703125 9.0625 
Q 20.90625 20.125 20.90625 31.390625 
Q 20.90625 42.671875 17.703125 53.65625 
Q 14.5 64.65625 8.015625 75.875 
z
" id="DejaVuSans-41"/>
     </defs>
     <use transform="translate(0 0.015625)" xlink:href="#DejaVuSans-Oblique-955"/>
     <use transform="translate(59.179688 0.015625)" xlink:href="#DejaVuSans-32"/>
     <use transform="translate(90.966797 0.015625)" xlink:href="#DejaVuSans-40"/>
     <use transform="translate(129.980469 0.015625)" xlink:href="#DejaVuSans-109"/>
     <use transform="translate(227.392578 0.015625)" xlink:href="#DejaVuSans-115"/>
     <use transform="translate(279.492188 0.015625)" xlink:href="#DejaVuSans-106"/>
     <use transform="translate(307.275391 0.015625)" xlink:href="#DejaVuSans-32"/>
     <use transform="translate(339.0625 0.015625)" xlink:href="#DejaVuSans-120"/>
     <use transform="translate(398.242188 0.015625)" xlink:href="#DejaVuSans-32"/>
     <use transform="translate(430.029297 0.015625)" xlink:href="#DejaVuSans-100"/>
     <use transform="translate(493.505859 0.015625)" xlink:href="#DejaVuSans-97"/>
     <use transform="translate(554.785156 0.015625)" xlink:href="#DejaVuSans-121"/>
     <use transform="translate(613.964844 0.015625)" xlink:href="#DejaVuSans-41"/>
    </g>
   </g>
   <g id="legend_1">
    <g id="patch_4">
     <path d="M 126.399716 80.55625 
L 267.909091 80.55625 
Q 269.909091 80.55625 269.909091 78.55625 
L 269.909091 50.2 
Q 269.909091 48.2 267.909091 48.2 
L 126.399716 48.2 
Q 124.399716 48.2 124.399716 50.2 
L 124.399716 78.55625 
Q 124.399716 80.55625 126.399716 80.55625 
z
" style="fill:#ffffff;opacity:0.8;stroke:#cccccc;stroke-linejoin:miter;"/>
    </g>
    <g id="line2d_13">
     <path d="M 128.399716 56.298437 
L 148.399716 56.298437 
" style="fill:none;stroke:#1f77b4;stroke-linecap:square;stroke-width:1.5;"/>
    </g>
    <g id="line2d_14"/>
    <g id="text_5">
     <!-- Before day 44 (mean) -->
     <g transform="translate(156.399716 59.798437)scale(0.1 -0.1)">
      <defs>
       <path d="M 19.671875 34.8125 
L 19.671875 8.109375 
L 35.5 8.109375 
Q 43.453125 8.109375 47.28125 11.40625 
Q 51.125 14.703125 51.125 21.484375 
Q 51.125 28.328125 47.28125 31.5625 
Q 43.453125 34.8125 35.5 34.8125 
z
M 19.671875 64.796875 
L 19.671875 42.828125 
L 34.28125 42.828125 
Q 41.5 42.828125 45.03125 45.53125 
Q 48.578125 48.25 48.578125 53.8125 
Q 48.578125 59.328125 45.03125 62.0625 
Q 41.5 64.796875 34.28125 64.796875 
z
M 9.8125 72.90625 
L 35.015625 72.90625 
Q 46.296875 72.90625 52.390625 68.21875 
Q 58.5 63.53125 58.5 54.890625 
Q 58.5 48.1875 55.375 44.234375 
Q 52.25 40.28125 46.1875 39.3125 
Q 53.46875 37.75 57.5 32.78125 
Q 61.53125 27.828125 61.53125 20.40625 
Q 61.53125 10.640625 54.890625 5.3125 
Q 48.25 0 35.984375 0 
L 9.8125 0 
z
" id="DejaVuSans-66"/>
       <path d="M 56.203125 29.59375 
L 56.203125 25.203125 
L 14.890625 25.203125 
Q 15.484375 15.921875 20.484375 11.0625 
Q 25.484375 6.203125 34.421875 6.203125 
Q 39.59375 6.203125 44.453125 7.46875 
Q 49.3125 8.734375 54.109375 11.28125 
L 54.109375 2.78125 
Q 49.265625 0.734375 44.1875 -0.34375 
Q 39.109375 -1.421875 33.890625 -1.421875 
Q 20.796875 -1.421875 13.15625 6.1875 
Q 5.515625 13.8125 5.515625 26.8125 
Q 5.515625 40.234375 12.765625 48.109375 
Q 20.015625 56 32.328125 56 
Q 43.359375 56 49.78125 48.890625 
Q 56.203125 41.796875 56.203125 29.59375 
z
M 47.21875 32.234375 
Q 47.125 39.59375 43.09375 43.984375 
Q 39.0625 48.390625 32.421875 48.390625 
Q 24.90625 48.390625 20.390625 44.140625 
Q 15.875 39.890625 15.1875 32.171875 
z
" id="DejaVuSans-101"/>
       <path d="M 37.109375 75.984375 
L 37.109375 68.5 
L 28.515625 68.5 
Q 23.6875 68.5 21.796875 66.546875 
Q 19.921875 64.59375 19.921875 59.515625 
L 19.921875 54.6875 
L 34.71875 54.6875 
L 34.71875 47.703125 
L 19.921875 47.703125 
L 19.921875 0 
L 10.890625 0 
L 10.890625 47.703125 
L 2.296875 47.703125 
L 2.296875 54.6875 
L 10.890625 54.6875 
L 10.890625 58.5 
Q 10.890625 67.625 15.140625 71.796875 
Q 19.390625 75.984375 28.609375 75.984375 
z
" id="DejaVuSans-102"/>
       <path d="M 30.609375 48.390625 
Q 23.390625 48.390625 19.1875 42.75 
Q 14.984375 37.109375 14.984375 27.296875 
Q 14.984375 17.484375 19.15625 11.84375 
Q 23.34375 6.203125 30.609375 6.203125 
Q 37.796875 6.203125 41.984375 11.859375 
Q 46.1875 17.53125 46.1875 27.296875 
Q 46.1875 37.015625 41.984375 42.703125 
Q 37.796875 48.390625 30.609375 48.390625 
z
M 30.609375 56 
Q 42.328125 56 49.015625 48.375 
Q 55.71875 40.765625 55.71875 27.296875 
Q 55.71875 13.875 49.015625 6.21875 
Q 42.328125 -1.421875 30.609375 -1.421875 
Q 18.84375 -1.421875 12.171875 6.21875 
Q 5.515625 13.875 5.515625 27.296875 
Q 5.515625 40.765625 12.171875 48.375 
Q 18.84375 56 30.609375 56 
z
" id="DejaVuSans-111"/>
       <path d="M 41.109375 46.296875 
Q 39.59375 47.171875 37.8125 47.578125 
Q 36.03125 48 33.890625 48 
Q 26.265625 48 22.1875 43.046875 
Q 18.109375 38.09375 18.109375 28.8125 
L 18.109375 0 
L 9.078125 0 
L 9.078125 54.6875 
L 18.109375 54.6875 
L 18.109375 46.1875 
Q 20.953125 51.171875 25.484375 53.578125 
Q 30.03125 56 36.53125 56 
Q 37.453125 56 38.578125 55.875 
Q 39.703125 55.765625 41.0625 55.515625 
z
" id="DejaVuSans-114"/>
       <path d="M 37.796875 64.3125 
L 12.890625 25.390625 
L 37.796875 25.390625 
z
M 35.203125 72.90625 
L 47.609375 72.90625 
L 47.609375 25.390625 
L 58.015625 25.390625 
L 58.015625 17.1875 
L 47.609375 17.1875 
L 47.609375 0 
L 37.796875 0 
L 37.796875 17.1875 
L 4.890625 17.1875 
L 4.890625 26.703125 
z
" id="DejaVuSans-52"/>
       <path d="M 54.890625 33.015625 
L 54.890625 0 
L 45.90625 0 
L 45.90625 32.71875 
Q 45.90625 40.484375 42.875 44.328125 
Q 39.84375 48.1875 33.796875 48.1875 
Q 26.515625 48.1875 22.3125 43.546875 
Q 18.109375 38.921875 18.109375 30.90625 
L 18.109375 0 
L 9.078125 0 
L 9.078125 54.6875 
L 18.109375 54.6875 
L 18.109375 46.1875 
Q 21.34375 51.125 25.703125 53.5625 
Q 30.078125 56 35.796875 56 
Q 45.21875 56 50.046875 50.171875 
Q 54.890625 44.34375 54.890625 33.015625 
z
" id="DejaVuSans-110"/>
      </defs>
      <use xlink:href="#DejaVuSans-66"/>
      <use x="68.603516" xlink:href="#DejaVuSans-101"/>
      <use x="130.126953" xlink:href="#DejaVuSans-102"/>
      <use x="165.332031" xlink:href="#DejaVuSans-111"/>
      <use x="226.513672" xlink:href="#DejaVuSans-114"/>
      <use x="265.376953" xlink:href="#DejaVuSans-101"/>
      <use x="326.900391" xlink:href="#DejaVuSans-32"/>
      <use x="358.6875" xlink:href="#DejaVuSans-100"/>
      <use x="422.164062" xlink:href="#DejaVuSans-97"/>
      <use x="483.443359" xlink:href="#DejaVuSans-121"/>
      <use x="542.623047" xlink:href="#DejaVuSans-32"/>
      <use x="574.410156" xlink:href="#DejaVuSans-52"/>
      <use x="638.033203" xlink:href="#DejaVuSans-52"/>
      <use x="701.65625" xlink:href="#DejaVuSans-32"/>
      <use x="733.443359" xlink:href="#DejaVuSans-40"/>
      <use x="772.457031" xlink:href="#DejaVuSans-109"/>
      <use x="869.869141" xlink:href="#DejaVuSans-101"/>
      <use x="931.392578" xlink:href="#DejaVuSans-97"/>
      <use x="992.671875" xlink:href="#DejaVuSans-110"/>
      <use x="1056.050781" xlink:href="#DejaVuSans-41"/>
     </g>
    </g>
    <g id="line2d_15">
     <path d="M 128.399716 70.976562 
L 148.399716 70.976562 
" style="fill:none;stroke:#ff7f0e;stroke-linecap:square;stroke-width:1.5;"/>
    </g>
    <g id="line2d_16"/>
    <g id="text_6">
     <!-- After -->
     <g transform="translate(156.399716 74.476562)scale(0.1 -0.1)">
      <defs>
       <path d="M 34.1875 63.1875 
L 20.796875 26.90625 
L 47.609375 26.90625 
z
M 28.609375 72.90625 
L 39.796875 72.90625 
L 67.578125 0 
L 57.328125 0 
L 50.6875 18.703125 
L 17.828125 18.703125 
L 11.1875 0 
L 0.78125 0 
z
" id="DejaVuSans-65"/>
       <path d="M 18.3125 70.21875 
L 18.3125 54.6875 
L 36.8125 54.6875 
L 36.8125 47.703125 
L 18.3125 47.703125 
L 18.3125 18.015625 
Q 18.3125 11.328125 20.140625 9.421875 
Q 21.96875 7.515625 27.59375 7.515625 
L 36.8125 7.515625 
L 36.8125 0 
L 27.59375 0 
Q 17.1875 0 13.234375 3.875 
Q 9.28125 7.765625 9.28125 18.015625 
L 9.28125 47.703125 
L 2.6875 47.703125 
L 2.6875 54.6875 
L 9.28125 54.6875 
L 9.28125 70.21875 
z
" id="DejaVuSans-116"/>
      </defs>
      <use xlink:href="#DejaVuSans-65"/>
      <use x="64.783203" xlink:href="#DejaVuSans-102"/>
      <use x="98.238281" xlink:href="#DejaVuSans-116"/>
      <use x="137.447266" xlink:href="#DejaVuSans-101"/>
      <use x="198.970703" xlink:href="#DejaVuSans-114"/>
     </g>
    </g>
   </g>
  </g>
  <g id="axes_2">
   <g id="patch_5">
    <path d="M 315.490909 315 
L 518.4 315 
L 518.4 43.2 
L 315.490909 43.2 
z
" style="fill:#ffffff;"/>
   </g>
   <g id="patch_6">
    <path clip-path="url(#pca736e9e9f)" d="M 334.422619 315 
L 353.839756 315 
L 353.839756 314.959761 
L 334.422619 314.959761 
z
" style="fill:#800080;opacity:0.25;"/>
   </g>
   <g id="patch_7">
    <path clip-path="url(#pca736e9e9f)" d="M 353.839756 315 
L 373.256894 315 
L 373.256894 314.356177 
L 353.839756 314.356177 
z
" style="fill:#800080;opacity:0.25;"/>
   </g>
   <g id="patch_8">
    <path clip-path="url(#pca736e9e9f)" d="M 373.256894 315 
L 392.674032 315 
L 392.674032 294.62568 
L 373.256894 294.62568 
z
" style="fill:#800080;opacity:0.25;"/>
   </g>
   <g id="patch_9">
    <path clip-path="url(#pca736e9e9f)" d="M 392.674032 315 
L 412.09117 315 
L 412.09117 254.118474 
L 392.674032 254.118474 
z
" style="fill:#800080;opacity:0.25;"/>
   </g>
   <g id="patch_10">
    <path clip-path="url(#pca736e9e9f)" d="M 412.09117 315 
L 431.508308 315 
L 431.508308 119.452133 
L 412.09117 119.452133 
z
" style="fill:#800080;opacity:0.25;"/>
   </g>
   <g id="patch_11">
    <path clip-path="url(#pca736e9e9f)" d="M 431.508308 315 
L 450.925446 315 
L 450.925446 56.142857 
L 431.508308 56.142857 
z
" style="fill:#800080;opacity:0.25;"/>
   </g>
   <g id="patch_12">
    <path clip-path="url(#pca736e9e9f)" d="M 450.925446 315 
L 470.342584 315 
L 470.342584 314.86587 
L 450.925446 314.86587 
z
" style="fill:#800080;opacity:0.25;"/>
   </g>
   <g id="patch_13">
    <path clip-path="url(#pca736e9e9f)" d="M 470.342584 315 
L 489.759722 315 
L 489.759722 314.986587 
L 470.342584 314.986587 
z
" style="fill:#800080;opacity:0.25;"/>
   </g>
   <g id="patch_14">
    <path clip-path="url(#pca736e9e9f)" d="M 489.759722 315 
L 509.17686 315 
L 509.17686 314.973174 
L 489.759722 314.973174 
z
" style="fill:#800080;opacity:0.25;"/>
   </g>
   <g id="matplotlib.axis_3">
    <g id="xtick_3">
     <g id="line2d_17">
      <g>
       <use style="stroke:#000000;stroke-width:0.8;" x="334.422619" xlink:href="#m0e3583da66" y="315"/>
      </g>
     </g>
     <g id="text_7">
      <!-- 40 -->
      <g transform="translate(325.515119 332.637812)scale(0.14 -0.14)">
       <use xlink:href="#DejaVuSans-52"/>
       <use x="63.623047" xlink:href="#DejaVuSans-48"/>
      </g>
     </g>
    </g>
    <g id="xtick_4">
     <g id="line2d_18">
      <g>
       <use style="stroke:#000000;stroke-width:0.8;" x="431.508308" xlink:href="#m0e3583da66" y="315"/>
      </g>
     </g>
     <g id="text_8">
      <!-- 45 -->
      <g transform="translate(422.600808 332.637812)scale(0.14 -0.14)">
       <use xlink:href="#DejaVuSans-52"/>
       <use x="63.623047" xlink:href="#DejaVuSans-53"/>
      </g>
     </g>
    </g>
    <g id="text_9">
     <!-- change day -->
     <g transform="translate(373.163033 350.947031)scale(0.15 -0.15)">
      <defs>
       <path d="M 48.78125 52.59375 
L 48.78125 44.1875 
Q 44.96875 46.296875 41.140625 47.34375 
Q 37.3125 48.390625 33.40625 48.390625 
Q 24.65625 48.390625 19.8125 42.84375 
Q 14.984375 37.3125 14.984375 27.296875 
Q 14.984375 17.28125 19.8125 11.734375 
Q 24.65625 6.203125 33.40625 6.203125 
Q 37.3125 6.203125 41.140625 7.25 
Q 44.96875 8.296875 48.78125 10.40625 
L 48.78125 2.09375 
Q 45.015625 0.34375 40.984375 -0.53125 
Q 36.96875 -1.421875 32.421875 -1.421875 
Q 20.0625 -1.421875 12.78125 6.34375 
Q 5.515625 14.109375 5.515625 27.296875 
Q 5.515625 40.671875 12.859375 48.328125 
Q 20.21875 56 33.015625 56 
Q 37.15625 56 41.109375 55.140625 
Q 45.0625 54.296875 48.78125 52.59375 
z
" id="DejaVuSans-99"/>
       <path d="M 54.890625 33.015625 
L 54.890625 0 
L 45.90625 0 
L 45.90625 32.71875 
Q 45.90625 40.484375 42.875 44.328125 
Q 39.84375 48.1875 33.796875 48.1875 
Q 26.515625 48.1875 22.3125 43.546875 
Q 18.109375 38.921875 18.109375 30.90625 
L 18.109375 0 
L 9.078125 0 
L 9.078125 75.984375 
L 18.109375 75.984375 
L 18.109375 46.1875 
Q 21.34375 51.125 25.703125 53.5625 
Q 30.078125 56 35.796875 56 
Q 45.21875 56 50.046875 50.171875 
Q 54.890625 44.34375 54.890625 33.015625 
z
" id="DejaVuSans-104"/>
       <path d="M 45.40625 27.984375 
Q 45.40625 37.75 41.375 43.109375 
Q 37.359375 48.484375 30.078125 48.484375 
Q 22.859375 48.484375 18.828125 43.109375 
Q 14.796875 37.75 14.796875 27.984375 
Q 14.796875 18.265625 18.828125 12.890625 
Q 22.859375 7.515625 30.078125 7.515625 
Q 37.359375 7.515625 41.375 12.890625 
Q 45.40625 18.265625 45.40625 27.984375 
z
M 54.390625 6.78125 
Q 54.390625 -7.171875 48.1875 -13.984375 
Q 42 -20.796875 29.203125 -20.796875 
Q 24.46875 -20.796875 20.265625 -20.09375 
Q 16.0625 -19.390625 12.109375 -17.921875 
L 12.109375 -9.1875 
Q 16.0625 -11.328125 19.921875 -12.34375 
Q 23.78125 -13.375 27.78125 -13.375 
Q 36.625 -13.375 41.015625 -8.765625 
Q 45.40625 -4.15625 45.40625 5.171875 
L 45.40625 9.625 
Q 42.625 4.78125 38.28125 2.390625 
Q 33.9375 0 27.875 0 
Q 17.828125 0 11.671875 7.65625 
Q 5.515625 15.328125 5.515625 27.984375 
Q 5.515625 40.671875 11.671875 48.328125 
Q 17.828125 56 27.875 56 
Q 33.9375 56 38.28125 53.609375 
Q 42.625 51.21875 45.40625 46.390625 
L 45.40625 54.6875 
L 54.390625 54.6875 
z
" id="DejaVuSans-103"/>
      </defs>
      <use xlink:href="#DejaVuSans-99"/>
      <use x="54.980469" xlink:href="#DejaVuSans-104"/>
      <use x="118.359375" xlink:href="#DejaVuSans-97"/>
      <use x="179.638672" xlink:href="#DejaVuSans-110"/>
      <use x="243.017578" xlink:href="#DejaVuSans-103"/>
      <use x="306.494141" xlink:href="#DejaVuSans-101"/>
      <use x="368.017578" xlink:href="#DejaVuSans-32"/>
      <use x="399.804688" xlink:href="#DejaVuSans-100"/>
      <use x="463.28125" xlink:href="#DejaVuSans-97"/>
      <use x="524.560547" xlink:href="#DejaVuSans-121"/>
     </g>
    </g>
   </g>
   <g id="matplotlib.axis_4"/>
   <g id="patch_15">
    <path clip-path="url(#pca736e9e9f)" d="M 324.71405 315 
L 324.71405 314.959761 
L 344.131187 314.959761 
L 344.131187 314.356177 
L 363.548325 314.356177 
L 363.548325 294.62568 
L 382.965463 294.62568 
L 382.965463 254.118474 
L 402.382601 254.118474 
L 402.382601 119.452133 
L 421.799739 119.452133 
L 421.799739 56.142857 
L 441.216877 56.142857 
L 441.216877 314.86587 
L 460.634015 314.86587 
L 460.634015 314.986587 
L 480.051153 314.986587 
L 480.051153 314.973174 
L 499.468291 314.973174 
L 499.468291 315 
" style="fill:none;stroke:#800080;stroke-linejoin:miter;"/>
   </g>
   <g id="line2d_19">
    <defs>
     <path d="M 0 3 
C 0.795609 3 1.55874 2.683901 2.12132 2.12132 
C 2.683901 1.55874 3 0.795609 3 0 
C 3 -0.795609 2.683901 -1.55874 2.12132 -2.12132 
C 1.55874 -2.683901 0.795609 -3 0 -3 
C -0.795609 -3 -1.55874 -2.683901 -2.12132 -2.12132 
C -2.683901 -1.55874 -3 -0.795609 -3 0 
C -3 0.795609 -2.683901 1.55874 -2.12132 2.12132 
C -1.55874 2.683901 -0.795609 3 0 3 
z
" id="mb82fcb7c2a" style="stroke:#000000;"/>
    </defs>
    <g clip-path="url(#pca736e9e9f)">
     <use style="fill:#800080;stroke:#000000;" x="417.720684" xlink:href="#mb82fcb7c2a" y="315"/>
    </g>
   </g>
   <g id="patch_16">
    <path d="M 315.490909 315 
L 518.4 315 
" style="fill:none;stroke:#000000;stroke-linecap:square;stroke-linejoin:miter;stroke-width:0.8;"/>
   </g>
   <g id="text_10">
    <!-- $\tau$ (day change) -->
    <g transform="translate(341.545455 37.2)scale(0.2 -0.2)">
     <defs>
      <path d="M 32.859375 9.96875 
Q 34.1875 7.625 39.453125 7.625 
L 43.75 7.625 
L 42.28125 0 
L 36.921875 0 
Q 28.125 0 25 4.6875 
Q 21.921875 9.46875 23.96875 19.828125 
L 29 45.703125 
L 8.453125 45.703125 
L 10.203125 54.6875 
L 60.640625 54.6875 
L 58.890625 45.703125 
L 38.1875 45.703125 
L 33.015625 19.28125 
Q 31.640625 12.203125 32.859375 9.96875 
z
" id="DejaVuSans-Oblique-964"/>
     </defs>
     <use transform="translate(0 0.015625)" xlink:href="#DejaVuSans-Oblique-964"/>
     <use transform="translate(60.205078 0.015625)" xlink:href="#DejaVuSans-32"/>
     <use transform="translate(91.992188 0.015625)" xlink:href="#DejaVuSans-40"/>
     <use transform="translate(131.005859 0.015625)" xlink:href="#DejaVuSans-100"/>
     <use transform="translate(194.482422 0.015625)" xlink:href="#DejaVuSans-97"/>
     <use transform="translate(255.761719 0.015625)" xlink:href="#DejaVuSans-121"/>
     <use transform="translate(314.941406 0.015625)" xlink:href="#DejaVuSans-32"/>
     <use transform="translate(346.728516 0.015625)" xlink:href="#DejaVuSans-99"/>
     <use transform="translate(401.708984 0.015625)" xlink:href="#DejaVuSans-104"/>
     <use transform="translate(465.087891 0.015625)" xlink:href="#DejaVuSans-97"/>
     <use transform="translate(526.367188 0.015625)" xlink:href="#DejaVuSans-110"/>
     <use transform="translate(589.746094 0.015625)" xlink:href="#DejaVuSans-103"/>
     <use transform="translate(653.222656 0.015625)" xlink:href="#DejaVuSans-101"/>
     <use transform="translate(714.746094 0.015625)" xlink:href="#DejaVuSans-41"/>
    </g>
   </g>
  </g>
 </g>
 <defs>
  <clipPath id="p9aa75fa039">
   <rect height="271.8" width="202.909091" x="72" y="43.2"/>
  </clipPath>
  <clipPath id="pca736e9e9f">
   <rect height="271.8" width="202.909091" x="315.490909" y="43.2"/>
  </clipPath>
 </defs>
</svg>
