<?xml version="1.0" encoding="utf-8" standalone="no"?>
<!DOCTYPE svg PUBLIC "-//W3C//DTD SVG 1.1//EN"
  "http://www.w3.org/Graphics/SVG/1.1/DTD/svg11.dtd">
<!-- Created with matplotlib (https://matplotlib.org/) -->
<svg height="360pt" version="1.1" viewBox="0 0 360 360" width="360pt" xmlns="http://www.w3.org/2000/svg" xmlns:xlink="http://www.w3.org/1999/xlink">
 <metadata>
  <rdf:RDF xmlns:cc="http://creativecommons.org/ns#" xmlns:dc="http://purl.org/dc/elements/1.1/" xmlns:rdf="http://www.w3.org/1999/02/22-rdf-syntax-ns#">
   <cc:Work>
    <dc:type rdf:resource="http://purl.org/dc/dcmitype/StillImage"/>
    <dc:date>2022-01-10T18:56:34.923161</dc:date>
    <dc:format>image/svg+xml</dc:format>
    <dc:creator>
     <cc:Agent>
      <dc:title>Matplotlib v3.3.2, https://matplotlib.org/</dc:title>
     </cc:Agent>
    </dc:creator>
   </cc:Work>
  </rdf:RDF>
 </metadata>
 <defs>
  <style type="text/css">*{stroke-linecap:butt;stroke-linejoin:round;}</style>
 </defs>
 <g id="figure_1">
  <g id="patch_1">
   <path d="M 0 360 
L 360 360 
L 360 0 
L 0 0 
z
" style="fill:none;"/>
  </g>
  <g id="axes_1">
   <g id="patch_2">
    <path d="M 45 315 
L 324 315 
L 324 43.2 
L 45 43.2 
z
" style="fill:#ffffff;"/>
   </g>
   <g id="PolyCollection_1">
    <defs>
     <path d="M 210.558531 -57.354545 
L 203.609589 -57.354545 
L 203.609589 -304.445455 
L 210.558531 -304.445455 
L 210.558531 -304.445455 
L 210.558531 -57.354545 
z
" id="m137e3a673b" style="stroke:#ff7f0e;stroke-opacity:0.35;"/>
    </defs>
    <g clip-path="url(#p1b05425ec0)">
     <use style="fill:#ff7f0e;fill-opacity:0.35;stroke:#ff7f0e;stroke-opacity:0.35;" x="0" xlink:href="#m137e3a673b" y="360"/>
    </g>
   </g>
   <g id="PolyCollection_2">
    <defs>
     <path d="M 57.681818 -122.691292 
L 57.681818 -114.045723 
L 61.156289 -114.045723 
L 64.63076 -114.045723 
L 68.10523 -114.045723 
L 71.579701 -114.045723 
L 75.054172 -114.045723 
L 78.528643 -114.045723 
L 82.003113 -114.045723 
L 85.477584 -114.045723 
L 88.952055 -114.045723 
L 92.426526 -114.045723 
L 95.900996 -114.045723 
L 99.375467 -114.045723 
L 102.849938 -114.045723 
L 106.324408 -114.045723 
L 109.798879 -114.045723 
L 113.27335 -114.045723 
L 116.747821 -114.045723 
L 120.222291 -114.045723 
L 123.696762 -114.045723 
L 127.171233 -114.045723 
L 130.645704 -114.045723 
L 134.120174 -114.045723 
L 137.594645 -114.045723 
L 141.069116 -114.045723 
L 144.543587 -114.045723 
L 148.018057 -114.045723 
L 151.492528 -114.045723 
L 154.966999 -114.045723 
L 158.441469 -114.045723 
L 161.91594 -114.045723 
L 165.390411 -114.045723 
L 168.864882 -114.045723 
L 172.339352 -114.045723 
L 175.813823 -114.045723 
L 179.288294 -114.045723 
L 182.762765 -114.045723 
L 186.237235 -114.045723 
L 189.711706 -114.045723 
L 193.186177 -114.045723 
L 196.660648 -114.045822 
L 200.135118 -114.079546 
L 203.609589 -114.194718 
L 207.08406 -114.812413 
L 210.558531 -129.255827 
L 214.033001 -129.261177 
L 217.507472 -129.261177 
L 220.981943 -129.261177 
L 224.456413 -129.261177 
L 227.930884 -129.261177 
L 231.405355 -129.261177 
L 234.879826 -129.261177 
L 238.354296 -129.261177 
L 241.828767 -129.261177 
L 245.303238 -129.261177 
L 248.777709 -129.261177 
L 252.252179 -129.261177 
L 255.72665 -129.261177 
L 259.201121 -129.261177 
L 262.675592 -129.261177 
L 266.150062 -129.261177 
L 269.624533 -129.261177 
L 273.099004 -129.261177 
L 276.573474 -129.261177 
L 280.047945 -129.261177 
L 283.522416 -129.261177 
L 286.996887 -129.261177 
L 290.471357 -129.261177 
L 293.945828 -129.261177 
L 297.420299 -129.261177 
L 300.89477 -129.261177 
L 304.36924 -129.261177 
L 307.843711 -129.261177 
L 311.318182 -129.261177 
L 311.318182 -141.498399 
L 311.318182 -141.498399 
L 307.843711 -141.498399 
L 304.36924 -141.498399 
L 300.89477 -141.498399 
L 297.420299 -141.498399 
L 293.945828 -141.498399 
L 290.471357 -141.498399 
L 286.996887 -141.498399 
L 283.522416 -141.498399 
L 280.047945 -141.498399 
L 276.573474 -141.498399 
L 273.099004 -141.498399 
L 269.624533 -141.498399 
L 266.150062 -141.498399 
L 262.675592 -141.498399 
L 259.201121 -141.498399 
L 255.72665 -141.498399 
L 252.252179 -141.498399 
L 248.777709 -141.498399 
L 245.303238 -141.498399 
L 241.828767 -141.498399 
L 238.354296 -141.498399 
L 234.879826 -141.498399 
L 231.405355 -141.498399 
L 227.930884 -141.498399 
L 224.456413 -141.498399 
L 220.981943 -141.498399 
L 217.507472 -141.498399 
L 214.033001 -141.498399 
L 210.558531 -141.498399 
L 207.08406 -140.188447 
L 203.609589 -137.04885 
L 200.135118 -132.290281 
L 196.660648 -122.729688 
L 193.186177 -122.692317 
L 189.711706 -122.691292 
L 186.237235 -122.691292 
L 182.762765 -122.691292 
L 179.288294 -122.691292 
L 175.813823 -122.691292 
L 172.339352 -122.691292 
L 168.864882 -122.691292 
L 165.390411 -122.691292 
L 161.91594 -122.691292 
L 158.441469 -122.691292 
L 154.966999 -122.691292 
L 151.492528 -122.691292 
L 148.018057 -122.691292 
L 144.543587 -122.691292 
L 141.069116 -122.691292 
L 137.594645 -122.691292 
L 134.120174 -122.691292 
L 130.645704 -122.691292 
L 127.171233 -122.691292 
L 123.696762 -122.691292 
L 120.222291 -122.691292 
L 116.747821 -122.691292 
L 113.27335 -122.691292 
L 109.798879 -122.691292 
L 106.324408 -122.691292 
L 102.849938 -122.691292 
L 99.375467 -122.691292 
L 95.900996 -122.691292 
L 92.426526 -122.691292 
L 88.952055 -122.691292 
L 85.477584 -122.691292 
L 82.003113 -122.691292 
L 78.528643 -122.691292 
L 75.054172 -122.691292 
L 71.579701 -122.691292 
L 68.10523 -122.691292 
L 64.63076 -122.691292 
L 61.156289 -122.691292 
L 57.681818 -122.691292 
z
" id="m2ba1e1017b" style="stroke:#000000;stroke-opacity:0.25;"/>
    </defs>
    <g clip-path="url(#p1b05425ec0)">
     <use style="fill-opacity:0.25;stroke:#000000;stroke-opacity:0.25;" x="0" xlink:href="#m2ba1e1017b" y="360"/>
    </g>
   </g>
   <g id="matplotlib.axis_1">
    <g id="xtick_1">
     <g id="line2d_1">
      <defs>
       <path d="M 0 0 
L 0 3.5 
" id="ma053731343" style="stroke:#000000;stroke-width:0.8;"/>
      </defs>
      <g>
       <use style="stroke:#000000;stroke-width:0.8;" x="54.207347" xlink:href="#ma053731343" y="315"/>
      </g>
     </g>
     <g id="text_1">
      <!-- 0 -->
      <g transform="translate(51.026097 329.598437)scale(0.1 -0.1)">
       <defs>
        <path d="M 31.78125 66.40625 
Q 24.171875 66.40625 20.328125 58.90625 
Q 16.5 51.421875 16.5 36.375 
Q 16.5 21.390625 20.328125 13.890625 
Q 24.171875 6.390625 31.78125 6.390625 
Q 39.453125 6.390625 43.28125 13.890625 
Q 47.125 21.390625 47.125 36.375 
Q 47.125 51.421875 43.28125 58.90625 
Q 39.453125 66.40625 31.78125 66.40625 
z
M 31.78125 74.21875 
Q 44.046875 74.21875 50.515625 64.515625 
Q 56.984375 54.828125 56.984375 36.375 
Q 56.984375 17.96875 50.515625 8.265625 
Q 44.046875 -1.421875 31.78125 -1.421875 
Q 19.53125 -1.421875 13.0625 8.265625 
Q 6.59375 17.96875 6.59375 36.375 
Q 6.59375 54.828125 13.0625 64.515625 
Q 19.53125 74.21875 31.78125 74.21875 
z
" id="DejaVuSans-48"/>
       </defs>
       <use xlink:href="#DejaVuSans-48"/>
      </g>
     </g>
    </g>
    <g id="xtick_2">
     <g id="line2d_2">
      <g>
       <use style="stroke:#000000;stroke-width:0.8;" x="88.952055" xlink:href="#ma053731343" y="315"/>
      </g>
     </g>
     <g id="text_2">
      <!-- 10 -->
      <g transform="translate(82.589555 329.598437)scale(0.1 -0.1)">
       <defs>
        <path d="M 12.40625 8.296875 
L 28.515625 8.296875 
L 28.515625 63.921875 
L 10.984375 60.40625 
L 10.984375 69.390625 
L 28.421875 72.90625 
L 38.28125 72.90625 
L 38.28125 8.296875 
L 54.390625 8.296875 
L 54.390625 0 
L 12.40625 0 
z
" id="DejaVuSans-49"/>
       </defs>
       <use xlink:href="#DejaVuSans-49"/>
       <use x="63.623047" xlink:href="#DejaVuSans-48"/>
      </g>
     </g>
    </g>
    <g id="xtick_3">
     <g id="line2d_3">
      <g>
       <use style="stroke:#000000;stroke-width:0.8;" x="123.696762" xlink:href="#ma053731343" y="315"/>
      </g>
     </g>
     <g id="text_3">
      <!-- 20 -->
      <g transform="translate(117.334262 329.598437)scale(0.1 -0.1)">
       <defs>
        <path d="M 19.1875 8.296875 
L 53.609375 8.296875 
L 53.609375 0 
L 7.328125 0 
L 7.328125 8.296875 
Q 12.9375 14.109375 22.625 23.890625 
Q 32.328125 33.6875 34.8125 36.53125 
Q 39.546875 41.84375 41.421875 45.53125 
Q 43.3125 49.21875 43.3125 52.78125 
Q 43.3125 58.59375 39.234375 62.25 
Q 35.15625 65.921875 28.609375 65.921875 
Q 23.96875 65.921875 18.8125 64.3125 
Q 13.671875 62.703125 7.8125 59.421875 
L 7.8125 69.390625 
Q 13.765625 71.78125 18.9375 73 
Q 24.125 74.21875 28.421875 74.21875 
Q 39.75 74.21875 46.484375 68.546875 
Q 53.21875 62.890625 53.21875 53.421875 
Q 53.21875 48.921875 51.53125 44.890625 
Q 49.859375 40.875 45.40625 35.40625 
Q 44.1875 33.984375 37.640625 27.21875 
Q 31.109375 20.453125 19.1875 8.296875 
z
" id="DejaVuSans-50"/>
       </defs>
       <use xlink:href="#DejaVuSans-50"/>
       <use x="63.623047" xlink:href="#DejaVuSans-48"/>
      </g>
     </g>
    </g>
    <g id="xtick_4">
     <g id="line2d_4">
      <g>
       <use style="stroke:#000000;stroke-width:0.8;" x="158.441469" xlink:href="#ma053731343" y="315"/>
      </g>
     </g>
     <g id="text_4">
      <!-- 30 -->
      <g transform="translate(152.078969 329.598437)scale(0.1 -0.1)">
       <defs>
        <path d="M 40.578125 39.3125 
Q 47.65625 37.796875 51.625 33 
Q 55.609375 28.21875 55.609375 21.1875 
Q 55.609375 10.40625 48.1875 4.484375 
Q 40.765625 -1.421875 27.09375 -1.421875 
Q 22.515625 -1.421875 17.65625 -0.515625 
Q 12.796875 0.390625 7.625 2.203125 
L 7.625 11.71875 
Q 11.71875 9.328125 16.59375 8.109375 
Q 21.484375 6.890625 26.8125 6.890625 
Q 36.078125 6.890625 40.9375 10.546875 
Q 45.796875 14.203125 45.796875 21.1875 
Q 45.796875 27.640625 41.28125 31.265625 
Q 36.765625 34.90625 28.71875 34.90625 
L 20.21875 34.90625 
L 20.21875 43.015625 
L 29.109375 43.015625 
Q 36.375 43.015625 40.234375 45.921875 
Q 44.09375 48.828125 44.09375 54.296875 
Q 44.09375 59.90625 40.109375 62.90625 
Q 36.140625 65.921875 28.71875 65.921875 
Q 24.65625 65.921875 20.015625 65.03125 
Q 15.375 64.15625 9.8125 62.3125 
L 9.8125 71.09375 
Q 15.4375 72.65625 20.34375 73.4375 
Q 25.25 74.21875 29.59375 74.21875 
Q 40.828125 74.21875 47.359375 69.109375 
Q 53.90625 64.015625 53.90625 55.328125 
Q 53.90625 49.265625 50.4375 45.09375 
Q 46.96875 40.921875 40.578125 39.3125 
z
" id="DejaVuSans-51"/>
       </defs>
       <use xlink:href="#DejaVuSans-51"/>
       <use x="63.623047" xlink:href="#DejaVuSans-48"/>
      </g>
     </g>
    </g>
    <g id="xtick_5">
     <g id="line2d_5">
      <g>
       <use style="stroke:#000000;stroke-width:0.8;" x="193.186177" xlink:href="#ma053731343" y="315"/>
      </g>
     </g>
     <g id="text_5">
      <!-- 40 -->
      <g transform="translate(186.823677 329.598437)scale(0.1 -0.1)">
       <defs>
        <path d="M 37.796875 64.3125 
L 12.890625 25.390625 
L 37.796875 25.390625 
z
M 35.203125 72.90625 
L 47.609375 72.90625 
L 47.609375 25.390625 
L 58.015625 25.390625 
L 58.015625 17.1875 
L 47.609375 17.1875 
L 47.609375 0 
L 37.796875 0 
L 37.796875 17.1875 
L 4.890625 17.1875 
L 4.890625 26.703125 
z
" id="DejaVuSans-52"/>
       </defs>
       <use xlink:href="#DejaVuSans-52"/>
       <use x="63.623047" xlink:href="#DejaVuSans-48"/>
      </g>
     </g>
    </g>
    <g id="xtick_6">
     <g id="line2d_6">
      <g>
       <use style="stroke:#000000;stroke-width:0.8;" x="227.930884" xlink:href="#ma053731343" y="315"/>
      </g>
     </g>
     <g id="text_6">
      <!-- 50 -->
      <g transform="translate(221.568384 329.598437)scale(0.1 -0.1)">
       <defs>
        <path d="M 10.796875 72.90625 
L 49.515625 72.90625 
L 49.515625 64.59375 
L 19.828125 64.59375 
L 19.828125 46.734375 
Q 21.96875 47.46875 24.109375 47.828125 
Q 26.265625 48.1875 28.421875 48.1875 
Q 40.625 48.1875 47.75 41.5 
Q 54.890625 34.8125 54.890625 23.390625 
Q 54.890625 11.625 47.5625 5.09375 
Q 40.234375 -1.421875 26.90625 -1.421875 
Q 22.3125 -1.421875 17.546875 -0.640625 
Q 12.796875 0.140625 7.71875 1.703125 
L 7.71875 11.625 
Q 12.109375 9.234375 16.796875 8.0625 
Q 21.484375 6.890625 26.703125 6.890625 
Q 35.15625 6.890625 40.078125 11.328125 
Q 45.015625 15.765625 45.015625 23.390625 
Q 45.015625 31 40.078125 35.4375 
Q 35.15625 39.890625 26.703125 39.890625 
Q 22.75 39.890625 18.8125 39.015625 
Q 14.890625 38.140625 10.796875 36.28125 
z
" id="DejaVuSans-53"/>
       </defs>
       <use xlink:href="#DejaVuSans-53"/>
       <use x="63.623047" xlink:href="#DejaVuSans-48"/>
      </g>
     </g>
    </g>
    <g id="xtick_7">
     <g id="line2d_7">
      <g>
       <use style="stroke:#000000;stroke-width:0.8;" x="262.675592" xlink:href="#ma053731343" y="315"/>
      </g>
     </g>
     <g id="text_7">
      <!-- 60 -->
      <g transform="translate(256.313092 329.598437)scale(0.1 -0.1)">
       <defs>
        <path d="M 33.015625 40.375 
Q 26.375 40.375 22.484375 35.828125 
Q 18.609375 31.296875 18.609375 23.390625 
Q 18.609375 15.53125 22.484375 10.953125 
Q 26.375 6.390625 33.015625 6.390625 
Q 39.65625 6.390625 43.53125 10.953125 
Q 47.40625 15.53125 47.40625 23.390625 
Q 47.40625 31.296875 43.53125 35.828125 
Q 39.65625 40.375 33.015625 40.375 
z
M 52.59375 71.296875 
L 52.59375 62.3125 
Q 48.875 64.0625 45.09375 64.984375 
Q 41.3125 65.921875 37.59375 65.921875 
Q 27.828125 65.921875 22.671875 59.328125 
Q 17.53125 52.734375 16.796875 39.40625 
Q 19.671875 43.65625 24.015625 45.921875 
Q 28.375 48.1875 33.59375 48.1875 
Q 44.578125 48.1875 50.953125 41.515625 
Q 57.328125 34.859375 57.328125 23.390625 
Q 57.328125 12.15625 50.6875 5.359375 
Q 44.046875 -1.421875 33.015625 -1.421875 
Q 20.359375 -1.421875 13.671875 8.265625 
Q 6.984375 17.96875 6.984375 36.375 
Q 6.984375 53.65625 15.1875 63.9375 
Q 23.390625 74.21875 37.203125 74.21875 
Q 40.921875 74.21875 44.703125 73.484375 
Q 48.484375 72.75 52.59375 71.296875 
z
" id="DejaVuSans-54"/>
       </defs>
       <use xlink:href="#DejaVuSans-54"/>
       <use x="63.623047" xlink:href="#DejaVuSans-48"/>
      </g>
     </g>
    </g>
    <g id="xtick_8">
     <g id="line2d_8">
      <g>
       <use style="stroke:#000000;stroke-width:0.8;" x="297.420299" xlink:href="#ma053731343" y="315"/>
      </g>
     </g>
     <g id="text_8">
      <!-- 70 -->
      <g transform="translate(291.057799 329.598437)scale(0.1 -0.1)">
       <defs>
        <path d="M 8.203125 72.90625 
L 55.078125 72.90625 
L 55.078125 68.703125 
L 28.609375 0 
L 18.3125 0 
L 43.21875 64.59375 
L 8.203125 64.59375 
z
" id="DejaVuSans-55"/>
       </defs>
       <use xlink:href="#DejaVuSans-55"/>
       <use x="63.623047" xlink:href="#DejaVuSans-48"/>
      </g>
     </g>
    </g>
    <g id="text_9">
     <!-- Day -->
     <g transform="translate(168.7025 347.835625)scale(0.16 -0.16)">
      <defs>
       <path d="M 19.671875 64.796875 
L 19.671875 8.109375 
L 31.59375 8.109375 
Q 46.6875 8.109375 53.6875 14.9375 
Q 60.6875 21.78125 60.6875 36.53125 
Q 60.6875 51.171875 53.6875 57.984375 
Q 46.6875 64.796875 31.59375 64.796875 
z
M 9.8125 72.90625 
L 30.078125 72.90625 
Q 51.265625 72.90625 61.171875 64.09375 
Q 71.09375 55.28125 71.09375 36.53125 
Q 71.09375 17.671875 61.125 8.828125 
Q 51.171875 0 30.078125 0 
L 9.8125 0 
z
" id="DejaVuSans-68"/>
       <path d="M 34.28125 27.484375 
Q 23.390625 27.484375 19.1875 25 
Q 14.984375 22.515625 14.984375 16.5 
Q 14.984375 11.71875 18.140625 8.90625 
Q 21.296875 6.109375 26.703125 6.109375 
Q 34.1875 6.109375 38.703125 11.40625 
Q 43.21875 16.703125 43.21875 25.484375 
L 43.21875 27.484375 
z
M 52.203125 31.203125 
L 52.203125 0 
L 43.21875 0 
L 43.21875 8.296875 
Q 40.140625 3.328125 35.546875 0.953125 
Q 30.953125 -1.421875 24.3125 -1.421875 
Q 15.921875 -1.421875 10.953125 3.296875 
Q 6 8.015625 6 15.921875 
Q 6 25.140625 12.171875 29.828125 
Q 18.359375 34.515625 30.609375 34.515625 
L 43.21875 34.515625 
L 43.21875 35.40625 
Q 43.21875 41.609375 39.140625 45 
Q 35.0625 48.390625 27.6875 48.390625 
Q 23 48.390625 18.546875 47.265625 
Q 14.109375 46.140625 10.015625 43.890625 
L 10.015625 52.203125 
Q 14.9375 54.109375 19.578125 55.046875 
Q 24.21875 56 28.609375 56 
Q 40.484375 56 46.34375 49.84375 
Q 52.203125 43.703125 52.203125 31.203125 
z
" id="DejaVuSans-97"/>
       <path d="M 32.171875 -5.078125 
Q 28.375 -14.84375 24.75 -17.8125 
Q 21.140625 -20.796875 15.09375 -20.796875 
L 7.90625 -20.796875 
L 7.90625 -13.28125 
L 13.1875 -13.28125 
Q 16.890625 -13.28125 18.9375 -11.515625 
Q 21 -9.765625 23.484375 -3.21875 
L 25.09375 0.875 
L 2.984375 54.6875 
L 12.5 54.6875 
L 29.59375 11.921875 
L 46.6875 54.6875 
L 56.203125 54.6875 
z
" id="DejaVuSans-121"/>
      </defs>
      <use xlink:href="#DejaVuSans-68"/>
      <use x="77.001953" xlink:href="#DejaVuSans-97"/>
      <use x="138.28125" xlink:href="#DejaVuSans-121"/>
     </g>
    </g>
   </g>
   <g id="matplotlib.axis_2">
    <g id="ytick_1">
     <g id="line2d_9">
      <defs>
       <path d="M 0 0 
L -3.5 0 
" id="mea0103146d" style="stroke:#000000;stroke-width:0.8;"/>
      </defs>
      <g>
       <use style="stroke:#000000;stroke-width:0.8;" x="45" xlink:href="#mea0103146d" y="302.645455"/>
      </g>
     </g>
     <g id="text_10">
      <!-- 0 -->
      <g transform="translate(31.6375 306.444673)scale(0.1 -0.1)">
       <use xlink:href="#DejaVuSans-48"/>
      </g>
     </g>
    </g>
    <g id="ytick_2">
     <g id="line2d_10">
      <g>
       <use style="stroke:#000000;stroke-width:0.8;" x="45" xlink:href="#mea0103146d" y="268.327273"/>
      </g>
     </g>
     <g id="text_11">
      <!-- 10 -->
      <g transform="translate(25.275 272.126491)scale(0.1 -0.1)">
       <use xlink:href="#DejaVuSans-49"/>
       <use x="63.623047" xlink:href="#DejaVuSans-48"/>
      </g>
     </g>
    </g>
    <g id="ytick_3">
     <g id="line2d_11">
      <g>
       <use style="stroke:#000000;stroke-width:0.8;" x="45" xlink:href="#mea0103146d" y="234.009091"/>
      </g>
     </g>
     <g id="text_12">
      <!-- 20 -->
      <g transform="translate(25.275 237.80831)scale(0.1 -0.1)">
       <use xlink:href="#DejaVuSans-50"/>
       <use x="63.623047" xlink:href="#DejaVuSans-48"/>
      </g>
     </g>
    </g>
    <g id="ytick_4">
     <g id="line2d_12">
      <g>
       <use style="stroke:#000000;stroke-width:0.8;" x="45" xlink:href="#mea0103146d" y="199.690909"/>
      </g>
     </g>
     <g id="text_13">
      <!-- 30 -->
      <g transform="translate(25.275 203.490128)scale(0.1 -0.1)">
       <use xlink:href="#DejaVuSans-51"/>
       <use x="63.623047" xlink:href="#DejaVuSans-48"/>
      </g>
     </g>
    </g>
    <g id="ytick_5">
     <g id="line2d_13">
      <g>
       <use style="stroke:#000000;stroke-width:0.8;" x="45" xlink:href="#mea0103146d" y="165.372727"/>
      </g>
     </g>
     <g id="text_14">
      <!-- 40 -->
      <g transform="translate(25.275 169.171946)scale(0.1 -0.1)">
       <use xlink:href="#DejaVuSans-52"/>
       <use x="63.623047" xlink:href="#DejaVuSans-48"/>
      </g>
     </g>
    </g>
    <g id="ytick_6">
     <g id="line2d_14">
      <g>
       <use style="stroke:#000000;stroke-width:0.8;" x="45" xlink:href="#mea0103146d" y="131.054545"/>
      </g>
     </g>
     <g id="text_15">
      <!-- 50 -->
      <g transform="translate(25.275 134.853764)scale(0.1 -0.1)">
       <use xlink:href="#DejaVuSans-53"/>
       <use x="63.623047" xlink:href="#DejaVuSans-48"/>
      </g>
     </g>
    </g>
    <g id="ytick_7">
     <g id="line2d_15">
      <g>
       <use style="stroke:#000000;stroke-width:0.8;" x="45" xlink:href="#mea0103146d" y="96.736364"/>
      </g>
     </g>
     <g id="text_16">
      <!-- 60 -->
      <g transform="translate(25.275 100.535582)scale(0.1 -0.1)">
       <use xlink:href="#DejaVuSans-54"/>
       <use x="63.623047" xlink:href="#DejaVuSans-48"/>
      </g>
     </g>
    </g>
    <g id="ytick_8">
     <g id="line2d_16">
      <g>
       <use style="stroke:#000000;stroke-width:0.8;" x="45" xlink:href="#mea0103146d" y="62.418182"/>
      </g>
     </g>
     <g id="text_17">
      <!-- 70 -->
      <g transform="translate(25.275 66.217401)scale(0.1 -0.1)">
       <use xlink:href="#DejaVuSans-55"/>
       <use x="63.623047" xlink:href="#DejaVuSans-48"/>
      </g>
     </g>
    </g>
    <g id="text_18">
     <!-- Msg. count -->
     <g transform="translate(17.9475 222.90375)rotate(-90)scale(0.16 -0.16)">
      <defs>
       <path d="M 9.8125 72.90625 
L 24.515625 72.90625 
L 43.109375 23.296875 
L 61.8125 72.90625 
L 76.515625 72.90625 
L 76.515625 0 
L 66.890625 0 
L 66.890625 64.015625 
L 48.09375 14.015625 
L 38.1875 14.015625 
L 19.390625 64.015625 
L 19.390625 0 
L 9.8125 0 
z
" id="DejaVuSans-77"/>
       <path d="M 44.28125 53.078125 
L 44.28125 44.578125 
Q 40.484375 46.53125 36.375 47.5 
Q 32.28125 48.484375 27.875 48.484375 
Q 21.1875 48.484375 17.84375 46.4375 
Q 14.5 44.390625 14.5 40.28125 
Q 14.5 37.15625 16.890625 35.375 
Q 19.28125 33.59375 26.515625 31.984375 
L 29.59375 31.296875 
Q 39.15625 29.25 43.1875 25.515625 
Q 47.21875 21.78125 47.21875 15.09375 
Q 47.21875 7.46875 41.1875 3.015625 
Q 35.15625 -1.421875 24.609375 -1.421875 
Q 20.21875 -1.421875 15.453125 -0.5625 
Q 10.6875 0.296875 5.421875 2 
L 5.421875 11.28125 
Q 10.40625 8.6875 15.234375 7.390625 
Q 20.0625 6.109375 24.8125 6.109375 
Q 31.15625 6.109375 34.5625 8.28125 
Q 37.984375 10.453125 37.984375 14.40625 
Q 37.984375 18.0625 35.515625 20.015625 
Q 33.0625 21.96875 24.703125 23.78125 
L 21.578125 24.515625 
Q 13.234375 26.265625 9.515625 29.90625 
Q 5.8125 33.546875 5.8125 39.890625 
Q 5.8125 47.609375 11.28125 51.796875 
Q 16.75 56 26.8125 56 
Q 31.78125 56 36.171875 55.265625 
Q 40.578125 54.546875 44.28125 53.078125 
z
" id="DejaVuSans-115"/>
       <path d="M 45.40625 27.984375 
Q 45.40625 37.75 41.375 43.109375 
Q 37.359375 48.484375 30.078125 48.484375 
Q 22.859375 48.484375 18.828125 43.109375 
Q 14.796875 37.75 14.796875 27.984375 
Q 14.796875 18.265625 18.828125 12.890625 
Q 22.859375 7.515625 30.078125 7.515625 
Q 37.359375 7.515625 41.375 12.890625 
Q 45.40625 18.265625 45.40625 27.984375 
z
M 54.390625 6.78125 
Q 54.390625 -7.171875 48.1875 -13.984375 
Q 42 -20.796875 29.203125 -20.796875 
Q 24.46875 -20.796875 20.265625 -20.09375 
Q 16.0625 -19.390625 12.109375 -17.921875 
L 12.109375 -9.1875 
Q 16.0625 -11.328125 19.921875 -12.34375 
Q 23.78125 -13.375 27.78125 -13.375 
Q 36.625 -13.375 41.015625 -8.765625 
Q 45.40625 -4.15625 45.40625 5.171875 
L 45.40625 9.625 
Q 42.625 4.78125 38.28125 2.390625 
Q 33.9375 0 27.875 0 
Q 17.828125 0 11.671875 7.65625 
Q 5.515625 15.328125 5.515625 27.984375 
Q 5.515625 40.671875 11.671875 48.328125 
Q 17.828125 56 27.875 56 
Q 33.9375 56 38.28125 53.609375 
Q 42.625 51.21875 45.40625 46.390625 
L 45.40625 54.6875 
L 54.390625 54.6875 
z
" id="DejaVuSans-103"/>
       <path d="M 10.6875 12.40625 
L 21 12.40625 
L 21 0 
L 10.6875 0 
z
" id="DejaVuSans-46"/>
       <path id="DejaVuSans-32"/>
       <path d="M 48.78125 52.59375 
L 48.78125 44.1875 
Q 44.96875 46.296875 41.140625 47.34375 
Q 37.3125 48.390625 33.40625 48.390625 
Q 24.65625 48.390625 19.8125 42.84375 
Q 14.984375 37.3125 14.984375 27.296875 
Q 14.984375 17.28125 19.8125 11.734375 
Q 24.65625 6.203125 33.40625 6.203125 
Q 37.3125 6.203125 41.140625 7.25 
Q 44.96875 8.296875 48.78125 10.40625 
L 48.78125 2.09375 
Q 45.015625 0.34375 40.984375 -0.53125 
Q 36.96875 -1.421875 32.421875 -1.421875 
Q 20.0625 -1.421875 12.78125 6.34375 
Q 5.515625 14.109375 5.515625 27.296875 
Q 5.515625 40.671875 12.859375 48.328125 
Q 20.21875 56 33.015625 56 
Q 37.15625 56 41.109375 55.140625 
Q 45.0625 54.296875 48.78125 52.59375 
z
" id="DejaVuSans-99"/>
       <path d="M 30.609375 48.390625 
Q 23.390625 48.390625 19.1875 42.75 
Q 14.984375 37.109375 14.984375 27.296875 
Q 14.984375 17.484375 19.15625 11.84375 
Q 23.34375 6.203125 30.609375 6.203125 
Q 37.796875 6.203125 41.984375 11.859375 
Q 46.1875 17.53125 46.1875 27.296875 
Q 46.1875 37.015625 41.984375 42.703125 
Q 37.796875 48.390625 30.609375 48.390625 
z
M 30.609375 56 
Q 42.328125 56 49.015625 48.375 
Q 55.71875 40.765625 55.71875 27.296875 
Q 55.71875 13.875 49.015625 6.21875 
Q 42.328125 -1.421875 30.609375 -1.421875 
Q 18.84375 -1.421875 12.171875 6.21875 
Q 5.515625 13.875 5.515625 27.296875 
Q 5.515625 40.765625 12.171875 48.375 
Q 18.84375 56 30.609375 56 
z
" id="DejaVuSans-111"/>
       <path d="M 8.5 21.578125 
L 8.5 54.6875 
L 17.484375 54.6875 
L 17.484375 21.921875 
Q 17.484375 14.15625 20.5 10.265625 
Q 23.53125 6.390625 29.59375 6.390625 
Q 36.859375 6.390625 41.078125 11.03125 
Q 45.3125 15.671875 45.3125 23.6875 
L 45.3125 54.6875 
L 54.296875 54.6875 
L 54.296875 0 
L 45.3125 0 
L 45.3125 8.40625 
Q 42.046875 3.421875 37.71875 1 
Q 33.40625 -1.421875 27.6875 -1.421875 
Q 18.265625 -1.421875 13.375 4.4375 
Q 8.5 10.296875 8.5 21.578125 
z
M 31.109375 56 
z
" id="DejaVuSans-117"/>
       <path d="M 54.890625 33.015625 
L 54.890625 0 
L 45.90625 0 
L 45.90625 32.71875 
Q 45.90625 40.484375 42.875 44.328125 
Q 39.84375 48.1875 33.796875 48.1875 
Q 26.515625 48.1875 22.3125 43.546875 
Q 18.109375 38.921875 18.109375 30.90625 
L 18.109375 0 
L 9.078125 0 
L 9.078125 54.6875 
L 18.109375 54.6875 
L 18.109375 46.1875 
Q 21.34375 51.125 25.703125 53.5625 
Q 30.078125 56 35.796875 56 
Q 45.21875 56 50.046875 50.171875 
Q 54.890625 44.34375 54.890625 33.015625 
z
" id="DejaVuSans-110"/>
       <path d="M 18.3125 70.21875 
L 18.3125 54.6875 
L 36.8125 54.6875 
L 36.8125 47.703125 
L 18.3125 47.703125 
L 18.3125 18.015625 
Q 18.3125 11.328125 20.140625 9.421875 
Q 21.96875 7.515625 27.59375 7.515625 
L 36.8125 7.515625 
L 36.8125 0 
L 27.59375 0 
Q 17.1875 0 13.234375 3.875 
Q 9.28125 7.765625 9.28125 18.015625 
L 9.28125 47.703125 
L 2.6875 47.703125 
L 2.6875 54.6875 
L 9.28125 54.6875 
L 9.28125 70.21875 
z
" id="DejaVuSans-116"/>
      </defs>
      <use xlink:href="#DejaVuSans-77"/>
      <use x="86.279297" xlink:href="#DejaVuSans-115"/>
      <use x="138.378906" xlink:href="#DejaVuSans-103"/>
      <use x="201.855469" xlink:href="#DejaVuSans-46"/>
      <use x="233.642578" xlink:href="#DejaVuSans-32"/>
      <use x="265.429688" xlink:href="#DejaVuSans-99"/>
      <use x="320.410156" xlink:href="#DejaVuSans-111"/>
      <use x="381.591797" xlink:href="#DejaVuSans-117"/>
      <use x="444.970703" xlink:href="#DejaVuSans-110"/>
      <use x="508.349609" xlink:href="#DejaVuSans-116"/>
     </g>
    </g>
   </g>
   <g id="LineCollection_1">
    <path clip-path="url(#p1b05425ec0)" d="M 208.091396 302.645455 
L 208.091396 55.554545 
" style="fill:none;stroke:#ff7f0e;stroke-width:1.5;"/>
   </g>
   <g id="line2d_17">
    <defs>
     <path d="M 0 1.5 
C 0.397805 1.5 0.77937 1.341951 1.06066 1.06066 
C 1.341951 0.77937 1.5 0.397805 1.5 0 
C 1.5 -0.397805 1.341951 -0.77937 1.06066 -1.06066 
C 0.77937 -1.341951 0.397805 -1.5 0 -1.5 
C -0.397805 -1.5 -0.77937 -1.341951 -1.06066 -1.06066 
C -1.341951 -0.77937 -1.5 -0.397805 -1.5 0 
C -1.5 0.397805 -1.341951 0.77937 -1.06066 1.06066 
C -0.77937 1.341951 -0.397805 1.5 0 1.5 
z
" id="m8e334331e8" style="stroke:#1f77b4;"/>
    </defs>
    <g clip-path="url(#p1b05425ec0)">
     <use style="fill:#1f77b4;stroke:#1f77b4;" x="57.681818" xlink:href="#m8e334331e8" y="258.031818"/>
     <use style="fill:#1f77b4;stroke:#1f77b4;" x="61.156289" xlink:href="#m8e334331e8" y="220.281818"/>
     <use style="fill:#1f77b4;stroke:#1f77b4;" x="64.63076" xlink:href="#m8e334331e8" y="275.190909"/>
     <use style="fill:#1f77b4;stroke:#1f77b4;" x="68.10523" xlink:href="#m8e334331e8" y="220.281818"/>
     <use style="fill:#1f77b4;stroke:#1f77b4;" x="71.579701" xlink:href="#m8e334331e8" y="278.622727"/>
     <use style="fill:#1f77b4;stroke:#1f77b4;" x="75.054172" xlink:href="#m8e334331e8" y="182.531818"/>
     <use style="fill:#1f77b4;stroke:#1f77b4;" x="78.528643" xlink:href="#m8e334331e8" y="254.6"/>
     <use style="fill:#1f77b4;stroke:#1f77b4;" x="82.003113" xlink:href="#m8e334331e8" y="264.895455"/>
     <use style="fill:#1f77b4;stroke:#1f77b4;" x="85.477584" xlink:href="#m8e334331e8" y="251.168182"/>
     <use style="fill:#1f77b4;stroke:#1f77b4;" x="88.952055" xlink:href="#m8e334331e8" y="264.895455"/>
     <use style="fill:#1f77b4;stroke:#1f77b4;" x="92.426526" xlink:href="#m8e334331e8" y="227.145455"/>
     <use style="fill:#1f77b4;stroke:#1f77b4;" x="95.900996" xlink:href="#m8e334331e8" y="227.145455"/>
     <use style="fill:#1f77b4;stroke:#1f77b4;" x="99.375467" xlink:href="#m8e334331e8" y="264.895455"/>
     <use style="fill:#1f77b4;stroke:#1f77b4;" x="102.849938" xlink:href="#m8e334331e8" y="107.031818"/>
     <use style="fill:#1f77b4;stroke:#1f77b4;" x="106.324408" xlink:href="#m8e334331e8" y="264.895455"/>
     <use style="fill:#1f77b4;stroke:#1f77b4;" x="109.798879" xlink:href="#m8e334331e8" y="237.440909"/>
     <use style="fill:#1f77b4;stroke:#1f77b4;" x="113.27335" xlink:href="#m8e334331e8" y="203.122727"/>
     <use style="fill:#1f77b4;stroke:#1f77b4;" x="116.747821" xlink:href="#m8e334331e8" y="282.054545"/>
     <use style="fill:#1f77b4;stroke:#1f77b4;" x="120.222291" xlink:href="#m8e334331e8" y="237.440909"/>
     <use style="fill:#1f77b4;stroke:#1f77b4;" x="123.696762" xlink:href="#m8e334331e8" y="261.463636"/>
     <use style="fill:#1f77b4;stroke:#1f77b4;" x="127.171233" xlink:href="#m8e334331e8" y="227.145455"/>
     <use style="fill:#1f77b4;stroke:#1f77b4;" x="130.645704" xlink:href="#m8e334331e8" y="261.463636"/>
     <use style="fill:#1f77b4;stroke:#1f77b4;" x="134.120174" xlink:href="#m8e334331e8" y="240.872727"/>
     <use style="fill:#1f77b4;stroke:#1f77b4;" x="137.594645" xlink:href="#m8e334331e8" y="55.554545"/>
     <use style="fill:#1f77b4;stroke:#1f77b4;" x="141.069116" xlink:href="#m8e334331e8" y="192.827273"/>
     <use style="fill:#1f77b4;stroke:#1f77b4;" x="144.543587" xlink:href="#m8e334331e8" y="271.759091"/>
     <use style="fill:#1f77b4;stroke:#1f77b4;" x="148.018057" xlink:href="#m8e334331e8" y="278.622727"/>
     <use style="fill:#1f77b4;stroke:#1f77b4;" x="151.492528" xlink:href="#m8e334331e8" y="258.031818"/>
     <use style="fill:#1f77b4;stroke:#1f77b4;" x="154.966999" xlink:href="#m8e334331e8" y="237.440909"/>
     <use style="fill:#1f77b4;stroke:#1f77b4;" x="158.441469" xlink:href="#m8e334331e8" y="223.713636"/>
     <use style="fill:#1f77b4;stroke:#1f77b4;" x="161.91594" xlink:href="#m8e334331e8" y="209.986364"/>
     <use style="fill:#1f77b4;stroke:#1f77b4;" x="165.390411" xlink:href="#m8e334331e8" y="234.009091"/>
     <use style="fill:#1f77b4;stroke:#1f77b4;" x="168.864882" xlink:href="#m8e334331e8" y="282.054545"/>
     <use style="fill:#1f77b4;stroke:#1f77b4;" x="172.339352" xlink:href="#m8e334331e8" y="244.304545"/>
     <use style="fill:#1f77b4;stroke:#1f77b4;" x="175.813823" xlink:href="#m8e334331e8" y="258.031818"/>
     <use style="fill:#1f77b4;stroke:#1f77b4;" x="179.288294" xlink:href="#m8e334331e8" y="268.327273"/>
     <use style="fill:#1f77b4;stroke:#1f77b4;" x="182.762765" xlink:href="#m8e334331e8" y="254.6"/>
     <use style="fill:#1f77b4;stroke:#1f77b4;" x="186.237235" xlink:href="#m8e334331e8" y="282.054545"/>
     <use style="fill:#1f77b4;stroke:#1f77b4;" x="189.711706" xlink:href="#m8e334331e8" y="247.736364"/>
     <use style="fill:#1f77b4;stroke:#1f77b4;" x="193.186177" xlink:href="#m8e334331e8" y="251.168182"/>
     <use style="fill:#1f77b4;stroke:#1f77b4;" x="196.660648" xlink:href="#m8e334331e8" y="278.622727"/>
     <use style="fill:#1f77b4;stroke:#1f77b4;" x="200.135118" xlink:href="#m8e334331e8" y="295.781818"/>
     <use style="fill:#1f77b4;stroke:#1f77b4;" x="203.609589" xlink:href="#m8e334331e8" y="251.168182"/>
     <use style="fill:#1f77b4;stroke:#1f77b4;" x="207.08406" xlink:href="#m8e334331e8" y="251.168182"/>
     <use style="fill:#1f77b4;stroke:#1f77b4;" x="210.558531" xlink:href="#m8e334331e8" y="237.440909"/>
     <use style="fill:#1f77b4;stroke:#1f77b4;" x="214.033001" xlink:href="#m8e334331e8" y="62.418182"/>
     <use style="fill:#1f77b4;stroke:#1f77b4;" x="217.507472" xlink:href="#m8e334331e8" y="134.486364"/>
     <use style="fill:#1f77b4;stroke:#1f77b4;" x="220.981943" xlink:href="#m8e334331e8" y="278.622727"/>
     <use style="fill:#1f77b4;stroke:#1f77b4;" x="224.456413" xlink:href="#m8e334331e8" y="120.759091"/>
     <use style="fill:#1f77b4;stroke:#1f77b4;" x="227.930884" xlink:href="#m8e334331e8" y="227.145455"/>
     <use style="fill:#1f77b4;stroke:#1f77b4;" x="231.405355" xlink:href="#m8e334331e8" y="230.577273"/>
     <use style="fill:#1f77b4;stroke:#1f77b4;" x="234.879826" xlink:href="#m8e334331e8" y="196.259091"/>
     <use style="fill:#1f77b4;stroke:#1f77b4;" x="238.354296" xlink:href="#m8e334331e8" y="237.440909"/>
     <use style="fill:#1f77b4;stroke:#1f77b4;" x="241.828767" xlink:href="#m8e334331e8" y="264.895455"/>
     <use style="fill:#1f77b4;stroke:#1f77b4;" x="245.303238" xlink:href="#m8e334331e8" y="240.872727"/>
     <use style="fill:#1f77b4;stroke:#1f77b4;" x="248.777709" xlink:href="#m8e334331e8" y="234.009091"/>
     <use style="fill:#1f77b4;stroke:#1f77b4;" x="252.252179" xlink:href="#m8e334331e8" y="261.463636"/>
     <use style="fill:#1f77b4;stroke:#1f77b4;" x="255.72665" xlink:href="#m8e334331e8" y="182.531818"/>
     <use style="fill:#1f77b4;stroke:#1f77b4;" x="259.201121" xlink:href="#m8e334331e8" y="244.304545"/>
     <use style="fill:#1f77b4;stroke:#1f77b4;" x="262.675592" xlink:href="#m8e334331e8" y="223.713636"/>
     <use style="fill:#1f77b4;stroke:#1f77b4;" x="266.150062" xlink:href="#m8e334331e8" y="244.304545"/>
     <use style="fill:#1f77b4;stroke:#1f77b4;" x="269.624533" xlink:href="#m8e334331e8" y="288.918182"/>
     <use style="fill:#1f77b4;stroke:#1f77b4;" x="273.099004" xlink:href="#m8e334331e8" y="295.781818"/>
     <use style="fill:#1f77b4;stroke:#1f77b4;" x="276.573474" xlink:href="#m8e334331e8" y="196.259091"/>
     <use style="fill:#1f77b4;stroke:#1f77b4;" x="280.047945" xlink:href="#m8e334331e8" y="199.690909"/>
     <use style="fill:#1f77b4;stroke:#1f77b4;" x="283.522416" xlink:href="#m8e334331e8" y="258.031818"/>
     <use style="fill:#1f77b4;stroke:#1f77b4;" x="286.996887" xlink:href="#m8e334331e8" y="209.986364"/>
     <use style="fill:#1f77b4;stroke:#1f77b4;" x="290.471357" xlink:href="#m8e334331e8" y="302.645455"/>
     <use style="fill:#1f77b4;stroke:#1f77b4;" x="293.945828" xlink:href="#m8e334331e8" y="168.804545"/>
     <use style="fill:#1f77b4;stroke:#1f77b4;" x="297.420299" xlink:href="#m8e334331e8" y="175.668182"/>
     <use style="fill:#1f77b4;stroke:#1f77b4;" x="300.89477" xlink:href="#m8e334331e8" y="285.486364"/>
     <use style="fill:#1f77b4;stroke:#1f77b4;" x="304.36924" xlink:href="#m8e334331e8" y="254.6"/>
     <use style="fill:#1f77b4;stroke:#1f77b4;" x="307.843711" xlink:href="#m8e334331e8" y="258.031818"/>
     <use style="fill:#1f77b4;stroke:#1f77b4;" x="311.318182" xlink:href="#m8e334331e8" y="227.145455"/>
    </g>
   </g>
   <g id="line2d_18">
    <path clip-path="url(#p1b05425ec0)" d="M 57.681818 241.709638 
L 61.156289 241.709638 
L 64.63076 241.709638 
L 68.10523 241.709638 
L 71.579701 241.709638 
L 75.054172 241.709638 
L 78.528643 241.709638 
L 82.003113 241.709638 
L 85.477584 241.709638 
L 88.952055 241.709638 
L 92.426526 241.709638 
L 95.900996 241.709638 
L 99.375467 241.709638 
L 102.849938 241.709638 
L 106.324408 241.709638 
L 109.798879 241.709638 
L 113.27335 241.709638 
L 116.747821 241.709638 
L 120.222291 241.709638 
L 123.696762 241.709638 
L 127.171233 241.709638 
L 130.645704 241.709638 
L 134.120174 241.709638 
L 137.594645 241.709638 
L 141.069116 241.709638 
L 144.543587 241.709638 
L 148.018057 241.709638 
L 151.492528 241.709638 
L 154.966999 241.709638 
L 158.441469 241.709638 
L 161.91594 241.709638 
L 165.390411 241.709638 
L 168.864882 241.709638 
L 172.339352 241.709638 
L 175.813823 241.709638 
L 179.288294 241.709638 
L 182.762765 241.709638 
L 186.237235 241.709638 
L 189.711706 241.709638 
L 193.186177 241.709128 
L 196.660648 241.695088 
L 200.135118 241.132464 
L 203.609589 239.317866 
L 207.08406 233.105612 
L 210.558531 224.742128 
L 214.033001 224.740769 
L 217.507472 224.740739 
L 220.981943 224.740439 
L 224.456413 224.740439 
L 227.930884 224.740439 
L 231.405355 224.740439 
L 234.879826 224.740439 
L 238.354296 224.740439 
L 241.828767 224.740439 
L 245.303238 224.740439 
L 248.777709 224.740439 
L 252.252179 224.740439 
L 255.72665 224.740439 
L 259.201121 224.740439 
L 262.675592 224.740439 
L 266.150062 224.740439 
L 269.624533 224.740439 
L 273.099004 224.740439 
L 276.573474 224.740439 
L 280.047945 224.740439 
L 283.522416 224.740439 
L 286.996887 224.740439 
L 290.471357 224.740439 
L 293.945828 224.740439 
L 297.420299 224.740439 
L 300.89477 224.740439 
L 304.36924 224.740439 
L 307.843711 224.740439 
L 311.318182 224.740439 
" style="fill:none;stroke:#000000;stroke-linecap:square;stroke-width:2;"/>
   </g>
   <g id="patch_3">
    <path d="M 45 315 
L 45 43.2 
" style="fill:none;stroke:#000000;stroke-linecap:square;stroke-linejoin:miter;stroke-width:0.8;"/>
   </g>
   <g id="patch_4">
    <path d="M 324 315 
L 324 43.2 
" style="fill:none;stroke:#000000;stroke-linecap:square;stroke-linejoin:miter;stroke-width:0.8;"/>
   </g>
   <g id="patch_5">
    <path d="M 45 315 
L 324 315 
" style="fill:none;stroke:#000000;stroke-linecap:square;stroke-linejoin:miter;stroke-width:0.8;"/>
   </g>
   <g id="patch_6">
    <path d="M 45 43.2 
L 324 43.2 
" style="fill:none;stroke:#000000;stroke-linecap:square;stroke-linejoin:miter;stroke-width:0.8;"/>
   </g>
   <g id="text_19">
    <!-- Model visualization -->
    <g transform="translate(88.835938 37.2)scale(0.2 -0.2)">
     <defs>
      <path d="M 45.40625 46.390625 
L 45.40625 75.984375 
L 54.390625 75.984375 
L 54.390625 0 
L 45.40625 0 
L 45.40625 8.203125 
Q 42.578125 3.328125 38.25 0.953125 
Q 33.9375 -1.421875 27.875 -1.421875 
Q 17.96875 -1.421875 11.734375 6.484375 
Q 5.515625 14.40625 5.515625 27.296875 
Q 5.515625 40.1875 11.734375 48.09375 
Q 17.96875 56 27.875 56 
Q 33.9375 56 38.25 53.625 
Q 42.578125 51.265625 45.40625 46.390625 
z
M 14.796875 27.296875 
Q 14.796875 17.390625 18.875 11.75 
Q 22.953125 6.109375 30.078125 6.109375 
Q 37.203125 6.109375 41.296875 11.75 
Q 45.40625 17.390625 45.40625 27.296875 
Q 45.40625 37.203125 41.296875 42.84375 
Q 37.203125 48.484375 30.078125 48.484375 
Q 22.953125 48.484375 18.875 42.84375 
Q 14.796875 37.203125 14.796875 27.296875 
z
" id="DejaVuSans-100"/>
      <path d="M 56.203125 29.59375 
L 56.203125 25.203125 
L 14.890625 25.203125 
Q 15.484375 15.921875 20.484375 11.0625 
Q 25.484375 6.203125 34.421875 6.203125 
Q 39.59375 6.203125 44.453125 7.46875 
Q 49.3125 8.734375 54.109375 11.28125 
L 54.109375 2.78125 
Q 49.265625 0.734375 44.1875 -0.34375 
Q 39.109375 -1.421875 33.890625 -1.421875 
Q 20.796875 -1.421875 13.15625 6.1875 
Q 5.515625 13.8125 5.515625 26.8125 
Q 5.515625 40.234375 12.765625 48.109375 
Q 20.015625 56 32.328125 56 
Q 43.359375 56 49.78125 48.890625 
Q 56.203125 41.796875 56.203125 29.59375 
z
M 47.21875 32.234375 
Q 47.125 39.59375 43.09375 43.984375 
Q 39.0625 48.390625 32.421875 48.390625 
Q 24.90625 48.390625 20.390625 44.140625 
Q 15.875 39.890625 15.1875 32.171875 
z
" id="DejaVuSans-101"/>
      <path d="M 9.421875 75.984375 
L 18.40625 75.984375 
L 18.40625 0 
L 9.421875 0 
z
" id="DejaVuSans-108"/>
      <path d="M 2.984375 54.6875 
L 12.5 54.6875 
L 29.59375 8.796875 
L 46.6875 54.6875 
L 56.203125 54.6875 
L 35.6875 0 
L 23.484375 0 
z
" id="DejaVuSans-118"/>
      <path d="M 9.421875 54.6875 
L 18.40625 54.6875 
L 18.40625 0 
L 9.421875 0 
z
M 9.421875 75.984375 
L 18.40625 75.984375 
L 18.40625 64.59375 
L 9.421875 64.59375 
z
" id="DejaVuSans-105"/>
      <path d="M 5.515625 54.6875 
L 48.1875 54.6875 
L 48.1875 46.484375 
L 14.40625 7.171875 
L 48.1875 7.171875 
L 48.1875 0 
L 4.296875 0 
L 4.296875 8.203125 
L 38.09375 47.515625 
L 5.515625 47.515625 
z
" id="DejaVuSans-122"/>
     </defs>
     <use xlink:href="#DejaVuSans-77"/>
     <use x="86.279297" xlink:href="#DejaVuSans-111"/>
     <use x="147.460938" xlink:href="#DejaVuSans-100"/>
     <use x="210.9375" xlink:href="#DejaVuSans-101"/>
     <use x="272.460938" xlink:href="#DejaVuSans-108"/>
     <use x="300.244141" xlink:href="#DejaVuSans-32"/>
     <use x="332.03125" xlink:href="#DejaVuSans-118"/>
     <use x="391.210938" xlink:href="#DejaVuSans-105"/>
     <use x="418.994141" xlink:href="#DejaVuSans-115"/>
     <use x="471.09375" xlink:href="#DejaVuSans-117"/>
     <use x="534.472656" xlink:href="#DejaVuSans-97"/>
     <use x="595.751953" xlink:href="#DejaVuSans-108"/>
     <use x="623.535156" xlink:href="#DejaVuSans-105"/>
     <use x="651.318359" xlink:href="#DejaVuSans-122"/>
     <use x="703.808594" xlink:href="#DejaVuSans-97"/>
     <use x="765.087891" xlink:href="#DejaVuSans-116"/>
     <use x="804.296875" xlink:href="#DejaVuSans-105"/>
     <use x="832.080078" xlink:href="#DejaVuSans-111"/>
     <use x="893.261719" xlink:href="#DejaVuSans-110"/>
    </g>
   </g>
   <g id="legend_1">
    <g id="patch_7">
     <path d="M 52 95.278125 
L 251.7 95.278125 
Q 253.7 95.278125 253.7 93.278125 
L 253.7 50.2 
Q 253.7 48.2 251.7 48.2 
L 52 48.2 
Q 50 48.2 50 50.2 
L 50 93.278125 
Q 50 95.278125 52 95.278125 
z
" style="fill:#ffffff;opacity:0.8;stroke:#cccccc;stroke-linejoin:miter;"/>
    </g>
    <g id="line2d_19"/>
    <g id="line2d_20">
     <g>
      <use style="fill:#1f77b4;stroke:#1f77b4;" x="64" xlink:href="#m8e334331e8" y="56.298437"/>
     </g>
    </g>
    <g id="text_20">
     <!-- Data -->
     <g transform="translate(82 59.798437)scale(0.1 -0.1)">
      <use xlink:href="#DejaVuSans-68"/>
      <use x="77.001953" xlink:href="#DejaVuSans-97"/>
      <use x="138.28125" xlink:href="#DejaVuSans-116"/>
      <use x="177.490234" xlink:href="#DejaVuSans-97"/>
     </g>
    </g>
    <g id="patch_8">
     <path d="M 54 74.478125 
L 74 74.478125 
L 74 67.478125 
L 54 67.478125 
z
" style="fill:#ff7f0e;opacity:0.35;stroke:#ff7f0e;stroke-linejoin:miter;"/>
    </g>
    <g id="text_21">
     <!-- Day that msg counts changed ($\tau$) -->
     <g transform="translate(82 74.478125)scale(0.1 -0.1)">
      <defs>
       <path d="M 54.890625 33.015625 
L 54.890625 0 
L 45.90625 0 
L 45.90625 32.71875 
Q 45.90625 40.484375 42.875 44.328125 
Q 39.84375 48.1875 33.796875 48.1875 
Q 26.515625 48.1875 22.3125 43.546875 
Q 18.109375 38.921875 18.109375 30.90625 
L 18.109375 0 
L 9.078125 0 
L 9.078125 75.984375 
L 18.109375 75.984375 
L 18.109375 46.1875 
Q 21.34375 51.125 25.703125 53.5625 
Q 30.078125 56 35.796875 56 
Q 45.21875 56 50.046875 50.171875 
Q 54.890625 44.34375 54.890625 33.015625 
z
" id="DejaVuSans-104"/>
       <path d="M 52 44.1875 
Q 55.375 50.25 60.0625 53.125 
Q 64.75 56 71.09375 56 
Q 79.640625 56 84.28125 50.015625 
Q 88.921875 44.046875 88.921875 33.015625 
L 88.921875 0 
L 79.890625 0 
L 79.890625 32.71875 
Q 79.890625 40.578125 77.09375 44.375 
Q 74.3125 48.1875 68.609375 48.1875 
Q 61.625 48.1875 57.5625 43.546875 
Q 53.515625 38.921875 53.515625 30.90625 
L 53.515625 0 
L 44.484375 0 
L 44.484375 32.71875 
Q 44.484375 40.625 41.703125 44.40625 
Q 38.921875 48.1875 33.109375 48.1875 
Q 26.21875 48.1875 22.15625 43.53125 
Q 18.109375 38.875 18.109375 30.90625 
L 18.109375 0 
L 9.078125 0 
L 9.078125 54.6875 
L 18.109375 54.6875 
L 18.109375 46.1875 
Q 21.1875 51.21875 25.484375 53.609375 
Q 29.78125 56 35.6875 56 
Q 41.65625 56 45.828125 52.96875 
Q 50 49.953125 52 44.1875 
z
" id="DejaVuSans-109"/>
       <path d="M 31 75.875 
Q 24.46875 64.65625 21.28125 53.65625 
Q 18.109375 42.671875 18.109375 31.390625 
Q 18.109375 20.125 21.3125 9.0625 
Q 24.515625 -2 31 -13.1875 
L 23.1875 -13.1875 
Q 15.875 -1.703125 12.234375 9.375 
Q 8.59375 20.453125 8.59375 31.390625 
Q 8.59375 42.28125 12.203125 53.3125 
Q 15.828125 64.359375 23.1875 75.875 
z
" id="DejaVuSans-40"/>
       <path d="M 32.859375 9.96875 
Q 34.1875 7.625 39.453125 7.625 
L 43.75 7.625 
L 42.28125 0 
L 36.921875 0 
Q 28.125 0 25 4.6875 
Q 21.921875 9.46875 23.96875 19.828125 
L 29 45.703125 
L 8.453125 45.703125 
L 10.203125 54.6875 
L 60.640625 54.6875 
L 58.890625 45.703125 
L 38.1875 45.703125 
L 33.015625 19.28125 
Q 31.640625 12.203125 32.859375 9.96875 
z
" id="DejaVuSans-Oblique-964"/>
       <path d="M 8.015625 75.875 
L 15.828125 75.875 
Q 23.140625 64.359375 26.78125 53.3125 
Q 30.421875 42.28125 30.421875 31.390625 
Q 30.421875 20.453125 26.78125 9.375 
Q 23.140625 -1.703125 15.828125 -13.1875 
L 8.015625 -13.1875 
Q 14.5 -2 17.703125 9.0625 
Q 20.90625 20.125 20.90625 31.390625 
Q 20.90625 42.671875 17.703125 53.65625 
Q 14.5 64.65625 8.015625 75.875 
z
" id="DejaVuSans-41"/>
      </defs>
      <use transform="translate(0 0.015625)" xlink:href="#DejaVuSans-68"/>
      <use transform="translate(77.001953 0.015625)" xlink:href="#DejaVuSans-97"/>
      <use transform="translate(138.28125 0.015625)" xlink:href="#DejaVuSans-121"/>
      <use transform="translate(197.460938 0.015625)" xlink:href="#DejaVuSans-32"/>
      <use transform="translate(229.248047 0.015625)" xlink:href="#DejaVuSans-116"/>
      <use transform="translate(268.457031 0.015625)" xlink:href="#DejaVuSans-104"/>
      <use transform="translate(331.835938 0.015625)" xlink:href="#DejaVuSans-97"/>
      <use transform="translate(393.115234 0.015625)" xlink:href="#DejaVuSans-116"/>
      <use transform="translate(432.324219 0.015625)" xlink:href="#DejaVuSans-32"/>
      <use transform="translate(464.111328 0.015625)" xlink:href="#DejaVuSans-109"/>
      <use transform="translate(561.523438 0.015625)" xlink:href="#DejaVuSans-115"/>
      <use transform="translate(613.623047 0.015625)" xlink:href="#DejaVuSans-103"/>
      <use transform="translate(677.099609 0.015625)" xlink:href="#DejaVuSans-32"/>
      <use transform="translate(708.886719 0.015625)" xlink:href="#DejaVuSans-99"/>
      <use transform="translate(763.867188 0.015625)" xlink:href="#DejaVuSans-111"/>
      <use transform="translate(825.048828 0.015625)" xlink:href="#DejaVuSans-117"/>
      <use transform="translate(888.427734 0.015625)" xlink:href="#DejaVuSans-110"/>
      <use transform="translate(951.806641 0.015625)" xlink:href="#DejaVuSans-116"/>
      <use transform="translate(991.015625 0.015625)" xlink:href="#DejaVuSans-115"/>
      <use transform="translate(1043.115234 0.015625)" xlink:href="#DejaVuSans-32"/>
      <use transform="translate(1074.902344 0.015625)" xlink:href="#DejaVuSans-99"/>
      <use transform="translate(1129.882812 0.015625)" xlink:href="#DejaVuSans-104"/>
      <use transform="translate(1193.261719 0.015625)" xlink:href="#DejaVuSans-97"/>
      <use transform="translate(1254.541016 0.015625)" xlink:href="#DejaVuSans-110"/>
      <use transform="translate(1317.919922 0.015625)" xlink:href="#DejaVuSans-103"/>
      <use transform="translate(1381.396484 0.015625)" xlink:href="#DejaVuSans-101"/>
      <use transform="translate(1442.919922 0.015625)" xlink:href="#DejaVuSans-100"/>
      <use transform="translate(1506.396484 0.015625)" xlink:href="#DejaVuSans-32"/>
      <use transform="translate(1538.183594 0.015625)" xlink:href="#DejaVuSans-40"/>
      <use transform="translate(1577.197266 0.015625)" xlink:href="#DejaVuSans-Oblique-964"/>
      <use transform="translate(1637.402344 0.015625)" xlink:href="#DejaVuSans-41"/>
     </g>
    </g>
    <g id="patch_9">
     <path d="M 54 89.178125 
L 74 89.178125 
L 74 82.178125 
L 54 82.178125 
z
" style="opacity:0.25;stroke:#000000;stroke-linejoin:miter;"/>
    </g>
    <g id="text_22">
     <!-- Avg. msg ($\lambda$) -->
     <g transform="translate(82 89.178125)scale(0.1 -0.1)">
      <defs>
       <path d="M 34.1875 63.1875 
L 20.796875 26.90625 
L 47.609375 26.90625 
z
M 28.609375 72.90625 
L 39.796875 72.90625 
L 67.578125 0 
L 57.328125 0 
L 50.6875 18.703125 
L 17.828125 18.703125 
L 11.1875 0 
L 0.78125 0 
z
" id="DejaVuSans-65"/>
       <path d="M 36.71875 67.4375 
L 48.828125 0 
L 39.3125 0 
L 31.84375 40.4375 
L 5.125 0 
L -4.390625 0 
L 29.734375 52.4375 
L 28.03125 62.109375 
Q 26.953125 68.265625 21.734375 68.265625 
L 17.046875 68.265625 
L 18.5 75.984375 
L 24.21875 75.875 
Q 35.203125 75.734375 36.71875 67.4375 
z
" id="DejaVuSans-Oblique-955"/>
      </defs>
      <use transform="translate(0 0.015625)" xlink:href="#DejaVuSans-65"/>
      <use transform="translate(68.408203 0.015625)" xlink:href="#DejaVuSans-118"/>
      <use transform="translate(127.587891 0.015625)" xlink:href="#DejaVuSans-103"/>
      <use transform="translate(191.064453 0.015625)" xlink:href="#DejaVuSans-46"/>
      <use transform="translate(222.851562 0.015625)" xlink:href="#DejaVuSans-32"/>
      <use transform="translate(254.638672 0.015625)" xlink:href="#DejaVuSans-109"/>
      <use transform="translate(352.050781 0.015625)" xlink:href="#DejaVuSans-115"/>
      <use transform="translate(404.150391 0.015625)" xlink:href="#DejaVuSans-103"/>
      <use transform="translate(467.626953 0.015625)" xlink:href="#DejaVuSans-32"/>
      <use transform="translate(499.414062 0.015625)" xlink:href="#DejaVuSans-40"/>
      <use transform="translate(538.427734 0.015625)" xlink:href="#DejaVuSans-Oblique-955"/>
      <use transform="translate(597.607422 0.015625)" xlink:href="#DejaVuSans-41"/>
     </g>
    </g>
   </g>
  </g>
 </g>
 <defs>
  <clipPath id="p1b05425ec0">
   <rect height="271.8" width="279" x="45" y="43.2"/>
  </clipPath>
 </defs>
</svg>
